<svg xmlns="http://www.w3.org/2000/svg" width="19" height="19" fill="none"><path fill="#596059" fill-rule="evenodd" d="M9.5 18c2.2543 0 4.4163-.8955 6.0104-2.4896C17.1045 13.9163 18 11.7543 18 9.5c0-2.25434-.8955-4.41635-2.4896-6.01041C13.9163 1.89553 11.7543 1 9.5 1c-2.25434 0-4.41635.89553-6.01041 2.48959C1.89553 5.08365 1 7.24566 1 9.5c0 2.2543.89553 4.4163 2.48959 6.0104C5.08365 17.1045 7.24566 18 9.5 18Zm0-13.89827a.77273.77273 0 0 1 .5464.22632.77277.77277 0 0 1 .2263.5464v3.85282h3.8528c.205 0 .4015.08141.5464.22633a.77243.77243 0 0 1 .2264.5464.77243.77243 0 0 1-.2264.5464.77263.77263 0 0 1-.5464.2263h-3.8528v3.8544a.7728.7728 0 0 1-.2263.5464.77275.77275 0 0 1-1.31913-.5464v-3.8544H4.87445a.77277.77277 0 0 1-.5464-.2263.77273.77273 0 0 1 .5464-1.31913h3.85282V4.87445A.77272.77272 0 0 1 9.5 4.10173Z" clip-rule="evenodd"/></svg>