<svg width="0" height="0" class="hidden">
  <symbol fill="none" xmlns="http://www.w3.org/2000/svg" viewBox="0 0 19 19" id="add-button-icon">
    <path fill-rule="evenodd" clip-rule="evenodd" d="M9.5 18C11.7543 18 13.9163 17.1045 15.5104 15.5104C17.1045 13.9163 18 11.7543 18 9.5C18 7.24566 17.1045 5.08365 15.5104 3.48959C13.9163 1.89553 11.7543 1 9.5 1C7.24566 1 5.08365 1.89553 3.48959 3.48959C1.89553 5.08365 1 7.24566 1 9.5C1 11.7543 1.89553 13.9163 3.48959 15.5104C5.08365 17.1045 7.24566 18 9.5 18ZM9.5 4.10173C9.70494 4.10173 9.90149 4.18314 10.0464 4.32805C10.1913 4.47297 10.2727 4.66951 10.2727 4.87445V8.72727H14.1255C14.3305 8.72727 14.527 8.80868 14.6719 8.9536C14.8169 9.09851 14.8983 9.29506 14.8983 9.5C14.8983 9.70494 14.8169 9.90149 14.6719 10.0464C14.527 10.1913 14.3305 10.2727 14.1255 10.2727H10.2727V14.1271C10.2727 14.332 10.1913 14.5286 10.0464 14.6735C9.90149 14.8184 9.70494 14.8998 9.5 14.8998C9.29506 14.8998 9.09851 14.8184 8.9536 14.6735C8.80868 14.5286 8.72727 14.332 8.72727 14.1271V10.2727H4.87445C4.66951 10.2727 4.47297 10.1913 4.32805 10.0464C4.18314 9.90149 4.10173 9.70494 4.10173 9.5C4.10173 9.29506 4.18314 9.09851 4.32805 8.9536C4.47297 8.80868 4.66951 8.72727 4.87445 8.72727H8.72727V4.87445C8.72727 4.66951 8.80868 4.47297 8.9536 4.32805C9.09851 4.18314 9.29506 4.10173 9.5 4.10173Z" fill="#596059"></path>
  </symbol>
</svg>