<svg width="16" height="16" viewBox="0 0 16 16" fill="none" xmlns="http://www.w3.org/2000/svg">
<path d="M5.36927 11.1828L2.61776 14.6666M5.36927 11.1828L8.12699 13.608C8.46013 13.9009 8.97082 13.8546 9.24578 13.5065C9.38985 13.3241 9.44433 13.0866 9.39417 12.8596L9.08526 11.4616C8.94904 10.8452 9.09701 10.2001 9.4883 9.7047L11.1049 7.6578C11.3679 7.3249 11.8562 7.28063 12.1747 7.56083C12.4932 7.84104 12.9816 7.79677 13.2445 7.46387L13.4128 7.25083C13.7416 6.83457 13.6871 6.23382 13.2889 5.88346L8.90626 2.02783C8.47716 1.65033 7.81922 1.70996 7.465 2.15846L7.36263 2.28808C7.0914 2.63149 7.13632 3.12711 7.46488 3.41616C7.79344 3.70521 7.83836 4.20082 7.56713 4.54424L5.99033 6.54069C5.56877 7.07445 4.91506 7.37132 4.23574 7.33751L3.18052 7.28498C2.91217 7.27163 2.65393 7.3889 2.48739 7.59975C2.21367 7.94632 2.25901 8.44649 2.59058 8.7382L5.36927 11.1828Z" stroke="#E6ECE5" stroke-width="1.33333" stroke-linecap="round" stroke-linejoin="round"/>
</svg>
