<svg width="25" height="25" viewBox="0 0 25 25" fill="none" xmlns="http://www.w3.org/2000/svg">
<path fill-rule="evenodd" clip-rule="evenodd" d="M8.19148 16.3043C12.0466 20.1594 15.6189 20.5815 16.6677 20.6206C17.935 20.6667 19.2284 19.632 19.7878 18.5722C18.8955 17.5255 17.7334 16.7133 16.4611 15.833C15.7101 16.583 14.7847 17.9766 13.5525 17.4773C12.8517 17.1956 11.1211 16.3985 9.60918 14.8856C8.09723 13.3726 7.30014 11.6431 7.0164 10.9432C6.5171 9.70901 7.91475 8.78158 8.66572 8.03062C7.78541 6.73724 6.98733 5.54512 5.94259 4.6979C4.86778 5.25937 3.82706 6.54273 3.87418 7.82709C3.91328 8.87583 4.33539 12.4482 8.19148 16.3043ZM16.5935 22.6248C15.1497 22.5717 11.058 22.0062 6.77276 17.722C2.48856 13.4368 1.92408 9.34606 1.86994 7.90128C1.78973 5.69952 3.47614 3.56093 5.42424 2.72574C5.65883 2.62444 5.91572 2.58588 6.16972 2.61382C6.42371 2.64177 6.66607 2.73527 6.87303 2.88516C8.48524 4.06123 9.59715 5.8429 10.5527 7.23855C10.7514 7.52876 10.8425 7.87933 10.8101 8.22958C10.7777 8.57984 10.6238 8.90775 10.3752 9.15657L9.01563 10.5171C9.33146 11.2139 9.97414 12.4151 11.0269 13.4678C12.0796 14.5206 13.2808 15.1633 13.9786 15.4791L15.3372 14.1195C15.5866 13.8699 15.916 13.7159 16.2675 13.6845C16.6191 13.6532 16.9705 13.7465 17.2602 13.9481C18.6839 14.9347 20.3563 16.0306 21.5755 17.5916C21.7375 17.8001 21.8406 18.0482 21.874 18.3102C21.9073 18.5721 21.8697 18.8381 21.765 19.0805C20.9258 21.0387 18.8022 22.706 16.5935 22.6248Z" fill="#E1F283"/>
</svg>
