<svg width="38" height="38" viewBox="0 0 38 38" fill="none" xmlns="http://www.w3.org/2000/svg">
<path d="M7.315 28.69C8.93 27.455 10.735 26.4816 12.73 25.7697C14.725 25.0578 16.815 24.7013 19 24.7C21.185 24.6987 23.275 25.0553 25.27 25.7697C27.265 26.4841 29.07 27.4575 30.685 28.69C31.7933 27.3917 32.6566 25.9192 33.2747 24.2725C33.8928 22.6258 34.2012 20.8683 34.2 19C34.2 14.7883 32.7199 11.2018 29.7597 8.2403C26.7995 5.27883 23.2129 3.79873 19 3.8C14.7871 3.80127 11.2005 5.282 8.2403 8.2422C5.2801 11.2024 3.8 14.7883 3.8 19C3.8 20.8683 4.10907 22.6258 4.7272 24.2725C5.34533 25.9192 6.20793 27.3917 7.315 28.69ZM19 20.9C17.1317 20.9 15.5559 20.2591 14.2728 18.9772C12.9897 17.6953 12.3487 16.1196 12.35 14.25C12.3513 12.3804 12.9928 10.8047 14.2747 9.5228C15.5566 8.24093 17.1317 7.6 19 7.6C20.8683 7.6 22.4441 8.24156 23.7272 9.5247C25.0103 10.8078 25.6513 12.3829 25.65 14.25C25.6487 16.1171 25.0078 17.6928 23.7272 18.9772C22.4466 20.2616 20.8709 20.9025 19 20.9ZM19 38C16.3717 38 13.9017 37.5009 11.59 36.5028C9.27833 35.5047 7.2675 34.1512 5.5575 32.4425C3.8475 30.7338 2.49407 28.7229 1.4972 26.41C0.500336 24.0971 0.00126907 21.6271 2.40506e-06 19C-0.00126426 16.3729 0.497802 13.9029 1.4972 11.59C2.4966 9.27707 3.85003 7.26623 5.5575 5.5575C7.26496 3.84877 9.2758 2.49533 11.59 1.4972C13.9042 0.499067 16.3742 0 19 0C21.6258 0 24.0958 0.499067 26.41 1.4972C28.7242 2.49533 30.735 3.84877 32.4425 5.5575C34.15 7.26623 35.504 9.27707 36.5047 11.59C37.5053 13.9029 38.0038 16.3729 38 19C37.9962 21.6271 37.4971 24.0971 36.5028 26.41C35.5084 28.7229 34.155 30.7338 32.4425 32.4425C30.73 34.1512 28.7191 35.5053 26.41 36.5047C24.1009 37.5041 21.6309 38.0025 19 38Z" fill="#BECDBB"/>
</svg>
