<svg width="42" height="41" viewBox="0 0 42 41" fill="none" xmlns="http://www.w3.org/2000/svg">
<path d="M20.5431 4.26367C19.8632 4.26367 19.2111 4.53377 18.7303 5.01454C18.2496 5.49531 17.9795 6.14738 17.9795 6.8273C17.9795 7.50722 18.2496 8.15929 18.7303 8.64006C19.2111 9.12083 19.8632 9.39093 20.5431 9.39093H29.0885C29.3152 9.39093 29.5325 9.48096 29.6928 9.64122C29.853 9.80148 29.9431 10.0188 29.9431 10.2455V30.7545C29.9431 30.9811 29.853 31.1985 29.6928 31.3587C29.5325 31.519 29.3152 31.609 29.0885 31.609H21.3976C20.7177 31.609 20.0656 31.8791 19.5849 32.3599C19.1041 32.8407 18.834 33.4927 18.834 34.1727C18.834 34.8526 19.1041 35.5046 19.5849 35.9854C20.0656 36.4662 20.7177 36.7363 21.3976 36.7363H29.0885C30.675 36.7363 32.1965 36.1061 33.3183 34.9843C34.4401 33.8625 35.0703 32.341 35.0703 30.7545V10.2455C35.0703 8.659 34.4401 7.1375 33.3183 6.0157C32.1965 4.8939 30.675 4.26367 29.0885 4.26367H20.5431ZM10.186 13.8516L5.35103 18.6884C4.87094 19.169 4.60128 19.8206 4.60128 20.5C4.60128 21.1793 4.87094 21.8309 5.35103 22.3116L10.1843 27.1483C10.6652 27.6293 11.3175 27.8994 11.9977 27.8994C12.6778 27.8994 13.3301 27.6293 13.811 27.1483C14.2919 26.6674 14.5621 26.0151 14.5621 25.335C14.5621 24.6549 14.2919 24.0026 13.811 23.5216L13.353 23.0636H20.5431C21.223 23.0636 21.8751 22.7935 22.3558 22.3127C22.8366 21.832 23.1067 21.1799 23.1067 20.5C23.1067 19.8201 22.8366 19.168 22.3558 18.6872C21.8751 18.2065 21.223 17.9364 20.5431 17.9364H13.353L13.811 17.4783C14.049 17.2402 14.2378 16.9575 14.3666 16.6464C14.4953 16.3353 14.5616 16.0019 14.5615 15.6652C14.5614 15.3285 14.495 14.9952 14.3661 14.6841C14.2372 14.3731 14.0483 14.0905 13.8101 13.8525C13.572 13.6145 13.2893 13.4257 12.9782 13.2969C12.6672 13.1681 12.3337 13.1019 11.9971 13.102C11.6604 13.1021 11.327 13.1685 11.016 13.2974C10.7049 13.4263 10.4223 13.6152 10.1843 13.8533L10.186 13.8516Z" fill="#E6ECE5"/>
</svg>
