<svg width="25" height="25" viewBox="0 0 25 25" fill="none" xmlns="http://www.w3.org/2000/svg">
<path d="M12.034 12.0418C11.3692 12.0418 10.7317 11.7777 10.2616 11.3076C9.79151 10.8375 9.52743 10.2 9.52743 9.53521C9.52743 8.87043 9.79151 8.23287 10.2616 7.7628C10.7317 7.29273 11.3692 7.02865 12.034 7.02865C12.6988 7.02865 13.3363 7.29273 13.8064 7.7628C14.2765 8.23287 14.5405 8.87043 14.5405 9.53521C14.5405 9.86437 14.4757 10.1903 14.3497 10.4944C14.2238 10.7985 14.0391 11.0749 13.8064 11.3076C13.5736 11.5404 13.2973 11.725 12.9932 11.851C12.6891 11.9769 12.3632 12.0418 12.034 12.0418ZM12.034 2.51685C10.1726 2.51685 8.38745 3.25628 7.07126 4.57248C5.75506 5.88867 5.01563 7.67382 5.01562 9.53521C5.01563 14.799 12.034 22.5693 12.034 22.5693C12.034 22.5693 19.0524 14.799 19.0524 9.53521C19.0524 7.67382 18.3129 5.88867 16.9967 4.57248C15.6805 3.25628 13.8954 2.51685 12.034 2.51685Z" fill="#E1F283"/>
</svg>
