<svg width="38" height="37" viewBox="0 0 38 37" fill="none" xmlns="http://www.w3.org/2000/svg">
<path d="M30.1058 10.5975V20.6143C28.5527 20.5531 27.8404 20.7689 26.5829 21.4071V26.2564H21.9399C21.413 27.3363 21.3004 28.0819 21.2986 29.7362H10.73V10.5975H30.1058ZM14.2529 14.0773V26.2564H21.9399H26.5829V21.4071V14.0773H14.2529ZM21.2986 1.72409V8.85762H17.7757V5.37783H5.44573V17.557H8.96863V21.0367H1.92283V1.72409H21.2986Z" fill="white"/>
<path d="M16.6536 12.6537C16.6536 14.7502 14.9329 16.4498 12.8104 16.4498C10.6879 16.4498 8.9673 14.7502 8.9673 12.6537C8.9673 10.5571 10.6879 8.85757 12.8104 8.85757C14.9329 8.85757 16.6536 10.5571 16.6536 12.6537Z" fill="white"/>
<path d="M32.0261 12.6537C32.0261 14.7502 30.3055 16.4498 28.183 16.4498C26.0605 16.4498 24.3398 14.7502 24.3398 12.6537C24.3398 10.5571 26.0605 8.85757 28.183 8.85757C30.3055 8.85757 32.0261 10.5571 32.0261 12.6537Z" fill="white"/>
<path d="M16.6536 27.8381C16.6536 29.9346 14.9329 31.6342 12.8104 31.6342C10.6879 31.6342 8.9673 29.9346 8.9673 27.8381C8.9673 25.7415 10.6879 24.042 12.8104 24.042C14.9329 24.042 16.6536 25.7415 16.6536 27.8381Z" fill="white"/>
<path d="M7.68626 18.9805C7.68626 21.077 5.96563 22.7766 3.84313 22.7766C1.72063 22.7766 0 21.077 0 18.9805C0 16.884 1.72063 15.1844 3.84313 15.1844C5.96563 15.1844 7.68626 16.884 7.68626 18.9805Z" fill="white"/>
<path d="M7.68626 3.7961C7.68626 5.89263 5.96563 7.5922 3.84313 7.5922C1.72063 7.5922 0 5.89263 0 3.7961C0 1.69957 1.72063 0 3.84313 0C5.96563 0 7.68626 1.69957 7.68626 3.7961Z" fill="white"/>
<path d="M23.0588 3.7961C23.0588 5.89263 21.3382 7.5922 19.2157 7.5922C17.0931 7.5922 15.3725 5.89263 15.3725 3.7961C15.3725 1.69957 17.0931 0 19.2157 0C21.3382 0 23.0588 1.69957 23.0588 3.7961Z" fill="white"/>
<path d="M30.2436 21.6714C25.9329 21.6714 22.4844 25.0777 22.4844 29.3357C22.4844 32.742 25.4932 36.9999 30.2436 36.9999C35.4164 36.9999 38.0028 33.1678 38.0028 29.3357C38.0028 25.0777 34.994 21.6714 30.2436 21.6714ZM29.3815 28.8071V25.5035H31.1057V28.8071H34.1232V30.3928H31.1057V33.8285H29.3815V30.3928H26.364V28.8071H29.3815Z" fill="white"/>
</svg>
