<svg width="35" height="35" viewBox="0 0 35 35" fill="none" xmlns="http://www.w3.org/2000/svg">
<path fill-rule="evenodd" clip-rule="evenodd" d="M10.8121 4.375C10.0386 4.37517 9.29685 4.68256 8.75 5.22958L5.22958 8.75C4.82999 9.14918 4.55489 9.6558 4.43771 10.2083H30.5623C30.4451 9.6558 30.17 9.14918 29.7704 8.75L26.25 5.22958C25.7031 4.68256 24.9614 4.37517 24.1879 4.375H10.8121ZM30.625 13.125H4.375V27.7083C4.375 28.4819 4.68229 29.2237 5.22927 29.7707C5.77625 30.3177 6.51812 30.625 7.29167 30.625H27.7083C28.4819 30.625 29.2237 30.3177 29.7707 29.7707C30.3177 29.2237 30.625 28.4819 30.625 27.7083V13.125ZM17.5 16.0417C17.8868 16.0417 18.2577 16.1953 18.5312 16.4688C18.8047 16.7423 18.9583 17.1132 18.9583 17.5V22.1462L19.5621 21.541C19.8357 21.2676 20.2068 21.114 20.5936 21.1142C20.9805 21.1143 21.3514 21.2681 21.6249 21.5418C21.8983 21.8154 22.0519 22.1865 22.0518 22.5733C22.0516 22.9602 21.8978 23.3311 21.6242 23.6046L18.5325 26.6977C18.3971 26.8333 18.2362 26.9409 18.0592 27.0143C17.8821 27.0876 17.6924 27.1254 17.5007 27.1254C17.3091 27.1254 17.1193 27.0876 16.9423 27.0143C16.7652 26.9409 16.6044 26.8333 16.469 26.6977L13.3758 23.6046C13.1022 23.3311 12.9484 22.9602 12.9482 22.5733C12.9481 22.1865 13.1017 21.8154 13.3751 21.5418C13.6486 21.2681 14.0195 21.1143 14.4064 21.1142C14.7932 21.114 15.1643 21.2676 15.4379 21.541L16.0417 22.1462V17.5C16.0417 17.1132 16.1953 16.7423 16.4688 16.4688C16.7423 16.1953 17.1132 16.0417 17.5 16.0417Z" fill="white"/>
</svg>
