<svg width="21" height="21" viewBox="0 0 21 21" fill="none" xmlns="http://www.w3.org/2000/svg">
<path fill-rule="evenodd" clip-rule="evenodd" d="M7.16712 13.8295C11.0121 17.6745 14.5751 18.0955 15.6211 18.1345C16.8851 18.1805 18.1751 17.1485 18.7331 16.0915C17.8431 15.0475 16.6841 14.2375 15.4151 13.3595C14.6661 14.1075 13.7431 15.4975 12.5141 14.9995C11.8151 14.7185 10.0891 13.9235 8.58112 12.4145C7.07312 10.9055 6.27812 9.18046 5.99512 8.48246C5.49712 7.25146 6.89112 6.32646 7.64012 5.57746C6.76212 4.28746 5.96612 3.09846 4.92412 2.25346C3.85212 2.81346 2.81412 4.09346 2.86112 5.37446C2.90012 6.42046 3.32112 9.98346 7.16712 13.8295ZM15.5471 20.1335C14.1071 20.0805 10.0261 19.5165 5.75212 15.2435C1.47912 10.9695 0.916117 6.88946 0.862117 5.44846C0.782117 3.25246 2.46412 1.11946 4.40712 0.28646C4.64109 0.185427 4.89732 0.14696 5.15065 0.174835C5.40398 0.20271 5.64571 0.295969 5.85212 0.44546C7.46012 1.61846 8.56912 3.39546 9.52212 4.78746C9.72037 5.07691 9.81119 5.42656 9.77887 5.77591C9.74654 6.12525 9.59311 6.4523 9.34512 6.70046L7.98912 8.05746C8.30412 8.75246 8.94512 9.95046 9.99512 11.0005C11.0451 12.0505 12.2431 12.6915 12.9391 13.0065L14.2941 11.6505C14.5429 11.4014 14.8714 11.2478 15.2221 11.2166C15.5727 11.1853 15.9232 11.2784 16.2121 11.4795C17.6321 12.4635 19.3001 13.5565 20.5161 15.1135C20.6778 15.3214 20.7806 15.5689 20.8138 15.8301C20.8471 16.0913 20.8095 16.3567 20.7051 16.5985C19.8681 18.5515 17.7501 20.2145 15.5471 20.1335Z" fill="#E6ECE5"/>
</svg>
