<svg width="25" height="24" viewBox="0 0 25 24" fill="none" xmlns="http://www.w3.org/2000/svg">
<path fill-rule="evenodd" clip-rule="evenodd" d="M16.412 1.12459C16.7343 -0.366839 18.8463 -0.378839 19.1823 1.11259L19.2252 1.3063C19.4177 2.18755 19.8664 2.99224 20.5148 3.61931C21.1633 4.24639 21.9825 4.66789 22.8697 4.83088C24.4074 5.10345 24.4074 7.32516 22.8697 7.59773C21.9822 7.76041 21.1626 8.18178 20.5138 8.80888C19.8651 9.43597 19.4161 10.2408 19.2234 11.1223L19.1806 11.316C18.8463 12.8074 16.7326 12.7954 16.4103 11.304L16.376 11.1377C16.192 10.2532 15.7485 9.44356 15.102 8.81237C14.4556 8.18118 13.6356 7.75709 12.7469 7.5943C11.2109 7.32173 11.2109 5.10345 12.7469 4.83088C13.6354 4.66863 14.4555 4.24518 15.1022 3.61463C15.7489 2.98408 16.193 2.17504 16.3777 1.29088L17.216 1.47088L16.376 1.29088L16.412 1.12459ZM10.7549 3.42859C8.83315 4.94402 9.03715 8.25259 11.3703 9.38573H2.16629V21.2143C2.16629 21.3848 2.23402 21.5483 2.35458 21.6689C2.47514 21.7894 2.63866 21.8572 2.80915 21.8572H19.5234C19.6939 21.8572 19.8574 21.7894 19.978 21.6689C20.0986 21.5483 20.1663 21.3848 20.1663 21.2143V14.1429C20.1663 13.8587 20.2792 13.5862 20.4801 13.3853C20.681 13.1843 20.9536 13.0714 21.2377 13.0714C21.5219 13.0714 21.7944 13.1843 21.9953 13.3853C22.1963 13.5862 22.3092 13.8587 22.3092 14.1429V21.2143C22.3092 22.7537 21.0629 24 19.5234 24H2.80915C2.44333 24 2.08108 23.928 1.74311 23.788C1.40513 23.648 1.09803 23.4428 0.839354 23.1841C0.580677 22.9254 0.375483 22.6183 0.235487 22.2804C0.0954921 21.9424 0.0234375 21.5801 0.0234375 21.2143L0.0234375 6.2143C0.0234375 5.47549 0.316932 4.76693 0.839354 4.24451C1.36178 3.72208 2.07033 3.42859 2.80915 3.42859H10.7549ZM5.28972 12.8897C5.38922 12.7902 5.50734 12.7113 5.63735 12.6574C5.76736 12.6035 5.90671 12.5758 6.04744 12.5758C6.18816 12.5758 6.32751 12.6035 6.45752 12.6574C6.58753 12.7113 6.70566 12.7902 6.80515 12.8897L9.37658 15.4612C9.4761 15.5607 9.55505 15.6788 9.60891 15.8088C9.66277 15.9388 9.6905 16.0782 9.6905 16.2189C9.6905 16.3596 9.66277 16.4989 9.60891 16.629C9.55505 16.759 9.4761 16.8771 9.37658 16.9766L6.80515 19.548C6.70565 19.6475 6.58752 19.7265 6.45751 19.7803C6.3275 19.8342 6.18816 19.8619 6.04744 19.8619C5.90672 19.8619 5.76737 19.8342 5.63737 19.7803C5.50736 19.7265 5.38923 19.6475 5.28972 19.548C5.19022 19.4485 5.11129 19.3304 5.05744 19.2004C5.00358 19.0704 4.97587 18.931 4.97587 18.7903C4.97587 18.6496 5.00358 18.5102 5.05744 18.3802C5.11129 18.2502 5.19022 18.1321 5.28972 18.0326L7.10344 16.2172L5.28972 14.4052C5.1902 14.3057 5.11126 14.1875 5.05739 14.0575C5.00353 13.9275 4.97581 13.7882 4.97581 13.6474C4.97581 13.5067 5.00353 13.3674 5.05739 13.2374C5.11126 13.1074 5.1902 12.9892 5.28972 12.8897ZM11.1903 17.7189C10.9061 17.7189 10.6336 17.8318 10.4327 18.0327C10.2317 18.2336 10.1189 18.5061 10.1189 18.7903C10.1189 19.0745 10.2317 19.347 10.4327 19.5479C10.6336 19.7489 10.9061 19.8617 11.1903 19.8617H13.7617C14.0459 19.8617 14.3184 19.7489 14.5193 19.5479C14.7203 19.347 14.8332 19.0745 14.8332 18.7903C14.8332 18.5061 14.7203 18.2336 14.5193 18.0327C14.3184 17.8318 14.0459 17.7189 13.7617 17.7189H11.1903Z" fill="#596059"/>
</svg>
