<svg width="30" height="30" viewBox="0 0 30 30" fill="none" xmlns="http://www.w3.org/2000/svg">
<g clip-path="url(#clip0_2092_6063)">
<path d="M15.085 8.37207C18.7282 8.37207 21.6259 11.2699 21.626 14.9131C21.626 18.5563 18.7282 21.4541 15.085 21.4541C11.4417 21.4541 8.54395 18.5563 8.54395 14.9131C8.54398 11.2699 11.4418 8.37211 15.085 8.37207ZM15.085 10.291C12.6348 10.2911 10.4629 12.463 10.4629 14.9131C10.4629 17.3632 12.6348 19.5351 15.085 19.5352C17.5351 19.5352 19.707 17.3633 19.707 14.9131C19.707 12.4629 17.5351 10.291 15.085 10.291Z" fill="url(#paint0_linear_2092_6063)" stroke="url(#paint1_linear_2092_6063)" stroke-width="0.348837"/>
<path d="M16.4219 1.49121C17.0876 1.49121 17.6489 1.9636 17.8369 2.52734L17.8379 2.5293L18.5625 4.78418L19.6602 5.22363L21.7559 4.0957L21.7607 4.09375C22.3243 3.81199 23.0724 3.90359 23.5449 4.37598L25.5449 6.37598C26.0174 6.8485 26.1099 7.59755 25.8281 8.16113L25.8252 8.16504L24.6973 10.2607L25.1357 11.3574L27.3916 12.083H27.3906C28.0493 12.2734 28.5127 12.9261 28.5127 13.583V16.416C28.5127 17.0819 28.0404 17.6431 27.4766 17.8311L27.4736 17.833L25.1357 18.5576L24.6973 19.6533L25.8252 21.75L25.8281 21.7549C26.1098 22.3184 26.0174 23.0666 25.5449 23.5391L23.5449 25.5391C23.0725 26.0115 22.3243 26.1039 21.7607 25.8223L21.7559 25.8193L19.6592 24.6914L18.5635 25.1299L17.8389 27.4678L17.8369 27.4707C17.649 28.0346 17.0878 28.5068 16.4219 28.5068H13.5889C12.923 28.5068 12.3608 28.0346 12.1729 27.4707L12.1719 27.4678L11.4463 25.1299L10.3496 24.6914L8.25488 25.8193L8.25 25.8223C7.68642 26.1041 6.93737 26.0116 6.46484 25.5391L4.46484 23.5391C3.99264 23.0666 3.90097 22.3183 4.18262 21.7549L4.18457 21.75L5.3125 19.6533L4.87402 18.5566L2.62402 17.834L2.50488 17.7949C1.91785 17.5782 1.49707 17.0452 1.49707 16.416V13.583C1.49707 12.9172 1.96938 12.355 2.5332 12.167H2.53516L4.78711 11.4424C4.85945 11.2575 4.93428 11.0587 5.00781 10.8564C5.08119 10.6547 5.15588 10.4503 5.23047 10.2598L4.18359 8.24609L4.18262 8.24414C3.90083 7.68056 3.99232 6.93151 4.46484 6.45898L6.46484 4.45898C6.90791 4.01592 7.59419 3.90743 8.14258 4.12793L8.25 4.17676L8.25488 4.17871L10.335 5.29883C10.7105 5.0837 11.0935 4.93264 11.5371 4.84668L12.252 2.62207C12.3561 1.95995 12.9282 1.49121 13.5889 1.49121H16.4219ZM13.0879 6.30176L13.0635 6.38086L12.9863 6.41113L12.5703 6.57812L12.5586 6.58203L12.5479 6.58496C11.899 6.74716 11.3303 6.99082 10.7588 7.31738L10.3447 7.56543L10.2578 7.61816L10.1699 7.56836L7.61719 6.13281L6.13477 7.61523L7.49316 10.2529L7.53809 10.3389L7.48828 10.4229L7.23926 10.835C6.9126 11.4066 6.67004 11.9761 6.50781 12.625L6.50488 12.6367L6.5 12.6475L6.33398 13.0645L6.30273 13.1426L6.2207 13.167L3.5127 13.9629V16.0361L6.38965 16.916L6.48926 16.9463L6.50977 17.0488L6.58984 17.4512L6.72656 17.8779C6.87868 18.3039 7.07685 18.731 7.32129 19.1592L7.57129 19.5762L7.62305 19.6621L7.5752 19.75L6.13672 22.3848L7.61914 23.8662L10.2549 22.4297L10.3428 22.3818L10.4287 22.4336L10.833 22.6768L12.5576 23.415L12.9561 23.4951L13.0586 23.5156L13.0889 23.6152L13.9668 26.4912H16.043L16.9219 23.6152L16.9521 23.5156L17.0547 23.4951L17.458 23.4141C18.025 23.252 18.5942 23.0095 19.165 22.6836L19.582 22.4336L19.668 22.3818L19.7559 22.4297L22.3906 23.8662L23.8721 22.3848L22.4355 19.75L22.3877 19.6621L22.4395 19.5762L22.6836 19.168L23.4209 17.4473L23.501 17.0488L23.5215 16.9463L23.6211 16.916L26.4971 16.0361V13.9609L23.6211 13.083L23.5215 13.0527L23.501 12.9502L23.4209 12.5469L23.2832 12.1201C23.1307 11.6933 22.9327 11.265 22.6875 10.8359V10.835L22.4395 10.4229L22.3877 10.3369L22.4355 10.249L23.8721 7.61328L22.3906 6.13086L19.7559 7.56934L19.668 7.61719L19.582 7.56543L19.165 7.31543V7.31445C18.5939 6.9885 18.0242 6.74603 17.457 6.58398L17.4482 6.58105L17.4404 6.57812L17.0234 6.41113L16.9473 6.38086L16.9219 6.30176L16.0439 3.50684H13.9668L13.0879 6.30176Z" fill="url(#paint2_linear_2092_6063)" stroke="url(#paint3_linear_2092_6063)" stroke-width="0.348837"/>
<path d="M15.0078 13.1152V15.2091H17.1017" stroke="url(#paint4_linear_2092_6063)" stroke-width="1.39535" stroke-linecap="square"/>
</g>
<defs>
<linearGradient id="paint0_linear_2092_6063" x1="7.5" y1="4.5" x2="18" y2="20.5" gradientUnits="userSpaceOnUse">
<stop stop-color="#D6E583"/>
<stop offset="1" stop-color="#22BB77"/>
</linearGradient>
<linearGradient id="paint1_linear_2092_6063" x1="16.5676" y1="21.2794" x2="9.76526" y2="2.96548" gradientUnits="userSpaceOnUse">
<stop stop-color="#22BB77"/>
<stop offset="1" stop-color="#D6E583"/>
</linearGradient>
<linearGradient id="paint2_linear_2092_6063" x1="-3.5" y1="-15" x2="15.0052" y2="28.3327" gradientUnits="userSpaceOnUse">
<stop stop-color="#D6E583"/>
<stop offset="1" stop-color="#22BB77"/>
</linearGradient>
<linearGradient id="paint3_linear_2092_6063" x1="-6" y1="-13.5" x2="15.0052" y2="28.3327" gradientUnits="userSpaceOnUse">
<stop stop-color="#D6E583"/>
<stop offset="1" stop-color="#22BB77"/>
</linearGradient>
<linearGradient id="paint4_linear_2092_6063" x1="13.5" y1="11.5" x2="16.0548" y2="15.2091" gradientUnits="userSpaceOnUse">
<stop stop-color="#D6E583"/>
<stop offset="1" stop-color="#22BB77"/>
</linearGradient>
<clipPath id="clip0_2092_6063">
<rect width="30" height="30" fill="white"/>
</clipPath>
</defs>
</svg>
