<svg width="41" height="40" viewBox="0 0 41 40" fill="none" xmlns="http://www.w3.org/2000/svg">
<path d="M9.63184 28.3372L8.44798 29.521C8.13743 29.8334 7.96311 30.256 7.96311 30.6965C7.96311 31.1371 8.13743 31.5597 8.44798 31.8721C8.76039 32.1826 9.183 32.3569 9.6235 32.3569C10.064 32.3569 10.4866 32.1826 10.799 31.8721L11.9829 30.6882C12.256 30.3692 12.3988 29.9589 12.3826 29.5393C12.3664 29.1196 12.1924 28.7216 11.8954 28.4246C11.5985 28.1277 11.2004 27.9537 10.7808 27.9375C10.3611 27.9213 9.95081 28.064 9.63184 28.3372ZM8.5647 20.0002C8.5647 19.558 8.38903 19.1338 8.07633 18.8211C7.76363 18.5084 7.33952 18.3328 6.8973 18.3328H5.2299C4.78768 18.3328 4.36357 18.5084 4.05087 18.8211C3.73817 19.1338 3.5625 19.558 3.5625 20.0002C3.5625 20.4424 3.73817 20.8665 4.05087 21.1792C4.36357 21.4919 4.78768 21.6676 5.2299 21.6676H6.8973C7.33952 21.6676 7.76363 21.4919 8.07633 21.1792C8.38903 20.8665 8.5647 20.4424 8.5647 20.0002ZM20.2365 8.32837C20.6787 8.32837 21.1028 8.1527 21.4155 7.84C21.7282 7.5273 21.9039 7.10319 21.9039 6.66097V4.99357C21.9039 4.55135 21.7282 4.12724 21.4155 3.81454C21.1028 3.50184 20.6787 3.32617 20.2365 3.32617C19.7943 3.32617 19.3702 3.50184 19.0575 3.81454C18.7448 4.12724 18.5691 4.55135 18.5691 4.99357V6.66097C18.5691 7.10319 18.7448 7.5273 19.0575 7.84C19.3702 8.1527 19.7943 8.32837 20.2365 8.32837ZM9.63184 11.7465C9.94241 12.0546 10.3616 12.2282 10.799 12.2301C11.0185 12.2314 11.236 12.1893 11.4391 12.1063C11.6423 12.0233 11.8271 11.9011 11.9829 11.7465C12.2934 11.4341 12.4677 11.0115 12.4677 10.571C12.4677 10.1305 12.2934 9.70792 11.9829 9.39551L10.799 8.21165C10.48 7.93849 10.0697 7.79575 9.65009 7.81196C9.23044 7.82817 8.83237 8.00213 8.53542 8.29909C8.23846 8.59604 8.0645 8.99412 8.04829 9.41376C8.03208 9.83341 8.17482 10.2437 8.44798 10.5627L9.63184 11.7465ZM29.6406 12.2301C30.0781 12.2282 30.4972 12.0546 30.8078 11.7465L31.9917 10.5627C32.1662 10.4132 32.308 10.2293 32.4081 10.0224C32.5081 9.81554 32.5644 9.59021 32.5733 9.36058C32.5821 9.13095 32.5434 8.90196 32.4596 8.68799C32.3758 8.47402 32.2486 8.27969 32.0861 8.1172C31.9236 7.9547 31.7293 7.82755 31.5153 7.74372C31.3014 7.65989 31.0724 7.6212 30.8427 7.63007C30.6131 7.63894 30.3878 7.69518 30.1809 7.79526C29.9741 7.89534 29.7901 8.03711 29.6406 8.21165L28.5735 9.39551C28.2629 9.70792 28.0886 10.1305 28.0886 10.571C28.0886 11.0115 28.2629 11.4341 28.5735 11.7465C28.8675 12.0389 29.2598 12.2113 29.674 12.2301H29.6406ZM35.2431 18.3328H33.5757C33.1335 18.3328 32.7094 18.5084 32.3967 18.8211C32.084 19.1338 31.9083 19.558 31.9083 20.0002C31.9083 20.4424 32.084 20.8665 32.3967 21.1792C32.7094 21.4919 33.1335 21.6676 33.5757 21.6676H35.2431C35.6853 21.6676 36.1094 21.4919 36.4221 21.1792C36.7348 20.8665 36.9105 20.4424 36.9105 20.0002C36.9105 19.558 36.7348 19.1338 36.4221 18.8211C36.1094 18.5084 35.6853 18.3328 35.2431 18.3328ZM20.2365 31.672C19.7943 31.672 19.3702 31.8476 19.0575 32.1603C18.7448 32.473 18.5691 32.8972 18.5691 33.3394V35.0068C18.5691 35.449 18.7448 35.8731 19.0575 36.1858C19.3702 36.4985 19.7943 36.6742 20.2365 36.6742C20.6787 36.6742 21.1028 36.4985 21.4155 36.1858C21.7282 35.8731 21.9039 35.449 21.9039 35.0068V33.3394C21.9039 32.8972 21.7282 32.473 21.4155 32.1603C21.1028 31.8476 20.6787 31.672 20.2365 31.672ZM30.8412 28.3372C30.5244 28.161 30.1588 28.0928 29.7998 28.143C29.4408 28.1932 29.1079 28.359 28.8516 28.6153C28.5953 28.8716 28.4295 29.2045 28.3793 29.5635C28.3291 29.9225 28.3973 30.2881 28.5735 30.6048L29.7574 31.7887C30.0698 32.0992 30.4924 32.2736 30.9329 32.2736C31.3734 32.2736 31.796 32.0992 32.1084 31.7887C32.4189 31.4763 32.5933 31.0537 32.5933 30.6132C32.5933 30.1727 32.4189 29.7501 32.1084 29.4377L30.8412 28.3372ZM20.2365 10.8295C18.4227 10.8295 16.6496 11.3673 15.1415 12.375C13.6334 13.3827 12.458 14.815 11.7639 16.4907C11.0698 18.1664 10.8882 20.0103 11.242 21.7893C11.5959 23.5682 12.4693 25.2023 13.7518 26.4848C15.0344 27.7674 16.6684 28.6408 18.4474 28.9947C20.2263 29.3485 22.0703 29.1669 23.746 28.4728C25.4217 27.7787 26.854 26.6033 27.8617 25.0951C28.8693 23.587 29.4072 21.814 29.4072 20.0002C29.4028 17.5693 28.4352 15.2393 26.7163 13.5204C24.9974 11.8015 22.6674 10.8339 20.2365 10.8295ZM20.2365 25.8361C19.0823 25.8361 17.954 25.4938 16.9942 24.8525C16.0345 24.2113 15.2865 23.2998 14.8448 22.2335C14.4031 21.1671 14.2876 19.9937 14.5127 18.8616C14.7379 17.7296 15.2937 16.6897 16.1099 15.8736C16.9261 15.0574 17.9659 14.5016 19.098 14.2764C20.23 14.0512 21.4034 14.1668 22.4698 14.6085C23.5362 15.0502 24.4476 15.7982 25.0889 16.7579C25.7301 17.7176 26.0724 18.8459 26.0724 20.0002C26.0724 21.548 25.4576 23.0323 24.3631 24.1268C23.2687 25.2212 21.7843 25.8361 20.2365 25.8361Z" fill="#D9E785"/>
</svg>
