<svg width="26" height="26" viewBox="0 0 26 26" fill="none" xmlns="http://www.w3.org/2000/svg">
<path d="M23.5169 10.0808V15.5125C23.5275 15.917 23.4248 16.3172 23.2204 16.6667C22.9977 17.0171 22.6826 17.2992 22.3098 17.4819C22.0139 17.6294 21.6875 17.7056 21.3569 17.7043H21.0922C20.7049 17.6497 20.3394 17.4925 20.0334 17.249L17.3545 15.1314V16.0949C17.3545 17.3136 16.8704 18.4825 16.0086 19.3443C15.1468 20.206 13.978 20.6902 12.7592 20.6902H6.50159C5.28328 20.6874 4.11524 20.2042 3.251 19.3455C2.82247 18.9199 2.48289 18.4134 2.25203 17.8553C2.02117 17.2972 1.90364 16.6988 1.90629 16.0949V9.56195C1.90517 8.9587 2.02394 8.36125 2.25571 7.8043C2.72373 6.67621 3.61785 5.77828 4.74394 5.30547C5.30089 5.07371 5.89834 4.95494 6.50159 4.95606H12.6322C13.2387 4.95632 13.8394 5.07501 14.4004 5.30547C15.5265 5.77828 16.4206 6.67621 16.8886 7.8043C17.1216 8.36442 17.2381 8.96583 17.2275 9.57253V10.5255L19.9063 8.40783C20.1501 8.21629 20.4314 8.07811 20.7319 8.00224C21.0325 7.92638 21.3457 7.91451 21.6512 7.96742C21.9566 8.02033 22.2476 8.13682 22.5051 8.30937C22.7627 8.48191 22.9811 8.70664 23.1463 8.969C23.3655 9.30042 23.4936 9.68371 23.5169 10.0808Z" fill="#596059"/>
</svg>
