<svg width="26" height="27" viewBox="0 0 26 27" fill="none" xmlns="http://www.w3.org/2000/svg">
<path d="M3.17545 19.823C2.99503 19.8229 2.81763 19.7767 2.66009 19.6888C2.50254 19.6009 2.37007 19.4742 2.27524 19.3207C2.18041 19.1672 2.12638 18.9921 2.11826 18.8118C2.11014 18.6316 2.14821 18.4523 2.22886 18.2909L4.23427 14.278V11.3524C4.23427 9.10588 5.1267 6.95136 6.71525 5.36281C8.30379 3.77427 10.4583 2.88184 12.7049 2.88184C14.9514 2.88184 17.1059 3.77427 18.6945 5.36281C20.283 6.95136 21.1754 9.10588 21.1754 11.3524V14.279L23.1809 18.2909C23.2615 18.4523 23.2996 18.6316 23.2915 18.8118C23.2833 18.9921 23.2293 19.1672 23.1345 19.3207C23.0396 19.4742 22.9072 19.6009 22.7496 19.6888C22.5921 19.7767 22.4147 19.8229 22.2343 19.823H3.17545ZM12.7049 24.0583C11.7657 24.0585 10.8532 23.7466 10.1106 23.1716C9.36811 22.5966 8.83776 21.7911 8.60298 20.8818H16.8067C16.572 21.7911 16.0416 22.5966 15.2991 23.1716C14.5566 23.7466 13.644 24.0585 12.7049 24.0583Z" fill="#596059"/>
</svg>
