<svg width="85" height="85" viewBox="0 0 85 85" fill="none" xmlns="http://www.w3.org/2000/svg">
<path d="M21.2448 7.08228C17.4876 7.08228 13.8842 8.57483 11.2274 11.2316C8.57068 13.8884 7.07813 17.4917 7.07812 21.2489V49.5823C7.07813 53.3395 8.57068 56.9429 11.2274 59.5996C13.8842 62.2564 17.4876 63.749 21.2448 63.749H49.5781C53.3354 63.749 56.9387 62.2564 59.5955 59.5996C62.2522 56.9429 63.7448 53.3395 63.7448 49.5823V21.2489C63.7448 17.4917 62.2522 13.8884 59.5955 11.2316C56.9387 8.57483 53.3354 7.08228 49.5781 7.08228H21.2448ZM14.1615 21.2489C14.1615 19.3703 14.9077 17.5687 16.2361 16.2403C17.5645 14.9119 19.3662 14.1656 21.2448 14.1656H49.5781C51.4567 14.1656 53.2584 14.9119 54.5868 16.2403C55.9152 17.5687 56.6615 19.3703 56.6615 21.2489V49.5823C56.6615 51.4609 55.9152 53.2626 54.5868 54.591C53.2584 55.9193 51.4567 56.6656 49.5781 56.6656H21.2448C19.3662 56.6656 17.5645 55.9193 16.2361 54.591C14.9077 53.2626 14.1615 51.4609 14.1615 49.5823V21.2489ZM23.1431 70.8323C24.3865 72.9858 26.1748 74.7742 28.3283 76.0176C30.4819 77.2609 32.9248 77.9156 35.4115 77.9156H49.5781C57.0926 77.9156 64.2993 74.9305 69.6128 69.617C74.9264 64.3034 77.9115 57.0968 77.9115 49.5823V35.4156C77.9114 32.9289 77.2568 30.486 76.0134 28.3325C74.77 26.1789 72.9817 24.3906 70.8281 23.1473V49.5823C70.8281 55.2181 68.5893 60.6232 64.6042 64.6083C60.619 68.5935 55.214 70.8323 49.5781 70.8323H23.1431ZM42.4948 24.7906C42.4948 26.6692 41.7485 28.4709 40.4201 29.7993C39.0918 31.1277 37.2901 31.8739 35.4115 31.8739C33.5328 31.8739 31.7312 31.1277 30.4028 29.7993C29.0744 28.4709 28.3281 26.6692 28.3281 24.7906C28.3281 22.912 29.0744 21.1103 30.4028 19.7819C31.7312 18.4536 33.5328 17.7073 35.4115 17.7073C37.2901 17.7073 39.0918 18.4536 40.4201 19.7819C41.7485 21.1103 42.4948 22.912 42.4948 24.7906ZM49.5781 40.7281C49.5781 46.0406 46.0365 51.3531 35.4115 51.3531C24.7865 51.3531 21.2448 46.0406 21.2448 40.7281C21.2448 39.3192 21.8045 37.9679 22.8008 36.9716C23.7971 35.9753 25.1483 35.4156 26.5573 35.4156H44.2656C45.6746 35.4156 47.0258 35.9753 48.0221 36.9716C49.0184 37.9679 49.5781 39.3192 49.5781 40.7281Z" fill="#E6ECE5"/>
</svg>
