<svg width="204" height="56" viewBox="0 0 204 56" fill="none" xmlns="http://www.w3.org/2000/svg">
<path d="M75.8501 31.8888C75.8501 31.0323 75.4647 30.3472 74.6939 29.8334C73.9018 29.3409 72.5422 28.8485 70.6153 28.356C68.6669 27.8636 67.3288 27.4782 66.6008 27.1999C63.5177 26.0651 61.9762 24.2024 61.9762 21.6118C61.9762 20.1773 62.4793 18.9676 63.4856 17.9827C64.5133 16.9764 65.7765 16.227 67.2752 15.7346C68.3672 15.4134 69.534 15.2529 70.7758 15.2529C74.437 15.2529 77.3381 16.3234 79.4792 18.4644L77.3595 21.2264C75.4968 19.6634 73.2701 18.8819 70.6795 18.8819C70.2085 18.8819 69.7267 18.9248 69.2343 19.0104C68.7633 19.0746 68.2601 19.1924 67.7249 19.3637C67.211 19.535 66.7935 19.8133 66.4723 20.1987C66.1512 20.5627 65.9906 21.0016 65.9906 21.5154C65.9906 22.3718 66.5259 23.057 67.5964 23.5708C68.1317 23.8706 69.3735 24.2667 71.3218 24.7591C73.2701 25.2515 74.5976 25.6369 75.3041 25.9153C76.76 26.4933 77.8841 27.232 78.6763 28.1312C79.4685 29.0091 79.8646 30.1652 79.8646 31.5997C79.8646 33.0128 79.4042 34.2439 78.4836 35.293C77.5843 36.3421 76.4924 37.1022 75.2078 37.5732C73.9232 38.0228 72.5957 38.2476 71.2255 38.2476C69.4698 38.2476 67.6392 37.8837 65.7337 37.1557C63.8496 36.4064 62.383 35.4001 61.3338 34.1368L63.6462 31.407C64.6525 32.4561 65.8514 33.259 67.2431 33.8157C68.6348 34.351 70.08 34.6186 71.5787 34.6186C72.6492 34.6186 73.6234 34.4045 74.5012 33.9763C75.4005 33.5481 75.8501 32.8522 75.8501 31.8888ZM98.5834 15.5098H103.24L94.1515 28.2597V37.9907H90.2655V28.2597L81.241 15.5098H86.0584L92.2567 24.4701L98.5834 15.5098ZM118.941 31.8888C118.941 31.0323 118.556 30.3472 117.785 29.8334C116.993 29.3409 115.634 28.8485 113.707 28.356C111.758 27.8636 110.42 27.4782 109.692 27.1999C106.609 26.0651 105.068 24.2024 105.068 21.6118C105.068 20.1773 105.571 18.9676 106.577 17.9827C107.605 16.9764 108.868 16.227 110.367 15.7346C111.459 15.4134 112.625 15.2529 113.867 15.2529C117.528 15.2529 120.429 16.3234 122.571 18.4644L120.451 21.2264C118.588 19.6634 116.362 18.8819 113.771 18.8819C113.3 18.8819 112.818 18.9248 112.326 19.0104C111.855 19.0746 111.351 19.1924 110.816 19.3637C110.302 19.535 109.885 19.8133 109.564 20.1987C109.243 20.5627 109.082 21.0016 109.082 21.5154C109.082 22.3718 109.617 23.057 110.688 23.5708C111.223 23.8706 112.465 24.2667 114.413 24.7591C116.362 25.2515 117.689 25.6369 118.396 25.9153C119.851 26.4933 120.975 27.232 121.768 28.1312C122.56 29.0091 122.956 30.1652 122.956 31.5997C122.956 33.0128 122.496 34.2439 121.575 35.293C120.676 36.3421 119.584 37.1022 118.299 37.5732C117.015 38.0228 115.687 38.2476 114.317 38.2476C112.561 38.2476 110.731 37.8837 108.825 37.1557C106.941 36.4064 105.474 35.4001 104.425 34.1368L106.738 31.407C107.744 32.4561 108.943 33.259 110.334 33.8157C111.726 34.351 113.171 34.6186 114.67 34.6186C115.741 34.6186 116.715 34.4045 117.593 33.9763C118.492 33.5481 118.941 32.8522 118.941 31.8888ZM132.136 19.171H124.589V15.5098H143.57V19.171H136.022V37.9907H132.136V19.171ZM163.506 37.9907H146.485V15.5098H163.185V19.171H150.371V24.8233H162.35V28.356H150.371V34.3295H163.506V37.9907ZM171.713 37.9907H167.827V15.5098H171.263L179.292 25.9474L187.032 15.5098H190.436V37.9907H186.55V22.4147L179.709 31.3428H178.714L171.713 22.3825V37.9907Z" fill="url(#paint0_linear_2123_3142)"/>
<path d="M28.951 8.10261C29.0753 8.00648 29.1866 7.89448 29.2819 7.76947H35.0489L35.1277 7.76722C35.5363 7.74491 35.9459 7.74491 36.3545 7.76722H36.44C37.7217 7.76301 38.9879 8.04687 40.1452 8.59783C42.2599 9.42806 44.0892 10.8524 45.4125 12.6991C46.4148 14.0973 47.0967 15.6992 47.4095 17.3908C47.7223 19.0825 47.6584 20.8223 47.2223 22.4864L39.8368 15.2C39.5207 14.8882 39.0945 14.7136 38.6505 14.7138H27.902C27.5571 14.7278 27.2248 14.8472 26.9499 15.0559L22.709 18.2703C22.2485 18.6202 21.668 18.7731 21.0949 18.6954C20.5218 18.6178 20.0029 18.3159 19.6521 17.8562C19.4791 17.6321 19.3522 17.3758 19.279 17.1023C19.2057 16.8288 19.1875 16.5434 19.2254 16.2628C19.2633 15.9822 19.3566 15.7119 19.4998 15.4677C19.643 15.2234 19.8332 15.01 20.0596 14.8398L28.951 8.10261ZM17.8401 33.0301L17.8086 33.0593L15.6161 35.2383L15.5868 35.2653C15.2029 35.6304 14.6919 35.8317 14.1621 35.8267C13.6323 35.8217 13.1253 35.6106 12.7484 35.2383C12.5595 35.0519 12.4095 34.8299 12.3072 34.5851C12.2048 34.3403 12.1521 34.0776 12.1521 33.8123C12.1521 33.547 12.2048 33.2843 12.3072 33.0395C12.4095 32.7947 12.5595 32.5727 12.7484 32.3863L14.9408 30.2073C15.3227 29.8292 15.8384 29.617 16.3758 29.617C16.9132 29.617 17.429 29.8292 17.8108 30.2073C18.1873 30.5787 18.4016 31.0839 18.4071 31.6127C18.4125 32.1415 18.2087 32.651 17.8401 33.0301ZM17.1851 36.8523C16.8164 37.2314 16.6126 37.7409 16.6181 38.2697C16.6236 38.7984 16.8379 39.3036 17.2143 39.675C18.0067 40.4629 19.292 40.4629 20.0843 39.675L22.2768 37.496C22.4893 37.2853 22.652 37.0297 22.7531 36.7479C22.8541 36.4662 22.8908 36.1654 22.8606 35.8676C22.8304 35.5699 22.734 35.2826 22.5785 35.0269C22.4229 34.7712 22.2122 34.5535 21.9617 34.3897C21.5771 34.1366 21.1182 34.0211 20.6596 34.062C20.2011 34.1029 19.7698 34.2977 19.436 34.6148L19.4068 34.6463L17.2143 36.823L17.1851 36.8523ZM12.44 26.6643C12.6288 26.8506 12.7788 27.0727 12.8811 27.3175C12.9835 27.5623 13.0362 27.8249 13.0362 28.0903C13.0362 28.3556 12.9835 28.6183 12.8811 28.8631C12.7788 29.1079 12.6288 29.3299 12.44 29.5163L10.2475 31.6952C9.86563 32.0734 9.34992 32.2855 8.81249 32.2855C8.27507 32.2855 7.75936 32.0734 7.37749 31.6952C7.18862 31.5089 7.03866 31.2869 6.93631 31.0421C6.83396 30.7973 6.78125 30.5346 6.78125 30.2692C6.78125 30.0039 6.83396 29.7412 6.93631 29.4964C7.03866 29.2516 7.18862 29.0296 7.37749 28.8432L9.56995 26.6643C9.95182 26.2861 10.4675 26.074 11.005 26.074C11.5424 26.074 12.0581 26.2861 12.44 26.6643ZM26.7405 39.083C26.9294 39.2694 27.0793 39.4914 27.1817 39.7362C27.284 39.981 27.3367 40.2437 27.3367 40.509C27.3367 40.7743 27.284 41.037 27.1817 41.2818C27.0793 41.5266 26.9294 41.7486 26.7405 41.935L24.548 44.114C24.1662 44.4921 23.6505 44.7043 23.113 44.7043C22.5756 44.7043 22.0599 44.4921 21.678 44.114C21.3784 43.8179 21.1798 43.435 21.1103 43.0196C21.0408 42.6041 21.104 42.1774 21.2909 41.7999L21.2931 41.7954C21.3915 41.5978 21.5215 41.4176 21.678 41.262L23.8705 39.083C24.2524 38.7048 24.7681 38.4927 25.3055 38.4927C25.8429 38.4927 26.3586 38.7048 26.7405 39.083ZM12.0888 11.8595C13.5835 10.3748 15.3959 9.24891 17.3893 8.5669C19.3827 7.8849 21.5049 7.66457 23.5959 7.92253L18.0224 12.1476C17.4414 12.5865 16.953 13.136 16.5855 13.7646C16.2179 14.3931 15.9785 15.0882 15.8809 15.8098C15.7834 16.5314 15.8298 17.2651 16.0173 17.9687C16.2048 18.6723 16.5298 19.3317 16.9735 19.9091C17.8681 21.0752 19.1877 21.8402 20.6443 22.0372C22.1008 22.2341 23.5762 21.847 24.7484 20.9603L28.539 18.0903H37.9594L45.8537 25.8787L45.9347 25.9687L48.5233 28.5574C49.1057 29.1478 49.4393 29.9391 49.4557 30.7682C49.472 31.5973 49.1697 32.4011 48.611 33.0139C48.0524 33.6268 47.28 34.0021 46.4529 34.0625C45.6259 34.1229 44.8071 33.8637 44.1654 33.3385L43.9493 33.1224L43.8143 33.0053L41.3539 30.5472C41.2501 30.4397 41.1259 30.354 40.9886 30.295C40.8513 30.236 40.7036 30.205 40.5542 30.2037C40.4047 30.2024 40.2565 30.2309 40.1182 30.2874C39.9799 30.344 39.8542 30.4276 39.7485 30.5333C39.6429 30.639 39.5593 30.7646 39.5027 30.9029C39.4461 31.0413 39.4176 31.1895 39.4189 31.3389C39.4202 31.4884 39.4513 31.636 39.5103 31.7734C39.5692 31.9107 39.655 32.0349 39.7625 32.1387L42.3511 34.7273C42.4457 34.8204 42.5417 34.9097 42.6393 34.9952L42.7383 35.0942C42.9551 35.3064 43.1276 35.5594 43.2459 35.8387C43.3643 36.1179 43.426 36.4179 43.4277 36.7212C43.4293 37.0245 43.3708 37.3251 43.2554 37.6056C43.1401 37.8861 42.9703 38.141 42.7559 38.3555C42.5414 38.5699 42.2865 38.7398 42.006 38.8551C41.7255 38.9704 41.4249 39.0289 41.1216 39.0273C40.8183 39.0256 40.5183 38.9639 40.2391 38.8455C39.9598 38.7272 39.7068 38.5547 39.4946 38.3379L39.112 37.9575C38.9532 37.7992 38.7508 37.6919 38.5307 37.6494C38.3106 37.6068 38.0827 37.631 37.8765 37.7188C37.6702 37.8066 37.4948 37.954 37.3728 38.1421C37.2508 38.3302 37.1878 38.5505 37.1919 38.7746C37.1886 38.9268 37.2162 39.0781 37.2731 39.2193C37.33 39.3606 37.4149 39.4888 37.5228 39.5962L38.0247 40.0982C38.2316 40.293 38.3972 40.5273 38.5119 40.7873C38.6265 41.0472 38.6878 41.3276 38.692 41.6117C38.6963 41.8958 38.6435 42.1779 38.5367 42.4412C38.43 42.7045 38.2715 42.9437 38.0705 43.1446C37.8696 43.3455 37.6304 43.504 37.3671 43.6108C37.1038 43.7175 36.8218 43.7703 36.5377 43.7661C36.2536 43.7618 35.9732 43.7005 35.7132 43.5859C35.4533 43.4713 35.2189 43.3056 35.0242 43.0988H35.0219L34.9949 43.0695L34.5222 42.5968C34.4181 42.4915 34.2942 42.4079 34.1576 42.3509C34.021 42.2938 33.8745 42.2644 33.7265 42.2644C33.5784 42.2644 33.4319 42.2938 33.2953 42.3509C33.1587 42.4079 33.0348 42.4915 32.9307 42.5968C32.7197 42.8079 32.6012 43.0941 32.6012 43.3925C32.6012 43.691 32.7197 43.9772 32.9307 44.1882L33.4214 44.6812C33.6235 44.8807 33.7843 45.1181 33.8946 45.3798C34.0049 45.6414 34.0626 45.9223 34.0643 46.2062C34.0661 46.4902 34.0119 46.7717 33.9049 47.0347C33.7979 47.2978 33.6401 47.5371 33.4406 47.7392C33.241 47.9412 33.0037 48.102 32.742 48.2123C32.4803 48.3226 32.1995 48.3803 31.9156 48.3821C31.6316 48.3839 31.3501 48.3297 31.087 48.2227C30.824 48.1156 30.5847 47.9578 30.3826 47.7583L27.1614 44.697L28.3432 43.5219C28.7413 43.1276 29.0573 42.6583 29.2729 42.1412C29.4886 41.6241 29.5996 41.0693 29.5996 40.509C29.5996 39.9487 29.4886 39.3939 29.2729 38.8768C29.0573 38.3596 28.7413 37.8904 28.3432 37.496C27.9226 37.077 27.4195 36.7501 26.8657 36.5362C26.3119 36.3223 25.7196 36.226 25.1265 36.2535C25.1528 35.6628 25.055 35.0732 24.8394 34.5227C24.6239 33.9722 24.2953 33.4729 23.875 33.0571C23.4547 32.6384 22.9519 32.3116 22.3985 32.0977C21.8451 31.8838 21.2533 31.7874 20.6606 31.8145C20.6865 31.2243 20.5885 30.6351 20.373 30.085C20.1574 29.5348 19.8291 29.0359 19.409 28.6204C18.8743 28.0892 18.2094 27.7079 17.4809 27.5147C16.7524 27.3215 15.9859 27.3232 15.2582 27.5197C15.1331 26.5934 14.7049 25.7346 14.0404 25.0773C13.2999 24.3433 12.3183 23.9028 11.2777 23.8374C10.2371 23.772 9.20804 24.0862 8.38143 24.7217C7.85067 22.4396 7.91271 20.0596 8.56164 17.8082C9.21058 15.5569 10.4248 13.509 12.0888 11.8595Z" fill="url(#paint1_linear_2123_3142)"/>
<defs>
<linearGradient id="paint0_linear_2123_3142" x1="118.616" y1="-20.3384" x2="129.097" y2="71.4691" gradientUnits="userSpaceOnUse">
<stop stop-color="#226164"/>
<stop offset="0.600344" stop-color="#4CC989"/>
<stop offset="1" stop-color="#DFFAC7"/>
</linearGradient>
<linearGradient id="paint1_linear_2123_3142" x1="24.5703" y1="0.987747" x2="53.0829" y2="102.032" gradientUnits="userSpaceOnUse">
<stop stop-color="#226164"/>
<stop offset="0.364759" stop-color="#36C27F"/>
<stop offset="1" stop-color="#DFFAC7"/>
</linearGradient>
</defs>
</svg>
