<svg width="84" height="84" viewBox="0 0 84 84" fill="none" xmlns="http://www.w3.org/2000/svg">
<path d="M41.9922 31.5004H59.4923H69.9923V42.0004V59.5005V70.0005H59.4923H41.9922H31.4922V59.5005V42.0004V31.5004H41.9922ZM59.4923 38.5005H41.9922H38.4923V42.0004V59.5005V63.0004H41.9922H59.4923H62.9922V59.5005V42.0004V38.5005H59.4923ZM24.4922 13.6504H41.9922H52.4922V24.5003V28.0004H45.4922V24.5003V21.0004H41.9922H24.4922H20.9922V24.5003V42.0004V45.5003H24.4922H27.9923V52.5004H24.4922H13.9922L13.9921 42.0004L13.9922 24.5003V13.6504H24.4922Z" fill="#E6ECE5"/>
<circle cx="35.6364" cy="35.6366" r="7.63636" fill="#E6ECE5"/>
<ellipse cx="66.1832" cy="35.6366" rx="7.63636" ry="7.63636" fill="#E6ECE5"/>
<circle cx="66.1832" cy="66.1818" r="7.63636" fill="#E6ECE5"/>
<ellipse cx="35.6364" cy="66.1818" rx="7.63636" ry="7.63636" fill="#E6ECE5"/>
<ellipse cx="17.8239" cy="48.3634" rx="7.63636" ry="7.63636" fill="#E6ECE5"/>
<circle cx="17.8239" cy="17.8182" r="7.63636" fill="#E6ECE5"/>
<ellipse cx="48.3551" cy="17.8182" rx="7.63636" ry="7.63636" fill="#E6ECE5"/>
</svg>
