<svg width="22" height="23" viewBox="0 0 22 23" fill="none" xmlns="http://www.w3.org/2000/svg">
<path d="M1.83594 8.29679C1.83594 6.56796 1.83594 5.70446 2.3731 5.16729C2.91027 4.63013 3.77377 4.63013 5.5026 4.63013H16.5026C18.2314 4.63013 19.0949 4.63013 19.6321 5.16729C20.1693 5.70446 20.1693 6.56796 20.1693 8.29679C20.1693 8.72854 20.1693 8.94488 20.0354 9.07963C19.9007 9.21346 19.6834 9.21346 19.2526 9.21346H2.7526C2.32085 9.21346 2.10452 9.21346 1.96977 9.07963C1.83594 8.94488 1.83594 8.72763 1.83594 8.29679ZM1.83594 16.5468C1.83594 18.2756 1.83594 19.1391 2.3731 19.6763C2.91027 20.2135 3.77377 20.2135 5.5026 20.2135H16.5026C18.2314 20.2135 19.0949 20.2135 19.6321 19.6763C20.1693 19.1391 20.1693 18.2756 20.1693 16.5468V11.9635C20.1693 11.5317 20.1693 11.3154 20.0354 11.1806C19.9007 11.0468 19.6834 11.0468 19.2526 11.0468H2.7526C2.32085 11.0468 2.10452 11.0468 1.96977 11.1806C1.83594 11.3154 1.83594 11.5326 1.83594 11.9635V16.5468Z" fill="#22BB77"/>
<path d="M6.41406 2.79688V5.54688M15.5807 2.79688V5.54688" stroke="#22BB77" stroke-width="1.83333" stroke-linecap="round"/>
</svg>
