<svg width="23" height="24" viewBox="0 0 23 24" fill="none" xmlns="http://www.w3.org/2000/svg">
<path d="M6.71094 6.7561H5.7526C5.24427 6.7561 4.75676 6.95804 4.39732 7.31748C4.03787 7.67693 3.83594 8.16444 3.83594 8.67277V17.2978C3.83594 17.8061 4.03787 18.2936 4.39732 18.6531C4.75676 19.0125 5.24427 19.2144 5.7526 19.2144H14.3776C14.8859 19.2144 15.3734 19.0125 15.7329 18.6531C16.0923 18.2936 16.2943 17.8061 16.2943 17.2978V16.3394" stroke="#E6ECE5" stroke-width="2.46154" stroke-linecap="round" stroke-linejoin="round"/>
<path d="M15.3333 4.83938L18.2083 7.71438M19.5356 6.35834C19.9131 5.9809 20.1251 5.46899 20.1251 4.93521C20.1251 4.40143 19.9131 3.88952 19.5356 3.51209C19.1582 3.13465 18.6463 2.92261 18.1125 2.92261C17.5787 2.92261 17.0668 3.13465 16.6894 3.51209L8.625 11.5477V14.4227H11.5L19.5356 6.35834Z" stroke="#E6ECE5" stroke-width="1.94872" stroke-linecap="round" stroke-linejoin="round"/>
</svg>
