<svg width="25" height="31" viewBox="0 0 25 31" fill="none" xmlns="http://www.w3.org/2000/svg">
<path d="M10.3887 5.08301V8.20801H14.6113V5.08301H19.8887C20.4486 5.08301 20.9859 5.30266 21.3818 5.69336C21.7777 6.08405 22 6.61449 22 7.16699V25.917C21.9999 26.4693 21.7775 26.999 21.3818 27.3896C20.9859 27.7804 20.4486 28 19.8887 28H5.11133C4.55143 28 4.01407 27.7804 3.61816 27.3896C3.22244 26.999 3.00006 26.4693 3 25.917V7.16699C3 6.61446 3.22226 6.08406 3.61816 5.69336C4.01407 5.30266 4.55144 5.08301 5.11133 5.08301H10.3887ZM6.17188 24.875V26.1777H15.1436V24.875H6.17188ZM6.17188 22.2715V23.5732H18.8389V22.2715H6.17188ZM12.5049 16.8027C10.75 16.8028 7.22786 17.6747 7.22754 19.4062V20.709H17.7832V19.4062C17.7829 17.6746 14.2597 16.8027 12.5049 16.8027ZM12.5049 10.292C11.8052 10.2921 11.1344 10.5665 10.6396 11.0547C10.1448 11.5431 9.86621 12.2058 9.86621 12.8965C9.86633 13.587 10.1449 14.249 10.6396 14.7373C11.1345 15.2255 11.8052 15.4999 12.5049 15.5C13.2048 15.5 13.8762 15.2257 14.3711 14.7373C14.8658 14.249 15.1434 13.587 15.1436 12.8965C15.1436 12.2058 14.866 11.5431 14.3711 11.0547C13.8762 10.5663 13.2048 10.292 12.5049 10.292ZM13.5557 7.16699H11.4443V3H13.5557V7.16699Z" fill="#E6ECE5"/>
</svg>
