<svg width="25" height="25" viewBox="0 0 25 25" fill="none" xmlns="http://www.w3.org/2000/svg">
<path d="M6.82396 7.76465H5.88264C5.38333 7.76465 4.90448 7.96297 4.55141 8.31597C4.19835 8.66898 4 9.14776 4 9.64698V18.1175C4 18.6167 4.19835 19.0955 4.55141 19.4485C4.90448 19.8015 5.38333 19.9998 5.88264 19.9998H14.3545C14.8538 19.9998 15.3327 19.8015 15.6858 19.4485C16.0388 19.0955 16.2372 18.6167 16.2372 18.1175V17.1763" stroke="#E6ECE5" stroke-width="2.46154" stroke-linecap="round" stroke-linejoin="round"/>
<path d="M15.2924 5.88243L18.1163 8.70594M19.4201 7.37418C19.7908 7.00351 19.9991 6.50077 19.9991 5.97655C19.9991 5.45234 19.7908 4.94959 19.4201 4.57892C19.0493 4.20824 18.5465 4 18.0222 4C17.4979 4 16.9951 4.20824 16.6243 4.57892L8.70312 12.4706V15.2941H11.5271L19.4201 7.37418Z" stroke="#E6ECE5" stroke-width="1.94872" stroke-linecap="round" stroke-linejoin="round"/>
</svg>
