<svg width="19" height="15" viewBox="0 0 19 15" fill="none" xmlns="http://www.w3.org/2000/svg">
<path d="M18 5.4164V11.5454C18 12.1964 17.7546 12.8207 17.3177 13.2811C16.8809 13.7414 16.2884 14 15.6706 14H3.32938C2.71159 14 2.1191 13.7414 1.68226 13.2811C1.24542 12.8207 1 12.1964 1 11.5454V2.65844C1 2.00744 1.56667 1.52871 1.56667 1.52871C2.00351 1.06838 2.71159 1 3.32938 1H5.65951C6.04393 0.999523 6.42246 1.0994 6.76131 1.29071C7.10015 1.48203 7.38874 1.75881 7.60129 2.09634C7.60129 2.09634 8.0355 2.96895 9.35569 2.96895H15.6706C16.2872 2.96916 16.8785 3.22685 17.3151 3.68559C17.7517 4.14432 17.998 4.76671 18 5.4164Z" stroke="#C7CBCF" stroke-width="1.5" stroke-linecap="round" stroke-linejoin="round"/>
</svg>
