<svg width="15" height="11" viewBox="0 0 15 11" fill="none" xmlns="http://www.w3.org/2000/svg">
<path d="M4.90417 11C4.65972 11 4.45417 10.9187 4.2875 10.7561C4.12083 10.5936 4.03778 10.3924 4.03833 10.1526C4.03889 9.91283 4.12222 9.71193 4.28833 9.5499C4.45444 9.38787 4.65972 9.30659 4.90417 9.30604H14.135C14.3794 9.30604 14.5847 9.38733 14.7508 9.5499C14.9169 9.71302 15 9.91419 15 10.1534C15 10.3927 14.9169 10.5936 14.7508 10.7561C14.5847 10.9187 14.3792 11 14.1342 11H4.90417ZM4.90417 6.4507C4.65972 6.4507 4.45417 6.36941 4.2875 6.20684C4.12083 6.04427 4.03778 5.84337 4.03833 5.60413C4.03889 5.36489 4.12222 5.16372 4.28833 5.0006C4.45444 4.83748 4.65972 4.75647 4.90417 4.75756H14.135C14.3794 4.75756 14.5847 4.83884 14.7508 5.00142C14.9169 5.16399 15 5.36489 15 5.60413C15 5.84337 14.9169 6.04454 14.7508 6.20766C14.5847 6.37077 14.3792 6.45179 14.1342 6.4507H4.90417ZM4.90417 1.69396C4.65972 1.69396 4.45417 1.61267 4.2875 1.4501C4.12139 1.28698 4.03833 1.08581 4.03833 0.846571C4.03833 0.607335 4.12167 0.40643 4.28833 0.243858C4.455 0.0812859 4.66 0 4.90333 0H14.1342C14.3786 0 14.5839 0.0812859 14.75 0.243858C14.9161 0.40643 14.9992 0.607607 14.9992 0.847387C14.9992 1.08717 14.9161 1.28807 14.75 1.4501C14.5839 1.61213 14.3783 1.69341 14.1333 1.69396H4.90417ZM0.865833 1.69396C0.620833 1.69396 0.415278 1.61267 0.249167 1.4501C0.0830556 1.28698 0 1.08581 0 0.846571C0 0.607335 0.0830556 0.40643 0.249167 0.243858C0.415278 0.0812859 0.620833 0 0.865833 0C1.11028 0 1.31556 0.0812859 1.48167 0.243858C1.64778 0.40643 1.73083 0.607607 1.73083 0.847387C1.73083 1.08717 1.64778 1.28807 1.48167 1.4501C1.315 1.61267 1.11028 1.69396 0.865833 1.69396ZM0.865 6.45152C0.620556 6.45152 0.415278 6.36996 0.249167 6.20684C0.0830556 6.04373 0 5.84282 0 5.60413C0 5.36544 0.0830556 5.16426 0.249167 5.0006C0.415278 4.83694 0.620833 4.75593 0.865833 4.75756C1.11083 4.75919 1.31611 4.84047 1.48167 5.00142C1.64722 5.16236 1.73028 5.36326 1.73083 5.60413C1.73139 5.845 1.64833 6.04617 1.48167 6.20766C1.315 6.36969 1.10944 6.45152 0.865 6.45152ZM0.865 11C0.620556 11 0.415278 10.9187 0.249167 10.7561C0.0830556 10.5936 0 10.3924 0 10.1526C0 9.91283 0.0830556 9.71193 0.249167 9.5499C0.415278 9.38787 0.620833 9.30659 0.865833 9.30604C1.11083 9.3055 1.31611 9.38678 1.48167 9.5499C1.64778 9.71302 1.73083 9.91419 1.73083 10.1534C1.73083 10.3927 1.64778 10.5936 1.48167 10.7561C1.31556 10.9187 1.11 11 0.865 11Z" fill="#C7CBCF"/>
</svg>
