<svg width="31" height="21" viewBox="0 0 31 21" fill="none" xmlns="http://www.w3.org/2000/svg">
<rect width="31" height="21" rx="6" fill="#22BB77"/>
<path d="M12.1911 6.98182H14.0467V15H12.1911V6.98182ZM8.54855 15H6.69291V6.98182H8.54855V15ZM12.3286 11.7125H8.4111V10.1433H12.3286V11.7125ZM15.8293 15V6.98182H19.3C20.0178 6.98182 20.6363 7.10018 21.1556 7.33691C21.6749 7.566 22.0758 7.89818 22.3583 8.33345C22.6409 8.76873 22.7822 9.288 22.7822 9.89127C22.7822 10.4869 22.6409 11.0024 22.3583 11.4376C22.0758 11.8653 21.6749 12.1936 21.1556 12.4227C20.6363 12.6518 20.0178 12.7664 19.3 12.7664H16.8602L17.6849 11.9531V15H15.8293ZM20.9265 15L18.922 12.0905H20.9036L22.9311 15H20.9265ZM17.6849 12.1593L16.8602 11.2887H19.1969C19.7696 11.2887 20.1973 11.1665 20.4798 10.9222C20.7623 10.6702 20.9036 10.3265 20.9036 9.89127C20.9036 9.44836 20.7623 9.10473 20.4798 8.86036C20.1973 8.616 19.7696 8.49382 19.1969 8.49382H16.8602L17.6849 7.61182V12.1593Z" fill="white"/>
</svg>
