<svg width="33" height="33" viewBox="0 0 33 33" fill="none" xmlns="http://www.w3.org/2000/svg">
<path d="M7.54297 18.4274V17.0453H8.63984L12.7074 7.37061L16.1352 13.2661L19.5629 7.37061L23.7219 17.0453H24.8187V18.4274H19.6543V17.0453H20.6979L19.0602 13.2661L16.1352 17.8012L13.3016 13.2661L11.6596 17.0453H12.5703V18.4274H7.54297Z" fill="#E6ECE5" stroke="#E6ECE5" stroke-width="0.0804242"/>
<path d="M15.6615 31C20.5888 27.6992 25.2019 24.1037 27.3597 20.5081C28.4038 18.7683 29 16.1085 29 13.9654C29 7.35711 23.3313 2 16.3385 2H15.6615C8.66873 2 3 7.35711 3 13.9654C3 17.7135 4.82352 21.059 7.67788 23.253" stroke="#E6ECE5" stroke-width="2" stroke-linecap="round"/>
</svg>
