<svg width="15" height="15" viewBox="0 0 15 15" fill="none" xmlns="http://www.w3.org/2000/svg">
<path d="M1.64969 11.4C1.53893 11.3999 1.43002 11.3716 1.3333 11.3176C1.23658 11.2637 1.15525 11.1859 1.09703 11.0916C1.03882 10.9974 1.00564 10.8899 1.00066 10.7792C0.995675 10.6686 1.01905 10.5585 1.06856 10.4594L2.29972 7.99595V6.2C2.29972 4.82087 2.84761 3.49823 3.82285 2.52304C4.79809 1.54786 6.1208 1 7.5 1C8.8792 1 10.2019 1.54786 11.1772 2.52304C12.1524 3.49823 12.7003 4.82087 12.7003 6.2V7.9966L13.9314 10.4594C13.981 10.5585 14.0043 10.6686 13.9993 10.7792C13.9944 10.8899 13.9612 10.9974 13.903 11.0916C13.8448 11.1859 13.7634 11.2637 13.6667 11.3176C13.57 11.3716 13.4611 11.3999 13.3503 11.4H1.64969ZM7.5 14C6.92345 14.0001 6.3632 13.8087 5.90735 13.4557C5.4515 13.1027 5.1259 12.6082 4.98177 12.05H7.5927H10.0182C9.8741 12.6082 9.5485 13.1027 9.09265 13.4557C8.6368 13.8087 8.07655 14.0001 7.5 14Z" stroke="#C7CBCF" stroke-width="1.5"/>
</svg>
