<svg width="25" height="25" viewBox="0 0 25 25" fill="none" xmlns="http://www.w3.org/2000/svg">
<path fill-rule="evenodd" clip-rule="evenodd" d="M8.63434 15.8854C12.6784 19.7928 16.4259 20.2207 17.5261 20.2603C18.8555 20.307 20.2123 19.2583 20.7992 18.1841C19.8631 17.1232 18.6441 16.3 17.3094 15.4077C16.5216 16.1679 15.5508 17.5805 14.2582 17.0744C13.523 16.7888 11.7076 15.9809 10.1216 14.4474C8.53548 12.9139 7.69931 11.1609 7.40166 10.4515C6.87787 9.20053 8.34405 8.26051 9.13184 7.49934C8.20837 6.18839 7.37116 4.98007 6.27521 4.12135C5.1477 4.69044 4.05595 5.99124 4.10539 7.29304C4.14641 8.35603 4.58921 11.9769 8.63434 15.8854ZM17.4482 22.2918C15.9337 22.2379 11.6414 21.6647 7.14608 17.3223C2.65183 12.9789 2.05968 8.83265 2.00288 7.36824C1.91874 5.13658 3.68783 2.96893 5.73144 2.1224C5.97753 2.01973 6.24702 1.98064 6.51347 2.00896C6.77991 2.03729 7.03416 2.13206 7.25126 2.28398C8.94251 3.47604 10.1089 5.2819 11.1113 6.69651C11.3198 6.99066 11.4153 7.34599 11.3813 7.70101C11.3473 8.05602 11.1859 8.38839 10.9251 8.64058L9.49891 10.0196C9.83022 10.7259 10.5044 11.9434 11.6088 13.0104C12.7131 14.0775 13.9732 14.7289 14.7052 15.049L16.1304 13.671C16.3921 13.4179 16.7375 13.2618 17.1064 13.23C17.4752 13.1983 17.8438 13.2928 18.1477 13.4972C19.6412 14.4972 21.3956 15.6079 22.6745 17.1902C22.8445 17.4015 22.9527 17.653 22.9876 17.9185C23.0226 18.184 22.9831 18.4537 22.8733 18.6993C21.993 20.6841 19.7653 22.3741 17.4482 22.2918Z" fill="#E6ECE5"/>
</svg>
