<svg width="28" height="22" viewBox="0 0 28 22" fill="none" xmlns="http://www.w3.org/2000/svg">
<path d="M24.5409 14.5C23.7523 15.4005 21.1046 16.7268 18.0352 17H13.5312" stroke="#596059" stroke-width="2.37931" stroke-linecap="round"/>
<rect x="4.48363" y="2.95238" width="18.1128" height="18.0952" rx="8.97243" stroke="#596059" stroke-width="1.90476"/>
<path d="M24.0497 11.5V11.5C24.0497 5.74461 19.2959 1 13.5405 1V1C7.78511 1 3.03125 5.74461 3.03125 11.5V11.5" stroke="#596059" stroke-width="2"/>
<rect x="10.0312" y="6" width="6.00528" height="6" rx="3" fill="#596059"/>
<path d="M0.0234375 10.3333C0.0234375 9.04467 1.06811 8 2.35677 8H4.69421L5.27806 16H2.35677C1.06811 16 0.0234375 14.9553 0.0234375 13.6667V10.3333Z" fill="#596059"/>
<path d="M27.2969 11C27.2969 9.34315 25.9537 8 24.2969 8H22.6261L22.0423 16H24.2969C25.9537 16 27.2969 14.6569 27.2969 13V11Z" fill="#596059"/>
</svg>
