<svg width="16" height="16" viewBox="0 0 16 16" fill="none" xmlns="http://www.w3.org/2000/svg">
<g clip-path="url(#clip0_3241_3112)">
<path fill-rule="evenodd" clip-rule="evenodd" d="M8 16C10.1217 16 12.1566 15.1571 13.6569 13.6569C15.1571 12.1566 16 10.1217 16 8C16 5.87827 15.1571 3.84344 13.6569 2.34315C12.1566 0.842854 10.1217 0 8 0C5.87827 0 3.84344 0.842854 2.34315 2.34315C0.842854 3.84344 0 5.87827 0 8C0 10.1217 0.842854 12.1566 2.34315 13.6569C3.84344 15.1571 5.87827 16 8 16ZM8 2.91927C8.19289 2.91927 8.37787 2.9959 8.51426 3.13229C8.65065 3.26868 8.72727 3.45366 8.72727 3.64655V7.27273H12.3535C12.5463 7.27273 12.7313 7.34935 12.8677 7.48574C13.0041 7.62213 13.0807 7.80712 13.0807 8C13.0807 8.19289 13.0041 8.37787 12.8677 8.51426C12.7313 8.65065 12.5463 8.72727 12.3535 8.72727H8.72727V12.3549C8.72727 12.5478 8.65065 12.7328 8.51426 12.8692C8.37787 13.0056 8.19289 13.0822 8 13.0822C7.80712 13.0822 7.62213 13.0056 7.48574 12.8692C7.34935 12.7328 7.27273 12.5478 7.27273 12.3549V8.72727H3.64655C3.45366 8.72727 3.26868 8.65065 3.13229 8.51426C2.9959 8.37787 2.91927 8.19289 2.91927 8C2.91927 7.80712 2.9959 7.62213 3.13229 7.48574C3.26868 7.34935 3.45366 7.27273 3.64655 7.27273H7.27273V3.64655C7.27273 3.45366 7.34935 3.26868 7.48574 3.13229C7.62213 2.9959 7.80712 2.91927 8 2.91927Z" fill="#E6ECE5"/>
</g>
<defs>
<clipPath id="clip0_3241_3112">
<rect width="16" height="16" fill="white"/>
</clipPath>
</defs>
</svg>
