<svg width="16" height="16" viewBox="0 0 16 16" fill="none" xmlns="http://www.w3.org/2000/svg">
<g clip-path="url(#clip0_3241_2919)">
<path d="M12.3511 4.34768V8.45714C11.7139 8.43202 11.4217 8.52058 10.9058 8.78241V10.7719H9.00098C8.7848 11.2149 8.73863 11.5208 8.7379 12.1995H4.40206V4.34768H12.3511ZM5.84736 5.77529V10.7719H9.00098H10.9058V8.78241V5.77529H5.84736ZM8.7379 0.707317V3.6339H7.29261V2.20629H2.23415V7.20286H3.67944V8.63046H0.788854V0.707317H8.7379Z" fill="#E6ECE5"/>
<path d="M6.83223 5.19125C6.83223 6.05136 6.12633 6.74862 5.25556 6.74862C4.38479 6.74862 3.67889 6.05136 3.67889 5.19125C3.67889 4.33113 4.38479 3.63387 5.25556 3.63387C6.12633 3.63387 6.83223 4.33113 6.83223 5.19125Z" fill="#E6ECE5"/>
<path d="M13.1389 5.19125C13.1389 6.05136 12.433 6.74862 11.5622 6.74862C10.6915 6.74862 9.98557 6.05136 9.98557 5.19125C9.98557 4.33113 10.6915 3.63387 11.5622 3.63387C12.433 3.63387 13.1389 4.33113 13.1389 5.19125Z" fill="#E6ECE5"/>
<path d="M6.83223 11.4207C6.83223 12.2809 6.12633 12.9781 5.25556 12.9781C4.38479 12.9781 3.67889 12.2809 3.67889 11.4207C3.67889 10.5606 4.38479 9.86337 5.25556 9.86337C6.12633 9.86337 6.83223 10.5606 6.83223 11.4207Z" fill="#E6ECE5"/>
<path d="M3.15334 7.78687C3.15334 8.64699 2.44744 9.34425 1.57667 9.34425C0.705899 9.34425 0 8.64699 0 7.78687C0 6.92676 0.705899 6.2295 1.57667 6.2295C2.44744 6.2295 3.15334 6.92676 3.15334 7.78687Z" fill="#E6ECE5"/>
<path d="M3.15334 1.55737C3.15334 2.41749 2.44744 3.11475 1.57667 3.11475C0.705899 3.11475 0 2.41749 0 1.55737C0 0.69726 0.705899 0 1.57667 0C2.44744 0 3.15334 0.69726 3.15334 1.55737Z" fill="#E6ECE5"/>
<path d="M9.46001 1.55737C9.46001 2.41749 8.75412 3.11475 7.88334 3.11475C7.01257 3.11475 6.30668 2.41749 6.30668 1.55737C6.30668 0.69726 7.01257 0 7.88334 0C8.75412 0 9.46001 0.69726 9.46001 1.55737Z" fill="#E6ECE5"/>
<path d="M12.4059 9.37207C10.6374 9.37207 9.22266 10.8451 9.22266 12.6863C9.22266 14.1593 10.4571 16.0006 12.4059 16.0006C14.5281 16.0006 15.5892 14.3434 15.5892 12.6863C15.5892 10.8451 14.3548 9.37207 12.4059 9.37207ZM12.0522 12.4577V11.0292H12.7596V12.4577H13.9976V13.1435H12.7596V14.6291H12.0522V13.1435H10.8143V12.4577H12.0522Z" fill="#E6ECE5"/>
</g>
<defs>
<clipPath id="clip0_3241_2919">
<rect width="16" height="16" fill="white"/>
</clipPath>
</defs>
</svg>
