<svg width="16" height="16" viewBox="0 0 16 16" fill="none" xmlns="http://www.w3.org/2000/svg">
<g clip-path="url(#clip0_3241_2871)">
<path d="M11.9131 0C14.0488 7.35037e-05 15.8321 1.65224 15.9199 3.78613C16.0442 6.8175 16.0127 9.27786 15.8936 12.1465C15.8037 14.3073 14.0103 15.9999 11.8477 16H4.12109C2.04595 16 0.28591 14.4384 0.143555 12.3682C-0.0630411 9.36347 -0.041494 6.81766 0.169922 3.69336C0.311836 1.59845 2.07996 8.36503e-05 4.17969 0H11.9131ZM10.1738 4.75195C9.43247 4.69877 8.76755 5.1078 8.07324 5.25C7.60837 5.21445 7.0551 4.81791 6.26074 4.77637C3.00039 4.94227 2.5763 9.48069 5.44824 12.4609C5.95431 12.9289 6.40169 13.0352 7.24902 12.668C7.92581 12.3836 8.51477 12.3954 9.15625 12.668C9.76234 12.9345 10.3921 13.0237 10.9688 12.4609L10.9629 12.4668C11.6868 11.8151 12.1226 10.9317 12.458 10.043C10.7749 9.3616 10.3386 6.92632 12.1748 5.81836C11.7334 5.17874 11.0623 4.82304 10.1738 4.75195ZM10.2148 2.22266C8.99101 2.32954 7.92652 3.41925 8.01465 4.74023C8.83861 4.888 10.3853 3.75098 10.2148 2.22266Z" fill="#E6ECE5"/>
</g>
<defs>
<clipPath id="clip0_3241_2871">
<rect width="16" height="16" fill="white"/>
</clipPath>
</defs>
</svg>
