<svg width="16" height="16" viewBox="0 0 16 16" fill="none" xmlns="http://www.w3.org/2000/svg">
<g clip-path="url(#clip0_3241_3237)">
<path d="M13.1113 0C13.3778 3.15216e-05 13.6333 0.0557033 13.8779 0.166992C14.1227 0.278399 14.3269 0.437717 14.4893 0.644531L15.5996 2C15.7329 2.16292 15.8334 2.34067 15.9004 2.5332C15.9674 2.7258 16.0006 2.92638 16 3.13379V14.2227C15.9999 14.7114 15.8263 15.1302 15.4785 15.4785C15.1308 15.8269 14.7119 16.0005 14.2227 16H1.77734C1.28866 15.9999 0.870202 15.8262 0.522461 15.4785C0.17471 15.1308 0.000693301 14.712 0 14.2227V3.13379C0 2.92638 0.033623 2.7258 0.100586 2.5332C0.167548 2.34068 0.26769 2.16291 0.400391 2L1.51074 0.644531C1.67371 0.437124 1.87792 0.277423 2.12207 0.166016C2.36605 0.0547382 2.62161 -0.000562156 2.88867 0H13.1113ZM4.40234 9.01562L5.64648 10.2607L7.06934 8.83789V12.5713H8.84668V8.83789L10.2686 10.2607L11.5137 9.01562L7.95801 5.45996L4.40234 9.01562ZM2.13379 2.66699H13.8662L13.1113 1.77734H2.88867L2.13379 2.66699Z" fill="#E6ECE5"/>
</g>
<defs>
<clipPath id="clip0_3241_3237">
<rect width="16" height="16" fill="white"/>
</clipPath>
</defs>
</svg>
