<svg width="16" height="16" viewBox="0 0 16 16" fill="none" xmlns="http://www.w3.org/2000/svg">
<g clip-path="url(#clip0_3241_2923)">
<path fill-rule="evenodd" clip-rule="evenodd" d="M3.92356 0C3.4521 0.000100689 2.99999 0.187468 2.66667 0.520889L0.520889 2.66667C0.277326 2.90998 0.109649 3.21877 0.0382222 3.55556H15.9618C15.8904 3.21877 15.7227 2.90998 15.4791 2.66667L13.3333 0.520889C13 0.187468 12.5479 0.000100689 12.0764 0H3.92356ZM16 5.33333H0V14.2222C0 14.6937 0.187301 15.1459 0.520699 15.4793C0.854097 15.8127 1.30628 16 1.77778 16H14.2222C14.6937 16 15.1459 15.8127 15.4793 15.4793C15.8127 15.1459 16 14.6937 16 14.2222V5.33333ZM8 7.11111C8.23575 7.11111 8.46184 7.20476 8.62854 7.37146C8.79524 7.53816 8.88889 7.76425 8.88889 8V10.832L9.25689 10.4631C9.42368 10.2964 9.64985 10.2028 9.88565 10.2029C10.1214 10.203 10.3475 10.2968 10.5142 10.4636C10.6809 10.6303 10.7745 10.8565 10.7744 11.0923C10.7743 11.3281 10.6806 11.5542 10.5138 11.7209L8.62933 13.6062C8.54678 13.6889 8.44874 13.7544 8.34084 13.7992C8.23293 13.8439 8.11726 13.8669 8.00044 13.8669C7.88363 13.8669 7.76796 13.8439 7.66005 13.7992C7.55214 13.7544 7.45411 13.6889 7.37156 13.6062L5.48622 11.7209C5.31943 11.5542 5.22568 11.3281 5.2256 11.0923C5.22551 10.8565 5.3191 10.6303 5.48578 10.4636C5.65245 10.2968 5.87856 10.203 6.11435 10.2029C6.35015 10.2028 6.57632 10.2964 6.74311 10.4631L7.11111 10.832V8C7.11111 7.76425 7.20476 7.53816 7.37146 7.37146C7.53816 7.20476 7.76425 7.11111 8 7.11111Z" fill="#E6ECE5"/>
</g>
<defs>
<clipPath id="clip0_3241_2923">
<rect width="16" height="16" fill="white"/>
</clipPath>
</defs>
</svg>
