<svg width="16" height="16" viewBox="0 0 16 16" fill="none" xmlns="http://www.w3.org/2000/svg">
<g clip-path="url(#clip0_3241_3044)">
<path d="M7.61639 0.307156L6.78991 2.76977C6.48238 3.70601 5.95932 4.55694 5.26285 5.25401C4.56639 5.95107 3.71598 6.47481 2.78013 6.78302L0.288688 7.61233C0.204749 7.63974 0.131625 7.69299 0.0797736 7.76447C0.0279223 7.83596 0 7.92201 0 8.01033C0 8.09864 0.0279223 8.18469 0.0797736 8.25618C0.131625 8.32766 0.204749 8.38091 0.288688 8.40832L2.78147 9.2363C3.70835 9.54495 4.55044 10.0657 5.24076 10.7571C5.93107 11.4484 6.45056 12.2914 6.75791 13.2189L7.5844 15.7122C7.61216 15.7959 7.66562 15.8688 7.73717 15.9205C7.80872 15.9722 7.89472 16 7.98297 16C8.07122 16 8.15723 15.9722 8.22878 15.9205C8.30033 15.8688 8.35378 15.7959 8.38155 15.7122L9.24003 13.2495C9.54861 12.3227 10.0687 11.4804 10.7591 10.7893C11.4495 10.0983 12.2913 9.57757 13.2178 9.2683L15.7093 8.44032C15.7937 8.41323 15.8673 8.36003 15.9196 8.28838C15.9718 8.21674 16 8.13034 16 8.04166C16 7.95297 15.9718 7.86658 15.9196 7.79493C15.8673 7.72328 15.7937 7.67008 15.7093 7.643L13.2498 6.78435C12.3133 6.47695 11.4623 5.95334 10.7657 5.2559C10.0691 4.55845 9.54643 3.70677 9.24003 2.76977L8.41354 0.27649C8.38338 0.192919 8.32741 0.121115 8.25374 0.0714647C8.18007 0.0218149 8.09252 -0.00310535 8.00376 0.000309445C7.91499 0.00372424 7.82961 0.0352968 7.75997 0.0904596C7.69033 0.145622 7.64005 0.221515 7.61639 0.307156Z" fill="#E6ECE5"/>
</g>
<defs>
<clipPath id="clip0_3241_3044">
<rect width="16" height="16" fill="white"/>
</clipPath>
</defs>
</svg>
