<svg width="16" height="16" viewBox="0 0 16 16" fill="none" xmlns="http://www.w3.org/2000/svg">
<g clip-path="url(#clip0_3241_2895)">
<path d="M13.6623 5.68407C12.1802 6.14024 10.2362 6.36647 8.16281 6.30433C6.08943 6.24219 4.16247 5.89994 2.7104 5.35511C2.12926 5.13833 1.57105 4.86839 1.10154 4.53491L1.00775 7.66441C0.967636 9.00272 4.11734 10.1827 8.04305 10.3004C11.9688 10.418 15.1835 9.42878 15.2236 8.09047L15.3174 4.96024C14.8287 5.26574 14.2561 5.50106 13.6616 5.68405" fill="#E6ECE5"/>
<path d="M15.1525 10.4103C14.6639 10.7151 14.0912 10.9511 13.4967 11.1334C12.0153 11.5896 10.0713 11.8165 7.99794 11.7544C5.92456 11.6923 3.99761 11.3493 2.54553 10.8052C1.96438 10.5884 1.40617 10.3185 0.936686 9.98426L0.835483 13.3609C0.795395 14.6985 3.94508 15.8792 7.87079 15.9969C11.7965 16.1145 15.0112 15.1253 15.0513 13.787L15.1525 10.4103ZM8.20485 4.8506C4.27915 4.73294 1.12946 3.55224 1.16957 2.21393L1.16964 2.21175C1.21328 0.874272 4.42654 -0.113546 8.35011 0.0040473C11.2942 0.092285 13.8021 0.778631 14.855 1.6804C15.206 1.98123 15.3954 2.3056 15.3854 2.63999C15.3453 3.9783 12.1306 4.96826 8.20485 4.8506Z" fill="#E6ECE5"/>
</g>
<defs>
<clipPath id="clip0_3241_2895">
<rect width="16" height="16" fill="white"/>
</clipPath>
</defs>
</svg>
