<svg width="16" height="16" viewBox="0 0 16 16" fill="none" xmlns="http://www.w3.org/2000/svg">
<g clip-path="url(#clip0_3241_3124)">
<path d="M11.5946 4.42285V5.38434H12.0335C12.4384 5.38434 12.7751 5.38434 13.0514 5.40741C13.3389 5.43126 13.6083 5.4828 13.8634 5.6151C14.255 5.81791 14.5734 6.14157 14.773 6.53966C14.9031 6.79888 14.9546 7.07348 14.9773 7.36578C15 7.64576 15 7.98882 15 8.39957V11.984C15 12.3955 15 12.7378 14.9773 13.0186C14.9546 13.3109 14.9031 13.5855 14.773 13.8447C14.5736 14.2427 14.2555 14.5663 13.8641 14.7692C13.6083 14.9015 13.3389 14.9531 13.0514 14.9769C12.7751 15 12.4384 15 12.0343 15H3.96649C3.56162 15 3.22486 15 2.94865 14.9769C2.66108 14.9531 2.39168 14.9015 2.13665 14.7692C1.74499 14.5664 1.42656 14.2428 1.22703 13.8447C1.09686 13.5855 1.04541 13.3109 1.0227 13.0186C1 12.7386 1 12.3955 1 11.9848V8.39957C1 7.98882 1 7.64576 1.0227 7.36578C1.04541 7.07348 1.09686 6.79888 1.22703 6.53966C1.42656 6.14157 1.74499 5.81791 2.13665 5.6151C2.39168 5.4828 2.66108 5.43126 2.94865 5.40741C3.22486 5.38434 3.56162 5.38434 3.96649 5.38434H4.40541V4.42285C4.40541 3.28599 4.65514 2.19143 5.24314 1.36531C5.84854 0.51382 6.77935 0 8 0C9.22065 0 10.1507 0.51382 10.7569 1.36531C11.3449 2.19143 11.5946 3.28599 11.5946 4.42285ZM5.54054 4.42285V5.38434H10.4595V4.42285C10.4595 3.43598 10.24 2.60756 9.83741 2.04143C9.45146 1.50069 8.86876 1.15379 8 1.15379C7.13124 1.15379 6.54778 1.49992 6.16259 2.04143C5.76 2.60756 5.54054 3.43598 5.54054 4.42285ZM11.5946 9.038C11.5946 8.885 11.5348 8.73826 11.4284 8.63007C11.3219 8.52188 11.1776 8.4611 11.027 8.4611C10.8765 8.4611 10.7321 8.52188 10.6257 8.63007C10.5193 8.73826 10.4595 8.885 10.4595 9.038V11.3456C10.4595 11.4986 10.5193 11.6453 10.6257 11.7535C10.7321 11.8617 10.8765 11.9225 11.027 11.9225C11.1776 11.9225 11.3219 11.8617 11.4284 11.7535C11.5348 11.6453 11.5946 11.4986 11.5946 11.3456V9.038Z" fill="#E6ECE5"/>
</g>
<defs>
<clipPath id="clip0_3241_3124">
<rect width="16" height="16" fill="white"/>
</clipPath>
</defs>
</svg>
