<svg width="16" height="16" viewBox="0 0 16 16" fill="none" xmlns="http://www.w3.org/2000/svg">
<path d="M5.37009 11.1825L2.61858 14.6663M5.37009 11.1825L8.12782 13.6077C8.46095 13.9007 8.97164 13.8544 9.2466 13.5062V13.5062C9.39067 13.3238 9.44515 13.0863 9.395 12.8593L9.08608 11.4613C8.94986 10.8449 9.09784 10.1999 9.48912 9.70446L11.1058 7.65755C11.3687 7.32465 11.8571 7.28038 12.1756 7.56059V7.56059C12.4941 7.84079 12.9824 7.79653 13.2454 7.46362L13.4136 7.25058C13.7424 6.83432 13.6879 6.23358 13.2897 5.88321L8.90708 2.02758C8.47798 1.65008 7.82004 1.70972 7.46582 2.15822L7.36345 2.28783C7.09222 2.63125 7.13715 3.12686 7.4657 3.41591V3.41591C7.79426 3.70496 7.83918 4.20058 7.56795 4.54399L5.99115 6.54045C5.56959 7.0742 4.91588 7.37108 4.23656 7.33726L3.18134 7.28474C2.91299 7.27138 2.65475 7.38866 2.48822 7.59951V7.59951C2.21449 7.94608 2.25983 8.44625 2.59141 8.73795L5.37009 11.1825Z" stroke="#E6ECE5" stroke-width="1.33333" stroke-linecap="round" stroke-linejoin="round"/>
</svg>
