<svg width="16" height="16" viewBox="0 0 16 16" fill="none" xmlns="http://www.w3.org/2000/svg">
<g clip-path="url(#clip0_3241_3260)">
<path d="M0 5.60036C0 4.09158 -4.76837e-08 3.33798 0.4688 2.86919C0.9376 2.40039 1.6912 2.40039 3.2 2.40039H12.8C14.3088 2.40039 15.0624 2.40039 15.5312 2.86919C16 3.33798 16 4.09158 16 5.60036C16 5.97716 16 6.16596 15.8832 6.28356C15.7656 6.40036 15.576 6.40036 15.2 6.40036H0.8C0.4232 6.40036 0.2344 6.40036 0.1168 6.28356C-7.15256e-08 6.16596 0 5.97636 0 5.60036ZM0 12.8003C0 14.3091 -4.76837e-08 15.0627 0.4688 15.5315C0.9376 16.0003 1.6912 16.0003 3.2 16.0003H12.8C14.3088 16.0003 15.0624 16.0003 15.5312 15.5315C16 15.0627 16 14.3091 16 12.8003V8.80034C16 8.42354 16 8.23474 15.8832 8.11714C15.7656 8.00034 15.576 8.00034 15.2 8.00034H0.8C0.4232 8.00034 0.2344 8.00034 0.1168 8.11714C-7.15256e-08 8.23474 0 8.42434 0 8.80034V12.8003Z" fill="#E6ECE5"/>
<path d="M4 0.799805V3.19978V0.799805ZM12 0.799805V3.19978V0.799805Z" fill="#E6ECE5"/>
<path d="M4 0.799805V3.19979M12 0.799805V3.19979" stroke="#E6ECE5" stroke-width="1.6" stroke-linecap="round"/>
</g>
<defs>
<clipPath id="clip0_3241_3260">
<rect width="16" height="16" fill="white"/>
</clipPath>
</defs>
</svg>
