<svg width="16" height="16" viewBox="0 0 16 16" fill="none" xmlns="http://www.w3.org/2000/svg">
<g clip-path="url(#clip0_3241_3330)">
<path fill-rule="evenodd" clip-rule="evenodd" d="M2.6 6.7894V5.20482C2.6 3.82442 3.16893 2.50055 4.18162 1.52446C5.19432 0.548363 6.56783 0 8 0C9.43217 0 10.8057 0.548363 11.8184 1.52446C12.8311 2.50055 13.4 3.82442 13.4 5.20482V6.7894C14.292 6.8534 14.872 7.01533 15.2968 7.42477C16 8.10178 16 9.19287 16 11.3735C16 13.5541 16 14.6452 15.2968 15.3222C14.5944 16 13.4624 16 11.2 16H4.8C2.5376 16 1.4056 16 0.7032 15.3222C-6.81196e-08 14.6452 0 13.5541 0 11.3735C0 9.19287 -6.81196e-08 8.10178 0.7032 7.42477C1.1272 7.01533 1.708 6.8534 2.6 6.7894ZM3.8 5.20482C3.8 4.13117 4.2425 3.1015 5.03015 2.34231C5.8178 1.58313 6.88609 1.15663 8 1.15663C9.11391 1.15663 10.1822 1.58313 10.9698 2.34231C11.7575 3.1015 12.2 4.13117 12.2 5.20482V6.75007C11.8939 6.7475 11.5605 6.74647 11.2 6.74699H4.8C4.43893 6.74647 4.1056 6.7475 3.8 6.75007V5.20482ZM9.6 11.3735C9.6 11.7825 9.43143 12.1748 9.13137 12.464C8.83131 12.7532 8.42435 12.9157 8 12.9157C7.57565 12.9157 7.16869 12.7532 6.86863 12.464C6.56857 12.1748 6.4 11.7825 6.4 11.3735C6.4 10.9645 6.56857 10.5722 6.86863 10.283C7.16869 9.9938 7.57565 9.83133 8 9.83133C8.42435 9.83133 8.83131 9.9938 9.13137 10.283C9.43143 10.5722 9.6 10.9645 9.6 11.3735Z" fill="#E6ECE5"/>
</g>
<defs>
<clipPath id="clip0_3241_3330">
<rect width="16" height="16" fill="white"/>
</clipPath>
</defs>
</svg>
