<svg width="16" height="16" viewBox="0 0 16 16" fill="none" xmlns="http://www.w3.org/2000/svg">
<path d="M6.72852 1.33301V3.33301H9.43066V1.33301H12.8086C13.1669 1.33301 13.5113 1.47358 13.7646 1.72363C14.018 1.97367 14.1602 2.31343 14.1602 2.66699V14.667C14.1601 15.0204 14.0178 15.3594 13.7646 15.6094C13.5113 15.8594 13.1669 16 12.8086 16H3.35156C2.99323 16 2.64889 15.8594 2.39551 15.6094C2.14231 15.3594 2.00007 15.0204 2 14.667V2.66699C2 2.31337 2.14213 1.97368 2.39551 1.72363C2.64889 1.47359 2.99323 1.33301 3.35156 1.33301H6.72852ZM4.03125 14V14.834H9.77344V14H4.03125ZM4.03125 12.334V13.167H12.1377V12.334H4.03125ZM8.08496 8.83398C6.96198 8.83398 4.70751 9.39189 4.70703 10.5V11.334H11.4619V10.5C11.4614 9.39203 9.20808 8.83412 8.08496 8.83398ZM8.08496 4.66699C7.63708 4.66699 7.20734 4.84276 6.89062 5.15527C6.5739 5.46784 6.39551 5.89195 6.39551 6.33398C6.39559 6.77586 6.57403 7.19924 6.89062 7.51172C7.20735 7.82428 7.63704 8 8.08496 8C8.53273 7.99989 8.96169 7.82418 9.27832 7.51172C9.59497 7.19923 9.77335 6.7759 9.77344 6.33398C9.77344 5.89195 9.59505 5.46784 9.27832 5.15527C8.96171 4.84291 8.53265 4.6671 8.08496 4.66699ZM8.75586 2.66699H7.4043V0H8.75586V2.66699Z" fill="#E6ECE5"/>
</svg>
