<svg width="13" height="16" viewBox="0 0 13 16" fill="none" xmlns="http://www.w3.org/2000/svg">
<g clip-path="url(#clip0_3241_3074)">
<path d="M4.0625 0V0.804228H0V2.41269H0.8125V12.8677C0.8125 13.2942 0.983705 13.7034 1.28845 14.005C1.5932 14.3066 2.00652 14.4761 2.4375 14.4761H10.5625C10.9935 14.4761 11.4068 14.3066 11.7115 14.005C12.0163 13.7034 12.1875 13.2942 12.1875 12.8677V2.41269H13V0.804228H8.9375V0H4.0625ZM2.4375 2.41269H10.5625V12.8677H2.4375V2.41269ZM4.0625 4.02114V11.2592H5.6875V4.02114H4.0625ZM7.3125 4.02114V11.2592H8.9375V4.02114H7.3125Z" fill="#E6ECE5"/>
</g>
<defs>
<clipPath id="clip0_3241_3074">
<rect width="13" height="16" fill="white"/>
</clipPath>
</defs>
</svg>
