<svg width="16" height="16" viewBox="0 0 16 16" fill="none" xmlns="http://www.w3.org/2000/svg">
<path d="M6.19639 0C5.7195 0 5.3329 0.386598 5.3329 0.863492H2.64084C2.16394 0.863492 1.77734 1.25009 1.77734 1.72698C1.77734 2.20388 2.16394 2.59048 2.64084 2.59048H2.66623V13.3841C2.66623 13.8422 2.85353 14.2814 3.18693 14.6053C3.52033 14.9292 3.97251 15.1111 4.44401 15.1111H11.5551C12.0266 15.1111 12.4788 14.9292 12.8122 14.6053C13.1456 14.2814 13.3329 13.8422 13.3329 13.3841V2.59048H13.3583C13.8352 2.59048 14.2218 2.20388 14.2218 1.72698C14.2218 1.25009 13.8352 0.863492 13.3583 0.863492H10.6662C10.6662 0.386598 10.2796 0 9.80274 0H6.19639ZM3.99957 3.47937C3.99957 2.98845 4.39753 2.59048 4.88845 2.59048H11.1107C11.6016 2.59048 11.9996 2.98845 11.9996 3.47937V12.927C11.9996 13.4179 11.6016 13.8159 11.1107 13.8159H4.88845C4.39753 13.8159 3.99957 13.4179 3.99957 12.927V3.47937ZM6.44401 4.31746C6.07582 4.31746 5.77734 4.61594 5.77734 4.98413V11.4222C5.77734 11.7904 6.07582 12.0889 6.44401 12.0889C6.8122 12.0889 7.11068 11.7904 7.11068 11.4222V4.98413C7.11068 4.61594 6.8122 4.31746 6.44401 4.31746ZM9.55512 4.31746C9.18693 4.31746 8.88845 4.61594 8.88845 4.98413V11.4222C8.88845 11.7904 9.18693 12.0889 9.55512 12.0889C9.92331 12.0889 10.2218 11.7904 10.2218 11.4222V4.98413C10.2218 4.61594 9.92331 4.31746 9.55512 4.31746Z" fill="#E6ECE5"/>
</svg>
