<svg width="16" height="16" viewBox="0 0 16 16" fill="none" xmlns="http://www.w3.org/2000/svg">
<g clip-path="url(#clip0_3247_3350)">
<path d="M13.7139 0C14.9762 0 16 1.02377 16 2.28613V13.7139C16 14.9762 14.9762 16 13.7139 16H2.28613C1.02377 16 0 14.9762 0 13.7139V2.28613C0 1.02377 1.02377 0 2.28613 0H13.7139ZM6.68555 4.49512H4.49512V5.37109H4.93359V11.0664C4.93359 11.2988 5.02611 11.5222 5.19043 11.6865C5.35471 11.8506 5.57737 11.9424 5.80957 11.9424H10.1904C10.4226 11.9424 10.6453 11.8506 10.8096 11.6865C10.9739 11.5222 11.0664 11.2988 11.0664 11.0664V5.37109H11.5049V4.49512H9.31445V4.05762H6.68555V4.49512ZM10.1904 11.0664H5.80957V5.37109H10.1904V11.0664ZM6.68555 10.1904H7.56152V6.24805H6.68555V10.1904ZM8.43848 10.1904H9.31445V6.24805H8.43848V10.1904Z" fill="#E6ECE5"/>
</g>
<defs>
<clipPath id="clip0_3247_3350">
<rect width="16" height="16" fill="white"/>
</clipPath>
</defs>
</svg>
