<svg width="16" height="16" viewBox="0 0 16 16" fill="none" xmlns="http://www.w3.org/2000/svg">
<g clip-path="url(#clip0_3241_3015)">
<path fill-rule="evenodd" clip-rule="evenodd" d="M8.00078 0C7.78861 0 7.58512 0.0842854 7.4351 0.234315C7.28507 0.384344 7.20078 0.587827 7.20078 0.8V2.4H2.40078C1.97643 2.4 1.56947 2.56857 1.26941 2.86863C0.969352 3.16869 0.800781 3.57565 0.800781 4V14.4C0.800781 14.8243 0.969352 15.2313 1.26941 15.5314C1.56947 15.8314 1.97643 16 2.40078 16H13.6008C14.0251 16 14.4321 15.8314 14.7322 15.5314C15.0322 15.2313 15.2008 14.8243 15.2008 14.4V4C15.2008 3.57565 15.0322 3.16869 14.7322 2.86863C14.4321 2.56857 14.0251 2.4 13.6008 2.4H8.80078V0.8C8.80078 0.587827 8.7165 0.384344 8.56647 0.234315C8.41644 0.0842854 8.21295 0 8.00078 0ZM8.80078 2.4V9.4624L10.2632 8C10.4132 7.84989 10.6167 7.76551 10.8289 7.76544C11.0411 7.76536 11.2447 7.84959 11.3948 7.9996C11.5449 8.14961 11.6293 8.3531 11.6293 8.56532C11.6294 8.77753 11.5452 8.98109 11.3952 9.1312L8.70718 11.8184C8.51967 12.0057 8.26545 12.111 8.00038 12.111C7.73531 12.111 7.48109 12.0057 7.29358 11.8184L4.60638 9.1312C4.53211 9.05687 4.4732 8.96864 4.43302 8.87155C4.39284 8.77445 4.37218 8.6704 4.37222 8.56532C4.37226 8.46024 4.39299 8.3562 4.43324 8.25913C4.47348 8.16206 4.53245 8.07388 4.60678 7.9996C4.68111 7.92532 4.76934 7.86642 4.86643 7.82624C4.96353 7.78606 5.06758 7.7654 5.17266 7.76544C5.27774 7.76548 5.38178 7.78621 5.47885 7.82646C5.57592 7.8667 5.66411 7.92567 5.73838 8L7.20078 9.4624V2.4H8.80078Z" fill="#E6ECE5"/>
</g>
<defs>
<clipPath id="clip0_3241_3015">
<rect width="16" height="16" fill="white"/>
</clipPath>
</defs>
</svg>
