<svg width="16" height="16" viewBox="0 0 16 16" fill="none" xmlns="http://www.w3.org/2000/svg">
<g clip-path="url(#clip0_3241_3106)">
<path d="M0.886719 13.3856V11.2774L12.5611 0.240954C12.6526 0.164544 12.753 0.105425 12.8623 0.0635945C12.9715 0.0217645 13.0858 0.00057041 13.2051 1.26757e-05C13.3243 -0.000545058 13.4395 0.0173025 13.5505 0.0535553C13.6627 0.0886925 13.766 0.152274 13.8605 0.2443L14.8056 1.14281C14.9031 1.23149 14.9698 1.32909 15.0058 1.43562C15.0412 1.54159 15.059 1.64756 15.059 1.75353C15.059 1.86731 15.0389 1.97606 14.9987 2.0798C14.958 2.18298 14.8936 2.27752 14.8056 2.36341L3.11796 13.3856H0.886719ZM12.8481 3.00257L14.1732 1.76608L13.1891 0.836614L11.8808 2.08817L12.8481 3.00257Z" fill="#E6ECE5"/>
<path d="M0 15.0586L13.2865 15.0586" stroke="#E6ECE5" stroke-width="0.888889" stroke-linecap="round"/>
</g>
<defs>
<clipPath id="clip0_3241_3106">
<rect width="16" height="16" fill="white"/>
</clipPath>
</defs>
</svg>
