<svg width="16" height="16" viewBox="0 0 16 16" fill="none" xmlns="http://www.w3.org/2000/svg">
<g clip-path="url(#clip0_3241_3078)">
<path d="M5.08081 3.63086H4.38721C4.0193 3.63086 3.66646 3.78196 3.4063 4.05091C3.14615 4.31987 3 4.68465 3 5.06501V11.5187C3 11.8991 3.14615 12.2638 3.4063 12.5328C3.66646 12.8017 4.0193 12.9528 4.38721 12.9528H10.6297C10.9976 12.9528 11.3504 12.8017 11.6106 12.5328C11.8707 12.2638 12.0169 11.8991 12.0169 11.5187V10.8016" stroke="#E6ECE5" stroke-width="1.94332" stroke-linecap="round" stroke-linejoin="round"/>
<path d="M11.3201 2.19595L13.4009 4.34717M14.3615 3.33251C14.6347 3.05009 14.7882 2.66705 14.7882 2.26765C14.7882 1.86826 14.6347 1.48521 14.3615 1.2028C14.0884 0.920379 13.7179 0.761719 13.3315 0.761719C12.9452 0.761719 12.5747 0.920379 12.3015 1.2028L6.46484 7.21548V9.36671H8.54566L14.3615 3.33251Z" stroke="#E6ECE5" stroke-width="1.53846" stroke-linecap="round" stroke-linejoin="round"/>
</g>
<defs>
<clipPath id="clip0_3241_3078">
<rect width="16" height="16" fill="white"/>
</clipPath>
</defs>
</svg>
