<svg width="16" height="16" viewBox="0 0 16 16" fill="none" xmlns="http://www.w3.org/2000/svg">
<g clip-path="url(#clip0_3241_3046)">
<path d="M6.13011 7.35734C6.00207 7.4854 5.90052 7.63745 5.83128 7.80479C5.76203 7.97213 5.72645 8.15147 5.72656 8.33257V10.2724H7.67845C8.04415 10.2724 8.39546 10.1271 8.6544 9.86811L14.4086 4.1106C14.5369 3.98259 14.6387 3.83052 14.7082 3.66311C14.7776 3.4957 14.8134 3.31623 14.8134 3.13498C14.8134 2.95373 14.7776 2.77426 14.7082 2.60685C14.6387 2.43944 14.5369 2.28738 14.4086 2.15937L13.84 1.59073C13.712 1.4623 13.5599 1.3604 13.3924 1.29087C13.2249 1.22134 13.0454 1.18555 12.8641 1.18555C12.6827 1.18555 12.5032 1.22134 12.3357 1.29087C12.1682 1.3604 12.0161 1.4623 11.8881 1.59073L6.13011 7.35734Z" stroke="#E6ECE5" stroke-width="1.80429" stroke-linecap="round" stroke-linejoin="round"/>
<path d="M14.812 8.00105C14.812 11.2137 14.812 12.8197 13.8141 13.8176C12.8162 14.8156 11.2095 14.8156 7.99779 14.8156C4.78603 14.8156 3.1794 14.8156 2.18149 13.8176C1.18359 12.8197 1.18359 11.213 1.18359 8.00105C1.18359 4.78914 1.18359 3.18242 2.18149 2.18447C3.1794 1.18652 4.78603 1.18652 7.99779 1.18652" stroke="#E6ECE5" stroke-width="1.80429" stroke-linecap="round" stroke-linejoin="round"/>
</g>
<defs>
<clipPath id="clip0_3241_3046">
<rect width="16" height="16" fill="white"/>
</clipPath>
</defs>
</svg>
