<svg width="16" height="16" viewBox="0 0 16 16" fill="none" xmlns="http://www.w3.org/2000/svg">
<g clip-path="url(#clip0_3241_2899)">
<path d="M3.2 0C2.35131 0 1.53737 0.337142 0.937258 0.937258C0.337142 1.53737 0 2.35131 0 3.2V9.6C0 10.4487 0.337142 11.2626 0.937258 11.8627C1.53737 12.4629 2.35131 12.8 3.2 12.8H9.6C10.4487 12.8 11.2626 12.4629 11.8627 11.8627C12.4629 11.2626 12.8 10.4487 12.8 9.6V3.2C12.8 2.35131 12.4629 1.53737 11.8627 0.937258C11.2626 0.337142 10.4487 0 9.6 0H3.2ZM1.6 3.2C1.6 2.77565 1.76857 2.36869 2.06863 2.06863C2.36869 1.76857 2.77565 1.6 3.2 1.6H9.6C10.0243 1.6 10.4313 1.76857 10.7314 2.06863C11.0314 2.36869 11.2 2.77565 11.2 3.2V9.6C11.2 10.0243 11.0314 10.4313 10.7314 10.7314C10.4313 11.0314 10.0243 11.2 9.6 11.2H3.2C2.77565 11.2 2.36869 11.0314 2.06863 10.7314C1.76857 10.4313 1.6 10.0243 1.6 9.6V3.2ZM3.6288 14.4C3.90965 14.8864 4.3136 15.2904 4.80005 15.5713C5.28649 15.8521 5.8383 16 6.4 16H9.6C11.2974 16 12.9253 15.3257 14.1255 14.1255C15.3257 12.9253 16 11.2974 16 9.6V6.4C16 5.8383 15.8521 5.28649 15.5713 4.80005C15.2904 4.3136 14.8864 3.90965 14.4 3.6288V9.6C14.4 10.873 13.8943 12.0939 12.9941 12.9941C12.0939 13.8943 10.873 14.4 9.6 14.4H3.6288ZM8 4C8 4.42435 7.83143 4.83131 7.53137 5.13137C7.23131 5.43143 6.82435 5.6 6.4 5.6C5.97565 5.6 5.56869 5.43143 5.26863 5.13137C4.96857 4.83131 4.8 4.42435 4.8 4C4.8 3.57565 4.96857 3.16869 5.26863 2.86863C5.56869 2.56857 5.97565 2.4 6.4 2.4C6.82435 2.4 7.23131 2.56857 7.53137 2.86863C7.83143 3.16869 8 3.57565 8 4ZM9.6 7.6C9.6 8.8 8.8 10 6.4 10C4 10 3.2 8.8 3.2 7.6C3.2 7.28174 3.32643 6.97652 3.55147 6.75147C3.77652 6.52643 4.08174 6.4 4.4 6.4H8.4C8.71826 6.4 9.02349 6.52643 9.24853 6.75147C9.47357 6.97652 9.6 7.28174 9.6 7.6Z" fill="#E6ECE5"/>
</g>
<defs>
<clipPath id="clip0_3241_2899">
<rect width="16" height="16" fill="white"/>
</clipPath>
</defs>
</svg>
