<svg width="16" height="16" viewBox="0 0 16 16" fill="none" xmlns="http://www.w3.org/2000/svg">
<path d="M8.36818 0.728516C8.07808 0.728516 7.79987 0.844963 7.59474 1.05224C7.38962 1.25952 7.27438 1.54064 7.27437 1.83378C7.27438 2.12691 7.38962 2.40804 7.59474 2.61532C7.79987 2.8226 8.07808 2.93904 8.36818 2.93904H12.0142C12.1109 2.93904 12.2036 2.97786 12.272 3.04695C12.3404 3.11604 12.3788 3.20975 12.3788 3.30746V12.1496C12.3788 12.2473 12.3404 12.341 12.272 12.4101C12.2036 12.4792 12.1109 12.518 12.0142 12.518H8.73278C8.44269 12.518 8.16447 12.6344 7.95934 12.8417C7.75422 13.049 7.63898 13.3301 7.63898 13.6233C7.63898 13.9164 7.75422 14.1975 7.95934 14.4048C8.16447 14.6121 8.44269 14.7285 8.73278 14.7285H12.0142C12.6911 14.7285 13.3402 14.4568 13.8189 13.9732C14.2975 13.4895 14.5664 12.8335 14.5664 12.1496V3.30746C14.5664 2.62348 14.2975 1.96752 13.8189 1.48387C13.3402 1.00023 12.6911 0.728516 12.0142 0.728516H8.36818ZM3.94921 4.8622L1.88629 6.94746C1.68146 7.1547 1.56641 7.43562 1.56641 7.72852C1.56641 8.02141 1.68146 8.30233 1.88629 8.50957L3.94848 10.5948C4.15367 10.8022 4.43198 10.9187 4.72216 10.9187C5.01235 10.9187 5.29066 10.8022 5.49585 10.5948C5.70104 10.3875 5.81632 10.1063 5.81632 9.81304C5.81632 9.51981 5.70104 9.2386 5.49585 9.03125L5.30042 8.83378H8.36818C8.65828 8.83378 8.93649 8.71733 9.14162 8.51005C9.34675 8.30278 9.46198 8.02165 9.46198 7.72852C9.46198 7.43538 9.34675 7.15425 9.14162 6.94698C8.93649 6.7397 8.65828 6.62325 8.36818 6.62325H5.30042L5.49585 6.42578C5.5974 6.32311 5.67795 6.20124 5.73289 6.06712C5.78784 5.933 5.8161 5.78925 5.81606 5.6441C5.81603 5.49894 5.7877 5.35521 5.73269 5.22112C5.67769 5.08702 5.59709 4.96519 5.49548 4.86257C5.39388 4.75995 5.27327 4.67856 5.14054 4.62304C5.00781 4.56752 4.86556 4.53897 4.72191 4.539C4.57825 4.53904 4.43602 4.56766 4.30331 4.62324C4.17061 4.67882 4.05003 4.76027 3.94848 4.86294L3.94921 4.8622Z" fill="#E6ECE5"/>
</svg>
