<svg width="16" height="16" viewBox="0 0 16 16" fill="none" xmlns="http://www.w3.org/2000/svg">
<path d="M8 3.59961C10.1678 3.59961 12.1303 4.39998 13.6914 5.92188C14.2806 6.49632 14.709 7.07117 14.9912 7.50684C15.132 7.72422 15.2357 7.90608 15.3047 8.03418C15.3391 8.09815 15.3646 8.14883 15.3818 8.18359C15.3848 8.18955 15.3872 8.19518 15.3896 8.2002C15.3871 8.2054 15.3849 8.21153 15.3818 8.21777C15.3646 8.25253 15.3391 8.30324 15.3047 8.36719C15.2358 8.49515 15.1318 8.67645 14.9912 8.89355C14.7444 9.27457 14.3856 9.76204 13.9053 10.2627L13.6914 10.4785C12.1302 11.9999 10.1678 12.7998 8 12.7998C5.83217 12.7998 3.86977 11.9999 2.30859 10.4785C1.71939 9.90404 1.29096 9.32907 1.00879 8.89355C0.868151 8.67645 0.764244 8.49515 0.695312 8.36719C0.660868 8.30324 0.63536 8.25253 0.618164 8.21777C0.615 8.21138 0.611961 8.2055 0.609375 8.2002C0.68679 8.04032 1.2201 6.98316 2.30859 5.92188C3.86973 4.39998 5.8322 3.59961 8 3.59961ZM9.24512 5.24121C8.65014 5.00096 7.99589 4.93824 7.36523 5.06055C6.73455 5.1829 6.15304 5.48537 5.69531 5.93164C5.23736 6.37814 4.92411 6.94958 4.79688 7.57324C4.66972 8.1969 4.73522 8.8432 4.98438 9.42969C5.23352 10.016 5.65454 10.5145 6.19141 10.8643C6.72813 11.2139 7.35732 11.4004 8 11.4004C8.86154 11.4004 9.69097 11.0661 10.3047 10.4678C10.9187 9.86896 11.2665 9.05367 11.2666 8.2002C11.2666 7.56386 11.0728 6.9426 10.7119 6.41602C10.3512 5.88979 9.84014 5.48151 9.24512 5.24121Z" stroke="#E6ECE5" stroke-width="1.2"/>
</svg>
