<svg width="16" height="16" viewBox="0 0 16 16" fill="none" xmlns="http://www.w3.org/2000/svg">
<path fill-rule="evenodd" clip-rule="evenodd" d="M9.50704 15H6.76056C4.17132 15 1.60875 15 0.804718 14.1813C0.000686646 13.3626 0 12.0459 0 9.41176V6.61764C0 3.98348 0 2.66605 0.804718 1.84807C1.87445 0.76072 4.17819 1.02939 6.78116 1.02939C7.19725 1.02939 7.53026 1.02939 7.81109 1.04127C7.80194 1.09715 7.79736 1.15396 7.79736 1.21171L7.79049 3.19134C7.79049 3.95763 7.79049 4.63521 7.86259 5.18076C7.94086 5.77241 8.12007 6.36407 8.59521 6.84745C9.06898 7.32944 9.65123 7.51245 10.2328 7.59209C10.769 7.66543 11.4351 7.66543 12.1883 7.66543H14.9705C15 8.03845 15 8.49668 15 9.1065V9.41176C15 12.0459 15 13.3633 14.1953 14.1813C13.3906 14.9993 12.0963 15 9.50704 15Z" fill="#E6ECE5"/>
<path d="M13.1637 4.98625L10.4364 2.43472C9.66027 1.70786 9.27253 1.34407 8.79526 1.1543L8.78906 3.11216C8.78906 4.80006 8.78906 5.64436 9.2932 6.16856C9.79733 6.69276 10.6093 6.69276 12.2326 6.69276H14.6982C14.4488 6.18861 14.0012 5.7704 13.1637 4.98625Z" fill="#E6ECE5"/>
</svg>
