<svg width="16" height="16" viewBox="0 0 16 16" fill="none" xmlns="http://www.w3.org/2000/svg">
<path d="M14.4008 5.93351V10.8367C14.4008 11.3575 14.2044 11.857 13.855 12.2252C13.5055 12.5935 13.0315 12.8004 12.5373 12.8004H2.66428C2.17005 12.8004 1.69606 12.5935 1.34659 12.2252C0.997114 11.857 0.800781 11.3575 0.800781 10.8367V3.72714C0.800781 3.20634 1.25411 2.82336 1.25411 2.82336C1.60359 2.4551 2.17005 2.40039 2.66428 2.40039H4.52839C4.83592 2.40001 5.13875 2.47991 5.40983 2.63296C5.6809 2.78601 5.91177 3.00744 6.08181 3.27746C6.08181 3.27746 6.42918 3.97555 7.48533 3.97555H12.5373C13.0305 3.97572 13.5036 4.18187 13.8529 4.54886C14.2022 4.91585 14.3992 5.41375 14.4008 5.93351Z" stroke="#E6ECE5" stroke-width="1.2" stroke-linecap="round" stroke-linejoin="round"/>
</svg>
