<svg width="16" height="16" viewBox="0 0 16 16" fill="none" xmlns="http://www.w3.org/2000/svg">
<g clip-path="url(#clip0_3241_3036)">
<path d="M9.78733 15.4667H0.860569C0.501639 15.4667 0.245813 15.2997 0.0930915 14.9657C-0.05963 14.6318 -0.0244408 14.3166 0.198659 14.0202L4.59556 8.16805C4.69057 8.0408 4.73807 7.8992 4.73807 7.74326C4.73807 7.58732 4.69057 7.44573 4.59556 7.31848L0.198659 1.44648C-0.0244408 1.15005 -0.05963 0.834863 0.0930915 0.500918C0.245813 0.166973 0.501639 0 0.860569 0H9.76728C10.034 0 10.2867 0.0566386 10.5253 0.169915C10.7631 0.283927 10.9584 0.450532 11.1112 0.66973L15.6189 6.6322C15.873 6.96173 16 7.33245 16 7.74437C16 8.15628 15.8726 8.52701 15.6178 8.85654L11.1312 14.7969C10.9785 15.0169 10.7828 15.1835 10.5443 15.2968C10.3064 15.4108 10.0541 15.4667 9.78733 15.4667Z" fill="#E6ECE5"/>
</g>
<defs>
<clipPath id="clip0_3241_3036">
<rect width="16" height="16" fill="white"/>
</clipPath>
</defs>
</svg>
