<svg width="16" height="16" viewBox="0 0 16 16" fill="none" xmlns="http://www.w3.org/2000/svg">
<g clip-path="url(#clip0_3241_2876)">
<path d="M11.9141 0C14.0497 0.000250993 15.8331 1.65235 15.9209 3.78613C16.0452 6.8175 16.0137 9.27786 15.8945 12.1465C15.8047 14.3071 14.0111 15.9998 11.8486 16H4.12207C2.04693 16 0.286888 14.4384 0.144531 12.3682C-0.0620682 9.36345 -0.0405196 6.81768 0.170898 3.69336C0.31283 1.59841 2.08087 0 4.18066 0H11.9141ZM5.41504 3.55566C4.96804 3.55479 4.57492 3.85316 4.45312 4.28613L4.50879 4.34082L4.45312 4.28906C4.43093 4.37172 4.42054 4.45735 4.4209 4.54297V11.3975C4.42102 11.4403 4.42345 11.483 4.42871 11.5254L4.45312 11.6514L4.48926 11.7598C4.53231 11.8654 4.59387 11.9633 4.66992 12.0488C4.77134 12.1627 4.89726 12.2521 5.03809 12.3096C5.17902 12.3671 5.33171 12.3906 5.4834 12.3799C5.63484 12.3691 5.78174 12.3237 5.91309 12.2471L10.0518 9.87402L11.8447 8.84766C12.0019 8.76474 12.1337 8.64011 12.2256 8.4873C12.3175 8.33434 12.3662 8.15829 12.3662 7.97949C12.3661 7.80084 12.3175 7.62551 12.2256 7.47266C12.1337 7.31982 12.0019 7.19524 11.8447 7.1123H11.8496L10.0605 6.08008L5.92676 3.69629C5.77143 3.60477 5.59501 3.55622 5.41504 3.55566Z" fill="#E6ECE5"/>
</g>
<defs>
<clipPath id="clip0_3241_2876">
<rect width="16" height="16" fill="white"/>
</clipPath>
</defs>
</svg>
