<svg width="16" height="16" viewBox="0 0 16 16" fill="none" xmlns="http://www.w3.org/2000/svg">
<g clip-path="url(#clip0_3241_3293)">
<path d="M0 2.12803C0 1.90956 0.119841 1.7087 0.312094 1.60494L3.00343 0.152375C3.17963 0.057275 3.39187 0.057275 3.56808 0.152375L6.25941 1.60494C6.45167 1.7087 6.57151 1.90956 6.57151 2.12803V5.84507C6.57151 6.06729 6.44756 6.27095 6.25018 6.37304L3.55884 7.76508C3.38756 7.85367 3.18395 7.85367 3.01267 7.76508L0.321333 6.37304C0.123952 6.27095 0 6.06729 0 5.84507V2.12803Z" fill="#E6ECE5"/>
<path d="M4.85547 9.22178C4.85547 9.00331 4.97531 8.80245 5.16756 8.69869L7.8589 7.24612C8.0351 7.15103 8.24734 7.15102 8.42355 7.24612L11.1149 8.69869C11.3071 8.80245 11.427 9.00331 11.427 9.22178V12.9388C11.427 13.161 11.303 13.3647 11.1056 13.4668L8.41431 14.8588C8.24303 14.9474 8.03942 14.9474 7.86814 14.8588L5.1768 13.4668C4.97942 13.3647 4.85547 13.161 4.85547 12.9388V9.22178Z" fill="#E6ECE5"/>
<path d="M9.42969 2.12803C9.42969 1.90956 9.54953 1.7087 9.74178 1.60494L12.4331 0.152375C12.6093 0.057275 12.8216 0.057275 12.9978 0.152375L15.6891 1.60494C15.8814 1.7087 16.0012 1.90956 16.0012 2.12803V5.84507C16.0012 6.06729 15.8772 6.27095 15.6799 6.37304L12.9885 7.76508C12.8172 7.85367 12.6136 7.85367 12.4424 7.76508L9.75102 6.37304C9.55364 6.27095 9.42969 6.06729 9.42969 5.84507V2.12803Z" fill="#E6ECE5"/>
</g>
<defs>
<clipPath id="clip0_3241_3293">
<rect width="16" height="16" fill="white"/>
</clipPath>
</defs>
</svg>
