<svg width="16" height="16" viewBox="0 0 16 16" fill="none" xmlns="http://www.w3.org/2000/svg">
<path d="M12.9033 3C14.6135 3.00005 15.9999 4.38645 16 6.09668V9.90332C15.9999 11.6135 14.6135 12.9999 12.9033 13H3.09668C1.38645 12.9999 5.10877e-05 11.6135 0 9.90332V6.09668C5.10877e-05 4.38645 1.38645 3.00005 3.09668 3H12.9033ZM3.49219 5.86133V10H4.4502V8.30273H6.33008V10H7.28809V5.86133H6.33008V7.49316H4.4502V5.86133H3.49219ZM8.20801 5.86133V10H9.16504V8.84668H9.99902C10.0134 8.84668 10.0278 8.8449 10.042 8.84473L10.8389 10H11.873L10.9482 8.67285C10.951 8.67163 10.9542 8.67116 10.957 8.66992C11.2249 8.55172 11.4313 8.38173 11.5771 8.16113C11.7229 7.93655 11.7959 7.67058 11.7959 7.36328C11.7959 7.05191 11.723 6.78325 11.5771 6.55859C11.4314 6.33424 11.2247 6.16308 10.957 6.04492C10.689 5.92274 10.3695 5.86133 9.99902 5.86133H8.20801ZM9.94629 6.6416C10.2417 6.64166 10.4626 6.70499 10.6084 6.83105C10.754 6.95716 10.8271 7.13484 10.8271 7.36328C10.8271 7.5878 10.7542 7.7655 10.6084 7.89551C10.4626 8.02157 10.2417 8.08392 9.94629 8.08398H9.16504V6.6416H9.94629Z" fill="#E6ECE5"/>
</svg>
