<svg width="16" height="16" viewBox="0 0 16 16" fill="none" xmlns="http://www.w3.org/2000/svg">
<g clip-path="url(#clip0_3241_2946)">
<path fill-rule="evenodd" clip-rule="evenodd" d="M6.73706 0C10.4579 0 13.4741 3.01609 13.4741 6.73685C13.4741 7.25664 13.4153 7.76267 13.3038 8.24865C12.4985 8.14746 11.8066 8.18171 11.2154 8.3158C11.1472 8.43966 11.0728 8.63951 10.7793 8.72922C10.6455 8.77012 10.5081 8.75836 10.2309 8.75858C10.3349 8.95001 10.4586 9.13483 10.4916 9.27516C10.6468 9.93653 10.1814 10.25 9.63468 10.0743C9.33125 9.97915 9.24864 9.76102 9.12757 9.54484C8.09854 10.7484 7.97091 12.4453 8.26204 13.3004C7.77203 13.4138 7.26155 13.4737 6.73706 13.4737C3.01618 13.4737 0 10.4576 0 6.73685C0 3.01609 3.01618 0 6.73706 0ZM7.07392 7.41053H2.89694C2.71826 7.41053 2.5469 7.48151 2.42055 7.60785C2.29421 7.73419 2.22323 7.90554 2.22323 8.08422C2.22323 8.26289 2.29421 8.43424 2.42055 8.56058C2.5469 8.68692 2.71826 8.7579 2.89694 8.7579H3.24322L3.04987 9.10215C3.00661 9.17939 2.97898 9.26439 2.96857 9.3523C2.95815 9.44021 2.96516 9.52931 2.98918 9.61451C3.0132 9.69971 3.05377 9.77935 3.10857 9.84888C3.16338 9.9184 3.23133 9.97645 3.30857 10.0197C3.38581 10.063 3.47081 10.0906 3.55872 10.101C3.64664 10.1114 3.73574 10.1044 3.82094 10.0804C3.90615 10.0564 3.98579 10.0158 4.05532 9.96101C4.12484 9.90621 4.1829 9.83825 4.22616 9.76102L4.78736 8.7579H7.07392C7.25259 8.7579 7.42395 8.68692 7.5503 8.56058C7.67664 8.43424 7.74762 8.26289 7.74762 8.08422C7.74762 7.90554 7.67664 7.73419 7.5503 7.60785C7.42395 7.48151 7.25259 7.41053 7.07392 7.41053ZM8.34924 5.39756C8.266 5.24622 8.12782 5.13262 7.96322 5.08024C7.79863 5.02786 7.6202 5.0407 7.4648 5.11611C7.3094 5.19151 7.1889 5.32373 7.12819 5.48543C7.06749 5.64713 7.07121 5.82598 7.13859 5.98501L7.17362 6.05575L9.12757 9.54484L9.24864 9.76102C9.33268 9.91083 9.47077 10.0229 9.63468 10.0743C9.79859 10.1257 9.97594 10.1125 10.1305 10.0375C10.285 9.96244 10.405 9.83123 10.466 9.67065C10.527 9.51007 10.5244 9.33226 10.4586 9.17356L10.4236 9.10215L10.2309 8.75858H10.5772C10.7499 8.75994 10.9166 8.69489 11.0428 8.57685C11.1207 8.50397 11.1795 8.41432 11.2154 8.3158C11.2377 8.25477 11.2512 8.19034 11.2551 8.12437C11.2652 7.95191 11.2087 7.78215 11.0972 7.65017C10.9857 7.5182 10.8277 7.4341 10.656 7.41525L10.5772 7.41053H9.47635L8.34924 5.39756ZM6.6515 2.36598C6.56827 2.21463 6.43008 2.10104 6.26548 2.04866C6.10089 1.99628 5.92246 2.00912 5.76706 2.08453C5.61166 2.15993 5.49116 2.29214 5.43045 2.45385C5.36975 2.61555 5.37347 2.7944 5.44085 2.95343L5.47521 3.02417L5.96499 3.89794L4.74761 6.07125C4.6629 6.22131 4.63892 6.39812 4.68059 6.56532C4.72226 6.73252 4.82642 6.8774 4.97164 6.97015C5.11687 7.06291 5.29212 7.0965 5.46134 7.064C5.63057 7.03151 5.78092 6.9354 5.88145 6.79546L5.9239 6.72944L7.99891 3.02417C8.08476 2.87406 8.1096 2.6967 8.06829 2.52879C8.02697 2.36087 7.92268 2.21528 7.77698 2.12213C7.63129 2.02899 7.45536 1.99543 7.28561 2.02841C7.11586 2.06139 6.96529 2.15837 6.86507 2.29929L6.8233 2.36531L6.73706 2.51958L6.6515 2.36598Z" fill="#E6ECE5"/>
<path d="M12.379 8.75781C10.3672 8.75781 8.75781 10.3672 8.75781 12.3788C8.75781 13.9882 10.162 15.9999 12.379 15.9999C14.7931 15.9999 16.0001 14.1894 16.0001 12.3788C16.0001 10.3672 14.5959 8.75781 12.379 8.75781ZM11.9766 12.3788V10.5683H12.7813V12.3788H14.1895L12.379 14.1894L10.5684 12.3788H11.9766Z" fill="#E6ECE5"/>
</g>
<defs>
<clipPath id="clip0_3241_2946">
<rect width="16" height="16" fill="white"/>
</clipPath>
</defs>
</svg>
