<svg width="16" height="16" viewBox="0 0 16 16" fill="none" xmlns="http://www.w3.org/2000/svg">
<path d="M14.3834 9.71484C13.9209 10.2294 12.3679 10.9873 10.5676 11.1434H7.92578" stroke="#E6ECE5" stroke-width="1.3968" stroke-linecap="round"/>
<rect x="2.61379" y="3.13039" width="10.623" height="10.3104" rx="5.15518" stroke="#E6ECE5" stroke-width="1.11821"/>
<path d="M14.09 8V8C14.09 4.68629 11.4037 2 8.08999 2H7.76172C4.44801 2 1.76172 4.68629 1.76172 8V8" stroke="#E6ECE5" stroke-width="1.17412"/>
<rect x="5.87109" y="4.85742" width="3.52236" height="3.42857" rx="1.71429" fill="#E6ECE5"/>
<path d="M0 7.36981C0 6.61328 0.613284 6 1.36981 6H2.73962L3.08207 10.5714H1.36981C0.613283 10.5714 0 9.95814 0 9.20162V7.36981Z" fill="#E6ECE5"/>
<path d="M15.9961 7.76118C15.9961 6.78851 15.2076 6 14.2349 6H13.2565L12.914 10.5714H14.2349C15.2076 10.5714 15.9961 9.78292 15.9961 8.81025V7.76118Z" fill="#E6ECE5"/>
</svg>
