<svg width="16" height="16" viewBox="0 0 16 16" fill="none" xmlns="http://www.w3.org/2000/svg">
<path d="M15.954 7.27725C15.9307 7.22294 15.366 5.93112 14.1107 4.63656C12.438 2.91163 10.3253 2 8 2C5.67466 2 3.562 2.91163 1.88933 4.63656C0.633994 5.93112 0.0666603 7.225 0.0459937 7.27725C0.0156691 7.34759 0 7.42371 0 7.50069C0 7.57767 0.0156691 7.65379 0.0459937 7.72412C0.069327 7.77844 0.633994 9.06956 1.88933 10.3641C3.562 12.0884 5.67466 13 8 13C10.3253 13 12.438 12.0884 14.1107 10.3641C15.366 9.06956 15.9307 7.77844 15.954 7.72412C15.9843 7.65379 16 7.57767 16 7.50069C16 7.42371 15.9843 7.34759 15.954 7.27725ZM8 10.25C7.47258 10.25 6.95701 10.0887 6.51848 9.78654C6.07995 9.48437 5.73815 9.05488 5.53632 8.55238C5.33449 8.04988 5.28168 7.49695 5.38457 6.9635C5.48746 6.43005 5.74144 5.94005 6.11438 5.55546C6.48732 5.17086 6.96248 4.90895 7.47976 4.80284C7.99704 4.69673 8.53322 4.75119 9.02049 4.95933C9.50776 5.16747 9.92424 5.51995 10.2173 5.97218C10.5103 6.42442 10.6667 6.9561 10.6667 7.5C10.6667 8.22935 10.3857 8.92882 9.88562 9.44454C9.38552 9.96027 8.70724 10.25 8 10.25Z" fill="#E6ECE5"/>
</svg>
