<svg width="16" height="16" viewBox="0 0 16 16" fill="none" xmlns="http://www.w3.org/2000/svg">
<g clip-path="url(#clip0_3241_3000)">
<path d="M15.0381 5.36003V15.0401H5.35905V5.36003H15.0381ZM6.77966 6.77966V13.5593H13.5593V6.77966H6.77966ZM10.6385 0.872016V4.48004H9.22034V2.16949H2.44068V9.08475H4.47915V10.6401H0.959492V0.872016H10.6385Z" fill="#E6ECE5"/>
<path d="M8.31962 6.40004C8.31962 7.46043 7.46009 8.32004 6.39982 8.32004C5.33954 8.32004 4.48001 7.46043 4.48001 6.40004C4.48001 5.33964 5.33954 4.48003 6.39982 4.48003C7.46009 4.48003 8.31962 5.33964 8.31962 6.40004Z" fill="#E6ECE5"/>
<path d="M16 6.40004C16 7.46043 15.1405 8.32004 14.0802 8.32004C13.0199 8.32004 12.1604 7.46043 12.1604 6.40004C12.1604 5.33964 13.0199 4.48003 14.0802 4.48003C15.1405 4.48003 16 5.33964 16 6.40004Z" fill="#E6ECE5"/>
<path d="M16 14.08C16 15.1404 15.1405 16 14.0802 16C13.0199 16 12.1604 15.1404 12.1604 14.08C12.1604 13.0196 13.0199 12.16 14.0802 12.16C15.1405 12.16 16 13.0196 16 14.08Z" fill="#E6ECE5"/>
<path d="M8.31962 14.08C8.31962 15.1404 7.46009 16 6.39982 16C5.33954 16 4.48001 15.1404 4.48001 14.08C4.48001 13.0196 5.33954 12.16 6.39982 12.16C7.46009 12.16 8.31962 13.0196 8.31962 14.08Z" fill="#E6ECE5"/>
<path d="M3.8396 9.59997C3.8396 10.6604 2.98008 11.52 1.9198 11.52C0.859524 11.52 0 10.6604 0 9.59997C0 8.53957 0.859524 7.67996 1.9198 7.67996C2.98008 7.67996 3.8396 8.53957 3.8396 9.59997Z" fill="#E6ECE5"/>
<path d="M3.8396 1.92001C3.8396 2.9804 2.98008 3.84002 1.9198 3.84002C0.859524 3.84002 0 2.9804 0 1.92001C0 0.859617 0.859524 0 1.9198 0C2.98008 0 3.8396 0.859617 3.8396 1.92001Z" fill="#E6ECE5"/>
<path d="M11.52 1.92001C11.52 2.9804 10.6605 3.84002 9.60018 3.84002C8.53991 3.84002 7.68038 2.9804 7.68038 1.92001C7.68038 0.859617 8.53991 0 9.60018 0C10.6605 0 11.52 0.859617 11.52 1.92001Z" fill="#E6ECE5"/>
</g>
<defs>
<clipPath id="clip0_3241_3000">
<rect width="16" height="16" fill="white"/>
</clipPath>
</defs>
</svg>
