<svg width="16" height="16" viewBox="0 0 16 16" fill="none" xmlns="http://www.w3.org/2000/svg">
<g clip-path="url(#clip0_3241_3207)">
<path d="M6.84886 14.672V9.08712H14.233C14.6849 9.08712 15.1183 9.2666 15.438 9.5861C15.7576 9.9056 15.9373 10.339 15.9375 10.7909V11.4879C15.9375 11.9212 15.8011 12.3439 15.5504 12.697C14.3822 14.3364 12.4701 15.1477 9.87917 15.1477C8.73523 15.1477 7.72235 14.9902 6.84886 14.672ZM9.87917 0C9.38174 -7.4123e-09 8.88918 0.0979762 8.42961 0.288335C7.97004 0.478694 7.55247 0.757707 7.20073 1.10944C6.849 1.46118 6.56998 1.87875 6.37962 2.33832C6.18926 2.79789 6.09129 3.29045 6.09129 3.78788C6.09129 4.28531 6.18926 4.77787 6.37962 5.23744C6.56998 5.697 6.849 6.11458 7.20073 6.46631C7.55247 6.81805 7.97004 7.09706 8.42961 7.28742C8.88918 7.47778 9.38174 7.57576 9.87917 7.57576C10.8838 7.57576 11.8472 7.17668 12.5576 6.46631C13.268 5.75595 13.667 4.79249 13.667 3.78788C13.667 2.78327 13.268 1.81981 12.5576 1.10944C11.8472 0.399079 10.8838 0 9.87917 0ZM1.35265 6.05682C0.620834 6.05682 0.0268946 6.65076 0.0268946 7.38258V14.5795C0.0268946 14.9312 0.166572 15.2684 0.415199 15.517C0.663827 15.7656 1.00104 15.9053 1.35265 15.9053H4.76553C5.11714 15.9053 5.45436 15.7656 5.70298 15.517C5.95161 15.2684 6.09129 14.9312 6.09129 14.5795V7.38258C6.09129 6.65076 5.49735 6.05682 4.76553 6.05682H1.35265ZM2.86932 12.8727H3.24811L3.32538 12.878C3.46799 12.8977 3.59784 12.9707 3.68869 13.0823C3.77953 13.194 3.8246 13.336 3.81479 13.4796C3.80498 13.6233 3.74102 13.7578 3.63583 13.8561C3.53064 13.9544 3.39206 14.009 3.24811 14.0091H2.86932L2.7928 14.0038C2.65025 13.9842 2.52045 13.9112 2.42961 13.7996C2.33877 13.688 2.29365 13.5461 2.30336 13.4026C2.31307 13.259 2.37689 13.1245 2.48194 13.0261C2.58698 12.9278 2.72543 12.873 2.86932 12.8727Z" fill="#E6ECE5"/>
</g>
<defs>
<clipPath id="clip0_3241_3207">
<rect width="16" height="16" fill="white" transform="matrix(-1 0 0 1 16 0)"/>
</clipPath>
</defs>
</svg>
