<svg width="16" height="16" viewBox="0 0 16 16" fill="none" xmlns="http://www.w3.org/2000/svg">
<path d="M11.6081 8.15299C8.93917 7.94661 7.20842 10.7619 8.24363 13.1587C7.76655 13.1146 7.28774 13.1969 6.7684 13.4155C5.68143 13.8873 5.10775 13.7503 4.45858 13.1491C0.774949 9.32158 1.31844 3.49274 5.50027 3.27967C6.5193 3.33294 7.22886 3.84277 7.82518 3.88843C8.7159 3.7058 9.56887 3.18075 10.52 3.24924C11.6598 3.34055 12.5203 3.79712 13.0864 4.61894C11.6994 5.457 11.2421 6.9408 11.6081 8.15299ZM7.7497 3.23402C7.63647 1.53711 9.00274 0.13697 10.5728 0C10.7917 1.96324 8.80648 3.42425 7.7497 3.23402Z" fill="#E6ECE5"/>
<path d="M11.7536 8.6748C9.95039 8.6748 8.50781 10.129 8.50781 11.9468C8.50781 13.4011 9.76646 15.2189 11.7536 15.2189C13.9175 15.2189 14.9994 13.5829 14.9994 11.9468C14.9994 10.129 13.7408 8.6748 11.7536 8.6748ZM11.393 11.9468V10.3108H12.1143V11.9468H13.3765L11.7536 13.5829L10.1307 11.9468H11.393Z" fill="#E6ECE5"/>
</svg>
