<svg width="16" height="16" viewBox="0 0 16 16" fill="none" xmlns="http://www.w3.org/2000/svg">
<path d="M13.7813 6.90874H9.04167C8.61069 6.90874 8.19737 6.73633 7.89262 6.42946C7.58787 6.12258 7.41667 5.70636 7.41667 5.27237V0.499645C7.41667 0.463479 7.4024 0.428794 7.37701 0.403221C7.35161 0.377648 7.31717 0.363281 7.28125 0.363281H4.16667C3.59203 0.363281 3.04093 0.593151 2.6346 1.00232C2.22827 1.41149 2 1.96645 2 2.5451V13.4542C2 14.0328 2.22827 14.5878 2.6346 14.997C3.04093 15.4061 3.59203 15.636 4.16667 15.636H11.75C12.3246 15.636 12.8757 15.4061 13.2821 14.997C13.6884 14.5878 13.9167 14.0328 13.9167 13.4542V7.0451C13.9167 7.00893 13.9024 6.97425 13.877 6.94868C13.8516 6.9231 13.8172 6.90874 13.7813 6.90874ZM10.6667 12.3633H5.25C5.10634 12.3633 4.96857 12.3058 4.86698 12.2035C4.7654 12.1012 4.70833 11.9625 4.70833 11.8178C4.70833 11.6732 4.7654 11.5344 4.86698 11.4321C4.96857 11.3298 5.10634 11.2724 5.25 11.2724H10.6667C10.8103 11.2724 10.9481 11.3298 11.0497 11.4321C11.1513 11.5344 11.2083 11.6732 11.2083 11.8178C11.2083 11.9625 11.1513 12.1012 11.0497 12.2035C10.9481 12.3058 10.8103 12.3633 10.6667 12.3633ZM10.6667 9.63601H5.25C5.10634 9.63601 4.96857 9.57854 4.86698 9.47625C4.7654 9.37396 4.70833 9.23522 4.70833 9.09056C4.70833 8.94589 4.7654 8.80715 4.86698 8.70486C4.96857 8.60257 5.10634 8.5451 5.25 8.5451H10.6667C10.8103 8.5451 10.9481 8.60257 11.0497 8.70486C11.1513 8.80715 11.2083 8.94589 11.2083 9.09056C11.2083 9.23522 11.1513 9.37396 11.0497 9.47625C10.9481 9.57854 10.8103 9.63601 10.6667 9.63601Z" fill="#E6ECE5"/>
<path d="M13.484 5.70076L8.61544 0.798148C8.60597 0.78867 8.59394 0.782222 8.58084 0.779615C8.56774 0.777008 8.55417 0.778357 8.54184 0.783494C8.5295 0.788631 8.51894 0.797326 8.5115 0.808486C8.50406 0.819646 8.50006 0.832772 8.5 0.846216V5.27156C8.5 5.41622 8.55707 5.55496 8.65865 5.65725C8.76023 5.75954 8.89801 5.81701 9.04167 5.81701H13.4363C13.4496 5.81696 13.4627 5.81293 13.4737 5.80543C13.4848 5.79794 13.4935 5.78731 13.4986 5.77488C13.5037 5.76246 13.505 5.7488 13.5024 5.73561C13.4998 5.72242 13.4934 5.7103 13.484 5.70076Z" fill="#E6ECE5"/>
</svg>
