<svg width="16" height="16" viewBox="0 0 16 16" fill="none" xmlns="http://www.w3.org/2000/svg">
<g clip-path="url(#clip0_3241_3007)">
<path d="M0.799616 12.8007C0.663295 12.8006 0.529255 12.7657 0.410212 12.6993C0.29117 12.6329 0.191074 12.5371 0.119424 12.4211C0.0477731 12.3052 0.0069439 12.1728 0.000810346 12.0366C-0.0053232 11.9005 0.0234423 11.765 0.0843775 11.643L1.59966 8.61086V6.40034C1.59966 4.70287 2.27398 3.07491 3.47428 1.87462C4.67457 0.67432 6.30252 0 8 0C9.69748 0 11.3254 0.67432 12.5257 1.87462C13.726 3.07491 14.4003 4.70287 14.4003 6.40034V8.61166L15.9156 11.643C15.9766 11.765 16.0053 11.9005 15.9992 12.0366C15.9931 12.1728 15.9522 12.3052 15.8806 12.4211C15.8089 12.5371 15.7088 12.6329 15.5898 12.6993C15.4707 12.7657 15.3367 12.8006 15.2004 12.8007H0.799616ZM8 16.0009C7.2904 16.001 6.60086 15.7654 6.03981 15.3309C5.47877 14.8964 5.07804 14.2878 4.90064 13.6007H11.0994C10.922 14.2878 10.5212 14.8964 9.96019 15.3309C9.39914 15.7654 8.7096 16.001 8 16.0009Z" fill="#E6ECE5"/>
</g>
<defs>
<clipPath id="clip0_3241_3007">
<rect width="16" height="16" fill="white"/>
</clipPath>
</defs>
</svg>
