<svg width="16" height="16" viewBox="0 0 16 16" fill="none" xmlns="http://www.w3.org/2000/svg">
<path d="M14.3908 4C14.1703 4.00007 13.9528 4.05156 13.7556 4.15037C13.5584 4.24918 13.387 4.3926 13.2549 4.56924C13.1229 4.74588 13.0338 4.95087 12.9948 5.16794C12.9558 5.38501 12.968 5.60819 13.0303 5.81974L10.829 8.02071C10.5387 7.924 10.2249 7.924 9.9346 8.02071L8.30269 6.3888C8.35639 6.17925 8.36147 5.96021 8.31753 5.7484C8.27359 5.53659 8.1818 5.33764 8.04918 5.16675C7.91656 4.99586 7.74662 4.85755 7.55236 4.76241C7.35809 4.66726 7.14464 4.6178 6.92832 4.6178C6.71201 4.6178 6.49856 4.66726 6.30429 4.76241C6.11002 4.85755 5.94008 4.99586 5.80746 5.16675C5.67484 5.33764 5.58306 5.53659 5.53912 5.7484C5.49518 5.96021 5.50026 6.17925 5.55396 6.3888L2.82465 9.11625C2.52164 9.02656 2.19737 9.04041 1.90311 9.15561C1.60885 9.27082 1.36138 9.48081 1.19981 9.75239C1.03824 10.024 0.971791 10.3417 1.01096 10.6552C1.05014 10.9688 1.1927 11.2604 1.41611 11.4839C1.63953 11.7074 1.93106 11.85 2.24462 11.8893C2.55818 11.9286 2.87588 11.8622 3.14752 11.7007C3.41915 11.5392 3.62922 11.2918 3.74452 10.9976C3.85982 10.7034 3.87378 10.3791 3.78418 10.0761L6.47894 7.38164C6.76924 7.47841 7.08309 7.47841 7.37339 7.38164L9.00561 9.01385C8.9519 9.2234 8.94683 9.44244 8.99077 9.65425C9.03471 9.86606 9.12649 10.065 9.25911 10.2359C9.39173 10.4068 9.56167 10.5451 9.75594 10.6402C9.95021 10.7354 10.1637 10.7848 10.38 10.7848C10.5963 10.7848 10.8097 10.7354 11.004 10.6402C11.1983 10.5451 11.3682 10.4068 11.5008 10.2359C11.6335 10.065 11.7252 9.86606 11.7692 9.65425C11.8131 9.44244 11.808 9.2234 11.7543 9.01385L13.9898 6.77958C14.185 6.83716 14.3903 6.85208 14.5917 6.82334C14.7931 6.7946 14.986 6.72287 15.1573 6.61301C15.3286 6.50315 15.4742 6.35773 15.5844 6.18663C15.6945 6.01553 15.7665 5.82274 15.7956 5.62135C15.8246 5.41995 15.81 5.21467 15.7527 5.01942C15.6955 4.82417 15.5968 4.64352 15.4636 4.48974C15.3304 4.33595 15.1656 4.21262 14.9805 4.12812C14.7954 4.04362 14.5943 3.99993 14.3908 4Z" fill="#E6ECE5"/>
</svg>
