<svg width="16" height="16" viewBox="0 0 16 16" fill="none" xmlns="http://www.w3.org/2000/svg">
<path d="M8.33203 0L1.33203 2.90909V7.27273C1.33203 11.3091 4.3187 15.0836 8.33203 16C12.3454 15.0836 15.332 11.3091 15.332 7.27273V2.90909L8.33203 0ZM8.33203 2.83636C8.79352 2.83636 9.24465 2.96432 9.62836 3.20407C10.0121 3.44381 10.3111 3.78456 10.4878 4.18324C10.6644 4.58191 10.7106 5.0206 10.6205 5.44383C10.5305 5.86706 10.3083 6.25583 9.98195 6.56096C9.65562 6.86609 9.23986 7.07389 8.78724 7.15808C8.33462 7.24226 7.86546 7.19906 7.4391 7.03392C7.01274 6.86878 6.64833 6.58913 6.39194 6.23034C6.13555 5.87154 5.9987 5.4497 5.9987 5.01818C5.9987 4.43953 6.24453 3.88457 6.68212 3.4754C7.1197 3.06623 7.71319 2.83636 8.33203 2.83636ZM8.33203 8.58182C9.88759 8.58182 12.332 9.03896 12.332 10.9091C12.332 11.5325 11.5455 12.2575 10.9802 12.5412C10.1659 12.9498 9.25614 13.1637 8.33203 13.1637C7.40792 13.1637 6.49817 12.9498 5.68391 12.5412C5.10088 12.2486 4.33203 11.5325 4.33203 10.9091C4.33203 9.03896 6.77648 8.58182 8.33203 8.58182Z" fill="#E6ECE5"/>
</svg>
