<svg width="16" height="16" viewBox="0 0 16 16" fill="none" xmlns="http://www.w3.org/2000/svg">
<path d="M1.85091 4.6349C1.38099 4.63466 1.00012 5.03141 1 5.51937L1.00058 9.22259C1.00053 9.33878 1.02252 9.45383 1.06528 9.56119C1.10804 9.66854 1.17074 9.76608 1.2498 9.84824C1.32885 9.93041 1.42271 9.99557 1.52601 10.04C1.62931 10.0845 1.74003 10.1073 1.85183 10.1073C1.96363 10.1074 2.07436 10.0846 2.17767 10.0402C2.28098 9.99581 2.37484 9.93064 2.45387 9.84847C2.5329 9.7663 2.59556 9.66872 2.63824 9.56135C2.68093 9.45397 2.70281 9.33889 2.70262 9.22271V5.51889C2.70238 5.28433 2.61253 5.05947 2.45283 4.89371C2.29312 4.72795 2.07662 4.63486 1.85091 4.6349ZM8.37652 1.30928L8.9705 0.182144C8.98563 0.153551 8.98923 0.11989 8.98052 0.0885411C8.9718 0.057192 8.95148 0.0307136 8.92401 0.0149116C8.89649 -0.000624323 8.86417 -0.00418652 8.83413 0.00500622C8.8041 0.0141989 8.77879 0.0353961 8.76377 0.0639489L8.16377 1.20289C7.65895 0.969391 7.09396 0.838545 6.49616 0.839147C5.89998 0.838545 5.33522 0.96903 4.83249 1.2012L4.23179 0.0651537C4.22445 0.0509731 4.21449 0.0384455 4.20246 0.0282965C4.19044 0.0181475 4.17659 0.0105789 4.16173 0.0060292C4.14687 0.00147945 4.13129 3.89633e-05 4.11589 0.00179117C4.10049 0.00354337 4.08558 0.00845345 4.07202 0.016237C4.05833 0.0238413 4.04623 0.0342066 4.03644 0.0467263C4.02665 0.0592461 4.01936 0.0736689 4.015 0.0891511C4.01064 0.104633 4.00929 0.120864 4.01104 0.136893C4.01279 0.152923 4.01759 0.168429 4.02518 0.182506L4.61939 1.30892C3.71588 2.02377 3.09682 3.12619 3.09752 4.49429H10.0091C10.0095 3.12667 9.54245 1.93652 8.37652 1.30928ZM4.7526 3.05113C4.66735 3.05108 4.58561 3.01584 4.52535 2.95316C4.4651 2.89048 4.43128 2.80549 4.43133 2.7169C4.43137 2.62831 4.46528 2.54336 4.5256 2.48075C4.58592 2.41814 4.6677 2.38299 4.75295 2.38304C4.83822 2.3832 4.91995 2.41846 4.98025 2.4811C5.04055 2.54374 5.07451 2.62866 5.07469 2.71726C5.07457 2.80592 5.04057 2.89089 4.98017 2.9535C4.91977 3.0161 4.83792 3.05122 4.7526 3.05113ZM8.2433 3.0504C8.2011 3.05043 8.1593 3.04182 8.1203 3.02506C8.0813 3.00829 8.04587 2.9837 8.01602 2.95269C7.98617 2.92169 7.96249 2.88487 7.94635 2.84435C7.9302 2.80383 7.92189 2.7604 7.92191 2.71654C7.92237 2.62802 7.95637 2.54325 8.01655 2.4806C8.07673 2.41795 8.15824 2.38247 8.24342 2.38183C8.32853 2.38256 8.40993 2.41812 8.46999 2.48079C8.53004 2.54347 8.5639 2.62821 8.56424 2.71666C8.56428 2.76048 8.55601 2.80388 8.5399 2.84438C8.52379 2.88488 8.50016 2.92167 8.47035 2.95267C8.44054 2.98367 8.40515 3.00826 8.36619 3.02503C8.32723 3.04179 8.28547 3.05042 8.2433 3.0504ZM3.09752 4.80201L3.09879 10.5413C3.09862 10.6653 3.122 10.788 3.16757 10.9026C3.21315 11.0172 3.28003 11.1212 3.36439 11.2089C3.44875 11.2965 3.54892 11.366 3.65917 11.4134C3.76941 11.4607 3.88757 11.485 4.00686 11.4848L4.22263 11.4851L4.22332 13.4446C4.22321 13.9326 4.60489 14.3292 5.07377 14.3292C5.54403 14.3292 5.92502 13.9322 5.92514 13.444L5.92467 11.4849L7.07355 11.4846L7.07402 13.444C7.07402 13.9316 7.45582 14.3291 7.92481 14.3281C8.08116 14.3282 8.22768 14.2844 8.3536 14.208C7.42606 11.9838 8.05913 9.73611 10.0099 8.9486L10.0091 4.80201H3.09752ZM11.9965 5.51805C11.9965 5.40191 11.9744 5.28692 11.9317 5.17963C11.8889 5.07234 11.8262 4.97486 11.7471 4.89275C11.6681 4.81064 11.5743 4.74551 11.471 4.70108C11.3678 4.65665 11.2571 4.6338 11.1454 4.63381C10.6754 4.63333 10.2947 5.02984 10.2947 5.51841L10.2953 8.87054C10.7142 8.74177 11.0808 8.66045 11.9965 8.66045V5.51805Z" fill="#E6ECE5"/>
<path d="M11.6763 9.09226C9.82983 9.09226 8.35264 10.6273 8.35264 12.5461C8.35264 14.0812 9.64149 16 11.6763 16C13.8921 16 15 14.2731 15 12.5461C15 10.6273 13.7112 9.09226 11.6763 9.09226ZM11.307 12.5461V10.8192H12.0456V12.5461H13.3382L11.6763 14.2731L10.0145 12.5461H11.307Z" fill="#E6ECE5"/>
</svg>
