<svg width="16" height="16" viewBox="0 0 16 16" fill="none" xmlns="http://www.w3.org/2000/svg">
<g clip-path="url(#clip0_3241_3221)">
<path d="M3.08 12.08C3.76 11.56 4.52 11.1501 5.36 10.8504C6.2 10.5507 7.08 10.4005 8 10.4C8.92 10.3995 9.79999 10.5496 10.64 10.8504C11.48 11.1512 12.24 11.5611 12.92 12.08C13.3867 11.5333 13.7501 10.9133 14.0104 10.22C14.2707 9.52666 14.4005 8.78666 14.4 7.99999C14.4 6.22666 13.7768 4.71653 12.5304 3.4696C11.284 2.22266 9.77386 1.59947 8 1.6C6.22613 1.60053 4.716 2.224 3.4696 3.4704C2.2232 4.7168 1.6 6.22666 1.6 7.99999C1.6 8.78666 1.73013 9.52666 1.9904 10.22C2.25067 10.9133 2.61387 11.5333 3.08 12.08ZM8 8.79999C7.21333 8.79999 6.54986 8.53013 6.0096 7.99039C5.46933 7.45066 5.19946 6.7872 5.2 6C5.20053 5.2128 5.47066 4.54933 6.0104 4.0096C6.55013 3.46986 7.21333 3.2 8 3.2C8.78666 3.2 9.45013 3.47013 9.99039 4.0104C10.5307 4.55066 10.8005 5.21386 10.8 6C10.7995 6.78613 10.5296 7.44959 9.99039 7.99039C9.45119 8.53119 8.78773 8.80106 8 8.79999ZM8 16C6.89333 16 5.85333 15.7899 4.88 15.3696C3.90667 14.9493 3.06 14.3795 2.34 13.66C1.62 12.9405 1.05013 12.0939 0.630401 11.12C0.210668 10.1461 0.000534346 9.10613 1.01266e-06 7.99999C-0.00053232 6.89386 0.209601 5.85386 0.630401 4.88C1.0512 3.90613 1.62107 3.05946 2.34 2.34C3.05893 1.62053 3.9056 1.05067 4.88 0.6304C5.8544 0.210133 6.8944 0 8 0C9.10559 0 10.1456 0.210133 11.12 0.6304C12.0944 1.05067 12.9411 1.62053 13.66 2.34C14.3789 3.05946 14.9491 3.90613 15.3704 4.88C15.7917 5.85386 16.0016 6.89386 16 7.99999C15.9984 9.10613 15.7883 10.1461 15.3696 11.12C14.9509 12.0939 14.3811 12.9405 13.66 13.66C12.9389 14.3795 12.0923 14.9496 11.12 15.3704C10.1477 15.7912 9.10773 16.0011 8 16Z" fill="#E6ECE5"/>
</g>
<defs>
<clipPath id="clip0_3241_3221">
<rect width="16" height="16" fill="white"/>
</clipPath>
</defs>
</svg>
