<svg width="16" height="16" viewBox="0 0 16 16" fill="none" xmlns="http://www.w3.org/2000/svg">
<path d="M15.4218 6.52001V10.2509C15.4291 10.5287 15.3585 10.8036 15.2182 11.0436C15.0652 11.2843 14.8488 11.4781 14.5927 11.6036C14.3894 11.705 14.1653 11.7573 13.9382 11.7564H13.7563C13.4904 11.7189 13.2392 11.6109 13.0291 11.4436L11.1891 9.9891V10.6509C11.1891 11.488 10.8565 12.2909 10.2646 12.8828C9.67265 13.4747 8.86982 13.8073 8.0327 13.8073H3.73452C2.8977 13.8053 2.09541 13.4735 1.50179 12.8836C1.20745 12.5913 0.974202 12.2434 0.815631 11.8601C0.657059 11.4768 0.576334 11.0657 0.578155 10.6509V6.16364C0.577386 5.74929 0.658966 5.33892 0.818155 4.95637C1.13963 4.18152 1.75377 3.56476 2.52725 3.24001C2.9098 3.08082 3.32017 2.99924 3.73452 3.00001H7.94543C8.36204 3.00018 8.77461 3.08171 9.15997 3.24001C9.93345 3.56476 10.5476 4.18152 10.8691 4.95637C11.0291 5.3411 11.1091 5.75419 11.1018 6.17091V6.82546L12.9418 5.37091C13.1092 5.23935 13.3024 5.14444 13.5089 5.09233C13.7154 5.04022 13.9305 5.03207 14.1403 5.06841C14.3501 5.10475 14.5499 5.18477 14.7269 5.30328C14.9038 5.4218 15.0538 5.57616 15.1672 5.75637C15.3178 5.984 15.4058 6.24728 15.4218 6.52001Z" fill="#E6ECE5"/>
</svg>
