<svg width="16" height="16" viewBox="0 0 16 16" fill="none" xmlns="http://www.w3.org/2000/svg">
<g clip-path="url(#clip0_3241_2936)">
<path d="M0.000735466 1.82368L5.42666 1.07626V6.31925H0L0.000735466 1.82368ZM0.000735466 11.4181L5.42666 12.1662V6.98723H0L0.000735466 11.4181ZM6.02317 12.2457L7.51173 12.4511C7.27761 9.17367 10.1223 6.70785 13.2401 7.65624V6.98723H6.02317V12.2457ZM6.02317 0.996073V6.31925H13.2401V0L6.02317 0.996073Z" fill="#E6ECE5"/>
<path d="M12.0471 8.0918C9.85081 8.0918 8.09375 9.84918 8.09375 12.0459C8.09375 13.8033 9.62679 16 12.0471 16C14.6827 16 16.0005 14.023 16.0005 12.0459C16.0005 9.84918 14.4675 8.0918 12.0471 8.0918ZM11.6079 12.0459V10.0688H12.4864V12.0459H14.0238L12.0471 14.023L10.0704 12.0459H11.6079Z" fill="#E6ECE5"/>
</g>
<defs>
<clipPath id="clip0_3241_2936">
<rect width="16" height="16" fill="white"/>
</clipPath>
</defs>
</svg>
