<svg width="16" height="16" viewBox="0 0 16 16" fill="none" xmlns="http://www.w3.org/2000/svg">
<path d="M8.97969 14.5713H6.37969C3.92854 14.5713 2.70264 14.5713 1.94149 13.79C1.18034 13.0086 1.17969 11.752 1.17969 9.23796V7.90462C1.17969 5.39062 1.17969 4.13329 1.94149 3.35262C2.70329 2.57196 3.92854 2.57129 6.37969 2.57129H8.97969C11.4308 2.57129 12.6567 2.57129 13.4179 3.35262C14.179 4.13396 14.1797 5.39062 14.1797 7.90462V9.23796C14.1797 11.752 14.1797 13.0093 13.4179 13.79C12.9934 14.226 12.4247 14.4186 11.5797 14.5033M4.42969 2.57129V1.57129M10.9297 2.57129V1.57129M13.8547 5.90462H6.86719M1.17969 5.90462H3.69844" stroke="#E6ECE5" stroke-width="0.998675" stroke-linecap="round"/>
<path d="M11.5812 8.57096C11.5812 8.74777 11.5128 8.91734 11.3909 9.04237C11.269 9.16739 11.1036 9.23763 10.9313 9.23763C10.7589 9.23763 10.5935 9.16739 10.4716 9.04237C10.3497 8.91734 10.2812 8.74777 10.2812 8.57096C10.2812 8.39415 10.3497 8.22458 10.4716 8.09956C10.5935 7.97453 10.7589 7.9043 10.9313 7.9043C11.1036 7.9043 11.269 7.97453 11.3909 8.09956C11.5128 8.22458 11.5812 8.39415 11.5812 8.57096ZM8.33125 11.2376C8.33125 11.4144 8.26277 11.584 8.14087 11.709C8.01897 11.8341 7.85364 11.9043 7.68125 11.9043C7.50886 11.9043 7.34353 11.8341 7.22163 11.709C7.09973 11.584 7.03125 11.4144 7.03125 11.2376C7.03125 11.0608 7.09973 10.8912 7.22163 10.7662C7.34353 10.6412 7.50886 10.571 7.68125 10.571C7.85364 10.571 8.01897 10.6412 8.14087 10.7662C8.26277 10.8912 8.33125 11.0608 8.33125 11.2376ZM8.33125 8.57096C8.33125 8.74777 8.26277 8.91734 8.14087 9.04237C8.01897 9.16739 7.85364 9.23763 7.68125 9.23763C7.50886 9.23763 7.34353 9.16739 7.22163 9.04237C7.09973 8.91734 7.03125 8.74777 7.03125 8.57096C7.03125 8.39415 7.09973 8.22458 7.22163 8.09956C7.34353 7.97453 7.50886 7.9043 7.68125 7.9043C7.85364 7.9043 8.01897 7.97453 8.14087 8.09956C8.26277 8.22458 8.33125 8.39415 8.33125 8.57096ZM5.08125 11.2376C5.08125 11.4144 5.01277 11.584 4.89087 11.709C4.76897 11.8341 4.60364 11.9043 4.43125 11.9043C4.25886 11.9043 4.09353 11.8341 3.97163 11.709C3.84973 11.584 3.78125 11.4144 3.78125 11.2376C3.78125 11.0608 3.84973 10.8912 3.97163 10.7662C4.09353 10.6412 4.25886 10.571 4.43125 10.571C4.60364 10.571 4.76897 10.6412 4.89087 10.7662C5.01277 10.8912 5.08125 11.0608 5.08125 11.2376ZM5.08125 8.57096C5.08125 8.74777 5.01277 8.91734 4.89087 9.04237C4.76897 9.16739 4.60364 9.23763 4.43125 9.23763C4.25886 9.23763 4.09353 9.16739 3.97163 9.04237C3.84973 8.91734 3.78125 8.74777 3.78125 8.57096C3.78125 8.39415 3.84973 8.22458 3.97163 8.09956C4.09353 7.97453 4.25886 7.9043 4.43125 7.9043C4.60364 7.9043 4.76897 7.97453 4.89087 8.09956C5.01277 8.22458 5.08125 8.39415 5.08125 8.57096Z" fill="#E6ECE5"/>
</svg>
