<svg width="16" height="16" viewBox="0 0 16 16" fill="none" xmlns="http://www.w3.org/2000/svg">
<g clip-path="url(#clip0_3241_3298)">
<path d="M14.8588 14.8569L11.5499 11.5479M11.5499 11.5479C12.1159 10.9819 12.5649 10.31 12.8712 9.57048C13.1775 8.83096 13.3352 8.03835 13.3352 7.2379C13.3352 6.43745 13.1775 5.64484 12.8712 4.90532C12.5649 4.1658 12.1159 3.49386 11.5499 2.92786C10.9839 2.36185 10.312 1.91288 9.57244 1.60656C8.83292 1.30024 8.04031 1.14258 7.23986 1.14258C6.43941 1.14258 5.6468 1.30024 4.90728 1.60656C4.16776 1.91288 3.49581 2.36185 2.92981 2.92786C1.78672 4.07095 1.14453 5.62132 1.14453 7.2379C1.14453 8.85448 1.78672 10.4049 2.92981 11.5479C4.07291 12.691 5.62328 13.3332 7.23986 13.3332C8.85644 13.3332 10.4068 12.691 11.5499 11.5479ZM5.21596 4.46401H9.28739M4.90728 7.02362H9.28739M4.90728 9.57048H9.28739" stroke="#E6ECE5" stroke-width="1.5" stroke-linecap="round" stroke-linejoin="round"/>
</g>
<defs>
<clipPath id="clip0_3241_3298">
<rect width="16" height="16" fill="white"/>
</clipPath>
</defs>
</svg>
