<svg width="16" height="16" viewBox="0 0 16 16" fill="none" xmlns="http://www.w3.org/2000/svg">
<g clip-path="url(#clip0_3241_3120)">
<path opacity="0.49" d="M9.59961 0C12.6163 0 14.125 -1.678e-05 15.0625 0.911133C16 1.82234 16 3.28992 16 6.22266C16 9.15511 15.9992 10.622 15.0625 11.5332C14.1258 12.4444 12.6163 12.4443 9.59961 12.4443H6.40039C3.38367 12.4443 1.87496 12.4444 0.9375 11.5332C9.1714e-05 10.622 2.28025e-09 9.15511 0 6.22266C0 3.28992 0.000772715 1.82234 0.9375 0.911133C1.87423 -1.68983e-05 3.38373 0 6.40039 0H9.59961ZM12.4951 2.00195C12.3484 1.98904 12.2021 2.03306 12.0889 2.12402L10.4893 3.41113C9.79851 3.96665 9.31939 4.35172 8.91406 4.60254C8.52215 4.84624 8.25589 4.92676 8 4.92676C7.74411 4.92676 7.47853 4.84624 7.08594 4.60254C6.68125 4.3517 6.20158 3.96639 5.51074 3.41016L3.91113 2.12402C3.79792 2.03306 3.65159 1.98904 3.50488 2.00195C3.35822 2.01492 3.22316 2.08414 3.12891 2.19336C3.03464 2.30263 2.98857 2.44337 3.00195 2.58496C3.01535 2.72657 3.08697 2.85724 3.2002 2.94824L4.82715 4.25684C5.48366 4.78449 6.01535 5.21244 6.48535 5.50488C6.97424 5.80772 7.45149 6 8.00098 6C8.54899 5.99993 9.02616 5.80734 9.51562 5.50391C9.98479 5.21282 10.5167 4.78489 11.1729 4.25684L12.7998 2.94824C12.913 2.85724 12.9847 2.72657 12.998 2.58496C13.0114 2.44337 12.9654 2.30263 12.8711 2.19336C12.7768 2.08414 12.6418 2.01492 12.4951 2.00195Z" fill="#E6ECE5"/>
</g>
<defs>
<clipPath id="clip0_3241_3120">
<rect width="16" height="16" fill="white"/>
</clipPath>
</defs>
</svg>
