<svg width="16" height="16" viewBox="0 0 16 16" fill="none" xmlns="http://www.w3.org/2000/svg">
<path d="M5.90417 13C5.65972 13 5.45417 12.9187 5.2875 12.7561C5.12083 12.5936 5.03778 12.3924 5.03833 12.1526C5.03889 11.9128 5.12222 11.7119 5.28833 11.5499C5.45444 11.3879 5.65972 11.3066 5.90417 11.306H15.135C15.3794 11.306 15.5847 11.3873 15.7508 11.5499C15.9169 11.713 16 11.9142 16 12.1534C16 12.3927 15.9169 12.5936 15.7508 12.7561C15.5847 12.9187 15.3792 13 15.1342 13H5.90417ZM5.90417 8.4507C5.65972 8.4507 5.45417 8.36941 5.2875 8.20684C5.12083 8.04427 5.03778 7.84337 5.03833 7.60413C5.03889 7.36489 5.12222 7.16372 5.28833 7.0006C5.45444 6.83748 5.65972 6.75647 5.90417 6.75756H15.135C15.3794 6.75756 15.5847 6.83884 15.7508 7.00142C15.9169 7.16399 16 7.36489 16 7.60413C16 7.84337 15.9169 8.04454 15.7508 8.20766C15.5847 8.37077 15.3792 8.45179 15.1342 8.4507H5.90417ZM5.90417 3.69396C5.65972 3.69396 5.45417 3.61267 5.2875 3.4501C5.12139 3.28698 5.03833 3.08581 5.03833 2.84657C5.03833 2.60733 5.12167 2.40643 5.28833 2.24386C5.455 2.08129 5.66 2 5.90333 2H15.1342C15.3786 2 15.5839 2.08129 15.75 2.24386C15.9161 2.40643 15.9992 2.60761 15.9992 2.84739C15.9992 3.08717 15.9161 3.28807 15.75 3.4501C15.5839 3.61213 15.3783 3.69341 15.1333 3.69396H5.90417ZM1.86583 3.69396C1.62083 3.69396 1.41528 3.61267 1.24917 3.4501C1.08306 3.28698 1 3.08581 1 2.84657C1 2.60733 1.08306 2.40643 1.24917 2.24386C1.41528 2.08129 1.62083 2 1.86583 2C2.11028 2 2.31556 2.08129 2.48167 2.24386C2.64778 2.40643 2.73083 2.60761 2.73083 2.84739C2.73083 3.08717 2.64778 3.28807 2.48167 3.4501C2.315 3.61267 2.11028 3.69396 1.86583 3.69396ZM1.865 8.45152C1.62056 8.45152 1.41528 8.36996 1.24917 8.20684C1.08306 8.04373 1 7.84282 1 7.60413C1 7.36544 1.08306 7.16426 1.24917 7.0006C1.41528 6.83694 1.62083 6.75593 1.86583 6.75756C2.11083 6.75919 2.31611 6.84047 2.48167 7.00142C2.64722 7.16236 2.73028 7.36326 2.73083 7.60413C2.73139 7.845 2.64833 8.04617 2.48167 8.20766C2.315 8.36969 2.10944 8.45152 1.865 8.45152ZM1.865 13C1.62056 13 1.41528 12.9187 1.24917 12.7561C1.08306 12.5936 1 12.3924 1 12.1526C1 11.9128 1.08306 11.7119 1.24917 11.5499C1.41528 11.3879 1.62083 11.3066 1.86583 11.306C2.11083 11.3055 2.31611 11.3868 2.48167 11.5499C2.64778 11.713 2.73083 11.9142 2.73083 12.1534C2.73083 12.3927 2.64778 12.5936 2.48167 12.7561C2.31556 12.9187 2.11 13 1.865 13Z" fill="#E6ECE5"/>
</svg>
