<svg width="16" height="16" viewBox="0 0 16 16" fill="none" xmlns="http://www.w3.org/2000/svg">
<g clip-path="url(#clip0_3241_3102)">
<path d="M7.99844 7.6C7.468 7.6 6.9593 7.38929 6.58422 7.01421C6.20915 6.63914 5.99844 6.13043 5.99844 5.6C5.99844 5.06957 6.20915 4.56086 6.58422 4.18579C6.9593 3.81071 7.468 3.6 7.99844 3.6C8.52887 3.6 9.03758 3.81071 9.41265 4.18579C9.78772 4.56086 9.99844 5.06957 9.99844 5.6C9.99844 5.86264 9.94671 6.12272 9.8462 6.36537C9.74569 6.60802 9.59837 6.8285 9.41265 7.01421C9.22693 7.19993 9.00646 7.34725 8.7638 7.44776C8.52115 7.54827 8.26108 7.6 7.99844 7.6ZM7.99844 0C6.51323 0 5.08884 0.589998 4.03864 1.6402C2.98844 2.69041 2.39844 4.11479 2.39844 5.6C2.39844 9.8 7.99844 16 7.99844 16C7.99844 16 13.5984 9.8 13.5984 5.6C13.5984 4.11479 13.0084 2.69041 11.9582 1.6402C10.908 0.589998 9.48365 0 7.99844 0Z" fill="#E6ECE5"/>
</g>
<defs>
<clipPath id="clip0_3241_3102">
<rect width="16" height="16" fill="white"/>
</clipPath>
</defs>
</svg>
