<svg width="16" height="16" viewBox="0 0 16 16" fill="none" xmlns="http://www.w3.org/2000/svg">
<path d="M1.24219 14C0.892721 14 0.59846 13.876 0.359407 13.628C0.119802 13.3806 0 13.076 0 12.7143V3.38514C0 3.02343 0.135537 2.702 0.40661 2.42086C0.678236 2.14029 0.988507 2 1.33742 2H4.90665C5.08497 2 5.25833 2.03714 5.42671 2.11143C5.5951 2.18686 5.73919 2.28657 5.859 2.41057L7.11858 3.71429H14.349C14.4671 3.71429 14.5656 3.75514 14.6446 3.83686C14.7235 3.91857 14.763 4.02057 14.763 4.14286C14.763 4.26514 14.7235 4.36714 14.6446 4.44886C14.5656 4.53057 14.4671 4.57143 14.349 4.57143H3.68268C2.91142 4.57143 2.24284 4.828 1.67696 5.34114C1.11107 5.85429 0.828127 6.50114 0.828127 7.28171V12.6157C0.828127 12.7363 0.857387 12.8351 0.915908 12.9123C0.974429 12.9894 1.05145 13.0551 1.14696 13.1094L2.73447 7.60657C2.82391 7.31171 2.98761 7.07286 3.22555 6.89C3.4635 6.70714 3.73043 6.61571 4.02635 6.61571H14.6454C15.0943 6.61571 15.4545 6.80114 15.7261 7.172C15.9966 7.54286 16.0668 7.95029 15.9365 8.39429L14.5734 13.0914C14.495 13.364 14.3445 13.5837 14.122 13.7506C13.8996 13.9169 13.6511 14 13.3767 14H1.24219Z" fill="#E6ECE5"/>
</svg>
