<svg width="16" height="16" viewBox="0 0 16 16" fill="none" xmlns="http://www.w3.org/2000/svg">
<g clip-path="url(#clip0_3241_3068)">
<path d="M3.27344 8.99484V8.2815H3.82187L5.85566 3.28809L7.56953 6.33095L9.2834 3.28809L11.3629 8.2815H11.9113V8.99484H9.3291V8.2815H9.85091L9.03203 6.33095L7.56953 8.67161L6.15273 6.33095L5.33175 8.2815H5.78711V8.99484H3.27344Z" fill="#E6ECE5" stroke="#E6ECE5" stroke-width="0.0430844"/>
<path d="M7.33073 15.4834C9.79441 13.7797 12.101 11.924 13.1799 10.0682C13.7019 9.17023 14 7.79742 14 6.69134C14 3.28059 11.1656 0.515625 7.66927 0.515625H7.33073C3.83436 0.515625 1 3.28059 1 6.69134C1 8.62581 1.91176 10.3525 3.33894 11.4849" stroke="#E6ECE5" stroke-width="1.07143" stroke-linecap="round"/>
</g>
<defs>
<clipPath id="clip0_3241_3068">
<rect width="16" height="16" fill="white"/>
</clipPath>
</defs>
</svg>
