<svg width="16" height="16" viewBox="0 0 16 16" fill="none" xmlns="http://www.w3.org/2000/svg">
<g clip-path="url(#clip0_3241_3017)">
<path d="M12.8008 16C12.1341 16 11.5674 15.7667 11.1008 15.3C10.6341 14.8333 10.4008 14.2667 10.4008 13.6C10.4008 13.52 10.4208 13.3333 10.4608 13.04L4.84078 9.76C4.62745 9.96 4.38078 10.1168 4.10078 10.2304C3.82078 10.344 3.52078 10.4005 3.20078 10.4C2.53411 10.4 1.96745 10.1667 1.50078 9.7C1.03411 9.23333 0.800781 8.66667 0.800781 8C0.800781 7.33333 1.03411 6.76667 1.50078 6.3C1.96745 5.83333 2.53411 5.6 3.20078 5.6C3.52078 5.6 3.82078 5.6568 4.10078 5.7704C4.38078 5.884 4.62745 6.04053 4.84078 6.24L10.4608 2.96C10.4341 2.86667 10.4176 2.7768 10.4112 2.6904C10.4048 2.604 10.4013 2.5072 10.4008 2.4C10.4008 1.73333 10.6341 1.16667 11.1008 0.7C11.5674 0.233333 12.1341 0 12.8008 0C13.4674 0 14.0341 0.233333 14.5008 0.7C14.9674 1.16667 15.2008 1.73333 15.2008 2.4C15.2008 3.06667 14.9674 3.63333 14.5008 4.1C14.0341 4.56667 13.4674 4.8 12.8008 4.8C12.4808 4.8 12.1808 4.7432 11.9008 4.6296C11.6208 4.516 11.3741 4.35947 11.1608 4.16L5.54078 7.44C5.56745 7.53333 5.58425 7.62347 5.59118 7.7104C5.59811 7.79733 5.60131 7.89387 5.60078 8C5.60025 8.10613 5.59705 8.20293 5.59118 8.2904C5.58531 8.37787 5.56851 8.46773 5.54078 8.56L11.1608 11.84C11.3741 11.64 11.6208 11.4835 11.9008 11.3704C12.1808 11.2573 12.4808 11.2005 12.8008 11.2C13.4674 11.2 14.0341 11.4333 14.5008 11.9C14.9674 12.3667 15.2008 12.9333 15.2008 13.6C15.2008 14.2667 14.9674 14.8333 14.5008 15.3C14.0341 15.7667 13.4674 16 12.8008 16Z" fill="#E6ECE5"/>
</g>
<defs>
<clipPath id="clip0_3241_3017">
<rect width="16" height="16" fill="white"/>
</clipPath>
</defs>
</svg>
