<svg width="16" height="16" viewBox="0 0 16 16" fill="none" xmlns="http://www.w3.org/2000/svg">
<g clip-path="url(#clip0_3241_2901)">
<path d="M7.99751 5.36002H12.3978H15.038V7.99999V12.4V15.0399H12.3978H7.99751H5.35734V12.4V7.99999V5.36002H7.99751ZM12.3978 7.12001H7.99751H7.11747V7.99999V12.4V13.2799H7.99751H12.3978H13.2779V12.4V7.99999V7.12001H12.3978ZM3.59721 0.87207H7.99751H10.6377V3.60002V4.48004H8.87756V3.60002V2.72005H7.99751H3.59721H2.71716V3.60002V7.99999V8.87996H3.59721H4.47729V10.64H3.59721H0.957031L0.957018 7.99999L0.957031 3.60002V0.87207H3.59721Z" fill="#E6ECE5"/>
<ellipse cx="6.4006" cy="6.40045" rx="1.92013" ry="1.91998" fill="#E6ECE5"/>
<ellipse cx="14.0803" cy="6.40045" rx="1.92013" ry="1.91998" fill="#E6ECE5"/>
<ellipse cx="14.0803" cy="14.0801" rx="1.92013" ry="1.91998" fill="#E6ECE5"/>
<ellipse cx="6.4006" cy="14.0801" rx="1.92013" ry="1.91998" fill="#E6ECE5"/>
<ellipse cx="1.92013" cy="9.59967" rx="1.92013" ry="1.91998" fill="#E6ECE5"/>
<ellipse cx="1.92013" cy="1.91998" rx="1.92013" ry="1.91998" fill="#E6ECE5"/>
<ellipse cx="9.60372" cy="1.91998" rx="1.92013" ry="1.91998" fill="#E6ECE5"/>
</g>
<defs>
<clipPath id="clip0_3241_2901">
<rect width="16" height="16" fill="white"/>
</clipPath>
</defs>
</svg>
