<svg width="16" height="16" viewBox="0 0 16 16" fill="none" xmlns="http://www.w3.org/2000/svg">
<g clip-path="url(#clip0_3241_3308)">
<path fill-rule="evenodd" clip-rule="evenodd" d="M10.2689 1.5723C8.12329 -0.524099 4.65318 -0.524099 2.50679 1.5723C0.347273 3.68135 0.347273 7.11208 2.50679 9.22188L8.30343 14.8837C9.82771 16.3721 12.2899 16.3721 13.8142 14.8837C14.1784 14.5337 14.4686 14.1114 14.667 13.6428C14.8654 13.1741 14.9678 12.669 14.9678 12.1585C14.9678 11.648 14.8654 11.1428 14.667 10.6742C14.4686 10.2055 14.1784 9.7832 13.8142 9.43323L8.10068 3.85325C7.66024 3.42866 7.07729 3.1921 6.47138 3.1921C5.86546 3.1921 5.28251 3.42866 4.84207 3.85325C4.62497 4.06198 4.45198 4.3138 4.33375 4.59324C4.21551 4.87267 4.15452 5.17383 4.15452 5.4782C4.15452 5.78258 4.21551 6.08373 4.33375 6.36317C4.45198 6.64261 4.62497 6.89443 4.84207 7.10315L10.5964 12.7248C10.6483 12.7755 10.7095 12.8153 10.7765 12.8419C10.8435 12.8685 10.9149 12.8814 10.9868 12.8798C11.0586 12.8782 11.1295 12.8622 11.1953 12.8326C11.2611 12.8031 11.3205 12.7607 11.3702 12.7077C11.4199 12.6547 11.4589 12.5923 11.485 12.5239C11.511 12.4556 11.5237 12.3827 11.5221 12.3093C11.5205 12.236 11.5048 12.1637 11.4759 12.0966C11.447 12.0295 11.4054 11.9688 11.3534 11.9181L5.59911 6.29719C5.48894 6.19252 5.40108 6.06581 5.341 5.92497C5.28092 5.78413 5.24992 5.63218 5.24992 5.47858C5.24992 5.32497 5.28092 5.17302 5.341 5.03218C5.40108 4.89134 5.48894 4.76463 5.59911 4.65996C5.83588 4.43433 6.14777 4.30883 6.47174 4.30883C6.79571 4.30883 7.1076 4.43433 7.34437 4.65996L13.0579 10.2399C13.3153 10.4857 13.5206 10.7828 13.6609 11.1128C13.8013 11.4428 13.8737 11.7987 13.8737 12.1585C13.8737 12.5182 13.8013 12.8741 13.6609 13.2041C13.5206 13.5342 13.3153 13.8313 13.0579 14.077C11.9566 15.1524 10.161 15.1524 9.05973 14.077L3.26309 8.41517C1.55357 6.74519 1.55357 4.04823 3.26309 2.37826C4.98648 0.695636 7.78926 0.695636 9.51337 2.37826L14.1832 6.94017C14.288 7.04271 14.4283 7.09859 14.5734 7.09552C14.7186 7.09245 14.8565 7.03068 14.957 6.9238C15.0575 6.81692 15.1123 6.67369 15.1093 6.52562C15.1062 6.37754 15.0457 6.23675 14.941 6.13421L10.2689 1.5723Z" fill="#E6ECE5"/>
</g>
<defs>
<clipPath id="clip0_3241_3308">
<rect width="16" height="16" fill="white"/>
</clipPath>
</defs>
</svg>
