<svg width="16" height="16" viewBox="0 0 16 16" fill="none" xmlns="http://www.w3.org/2000/svg">
<g clip-path="url(#clip0_3241_3264)">
<path fill-rule="evenodd" clip-rule="evenodd" d="M5.73105 1.5723C7.87671 -0.524099 11.3468 -0.524099 13.4932 1.5723C15.6527 3.68135 15.6527 7.11208 13.4932 9.22188L7.69657 14.8837C6.17229 16.3721 3.71011 16.3721 2.18583 14.8837C1.82159 14.5337 1.53135 14.1114 1.33297 13.6428C1.13459 13.1741 1.03225 12.669 1.03225 12.1585C1.03225 11.648 1.13459 11.1428 1.33297 10.6742C1.53135 10.2055 1.82159 9.7832 2.18583 9.43323L7.89932 3.85325C8.33976 3.42866 8.92271 3.1921 9.52862 3.1921C10.1345 3.1921 10.7175 3.42866 11.1579 3.85325C11.375 4.06198 11.548 4.3138 11.6663 4.59324C11.7845 4.87267 11.8455 5.17383 11.8455 5.4782C11.8455 5.78258 11.7845 6.08373 11.6663 6.36317C11.548 6.64261 11.375 6.89443 11.1579 7.10315L5.40359 12.7248C5.35168 12.7755 5.29048 12.8153 5.2235 12.8419C5.15652 12.8685 5.08506 12.8814 5.01321 12.8798C4.94135 12.8782 4.87051 12.8622 4.80472 12.8326C4.73893 12.8031 4.67949 12.7607 4.62978 12.7077C4.58007 12.6547 4.54107 12.5923 4.51502 12.5239C4.48896 12.4556 4.47635 12.3827 4.47791 12.3093C4.47946 12.236 4.49516 12.1637 4.52409 12.0966C4.55303 12.0295 4.59464 11.9688 4.64655 11.9181L10.4009 6.29719C10.5111 6.19252 10.5989 6.06581 10.659 5.92497C10.7191 5.78413 10.7501 5.63218 10.7501 5.47858C10.7501 5.32497 10.7191 5.17302 10.659 5.03218C10.5989 4.89134 10.5111 4.76463 10.4009 4.65996C10.1641 4.43433 9.85223 4.30883 9.52826 4.30883C9.20429 4.30883 8.8924 4.43433 8.65563 4.65996L2.94213 10.2399C2.68466 10.4857 2.47939 10.7828 2.33905 11.1128C2.19872 11.4428 2.12631 11.7987 2.12631 12.1585C2.12631 12.5182 2.19872 12.8741 2.33905 13.2041C2.47939 13.5342 2.68466 13.8313 2.94213 14.077C4.04341 15.1524 5.83899 15.1524 6.94027 14.077L12.7369 8.41517C14.4464 6.74519 14.4464 4.04823 12.7369 2.37826C11.0135 0.695636 8.21074 0.695636 6.48663 2.37826L1.81679 6.94017C1.71205 7.04271 1.57168 7.09859 1.42656 7.09552C1.28145 7.09245 1.14347 7.03068 1.04298 6.9238C0.942496 6.81692 0.887734 6.67369 0.890743 6.52562C0.893752 6.37754 0.954285 6.23675 1.05903 6.13421L5.73105 1.5723Z" fill="#E6ECE5"/>
</g>
<defs>
<clipPath id="clip0_3241_3264">
<rect width="16" height="16" fill="white"/>
</clipPath>
</defs>
</svg>
