<svg width="16" height="16" viewBox="0 0 16 16" fill="none" xmlns="http://www.w3.org/2000/svg">
<path d="M3.87663 9.13127C3.72242 9.29309 3.60013 9.4852 3.51673 9.69664C3.43334 9.90808 3.39049 10.1347 3.39063 10.3635V12.8146H5.74131C6.18172 12.8146 6.60481 12.6309 6.91665 12.3037L13.8465 5.0289C14.001 4.86716 14.1236 4.67503 14.2073 4.4635C14.291 4.25197 14.334 4.0252 14.334 3.79618C14.334 3.56717 14.291 3.3404 14.2073 3.12887C14.1236 2.91734 14.001 2.72521 13.8465 2.56346L13.1617 1.84498C13.0076 1.6827 12.8244 1.55394 12.6227 1.46609C12.421 1.37823 12.2048 1.33301 11.9864 1.33301C11.768 1.33301 11.5518 1.37823 11.3501 1.46609C11.1484 1.55394 10.9652 1.6827 10.8111 1.84498L3.87663 9.13127Z" stroke="#E6ECE5" stroke-width="1.33333" stroke-linecap="round" stroke-linejoin="round"/>
<path d="M13.9807 14.667C13.9807 14.667 10.9959 14.667 7.92144 14.667C4.84703 14.667 2.79798 14.667 2.33203 14.667" stroke="#E6ECE5" stroke-width="1.33333" stroke-linecap="round" stroke-linejoin="round"/>
</svg>
