<svg width="16" height="16" viewBox="0 0 16 16" fill="none" xmlns="http://www.w3.org/2000/svg">
<path d="M8 0C7.20435 0 6.44129 0.337142 5.87868 0.937258C5.31607 1.53737 5 2.35131 5 3.2C5 4.04869 5.31607 4.86263 5.87868 5.46274C6.44129 6.06286 7.20435 6.4 8 6.4C8.79565 6.4 9.55871 6.06286 10.1213 5.46274C10.6839 4.86263 11 4.04869 11 3.2C11 2.35131 10.6839 1.53737 10.1213 0.937258C9.55871 0.337142 8.79565 0 8 0ZM11.75 8H4.25C3.65326 8 3.08097 8.25286 2.65901 8.70294C2.23705 9.15303 2 9.76348 2 10.4C2 12.1856 2.6885 13.616 3.818 14.584C4.9295 15.536 6.4205 16 8 16C9.5795 16 11.0705 15.536 12.182 14.584C13.31 13.616 14 12.1856 14 10.4C14 9.76348 13.7629 9.15303 13.341 8.70294C12.919 8.25286 12.3467 8 11.75 8Z" fill="#E6ECE5"/>
</svg>
