<svg width="16" height="16" viewBox="0 0 16 16" fill="none" xmlns="http://www.w3.org/2000/svg">
<g clip-path="url(#clip0_3241_3090)">
<path d="M10.1098 3.456C10.1098 1.5488 8.52108 0 6.56478 0C4.60847 0 3.0198 1.5488 3.0198 3.456C3.0198 5.3632 4.60847 6.912 6.56478 6.912C8.52108 6.912 10.1098 5.3632 10.1098 3.456Z" fill="#E6ECE5"/>
<path d="M6.56478 8.576C3.93887 8.576 0 9.984 0 12.544C0 13.1802 0.515769 13.696 1.152 13.696H6.78489V10.24C6.90816 9.11042 7.67822 8.82742 8.00568 8.6846C7.47918 8.61256 6.98789 8.576 6.56478 8.576Z" fill="#E6ECE5"/>
<path d="M7.875 10.72C7.875 10.2532 8.0652 9.80552 8.40376 9.47545C8.74233 9.14539 9.20151 8.95996 9.68031 8.95996H14.1936C14.6724 8.95996 15.1316 9.14539 15.4701 9.47545C15.8087 9.80552 15.9989 10.2532 15.9989 10.72V14.24C15.9989 14.7067 15.8087 15.1544 15.4701 15.4845C15.1316 15.8145 14.6724 16 14.1936 16H9.68031C9.20151 16 8.74233 15.8145 8.40376 15.4845C8.0652 15.1544 7.875 14.7067 7.875 14.24V10.72ZM13.7423 13.36H10.1316C10.0119 13.36 9.89714 13.4063 9.8125 13.4888C9.72786 13.5713 9.68031 13.6833 9.68031 13.8C9.68031 13.9167 9.72786 14.0286 9.8125 14.1111C9.89714 14.1936 10.0119 14.24 10.1316 14.24H13.7423C13.862 14.24 13.9768 14.1936 14.0614 14.1111C14.146 14.0286 14.1936 13.9167 14.1936 13.8C14.1936 13.6833 14.146 13.5713 14.0614 13.4888C13.9768 13.4063 13.862 13.36 13.7423 13.36ZM10.1316 10.72C10.0119 10.72 9.89714 10.7663 9.8125 10.8488C9.72786 10.9313 9.68031 11.0433 9.68031 11.16C9.68031 11.2767 9.72786 11.3886 9.8125 11.4711C9.89714 11.5536 10.0119 11.6 10.1316 11.6H13.7423C13.862 11.6 13.9768 11.5536 14.0614 11.4711C14.146 11.3886 14.1936 11.2767 14.1936 11.16C14.1936 11.0433 14.146 10.9313 14.0614 10.8488C13.9768 10.7663 13.862 10.72 13.7423 10.72H10.1316Z" fill="#E6ECE5"/>
</g>
<defs>
<clipPath id="clip0_3241_3090">
<rect width="16" height="16" fill="white"/>
</clipPath>
</defs>
</svg>
