<svg width="16" height="16" viewBox="0 0 16 16" fill="none" xmlns="http://www.w3.org/2000/svg">
<path d="M13.4444 0H2.55556C2.143 0 1.74733 0.1638 1.45561 0.455366C1.16389 0.746933 1 1.14238 1 1.55472V12.4377C1 13.2928 1.7 13.9925 2.55556 13.9925H5.66667L7.44778 15.7726C7.75111 16.0758 8.24111 16.0758 8.54444 15.7726L10.3333 13.9925H13.4444C14.3 13.9925 15 13.2928 15 12.4377V1.55472C15 0.699623 14.3 0 13.4444 0ZM8 2.56529C9.15889 2.56529 10.1 3.50589 10.1 4.66416C10.1 5.82242 9.15889 6.76303 8 6.76303C6.84111 6.76303 5.9 5.82242 5.9 4.66416C5.9 3.50589 6.84111 2.56529 8 2.56529ZM12.6667 10.883H3.33333V10.1834C3.33333 8.62869 6.44444 7.77359 8 7.77359C9.55556 7.77359 12.6667 8.62869 12.6667 10.1834V10.883Z" fill="#E6ECE5"/>
</svg>
