<svg width="16" height="16" viewBox="0 0 16 16" fill="none" xmlns="http://www.w3.org/2000/svg">
<path d="M8.5 0C7.36336 0 6.27327 0.421427 5.46954 1.17157C4.66581 1.92172 4.21429 2.93913 4.21429 4C4.21429 5.06087 4.66581 6.07828 5.46954 6.82843C6.27327 7.57857 7.36336 8 8.5 8C9.63664 8 10.7267 7.57857 11.5305 6.82843C12.3342 6.07828 12.7857 5.06087 12.7857 4C12.7857 2.93913 12.3342 1.92172 11.5305 1.17157C10.7267 0.421427 9.63664 0 8.5 0ZM3.1525 9C2.87029 8.99881 2.5906 9.04967 2.3295 9.14965C2.06841 9.24963 1.83104 9.39676 1.63103 9.58259C1.43103 9.76843 1.27232 9.98931 1.16403 10.2325C1.05574 10.4758 0.999997 10.7366 1 11C1 12.691 1.8925 13.966 3.2875 14.797C4.66107 15.614 6.5125 16 8.5 16C10.4875 16 12.3389 15.614 13.7125 14.797C15.1075 13.967 16 12.69 16 11C16 10.4696 15.7742 9.96086 15.3724 9.58579C14.9705 9.21071 14.4255 9 13.8571 9H3.1525Z" fill="#E6ECE5"/>
</svg>
