<svg width="16" height="16" viewBox="0 0 16 16" fill="none" xmlns="http://www.w3.org/2000/svg">
<path fill-rule="evenodd" clip-rule="evenodd" d="M4.73882 10.0985C7.62745 12.9402 10.3042 13.2514 11.0901 13.2802C12.0397 13.3142 13.0088 12.5515 13.428 11.7703C12.7594 10.9987 11.8887 10.4 10.9353 9.75108C10.3726 10.3039 9.67917 11.3312 8.75586 10.9632C8.23072 10.7555 6.93403 10.1679 5.80111 9.05265C4.6682 7.93737 4.07094 6.66244 3.85833 6.14656C3.4842 5.23675 4.53147 4.55309 5.09417 3.99952C4.43455 3.0461 3.83654 2.16733 3.05372 1.5428C2.24836 1.95669 1.46854 2.90272 1.50385 3.84949C1.53315 4.62257 1.84943 7.25593 4.73882 10.0985ZM11.0345 14.7576C9.95263 14.7185 6.8867 14.3016 3.67577 11.1435C0.465594 7.98467 0.0426286 4.9692 0.00205998 3.90418C-0.0580416 2.28115 1.20559 0.704677 2.66531 0.0890185C2.84109 0.0143464 3.03359 -0.0140836 3.2239 0.00651844C3.41422 0.0271204 3.59583 0.0960465 3.7509 0.206533C4.95894 1.07348 5.7921 2.38684 6.50806 3.41564C6.657 3.62957 6.72523 3.88799 6.70094 4.14619C6.67666 4.40438 6.56139 4.6461 6.37508 4.82951L5.35636 5.83245C5.59301 6.34612 6.07457 7.23154 6.86341 8.00758C7.65224 8.78362 8.55226 9.25737 9.07515 9.49018L10.0931 8.48798C10.28 8.30392 10.5268 8.1904 10.7902 8.1673C11.0537 8.14419 11.317 8.21297 11.5341 8.3616C12.6009 9.08886 13.854 9.89668 14.7675 11.0474C14.8889 11.2011 14.9662 11.384 14.9912 11.5771C15.0161 11.7702 14.9879 11.9663 14.9095 12.145C14.2807 13.5884 12.6895 14.8175 11.0345 14.7576Z" fill="#E6ECE5"/>
</svg>
