<svg width="16" height="16" viewBox="0 0 16 16" fill="none" xmlns="http://www.w3.org/2000/svg">
<g clip-path="url(#clip0_3241_3084)">
<path d="M14.2227 0C15.2001 0.000236607 15.9998 0.799908 16 1.77734V14.2227C15.9998 15.2001 15.2001 15.9998 14.2227 16H1.77734C0.799908 15.9998 0.000236607 15.2001 0 14.2227V1.77734C0.00011491 1.306 0.187212 0.853804 0.520508 0.520508C0.853804 0.187212 1.306 0.00011491 1.77734 0H14.2227ZM4.59473 3.22168C4.32994 3.2217 4.1133 3.43834 4.11328 3.70312C4.11328 8.22424 7.77772 11.8887 12.2988 11.8887C12.5634 11.8885 12.7801 11.6718 12.7803 11.4072V9.72656C12.7803 9.46187 12.5635 9.24531 12.2988 9.24512C11.7018 9.24512 11.1184 9.14885 10.5791 8.9707C10.4108 8.91317 10.2188 8.95626 10.0889 9.08594L9.0293 10.1455C7.66679 9.44741 6.54979 8.33513 5.85645 6.97266L6.91504 5.91309C7.04985 5.77827 7.0891 5.59039 7.03613 5.42188C6.858 4.88264 6.76172 4.30495 6.76172 3.70312C6.7617 3.43844 6.54493 3.22186 6.28027 3.22168H4.59473Z" fill="#E6ECE5"/>
</g>
<defs>
<clipPath id="clip0_3241_3084">
<rect width="16" height="16" fill="white"/>
</clipPath>
</defs>
</svg>
