<svg width="16" height="16" viewBox="0 0 16 16" fill="none" xmlns="http://www.w3.org/2000/svg">
<g clip-path="url(#clip0_3241_3097)">
<path fill-rule="evenodd" clip-rule="evenodd" d="M5.05474 10.947C8.13595 14.0276 10.9912 14.3649 11.8294 14.3961C12.8423 14.433 13.876 13.6062 14.3232 12.7593C13.61 11.9229 12.6812 11.2739 11.6643 10.5705C11.0641 11.1698 10.3244 12.2834 9.33958 11.8844C8.77943 11.6593 7.3963 11.0223 6.18785 9.81334C4.97941 8.60434 4.34233 7.22229 4.11555 6.66306C3.71648 5.67679 4.83356 4.93569 5.43378 4.3356C4.73019 3.30206 4.09231 2.34945 3.2573 1.67244C2.39825 2.12111 1.56644 3.14663 1.6041 4.17296C1.63536 5.011 1.97273 7.86564 5.05474 10.947ZM11.7701 15.9977C10.6161 15.9553 7.34581 15.5034 3.92082 12.0799C0.496633 8.65562 0.0454705 5.38676 0.00219731 4.23224C-0.0619111 2.47283 1.28597 0.76389 2.843 0.0964986C3.0305 0.0155519 3.23582 -0.015267 3.43883 0.00706618C3.64184 0.0293994 3.83555 0.104117 4.00096 0.223888C5.28954 1.16368 6.17824 2.5874 6.94193 3.70266C7.1008 3.93456 7.17358 4.2147 7.14767 4.49459C7.12177 4.77448 6.99882 5.03651 6.80009 5.23533L5.71345 6.32255C5.96588 6.87938 6.47955 7.8392 7.32097 8.68045C8.16239 9.5217 9.12241 10.0353 9.68016 10.2876L10.766 9.20123C10.9654 9.0017 11.2286 8.87864 11.5096 8.85359C11.7906 8.82855 12.0714 8.90311 12.303 9.06422C13.4409 9.85259 14.7776 10.7283 15.752 11.9757C15.8815 12.1423 15.9639 12.3406 15.9906 12.5499C16.0172 12.7592 15.9871 12.9718 15.9035 13.1655C15.2327 14.7302 13.5355 16.0626 11.7701 15.9977Z" fill="#E6ECE5"/>
</g>
<defs>
<clipPath id="clip0_3241_3097">
<rect width="16" height="16" fill="white"/>
</clipPath>
</defs>
</svg>
