<svg width="16" height="16" viewBox="0 0 16 16" fill="none" xmlns="http://www.w3.org/2000/svg">
<path d="M14.0859 3.9661C13.9051 3.9661 13.7537 3.90265 13.6316 3.77573C13.5095 3.64881 13.4483 3.49193 13.4479 3.30509V2.64407H12.8098C12.629 2.64407 12.4776 2.58061 12.3555 2.4537C12.2335 2.32678 12.1722 2.1699 12.1718 1.98305C12.1714 1.79621 12.2326 1.63932 12.3555 1.51241C12.4785 1.38549 12.6299 1.32204 12.8098 1.32204H13.4479V0.661019C13.4479 0.473731 13.5091 0.31685 13.6316 0.190375C13.7541 0.0639005 13.9055 0.000442957 14.0859 2.27937e-06C14.2662 -0.000438399 14.4179 0.0630192 14.5408 0.190375C14.6637 0.317731 14.7248 0.474612 14.7239 0.661019V1.32204H15.362C15.5427 1.32204 15.6944 1.38549 15.8169 1.51241C15.9394 1.63932 16.0004 1.79621 16 1.98305C15.9996 2.1699 15.9383 2.327 15.8162 2.45436C15.6942 2.58171 15.5427 2.64495 15.362 2.64407H14.7239V3.30509C14.7239 3.49237 14.6627 3.64948 14.5402 3.77639C14.4177 3.90331 14.2662 3.96654 14.0859 3.9661ZM7.16564 10.5C7.96319 10.5 8.64121 10.2109 9.19971 9.63275C9.7582 9.05458 10.0372 8.35214 10.0368 7.52542C10.0364 6.69871 9.75735 5.99649 9.19971 5.41876C8.64206 4.84103 7.96404 4.55173 7.16564 4.55085C6.36725 4.54997 5.68944 4.83927 5.13222 5.41876C4.575 5.99825 4.29575 6.70047 4.29448 7.52542C4.2932 8.35037 4.57245 9.05281 5.13222 9.63275C5.69199 10.2127 6.3698 10.5018 7.16564 10.5ZM7.16564 9.17797C6.71902 9.17797 6.34151 9.01822 6.03313 8.69873C5.72474 8.37924 5.57055 7.98814 5.57055 7.52542C5.57055 7.06271 5.72474 6.67161 6.03313 6.35212C6.34151 6.03263 6.71902 5.87288 7.16564 5.87288C7.61227 5.87288 7.98977 6.03263 8.29816 6.35212C8.60654 6.67161 8.76074 7.06271 8.76074 7.52542C8.76074 7.98814 8.60654 8.37924 8.29816 8.69873C7.98977 9.01822 7.61227 9.17797 7.16564 9.17797ZM1.27607 12C0.925153 12 0.624851 11.8707 0.375166 11.612C0.125481 11.3533 0.000425358 11.8555 0 11.4915V3.9661C0 3.60254 0.125055 3.29142 0.375166 3.03275C0.625276 2.77407 0.925579 2.64451 1.27607 2.64407H4.07117L4.86871 1.7517C4.98568 1.61949 5.12669 1.51483 5.29173 1.43771C5.45677 1.36059 5.62946 1.32204 5.80982 1.32204H10.2577C10.4384 1.32204 10.5901 1.38549 10.7126 1.51241C10.8351 1.63932 10.8961 1.79621 10.8957 1.98305V2.97458C10.8957 3.25 10.9889 3.48422 11.1752 3.67724C11.3615 3.87026 11.5873 3.96654 11.8528 3.9661H12.1718V4.29661C12.1718 4.57203 12.2649 4.80625 12.4512 4.99927C12.6375 5.19229 12.8634 5.28858 13.1288 5.28814H14.0859C14.2667 5.28814 14.4183 5.35159 14.5408 5.47851C14.6633 5.60542 14.7244 5.76231 14.7239 5.94915V10.678C14.7239 11.0415 14.5991 11.3529 14.3494 11.612C14.0997 11.8711 13.7992 12.0004 13.4479 12H1.27607Z" fill="#E6ECE5"/>
</svg>
