<svg width="16" height="16" viewBox="0 0 16 16" fill="none" xmlns="http://www.w3.org/2000/svg">
<g clip-path="url(#clip0_3241_2912)">
<path d="M11.1731 3.62891C10.5332 3.62891 9.9195 3.88957 9.46703 4.35356C9.01456 4.81755 8.76036 5.44685 8.76036 6.10303C8.76036 6.75921 9.01456 7.38851 9.46703 7.8525C9.9195 8.31648 10.5332 8.57715 11.1731 8.57715C11.813 8.57715 12.4266 8.31648 12.8791 7.8525C13.3316 7.38851 13.5858 6.75921 13.5858 6.10303C13.5858 5.44685 13.3316 4.81755 12.8791 4.35356C12.4266 3.88957 11.813 3.62891 11.1731 3.62891ZM14.189 9.81421H8.15719C7.67727 9.81421 7.21701 10.0097 6.87766 10.3577C6.5383 10.7057 6.34766 11.1777 6.34766 11.6698C6.34766 13.0504 6.90137 14.1563 7.80976 14.9047C8.70367 15.6408 9.90278 15.9995 11.1731 15.9995C12.4434 15.9995 13.6425 15.6408 14.5364 14.9047C15.4436 14.1563 15.9985 13.0504 15.9985 11.6698C15.9985 11.1777 15.8078 10.7057 15.4685 10.3577C15.1291 10.0097 14.6689 9.81421 14.189 9.81421Z" fill="#E6ECE5"/>
<path d="M8.52261 7.94328C8.66217 8.18116 8.83029 8.40282 9.02492 8.60241C9.134 8.71427 9.25057 8.81686 9.37214 8.91132H8.38286C7.65256 8.91132 6.95208 9.20905 6.43568 9.73861C5.91936 10.2681 5.62932 10.9862 5.62928 11.735C5.62928 12.5059 5.77444 13.216 6.0421 13.8491C5.48079 13.6674 4.96539 13.3965 4.5245 13.0335C3.61618 12.2851 3.0625 11.1791 3.0625 9.79856C3.06254 9.30648 3.25329 8.83448 3.59261 8.48652C3.93196 8.13859 4.39221 7.94328 4.87208 7.94328H8.52261Z" fill="#E6ECE5"/>
<path d="M6.60359 12.2837C6.61656 12.3976 6.63332 12.5094 6.65421 12.6189C6.65305 12.6129 6.65178 12.6068 6.65064 12.6007C6.63145 12.497 6.61577 12.3913 6.60359 12.2837Z" fill="#E6ECE5"/>
<path d="M7.88805 1.75781C8.52785 1.75785 9.14145 2.01847 9.59389 2.48238C9.75617 2.64879 9.89231 2.83695 10.001 3.03951C9.64134 3.20841 9.30997 3.44214 9.02492 3.73446C8.39548 4.37999 8.04205 5.25556 8.04205 6.16843C8.04206 6.34656 8.056 6.52319 8.08234 6.69705C8.01792 6.70239 7.95315 6.70619 7.88805 6.70619C7.24816 6.70619 6.63432 6.44525 6.18185 5.98126C5.72945 5.5173 5.47529 4.88812 5.47527 4.232C5.47527 3.57582 5.72938 2.94636 6.18185 2.48238C6.63432 2.01841 7.24817 1.75781 7.88805 1.75781Z" fill="#E6ECE5"/>
<path d="M5.04693 6.18547C5.18644 6.42319 5.35437 6.64476 5.54888 6.84423C5.65797 6.95609 5.77453 7.05868 5.89611 7.15314H4.90683C4.17652 7.15314 3.47605 7.45088 2.95964 7.98043C2.44332 8.50994 2.15328 9.22801 2.15324 9.97681C2.15324 10.6729 2.27188 11.3194 2.49192 11.9045C2.11868 11.7393 1.7717 11.5307 1.462 11.2757C0.553682 10.5273 0 9.42124 0 8.04075C3.80743e-05 7.54867 0.190792 7.07667 0.530111 6.72871C0.869455 6.38078 1.32971 6.18547 1.80958 6.18547H5.04693Z" fill="#E6ECE5"/>
<path d="M3.12755 10.5255C3.14052 10.6395 3.15729 10.7513 3.17817 10.8608C3.17701 10.8547 3.17574 10.8486 3.17461 10.8425C3.15541 10.7388 3.13973 10.6331 3.12755 10.5255Z" fill="#E6ECE5"/>
<path d="M4.82555 0C5.46535 3.55447e-05 6.07895 0.260658 6.53139 0.724563C6.65672 0.853088 6.76636 0.99475 6.86008 1.1457C6.37064 1.31322 5.92053 1.59517 5.54888 1.97628C4.91945 2.62181 4.56602 3.49738 4.56602 4.41026C4.56602 4.58788 4.57975 4.76403 4.60594 4.93741C4.04656 4.88502 3.51979 4.63408 3.11935 4.22345C2.66695 3.75948 2.41279 3.1303 2.41277 2.47419C2.41277 1.81801 2.66688 1.18855 3.11935 0.724563C3.57182 0.260596 4.18567 0 4.82555 0Z" fill="#E6ECE5"/>
</g>
<defs>
<clipPath id="clip0_3241_2912">
<rect width="16" height="16" fill="white"/>
</clipPath>
</defs>
</svg>
