<svg width="16" height="16" viewBox="0 0 16 16" fill="none" xmlns="http://www.w3.org/2000/svg">
<g clip-path="url(#clip0_3241_3019)">
<path d="M13.3333 12.4444H6.66667L8.44444 10.6667H13.3333M2.66667 12.4444V10.2222L9.67111 3.24444C9.84 3.06667 10.1244 3.06667 10.3022 3.24444L11.8667 4.80889C12.0444 4.98667 12.0444 5.26222 11.8667 5.44L4.86222 12.4444M14.2222 0H1.77778C0.791111 0 0 0.791111 0 1.77778V14.2222C0 14.6937 0.187301 15.1459 0.520699 15.4793C0.854097 15.8127 1.30628 16 1.77778 16H14.2222C14.6937 16 15.1459 15.8127 15.4793 15.4793C15.8127 15.1459 16 14.6937 16 14.2222V1.77778C16 1.30628 15.8127 0.854097 15.4793 0.520699C15.1459 0.187301 14.6937 0 14.2222 0Z" fill="#E6ECE5"/>
</g>
<defs>
<clipPath id="clip0_3241_3019">
<rect width="16" height="16" fill="white"/>
</clipPath>
</defs>
</svg>
