<svg width="16" height="16" viewBox="0 0 16 16" fill="none" xmlns="http://www.w3.org/2000/svg">
<path d="M1.5852 8.45578C1.30405 8.36194 1.12206 8.17338 1.03921 7.8901C0.956371 7.60682 1.00479 7.35373 1.18447 7.13083L3.47434 4.30137C3.64587 4.08943 3.8594 3.93059 4.11495 3.82487C4.37049 3.71914 4.63555 3.68373 4.91012 3.71863L5.98457 3.8471C5.36427 4.76799 4.87828 5.60589 4.52658 6.36081C4.17488 7.11572 3.85255 8.03776 3.55959 9.12691L1.5852 8.45578ZM5.1528 9.90501C5.00402 9.77998 4.91509 9.62512 4.88601 9.44043C4.85693 9.25575 4.87156 9.0722 4.92992 8.88978C5.23476 7.91743 5.56887 7.06335 5.93227 6.32752C6.29566 5.59169 6.80343 4.82087 7.45557 4.01506C8.41612 2.82817 9.54409 1.87565 10.8395 1.15748C12.1349 0.439317 13.4196 0.0543319 14.6935 0.00252444C14.8087 -0.00747268 14.9224 0.0122226 15.0345 0.06161C15.1467 0.110997 15.2449 0.171448 15.3291 0.242963C15.4134 0.314478 15.4903 0.401601 15.56 0.504332C15.6297 0.607062 15.6703 0.716655 15.6818 0.83311C15.8747 2.11697 15.7484 3.47544 15.3028 4.90851C14.8572 6.34158 14.1543 7.65135 13.1941 8.83781C12.5337 9.6538 11.8858 10.3111 11.2502 10.8096C10.6146 11.3081 9.85748 11.8024 8.97879 12.2925C8.81416 12.3856 8.64012 12.4352 8.45666 12.4413C8.27321 12.4473 8.10709 12.3878 7.95831 12.2628C7.12922 10.6389 6.56579 10.1741 5.1528 9.90501ZM10.1576 6.63308C10.5083 6.9278 10.9093 7.05578 11.3606 7.01702C11.8119 6.97825 12.1791 6.78363 12.462 6.43314C12.7449 6.08265 12.8624 5.67853 12.8143 5.22079C12.7662 4.76305 12.5668 4.38604 12.2159 4.08975C11.8651 3.79346 11.4641 3.66588 11.013 3.70698C10.562 3.74809 10.1948 3.94233 9.91153 4.28969C9.62827 4.63706 9.51087 5.04156 9.55935 5.50321C9.60783 5.96486 9.80725 6.34148 10.1576 6.63308ZM10.0336 15.5559L9.01121 13.7085C10.0051 13.2085 10.8322 12.7106 11.4925 12.2151C12.1528 11.7195 12.8673 11.0737 13.636 10.2774L13.9643 11.3279C14.0506 11.5963 14.0672 11.8683 14.0139 12.1441C13.9607 12.4199 13.8482 12.6636 13.6762 12.8752L11.3863 15.7046C11.2062 15.9272 10.9718 16.0239 10.6832 15.995C10.3945 15.9661 10.178 15.8197 10.0336 15.5559Z" fill="#E6ECE5"/>
</svg>
