<svg width="16" height="16" viewBox="0 0 16 16" fill="none" xmlns="http://www.w3.org/2000/svg">
<g clip-path="url(#clip0_3241_2885)">
<path d="M8.32031 0C11.9405 -1.55964e-07 13.7503 0.000384292 14.875 1.125C15.9997 2.24968 16 4.0595 16 7.67969V8.32031C16 11.9405 15.9997 13.7503 14.875 14.875C13.7503 15.9997 11.9405 16 8.32031 16H7.67969C4.05951 16 2.24968 15.9997 1.125 14.875C0.00032672 13.7503 1.60812e-07 11.9405 0 8.32031V7.67969C-1.58915e-07 4.0595 0.000347994 2.24968 1.125 1.125C2.24968 0.000384837 4.05951 1.5782e-07 7.67969 0H8.32031ZM9.4834 2.96582C8.99376 2.84351 8.51856 3.21152 8.51855 3.71387V4.65234L6.56445 4.16504C6.07489 4.04274 5.59976 4.41086 5.59961 4.91309V5.63281L3.64453 5.14551C3.15518 5.02352 2.68095 5.39156 2.68066 5.89355V11.1045C2.68066 11.5468 2.98298 11.9324 3.41406 12.04L6.51465 12.8145C7.00424 12.9368 7.47938 12.5687 7.47949 12.0664V11.3457L9.43359 11.834C9.92307 11.9563 10.3982 11.5881 10.3984 11.0859V10.1465L12.3525 10.6348C12.8421 10.7571 13.3174 10.3881 13.3174 9.88574V4.67578C13.3174 4.23356 13.015 3.84796 12.584 3.74023L9.4834 2.96582Z" fill="#E6ECE5"/>
<path d="M8.36524 11.5687C8.22946 11.5341 8.1328 11.414 8.12804 11.274L7.99315 7.29475C7.95413 6.76813 7.5632 6.34924 7.15466 6.22591C7.13173 6.21898 7.10724 6.22831 7.09368 6.24804C7.07986 6.26809 7.0852 6.29587 7.10444 6.31075C7.20533 6.38884 7.48297 6.64369 7.48297 7.08329L7.48217 11.3449L8.36524 11.5687Z" fill="#E6ECE5"/>
<path d="M11.2793 10.367C11.1437 10.333 11.0469 10.2133 11.0421 10.0736L10.9072 6.09458C10.8682 5.56791 10.4773 5.14907 10.0687 5.02569C10.0458 5.0188 10.0213 5.02814 10.0077 5.04787C9.99392 5.06791 9.99926 5.09565 10.0185 5.11058C10.1194 5.18867 10.3971 5.44351 10.3971 5.88307L10.3962 10.1462L11.2793 10.367Z" fill="#E6ECE5"/>
</g>
<defs>
<clipPath id="clip0_3241_2885">
<rect width="16" height="16" fill="white"/>
</clipPath>
</defs>
</svg>
