<svg width="16" height="16" viewBox="0 0 16 16" fill="none" xmlns="http://www.w3.org/2000/svg">
<g clip-path="url(#clip0_3241_2972)">
<path d="M15.1595 15.1576L11.7055 11.7035M11.7055 11.7035C12.2963 11.1127 12.765 10.4113 13.0847 9.63935C13.4045 8.86739 13.5691 8.04002 13.5691 7.20446C13.5691 6.3689 13.4045 5.54153 13.0847 4.76957C12.765 3.99762 12.2963 3.29621 11.7055 2.70538C11.1147 2.11455 10.4133 1.64588 9.6413 1.32613C8.86935 1.00637 8.04197 0.841797 7.20641 0.841797C6.37086 0.841797 5.54348 1.00637 4.77153 1.32613C3.99957 1.64588 3.29816 2.11455 2.70733 2.70538C1.5141 3.89861 0.84375 5.51698 0.84375 7.20446C0.84375 8.89194 1.5141 10.5103 2.70733 11.7035C3.90056 12.8968 5.51893 13.5671 7.20641 13.5671C8.8939 13.5671 10.5123 12.8968 11.7055 11.7035Z" stroke="#E6ECE5" stroke-width="1.68421" stroke-linecap="round" stroke-linejoin="round"/>
</g>
<defs>
<clipPath id="clip0_3241_2972">
<rect width="16" height="16" fill="white"/>
</clipPath>
</defs>
</svg>
