<svg width="16" height="16" viewBox="0 0 16 16" fill="none" xmlns="http://www.w3.org/2000/svg">
<g clip-path="url(#clip0_3241_3247)">
<path d="M8.00195 5.05273C9.64402 5.05273 10.9492 6.35794 10.9492 8C10.9492 9.64211 9.64406 10.9473 8.00195 10.9473C6.3599 10.9472 5.05469 9.64207 5.05469 8C5.05474 6.35798 6.35993 5.05279 8.00195 5.05273ZM8.00195 6.31543C7.01703 6.31549 6.31744 7.15796 6.31738 8C6.31738 8.84208 6.73888 9.68452 8.00195 9.68457C9.26511 9.68457 9.68652 8.84211 9.68652 8C9.68647 7.04001 8.98694 6.31543 8.00195 6.31543Z" fill="#E6ECE5"/>
<path d="M8.00195 5.05273C9.64402 5.05273 10.9492 6.35794 10.9492 8C10.9492 9.64211 9.64406 10.9473 8.00195 10.9473C6.3599 10.9472 5.05469 9.64207 5.05469 8C5.05474 6.35798 6.35993 5.05279 8.00195 5.05273ZM8.00195 6.31543C7.01703 6.31549 6.31744 7.15796 6.31738 8C6.31738 8.84208 6.73888 9.68452 8.00195 9.68457C9.26511 9.68457 9.68652 8.84211 9.68652 8C9.68647 7.04001 8.98694 6.31543 8.00195 6.31543Z" stroke="#E6ECE5"/>
<path d="M8.70996 0.62793C9.12245 0.62793 9.46492 0.918606 9.58008 1.26367L9.58105 1.26562L9.9502 2.41406L10.4297 2.60645L11.498 2.03125L11.5029 2.02832C11.8478 1.8559 12.3048 1.91125 12.5957 2.20215L13.6621 3.26855C13.953 3.55945 14.0084 4.01649 13.8359 4.36133L13.833 4.36719L13.832 4.36621L13.2568 5.43359L13.4492 5.91309L14.5986 6.2832H14.5977C15.0008 6.4016 15.2802 6.79698 15.2803 7.19824V8.70898C15.2803 9.12159 14.9897 9.46404 14.6445 9.5791L14.6406 9.58105L13.4492 9.94922L13.2568 10.4287L13.833 11.4971L13.8359 11.502C14.0084 11.8468 13.953 12.3038 13.6621 12.5947L12.5957 13.6611C12.3048 13.952 11.8478 14.0074 11.5029 13.835L11.498 13.832L10.4297 13.2559L9.9502 13.4482L9.58203 14.6396L9.58105 14.6436L9.37695 14.5762L9.58008 14.6436C9.46501 14.9888 9.12256 15.2793 8.70996 15.2793H7.19922C6.78665 15.2793 6.44416 14.9887 6.3291 14.6436L6.32812 14.6396L5.95801 13.4482L5.47852 13.2559L4.41211 13.832L4.40625 13.835C4.06147 14.0072 3.6053 13.9519 3.31445 13.6611L2.24805 12.5947C1.95715 12.3038 1.9018 11.8468 2.07422 11.502L2.07715 11.4971L2.65137 10.4277L2.45996 9.94922L1.31152 9.58008V9.5791C0.923865 9.46529 0.628906 9.12534 0.628906 8.70898V7.19824C0.628947 6.78573 0.919535 6.44322 1.26465 6.32812L1.2666 6.32715L2.41211 5.95898C2.44323 5.87743 2.47658 5.7917 2.50879 5.70312C2.54123 5.61392 2.57484 5.52232 2.6084 5.43457L2.07617 4.4082L2.07422 4.40527C1.90182 4.06044 1.95716 3.60437 2.24805 3.31348L3.31445 2.24707C3.56905 1.99248 3.95009 1.91843 4.27246 2.01953L4.40625 2.07324L4.41211 2.07617L5.46484 2.64258C5.63594 2.55057 5.81243 2.48164 6.00977 2.43652L6.37305 1.31055C6.44785 0.909082 6.79702 0.62797 7.19922 0.62793H8.70996ZM7.04785 3.35156L7.01758 3.44824L6.92383 3.48633L6.70117 3.5752L6.6875 3.58105L6.67383 3.58398C6.34141 3.66709 6.04846 3.79044 5.75293 3.95898L5.75391 3.95996L5.53223 4.09375L5.4248 4.15723L5.31641 4.09668L4.03613 3.375L3.37207 4.03906L4.05664 5.36719L4.11133 5.47266L4.0498 5.5752L3.91699 5.79785C3.74863 6.09315 3.62408 6.38467 3.54102 6.7168L3.53711 6.73145L3.53223 6.74512L3.44238 6.9668L3.4043 7.06348L3.30469 7.09277L1.94727 7.49121V8.41699L3.39551 8.86035L3.51758 8.89746L3.54297 9.02246L3.58398 9.2334C3.6673 9.52339 3.79287 9.8156 3.96094 10.1104L4.09473 10.332L4.15723 10.4375L4.09863 10.5459L3.375 11.8711L4.03711 12.5332L5.36328 11.8105L5.4707 11.751L5.57617 11.8145L5.78418 11.9395L6.68262 12.3242L6.88574 12.3662L7.01172 12.3906L7.04883 12.5137L7.49219 13.9619H8.41797L8.86133 12.5137L8.89844 12.3906L9.02344 12.3662L9.2334 12.3232C9.45173 12.2605 9.67156 12.175 9.89258 12.0645L10.1152 11.9453L10.333 11.8145L10.4385 11.751L10.5469 11.8105L11.8711 12.5332L12.5342 11.8701L11.8115 10.5459L11.752 10.4375L11.8154 10.332L11.9395 10.126L12.3252 9.22559L12.3672 9.02246L12.3916 8.89746L12.5146 8.86035L13.9629 8.41699V7.49023L12.5146 7.04785L12.3916 7.01074L12.3672 6.88477L12.3242 6.6748C12.2406 6.3836 12.1154 6.08995 11.9463 5.79395V5.79297L11.8154 5.5752L11.752 5.46973L11.8115 5.3623L12.5342 4.03613L11.8721 3.37402L10.5469 4.09766L10.4385 4.15625L10.333 4.09375L10.1113 3.95996V3.95898C9.8151 3.79012 9.52091 3.66531 9.22949 3.58203L9.21875 3.5791L9.20898 3.5752L8.98633 3.48633L8.8916 3.44824L8.86133 3.35156L8.41895 1.94629H7.49023L7.04785 3.35156Z" fill="#E6ECE5" stroke="#E6ECE5" stroke-width="0.428904"/>
</g>
<defs>
<clipPath id="clip0_3241_3247">
<rect width="16" height="16" fill="white"/>
</clipPath>
</defs>
</svg>
