<svg width="16" height="16" viewBox="0 0 16 16" fill="none" xmlns="http://www.w3.org/2000/svg">
<g clip-path="url(#clip0_3241_3040)">
<path d="M0 8C0 12.4194 3.58065 16 8 16C12.4194 16 16 12.4194 16 8C16 3.58065 12.4194 0 8 0C3.58065 0 0 3.58065 0 8ZM6.45161 6.45161C6.45161 7.02258 5.99032 7.48387 5.41935 7.48387C4.84839 7.48387 4.3871 7.02258 4.3871 6.45161C4.3871 5.88065 4.84839 5.41935 5.41935 5.41935C5.99032 5.41935 6.45161 5.88065 6.45161 6.45161ZM11.5645 6.98387C11.0871 6.55806 10.0742 6.55806 9.59677 6.98387L9.29032 7.25806C9.02258 7.49677 8.59355 7.27097 8.65161 6.90968C8.78065 6.09677 9.75484 5.55161 10.5839 5.55161C11.4129 5.55161 12.3871 6.09677 12.5161 6.90968C12.571 7.26774 12.1484 7.5 11.8774 7.25806L11.5645 6.98387ZM5.09032 10.2516C5.8129 11.1194 6.87097 11.6129 8 11.6129C9.12903 11.6129 10.1871 11.1161 10.9097 10.2516C11.3484 9.72903 12.1387 10.3871 11.7032 10.9129C10.7839 12.0129 9.43548 12.6452 8 12.6452C6.56452 12.6452 5.21613 12.0129 4.29677 10.9097C3.86129 10.3839 4.65806 9.72581 5.09032 10.2516Z" fill="#E6ECE5"/>
</g>
<defs>
<clipPath id="clip0_3241_3040">
<rect width="16" height="16" fill="white"/>
</clipPath>
</defs>
</svg>
