<svg width="16" height="16" viewBox="0 0 16 16" fill="none" xmlns="http://www.w3.org/2000/svg">
<g clip-path="url(#clip0_3241_2855)">
<path d="M3.01115 11.921L2.45429 12.4778C2.30821 12.6248 2.22622 12.8236 2.22622 13.0308C2.22622 13.238 2.30821 13.4368 2.45429 13.5837C2.60124 13.7298 2.80003 13.8118 3.00723 13.8118C3.21444 13.8118 3.41322 13.7298 3.56017 13.5837L4.11703 13.0268C4.24553 12.8768 4.31267 12.6838 4.30504 12.4864C4.29742 12.289 4.21559 12.1018 4.07591 11.9621C3.93623 11.8224 3.74898 11.7406 3.55159 11.7329C3.35419 11.7253 3.16119 11.7925 3.01115 11.921ZM2.50919 7.99939C2.50919 7.79137 2.42656 7.59188 2.27947 7.44479C2.13238 7.29771 1.93289 7.21507 1.72488 7.21507H0.940564C0.732551 7.21507 0.533057 7.29771 0.38597 7.44479C0.238883 7.59188 0.15625 7.79137 0.15625 7.99939C0.15625 8.2074 0.238883 8.40689 0.38597 8.55398C0.533057 8.70107 0.732551 8.7837 0.940564 8.7837H1.72488C1.93289 8.7837 2.13238 8.70107 2.27947 8.55398C2.42656 8.40689 2.50919 8.2074 2.50919 7.99939ZM7.99939 2.50919C8.2074 2.50919 8.40689 2.42656 8.55398 2.27947C8.70107 2.13238 8.7837 1.93289 8.7837 1.72488V0.940564C8.7837 0.732551 8.70107 0.533057 8.55398 0.38597C8.40689 0.238883 8.2074 0.15625 7.99939 0.15625C7.79137 0.15625 7.59188 0.238883 7.44479 0.38597C7.29771 0.533057 7.21507 0.732551 7.21507 0.940564V1.72488C7.21507 1.93289 7.29771 2.13238 7.44479 2.27947C7.59188 2.42656 7.79137 2.50919 7.99939 2.50919ZM3.01115 4.11703C3.15724 4.26193 3.35441 4.34362 3.56017 4.34449C3.66339 4.34508 3.76572 4.3253 3.86127 4.28627C3.95683 4.24724 4.04375 4.18973 4.11703 4.11703C4.26311 3.97008 4.34511 3.7713 4.34511 3.56409C4.34511 3.35689 4.26311 3.1581 4.11703 3.01115L3.56017 2.45429C3.41013 2.3258 3.21713 2.25866 3.01974 2.26628C2.82234 2.2739 2.6351 2.35573 2.49542 2.49542C2.35573 2.6351 2.2739 2.82234 2.26628 3.01974C2.25866 3.21713 2.3258 3.41013 2.45429 3.56017L3.01115 4.11703ZM12.4229 4.34449C12.6287 4.34362 12.8258 4.26193 12.9719 4.11703L13.5288 3.56017C13.6109 3.48986 13.6776 3.40334 13.7247 3.30603C13.7717 3.20872 13.7982 3.10274 13.8024 2.99472C13.8065 2.88671 13.7883 2.779 13.7489 2.67835C13.7095 2.5777 13.6497 2.48629 13.5732 2.40986C13.4968 2.33342 13.4054 2.27361 13.3047 2.23418C13.2041 2.19475 13.0964 2.17655 12.9884 2.18072C12.8804 2.18489 12.7744 2.21135 12.6771 2.25843C12.5798 2.3055 12.4932 2.37219 12.4229 2.45429L11.921 3.01115C11.7749 3.1581 11.6929 3.35689 11.6929 3.56409C11.6929 3.7713 11.7749 3.97008 11.921 4.11703C12.0592 4.25457 12.2438 4.33566 12.4386 4.34449H12.4229ZM15.0582 7.21507H14.2739C14.0659 7.21507 13.8664 7.29771 13.7193 7.44479C13.5722 7.59188 13.4896 7.79137 13.4896 7.99939C13.4896 8.2074 13.5722 8.40689 13.7193 8.55398C13.8664 8.70107 14.0659 8.7837 14.2739 8.7837H15.0582C15.2662 8.7837 15.4657 8.70107 15.6128 8.55398C15.7599 8.40689 15.8425 8.2074 15.8425 7.99939C15.8425 7.79137 15.7599 7.59188 15.6128 7.44479C15.4657 7.29771 15.2662 7.21507 15.0582 7.21507ZM7.99939 13.4896C7.79137 13.4896 7.59188 13.5722 7.44479 13.7193C7.29771 13.8664 7.21507 14.0659 7.21507 14.2739V15.0582C7.21507 15.2662 7.29771 15.4657 7.44479 15.6128C7.59188 15.7599 7.79137 15.8425 7.99939 15.8425C8.2074 15.8425 8.40689 15.7599 8.55398 15.6128C8.70107 15.4657 8.7837 15.2662 8.7837 15.0582V14.2739C8.7837 14.0659 8.70107 13.8664 8.55398 13.7193C8.40689 13.5722 8.2074 13.4896 7.99939 13.4896ZM12.9876 11.921C12.8386 11.8381 12.6667 11.806 12.4978 11.8296C12.3289 11.8532 12.1723 11.9312 12.0518 12.0518C11.9312 12.1723 11.8532 12.3289 11.8296 12.4978C11.806 12.6667 11.8381 12.8386 11.921 12.9876L12.4778 13.5445C12.6248 13.6906 12.8236 13.7726 13.0308 13.7726C13.238 13.7726 13.4368 13.6906 13.5837 13.5445C13.7298 13.3975 13.8118 13.1987 13.8118 12.9915C13.8118 12.7843 13.7298 12.5856 13.5837 12.4386L12.9876 11.921ZM7.99939 3.68566C7.14621 3.68566 6.3122 3.93866 5.60281 4.41266C4.89342 4.88665 4.34052 5.56037 4.01402 6.3486C3.68753 7.13683 3.6021 8.00417 3.76855 8.84095C3.93499 9.67773 4.34584 10.4464 4.94912 11.0497C5.55241 11.6529 6.32104 12.0638 7.15782 12.2302C7.9946 12.3967 8.86195 12.3112 9.65018 11.9847C10.4384 11.6583 11.1121 11.1054 11.5861 10.396C12.0601 9.68658 12.3131 8.85256 12.3131 7.99939C12.311 6.85595 11.8559 5.75994 11.0474 4.95141C10.2388 4.14288 9.14282 3.68774 7.99939 3.68566ZM7.99939 10.7445C7.45646 10.7445 6.92572 10.5835 6.47429 10.2819C6.02286 9.98022 5.67102 9.55149 5.46325 9.04989C5.25548 8.54829 5.20112 7.99634 5.30704 7.46385C5.41296 6.93135 5.6744 6.44222 6.05831 6.05831C6.44222 5.6744 6.93135 5.41296 7.46385 5.30704C7.99634 5.20112 8.54829 5.25548 9.04989 5.46325C9.55149 5.67102 9.98022 6.02286 10.2819 6.47429C10.5835 6.92572 10.7445 7.45646 10.7445 7.99939C10.7445 8.72743 10.4553 9.42566 9.94046 9.94046C9.42566 10.4553 8.72743 10.7445 7.99939 10.7445Z" fill="#E6ECE5"/>
</g>
<defs>
<clipPath id="clip0_3241_2855">
<rect width="16" height="16" fill="white"/>
</clipPath>
</defs>
</svg>
