<svg width="16" height="16" viewBox="0 0 16 16" fill="none" xmlns="http://www.w3.org/2000/svg">
<g clip-path="url(#clip0_3241_3241)">
<path d="M8.04395 4.46582C9.98694 4.4659 11.5322 6.01108 11.5322 7.9541C11.5321 9.89704 9.98689 11.4423 8.04395 11.4424C6.10093 11.4424 4.55575 9.8971 4.55566 7.9541C4.55566 6.01103 6.10088 4.46582 8.04395 4.46582ZM8.04395 5.48926C6.73718 5.48926 5.5791 6.64734 5.5791 7.9541C5.5792 9.2608 6.73723 10.4189 8.04395 10.4189C9.35059 10.4189 10.5087 9.26075 10.5088 7.9541C10.5088 6.64739 9.35064 5.48935 8.04395 5.48926Z" fill="#E6ECE5" stroke="#E6ECE5" stroke-width="0.186047"/>
<path d="M8.75684 0.795898C9.0677 0.795898 9.33653 0.98849 9.46582 1.23828L9.5127 1.34766V1.34863L9.89844 2.55078L10.4834 2.78613L11.6025 2.18457L11.6045 2.18359C11.9051 2.03331 12.3046 2.08197 12.5566 2.33398L13.623 3.40039C13.8751 3.6524 13.9237 4.05196 13.7734 4.35254L13.7725 4.35547L13.1699 5.47266L13.4053 6.05762L14.6055 6.44336L14.7324 6.49219C15.016 6.63122 15.206 6.93698 15.2061 7.24414V8.75488C15.2061 9.11002 14.9541 9.4105 14.6533 9.51074H14.6514L13.4053 9.89746L13.1699 10.4814L13.7725 11.6006L13.7734 11.6025C13.9237 11.9031 13.8751 12.3027 13.623 12.5547L12.5566 13.6211C12.3046 13.8731 11.9051 13.9218 11.6045 13.7715L11.6025 13.7705L10.4834 13.168L9.89941 13.4033L9.5127 14.6494V14.6514C9.41245 14.9521 9.11197 15.2041 8.75684 15.2041H7.24609C6.891 15.2041 6.59145 14.9521 6.49121 14.6514L6.49023 14.6494L6.10352 13.4033L5.51855 13.168L4.40137 13.7705L4.39844 13.7715C4.09792 13.9216 3.69922 13.873 3.44727 13.6211L2.38086 12.5547C2.12885 12.3027 2.0792 11.9031 2.22949 11.6025L2.23047 11.6006L2.83203 10.4824L2.59766 9.89648L1.39551 9.51074V9.50977C1.05129 9.41006 0.797852 9.11165 0.797852 8.75488V7.24414C0.797893 6.88921 1.04909 6.58963 1.34961 6.48926H1.35059L2.55176 6.10254C2.59034 6.00392 2.6307 5.89789 2.66992 5.79004C2.70884 5.68302 2.74853 5.57477 2.78809 5.47363L2.23047 4.39844L2.22949 4.39648C2.07946 4.09596 2.12897 3.69721 2.38086 3.44531L3.44727 2.37891C3.69916 2.12701 4.09791 2.07751 4.39844 2.22754L4.40137 2.22852L5.51172 2.82715C5.71172 2.7126 5.91521 2.6318 6.15137 2.58594L6.53516 1.39355C6.59287 1.04319 6.8955 0.795939 7.24609 0.795898H8.75684ZM6.97949 3.36133L6.96582 3.40332L6.9248 3.41992L6.70312 3.50879L6.69141 3.5127C6.34585 3.59908 6.0417 3.72658 5.7373 3.90039L5.73828 3.90137L5.5166 4.03516L5.46973 4.0625L5.42285 4.03613L4.06152 3.27051L3.27051 4.06152L3.99512 5.46875L4.01953 5.51465L3.99219 5.55859L3.85938 5.78125C3.68571 6.08548 3.55607 6.38804 3.46973 6.7334L3.4668 6.74609L3.46484 6.74512L3.37695 6.96777L3.36035 7.00977L3.31641 7.02246L1.87207 7.44727V8.55273L3.40625 9.02148L3.45996 9.03809L3.4707 9.09277L3.51465 9.31152C3.60111 9.61281 3.73013 9.91538 3.90332 10.2188L4.03711 10.4404L4.06445 10.4863L4.03906 10.5332L3.27148 11.9385L4.0625 12.7285L5.46875 11.9629L5.51465 11.9375L5.56055 11.9648L5.77734 12.0938L6.69531 12.4873L6.90918 12.5312L6.96289 12.542L6.97949 12.5947L7.44922 14.1289H8.55469L9.02344 12.5947L9.04004 12.542L9.09473 12.5312L9.31348 12.4863C9.61531 12.3997 9.91874 12.2703 10.2227 12.0967L10.4424 11.9648L10.4883 11.9375L10.5352 11.9629L11.9404 12.7285L12.7305 11.9385L11.9648 10.5332L11.9395 10.4863L11.9668 10.4404L12.0947 10.2256L12.4893 9.30664L12.5332 9.09277L12.5439 9.03809L12.5967 9.02148L14.1309 8.55273V7.44629L12.5967 6.97754L12.5439 6.96094L12.4902 6.69238L12.417 6.46484C12.3358 6.23754 12.23 6.00974 12.0996 5.78125L11.9668 5.55859L11.9395 5.5127L11.9648 5.4668L12.7305 4.06055L11.9404 3.26953L10.5352 4.03711L10.4883 4.0625L10.4424 4.03516L10.2207 3.90137V3.90039C9.91617 3.72658 9.612 3.59814 9.30957 3.51172L9.30078 3.50879L9.07812 3.41992L9.03711 3.40332L9.02441 3.36133L8.55566 1.87012H7.44727L6.97949 3.36133Z" fill="#E6ECE5" stroke="#E6ECE5" stroke-width="0.186047"/>
<path d="M8.00391 6.99512V8.11186H9.12065" stroke="#E6ECE5" stroke-width="0.744186" stroke-linecap="square"/>
</g>
<defs>
<clipPath id="clip0_3241_3241">
<rect width="16" height="16" fill="white"/>
</clipPath>
</defs>
</svg>
