<svg width="16" height="16" viewBox="0 0 16 16" fill="none" xmlns="http://www.w3.org/2000/svg">
<path d="M13.3204 7.90123H4.66019C4.44013 7.90123 4.25579 7.82538 4.10718 7.67368C3.95858 7.52197 3.88401 7.33445 3.8835 7.11111C3.88298 6.88777 3.95754 6.70025 4.10718 6.54854C4.25683 6.39684 4.44116 6.32099 4.66019 6.32099H13.3204L12.6602 5.64938C12.5049 5.49136 12.4303 5.307 12.4365 5.0963C12.4427 4.8856 12.5173 4.70123 12.6602 4.54321C12.8155 4.38518 12.9999 4.30301 13.2132 4.29669C13.4265 4.29037 13.6111 4.36596 13.767 4.52346L15.767 6.55802C15.9223 6.71605 16 6.90041 16 7.11111C16 7.32181 15.9223 7.50617 15.767 7.6642L13.767 9.69876C13.6117 9.85679 13.4273 9.93264 13.214 9.92632C13.0006 9.92 12.8161 9.83756 12.6602 9.67901C12.5178 9.52099 12.4432 9.33663 12.4365 9.12593C12.4298 8.91523 12.5043 8.73086 12.6602 8.57284L13.3204 7.90123ZM9.32039 3.95062V1.58025H1.5534V12.642H9.32039V10.2716C9.32039 10.0477 9.39495 9.86021 9.54408 9.70904C9.6932 9.55786 9.87754 9.48201 10.0971 9.48148C10.3166 9.48095 10.5012 9.55681 10.6509 9.70904C10.8005 9.86127 10.8748 10.0488 10.8738 10.2716V12.642C10.8738 13.0765 10.7218 13.4487 10.4179 13.7584C10.1139 14.0681 9.74809 14.2227 9.32039 14.2222H1.5534C1.12621 14.2222 0.760647 14.0676 0.456699 13.7584C0.152751 13.4492 0.000517799 13.0771 0 12.642V1.58025C0 1.14568 0.152233 0.773794 0.456699 0.464593C0.761165 0.155391 1.12673 0.000526749 1.5534 0H9.32039C9.74757 0 10.1134 0.154864 10.4179 0.464593C10.7223 0.774321 10.8743 1.14621 10.8738 1.58025V3.95062C10.8738 4.17449 10.7992 4.36227 10.6501 4.51398C10.501 4.66568 10.3166 4.74127 10.0971 4.74074C9.87754 4.74021 9.6932 4.66436 9.54408 4.51319C9.39495 4.36201 9.32039 4.17449 9.32039 3.95062Z" fill="#E6ECE5"/>
</svg>
