<svg width="16" height="16" viewBox="0 0 16 16" fill="none" xmlns="http://www.w3.org/2000/svg">
<g clip-path="url(#clip0_3241_3289)">
<path d="M5.33507 0V0.888889H0.890625V2.66667H1.77951V14.2222C1.77951 14.6937 1.96681 15.1459 2.30021 15.4793C2.63361 15.8127 3.0858 16 3.55729 16H12.4462C12.9177 16 13.3699 15.8127 13.7033 15.4793C14.0367 15.1459 14.224 14.6937 14.224 14.2222V2.66667H15.1128V0.888889H10.6684V0H5.33507ZM3.55729 2.66667H12.4462V14.2222H3.55729V2.66667ZM5.33507 4.44444V12.4444H7.11285V4.44444H5.33507ZM8.89062 4.44444V12.4444H10.6684V4.44444H8.89062Z" fill="#E6ECE5"/>
</g>
<defs>
<clipPath id="clip0_3241_3289">
<rect width="16" height="16" fill="white"/>
</clipPath>
</defs>
</svg>
