<svg width="16" height="16" viewBox="0 0 16 16" fill="none" xmlns="http://www.w3.org/2000/svg">
<path d="M15.9994 5.7295V9.74662C16.0073 10.0458 15.9312 10.3418 15.78 10.6002C15.6151 10.8593 15.3818 11.068 15.1058 11.2031C14.8867 11.3122 14.6451 11.3685 14.4003 11.3676H14.2043C13.9176 11.3272 13.647 11.2109 13.4204 11.0309L11.4371 9.46472V10.1773C11.4371 11.0787 11.0787 11.9431 10.4407 12.5804C9.80266 13.2178 8.93732 13.5758 8.03502 13.5758H3.40216C2.50019 13.5737 1.63543 13.2164 0.995587 12.5813C0.678326 12.2666 0.426917 11.892 0.255999 11.4792C0.0850806 11.0665 -0.00193039 10.624 3.24842e-05 10.1773V5.3458C-0.000796701 4.89966 0.0871354 4.4578 0.25872 4.04591C0.605222 3.21162 1.26719 2.54754 2.10089 2.19787C2.51322 2.02647 2.95555 1.93863 3.40216 1.93946H7.94095C8.39 1.93965 8.83469 2.02743 9.25006 2.19787C10.0838 2.54754 10.7457 3.21162 11.0922 4.04591C11.2647 4.46015 11.3509 4.90493 11.3431 5.35363V6.05839L13.3263 4.49225C13.5068 4.3506 13.7151 4.24841 13.9376 4.1923C14.1602 4.13619 14.392 4.12741 14.6182 4.16654C14.8443 4.20567 15.0597 4.29183 15.2504 4.41944C15.4411 4.54704 15.6028 4.71325 15.7251 4.90728C15.8874 5.15238 15.9822 5.43585 15.9994 5.7295Z" fill="#E6ECE5"/>
</svg>
