<svg width="16" height="16" viewBox="0 0 16 16" fill="none" xmlns="http://www.w3.org/2000/svg">
<path d="M8.61508 0C12.6936 0 15.9997 3.28376 15.9997 7.33474C15.9997 11.3857 12.6936 14.6695 8.61508 14.6695C4.53656 14.6695 1.23047 11.3857 1.23047 7.33474C1.23047 3.28376 4.53656 0 8.61508 0ZM8.61508 2.9339C8.41923 2.9339 8.2314 3.01117 8.09291 3.14873C7.95442 3.28628 7.87662 3.47284 7.87662 3.66737V7.33474C7.87666 7.52925 7.95449 7.71578 8.09299 7.85331L10.3084 10.0537C10.4477 10.1873 10.6342 10.2613 10.8278 10.2596C11.0214 10.2579 11.2066 10.1808 11.3436 10.0448C11.4805 9.9088 11.5581 9.72484 11.5598 9.53252C11.5615 9.34021 11.4871 9.15493 11.3526 9.0166L9.35355 7.03108V3.66737C9.35355 3.47284 9.27574 3.28628 9.13726 3.14873C8.99877 3.01117 8.81094 2.9339 8.61508 2.9339Z" fill="#E6ECE5"/>
</svg>
