<svg width="40" height="40" viewBox="0 0 40 40" fill="none" xmlns="http://www.w3.org/2000/svg">
<path d="M31.1058 11.5975V21.6143C29.5527 21.5531 28.8404 21.7689 27.5829 22.4071V27.2564H22.9399C22.413 28.3363 22.3004 29.0819 22.2986 30.7362H11.73V11.5975H31.1058ZM15.2529 15.0773V27.2564H22.9399H27.5829V22.4071V15.0773H15.2529ZM22.2986 2.72409V9.85762H18.7757V6.37783H6.44573V18.557H9.96863V22.0367H2.92283V2.72409H22.2986Z" fill="white"/>
<path d="M17.6536 13.6537C17.6536 15.7502 15.9329 17.4498 13.8104 17.4498C11.6879 17.4498 9.9673 15.7502 9.9673 13.6537C9.9673 11.5571 11.6879 9.85757 13.8104 9.85757C15.9329 9.85757 17.6536 11.5571 17.6536 13.6537Z" fill="white"/>
<path d="M33.0261 13.6537C33.0261 15.7502 31.3055 17.4498 29.183 17.4498C27.0605 17.4498 25.3398 15.7502 25.3398 13.6537C25.3398 11.5571 27.0605 9.85757 29.183 9.85757C31.3055 9.85757 33.0261 11.5571 33.0261 13.6537Z" fill="white"/>
<path d="M17.6536 28.8381C17.6536 30.9346 15.9329 32.6342 13.8104 32.6342C11.6879 32.6342 9.9673 30.9346 9.9673 28.8381C9.9673 26.7415 11.6879 25.042 13.8104 25.042C15.9329 25.042 17.6536 26.7415 17.6536 28.8381Z" fill="white"/>
<path d="M8.68626 19.9805C8.68626 22.077 6.96563 23.7766 4.84313 23.7766C2.72063 23.7766 1 22.077 1 19.9805C1 17.884 2.72063 16.1844 4.84313 16.1844C6.96563 16.1844 8.68626 17.884 8.68626 19.9805Z" fill="white"/>
<path d="M8.68626 4.7961C8.68626 6.89263 6.96563 8.5922 4.84313 8.5922C2.72063 8.5922 1 6.89263 1 4.7961C1 2.69957 2.72063 1 4.84313 1C6.96563 1 8.68626 2.69957 8.68626 4.7961Z" fill="white"/>
<path d="M24.0588 4.7961C24.0588 6.89263 22.3382 8.5922 20.2157 8.5922C18.0931 8.5922 16.3725 6.89263 16.3725 4.7961C16.3725 2.69957 18.0931 1 20.2157 1C22.3382 1 24.0588 2.69957 24.0588 4.7961Z" fill="white"/>
<path d="M31.2436 22.6714C26.9329 22.6714 23.4844 26.0777 23.4844 30.3357C23.4844 33.742 26.4932 37.9999 31.2436 37.9999C36.4164 37.9999 39.0028 34.1678 39.0028 30.3357C39.0028 26.0777 35.994 22.6714 31.2436 22.6714ZM30.3815 29.8071V26.5035H32.1057V29.8071H35.1232V31.3928H32.1057V34.8285H30.3815V31.3928H27.364V29.8071H30.3815Z" fill="white"/>
</svg>
