<svg width="43" height="43" viewBox="0 0 43 43" fill="none" xmlns="http://www.w3.org/2000/svg">
<path d="M32.0176 0C37.7579 0.000176294 42.5519 4.44126 42.7871 10.1768C43.1212 18.3234 43.035 24.9342 42.7148 32.6436C42.4735 38.4507 37.6539 42.9998 31.8418 43H11.0771C5.50019 43 0.770276 38.8041 0.387695 33.2402C-0.167592 25.1648 -0.110189 18.3236 0.458008 9.92676C0.839016 4.29621 5.59097 8.85967e-05 11.2344 0H32.0176ZM27.3438 12.7715C25.3511 12.6284 23.5635 13.7272 21.6973 14.1094C20.4479 14.0136 18.9611 12.9474 16.8262 12.8359C8.06411 13.2819 6.92527 25.4789 14.6436 33.4883C16.0037 34.7462 17.2059 35.0322 19.4834 34.0449C21.302 33.2807 22.8837 33.3127 24.6074 34.0449C26.2365 34.7615 27.9295 35.001 29.4795 33.4883L29.4639 33.5039C31.4091 31.7524 32.579 29.3796 33.4805 26.9912C28.9573 25.1598 27.7871 18.6153 32.7217 15.6377C31.5355 13.9181 29.7319 12.9626 27.3438 12.7715ZM27.4551 5.97266C24.1653 6.25928 21.3028 9.18935 21.54 12.7402C23.7544 13.1378 27.9137 10.0805 27.4551 5.97266Z" fill="white"/>
</svg>
