<svg width="28" height="28" viewBox="0 0 28 28" fill="none" xmlns="http://www.w3.org/2000/svg">
<path fill-rule="evenodd" clip-rule="evenodd" d="M7.37578 1C6.60966 1.00016 5.87498 1.30464 5.33333 1.84644L1.84644 5.33333C1.45065 5.72871 1.17818 6.23051 1.06211 6.77778H26.9379C26.8218 6.23051 26.5493 5.72871 26.1536 5.33333L22.6667 1.84644C22.125 1.30464 21.3903 1.00016 20.6242 1H7.37578ZM27 9.66667H1V24.1111C1 24.8773 1.30436 25.6121 1.84614 26.1539C2.38791 26.6956 3.12271 27 3.88889 27H24.1111C24.8773 27 25.6121 26.6956 26.1539 26.1539C26.6956 25.6121 27 24.8773 27 24.1111V9.66667ZM14 12.5556C14.3831 12.5556 14.7505 12.7077 15.0214 12.9786C15.2923 13.2495 15.4444 13.6169 15.4444 14V18.602L16.0424 18.0026C16.3135 17.7317 16.681 17.5796 17.0642 17.5798C17.4473 17.5799 17.8148 17.7322 18.0856 18.0033C18.3565 18.2743 18.5085 18.6418 18.5084 19.025C18.5083 19.4082 18.3559 19.7756 18.0849 20.0464L15.0227 23.1101C14.8885 23.2444 14.7292 23.351 14.5539 23.4236C14.3785 23.4963 14.1905 23.5337 14.0007 23.5337C13.8109 23.5337 13.6229 23.4963 13.4476 23.4236C13.2722 23.351 13.1129 23.2444 12.9788 23.1101L9.91511 20.0464C9.64407 19.7756 9.49173 19.4082 9.4916 19.025C9.49146 18.6418 9.64354 18.2743 9.91439 18.0033C10.1852 17.7322 10.5527 17.5799 10.9358 17.5798C11.319 17.5796 11.6865 17.7317 11.9576 18.0026L12.5556 18.602V14C12.5556 13.6169 12.7077 13.2495 12.9786 12.9786C13.2495 12.7077 13.6169 12.5556 14 12.5556Z" fill="white"/>
</svg>
