<svg width="49" height="49" viewBox="0 0 49 49" fill="none" xmlns="http://www.w3.org/2000/svg">
<path d="M39.5137 1C40.297 1 41.0487 1.16395 41.7676 1.49121C42.4863 1.81846 43.0846 2.28614 43.5615 2.89355L46.8252 6.875C47.2168 7.35365 47.5113 7.87574 47.708 8.44141C47.9047 9.00712 48.0017 9.59487 48 10.2041V42.7773C48 44.2135 47.4886 45.4442 46.4668 46.4678C45.4451 47.491 44.215 48.0017 42.7773 48H6.22266C4.78662 48 3.55694 47.4895 2.53516 46.4678C1.51334 45.446 1.00174 44.2152 1 42.7773V10.2041C1.00001 9.59487 1.09823 9.00712 1.29492 8.44141C1.49161 7.87578 1.78496 7.35362 2.1748 6.875L5.43848 2.89355C5.91713 2.28436 6.51534 1.81554 7.23242 1.48828C7.94961 1.16102 8.70125 0.998259 9.48633 1H39.5137ZM13.9316 27.4844L17.5869 31.1396L21.7646 26.9619V37.9287H26.9873V26.9619L31.165 31.1396L34.8203 27.4844L24.376 17.04L13.9316 27.4844ZM7.2666 8.83301H41.7334L39.5137 6.22266H9.48633L7.2666 8.83301Z" fill="#22BB77"/>
</svg>
