<svg width="32" height="32" viewBox="0 0 32 32" fill="none" xmlns="http://www.w3.org/2000/svg">
<path d="M15.2807 1.57592L13.7311 6.19332C13.1545 7.94878 12.1737 9.54426 10.8678 10.8513C9.56198 12.1583 7.96747 13.1403 6.21275 13.7182L1.54129 15.2731C1.38391 15.3245 1.2468 15.4244 1.14958 15.5584C1.05235 15.6924 1 15.8538 1 16.0194C1 16.185 1.05235 16.3463 1.14958 16.4803C1.2468 16.6144 1.38391 16.7142 1.54129 16.7656L6.21525 18.3181C7.95316 18.8968 9.53208 19.8731 10.8264 21.1695C12.1208 22.4658 13.0948 24.0464 13.6711 25.7854L15.2207 30.4603C15.2728 30.6174 15.373 30.7541 15.5072 30.851C15.6413 30.9479 15.8026 31 15.9681 31C16.1335 31 16.2948 30.9479 16.429 30.851C16.5631 30.7541 16.6633 30.6174 16.7154 30.4603L18.325 25.8429C18.9036 24.105 19.8788 22.5257 21.1734 21.23C22.4679 19.9344 24.0462 18.9579 25.7834 18.3781L30.4548 16.8256C30.6132 16.7748 30.7513 16.6751 30.8492 16.5407C30.9472 16.4064 31 16.2444 31 16.0781C31 15.9118 30.9472 15.7498 30.8492 15.6155C30.7513 15.4812 30.6132 15.3814 30.4548 15.3306L25.8434 13.7207C24.0874 13.1443 22.4918 12.1625 21.1857 10.8548C19.8795 9.5471 18.8996 7.95019 18.325 6.19332L16.7754 1.51842C16.7188 1.36172 16.6139 1.22709 16.4758 1.134C16.3376 1.0409 16.1735 0.994177 16.007 1.00058C15.8406 1.00698 15.6805 1.06618 15.5499 1.16961C15.4194 1.27304 15.3251 1.41534 15.2807 1.57592Z" fill="url(#paint0_linear_3104_3634)"/>
<defs>
<linearGradient id="paint0_linear_3104_3634" x1="15.997" y1="9.25" x2="18.9976" y2="30.9998" gradientUnits="userSpaceOnUse">
<stop stop-color="#D6E685"/>
<stop offset="1" stop-color="#36C079"/>
</linearGradient>
</defs>
</svg>
