<svg width="43" height="43" viewBox="0 0 43 43" fill="none" xmlns="http://www.w3.org/2000/svg">
<path d="M35.7524 15.1412C31.934 16.4234 26.8965 17.1521 21.5 17.1521C16.1036 17.1521 11.066 16.4234 7.2476 15.1393C5.7195 14.6287 4.2469 13.9802 3 13.162V21.185C3 24.6159 11.2825 27.3965 21.5 27.3965C31.7175 27.3965 40 24.6159 40 21.185V13.1602C38.7531 13.9802 37.2823 14.6268 35.7505 15.1412" fill="#E6ECE5"/>
<path d="M40 27.1319C38.7531 27.95 37.2823 28.5986 35.7505 29.1111C31.934 30.3933 26.8965 31.1238 21.5 31.1238C16.1036 31.1238 11.066 30.3933 7.2476 29.1111C5.7195 28.6005 4.2469 27.9519 3 27.1319V35.7885C3 39.2176 11.2825 42 21.5 42C31.7175 42 40 39.2195 40 35.7885V27.1319ZM21.5 13.4249C11.2825 13.4249 3 10.6425 3 7.2115V7.20591C3.00925 3.77682 11.288 1 21.5 1C29.1627 1 35.7376 2.56545 38.5459 4.79436C39.482 5.53795 40 6.35423 40 7.2115C40 10.6425 31.7175 13.4249 21.5 13.4249Z" fill="#E6ECE5"/>
</svg>
