<svg width="17" height="17" viewBox="0 0 17 17" fill="none" xmlns="http://www.w3.org/2000/svg">
<path d="M12.5946 5.42285V6.38434H13.0335C13.4384 6.38434 13.7751 6.38434 14.0514 6.40741C14.3389 6.43126 14.6083 6.4828 14.8634 6.6151C15.255 6.81791 15.5734 7.14157 15.773 7.53966C15.9031 7.79888 15.9546 8.07348 15.9773 8.36578C16 8.64576 16 8.98882 16 9.39957V12.984C16 13.3955 16 13.7378 15.9773 14.0186C15.9546 14.3109 15.9031 14.5855 15.773 14.8447C15.5736 15.2427 15.2555 15.5663 14.8641 15.7692C14.6083 15.9015 14.3389 15.9531 14.0514 15.9769C13.7751 16 13.4384 16 13.0343 16H4.96649C4.56162 16 4.22486 16 3.94865 15.9769C3.66108 15.9531 3.39168 15.9015 3.13665 15.7692C2.74499 15.5664 2.42656 15.2428 2.22703 14.8447C2.09686 14.5855 2.04541 14.3109 2.0227 14.0186C2 13.7386 2 13.3955 2 12.9848V9.39957C2 8.98882 2 8.64576 2.0227 8.36578C2.04541 8.07348 2.09686 7.79888 2.22703 7.53966C2.42656 7.14157 2.74499 6.81791 3.13665 6.6151C3.39168 6.4828 3.66108 6.43126 3.94865 6.40741C4.22486 6.38434 4.56162 6.38434 4.96649 6.38434H5.40541V5.42285C5.40541 4.28599 5.65514 3.19143 6.24314 2.36531C6.84854 1.51382 7.77935 1 9 1C10.2206 1 11.1507 1.51382 11.7569 2.36531C12.3449 3.19143 12.5946 4.28599 12.5946 5.42285ZM6.54054 5.42285V6.38434H11.4595V5.42285C11.4595 4.43598 11.24 3.60756 10.8374 3.04143C10.4515 2.50069 9.86876 2.15379 9 2.15379C8.13124 2.15379 7.54778 2.49992 7.16259 3.04143C6.76 3.60756 6.54054 4.43598 6.54054 5.42285ZM12.5946 10.038C12.5946 9.885 12.5348 9.73826 12.4284 9.63007C12.3219 9.52188 12.1776 9.4611 12.027 9.4611C11.8765 9.4611 11.7321 9.52188 11.6257 9.63007C11.5193 9.73826 11.4595 9.885 11.4595 10.038V12.3456C11.4595 12.4986 11.5193 12.6453 11.6257 12.7535C11.7321 12.8617 11.8765 12.9225 12.027 12.9225C12.1776 12.9225 12.3219 12.8617 12.4284 12.7535C12.5348 12.6453 12.5946 12.4986 12.5946 12.3456V10.038Z" fill="#4CC46B"/>
</svg>
