<svg width="15" height="15" viewBox="0 0 15 15" fill="none" xmlns="http://www.w3.org/2000/svg">
<path d="M5.52757 9.38714L3.46394 12M5.52757 9.38714L7.59586 11.206C7.84571 11.4258 8.22873 11.391 8.43495 11.1299V11.1299C8.543 10.9931 8.58386 10.815 8.54625 10.6448L8.31456 9.59626C8.2124 9.13392 8.32338 8.65016 8.61684 8.27859L9.82933 6.74341C10.0265 6.49373 10.3928 6.46053 10.6317 6.67069V6.67069C10.8705 6.88084 11.2368 6.84764 11.434 6.59796L11.5602 6.43818C11.8068 6.12598 11.7659 5.67543 11.4673 5.41265L8.18031 2.52093C7.85849 2.23781 7.36503 2.28253 7.09937 2.61891L7.02259 2.71612C6.81917 2.97368 6.85286 3.34539 7.09928 3.56218V3.56218C7.34569 3.77897 7.37939 4.15068 7.17596 4.40824L5.99336 5.90558C5.67719 6.3059 5.18691 6.52855 4.67742 6.50319L3.88601 6.4638C3.68474 6.45378 3.49106 6.54174 3.36616 6.69988V6.69988C3.16087 6.9598 3.19487 7.33493 3.44355 7.55371L5.52757 9.38714Z" stroke="#535C69" stroke-linecap="round" stroke-linejoin="round"/>
</svg>
