<svg width="20" height="20" viewBox="0 0 20 20" fill="none" xmlns="http://www.w3.org/2000/svg">
<path d="M0 6.99997C0 5.11398 -5.96046e-08 4.17199 0.586 3.586C1.172 3 2.114 3 4 3H16C17.886 3 18.828 3 19.414 3.586C20 4.17199 20 5.11398 20 6.99997C20 7.47096 20 7.70696 19.854 7.85396C19.707 7.99996 19.47 7.99996 19 7.99996H1C0.529 7.99996 0.293 7.99996 0.146 7.85396C-8.9407e-08 7.70696 0 7.46996 0 6.99997ZM0 15.9999C0 17.8859 -5.96046e-08 18.8279 0.586 19.4139C1.172 19.9999 2.114 19.9999 4 19.9999H16C17.886 19.9999 18.828 19.9999 19.414 19.4139C20 18.8279 20 17.8859 20 15.9999V10.9999C20 10.5289 20 10.2929 19.854 10.1459C19.707 9.99994 19.47 9.99994 19 9.99994H1C0.529 9.99994 0.293 9.99994 0.146 10.1459C-8.9407e-08 10.2929 0 10.5299 0 10.9999V15.9999Z" fill="#22BB77"/>
<path d="M5 1V3.99998ZM15 1V3.99998Z" fill="#22BB77"/>
<path d="M5 1V3.99998M15 1V3.99998" stroke="#22BB77" stroke-width="2" stroke-linecap="round"/>
</svg>
