<svg width="14" height="14" viewBox="0 0 14 14" fill="none" xmlns="http://www.w3.org/2000/svg">
<path fill-rule="evenodd" clip-rule="evenodd" d="M2.275 5.94072V4.55422C2.275 3.34636 2.77281 2.18798 3.65892 1.3339C4.54503 0.479818 5.74685 0 7 0C8.25315 0 9.45497 0.479818 10.3411 1.3339C11.2272 2.18798 11.725 3.34636 11.725 4.55422V5.94072C12.5055 5.99672 13.013 6.13841 13.3847 6.49667C14 7.08906 14 8.04376 14 9.95181C14 11.8599 14 12.8146 13.3847 13.4069C12.7701 14 11.7796 14 9.8 14H4.2C2.2204 14 1.2299 14 0.6153 13.4069C-5.96046e-08 12.8146 0 11.8599 0 9.95181C0 8.04376 -5.96046e-08 7.08906 0.6153 6.49667C0.9863 6.13841 1.4945 5.99672 2.275 5.94072ZM3.325 4.55422C3.325 3.61478 3.71219 2.71381 4.40138 2.04953C5.09058 1.38524 6.02533 1.01205 7 1.01205C7.97467 1.01205 8.90942 1.38524 9.59862 2.04953C10.2878 2.71381 10.675 3.61478 10.675 4.55422V5.90631C10.4071 5.90406 10.1155 5.90316 9.8 5.90361H4.2C3.88407 5.90316 3.5924 5.90406 3.325 5.90631V4.55422ZM8.4 9.95181C8.4 10.3097 8.2525 10.6529 7.98995 10.906C7.7274 11.159 7.3713 11.3012 7 11.3012C6.6287 11.3012 6.2726 11.159 6.01005 10.906C5.7475 10.6529 5.6 10.3097 5.6 9.95181C5.6 9.59393 5.7475 9.2507 6.01005 8.99764C6.2726 8.74458 6.6287 8.60241 7 8.60241C7.3713 8.60241 7.7274 8.74458 7.98995 8.99764C8.2525 9.2507 8.4 9.59393 8.4 9.95181Z" fill="#535C69"/>
</svg>
