<svg width="20" height="20" viewBox="0 0 20 20" fill="none" xmlns="http://www.w3.org/2000/svg">
<path d="M4.98677 1H10.8594C11.4169 1 11.8766 1 12.2514 1.03046C12.64 1.06277 12.9982 1.13108 13.3342 1.30185C13.8552 1.56734 14.2788 1.99096 14.5443 2.512C14.716 2.848 14.7843 3.20615 14.8157 3.59477C14.8462 3.96954 14.8462 4.42923 14.8462 4.98677V5.15385H15.2154C15.6797 5.15385 16.0628 5.15385 16.3757 5.17508C16.7006 5.19723 17.0015 5.24523 17.2905 5.36431C17.6265 5.50348 17.9319 5.7075 18.1891 5.96471C18.4463 6.22193 18.6504 6.5273 18.7895 6.86338C18.9095 7.15231 18.9557 7.45323 18.9788 7.77723C19 8.09108 19 8.47415 19 8.93754V8.98554C19 9.44892 19 9.832 18.9788 10.1449C18.9654 10.4444 18.9066 10.7401 18.8043 11.0218C18.2719 12.8364 17.2993 14.4913 15.9729 15.8393C14.6466 17.1872 13.0076 18.1864 11.2018 18.748L11.0274 18.8025C10.7443 18.9071 10.4465 18.9663 10.1449 18.9778C9.83108 19 9.44892 19 8.98554 19H8.93754C8.47415 19 8.09108 19 7.77815 18.9788C7.45323 18.9566 7.15231 18.9086 6.86338 18.7895C6.5273 18.6504 6.22193 18.4463 5.96471 18.1891C5.7075 17.9319 5.50348 17.6265 5.36431 17.2905C5.24431 17.0015 5.19815 16.7006 5.17508 16.3766C5.15385 16.0628 5.15385 15.6797 5.15385 15.2163V14.8462H4.98769C4.43015 14.8462 3.96954 14.8462 3.59477 14.8157C3.20615 14.7834 2.848 14.716 2.512 14.5443C1.99096 14.2788 1.56734 13.8552 1.30185 13.3342C1.13108 12.9982 1.06185 12.64 1.03046 12.2514C1 11.8766 1 11.4169 1 10.8594V4.98677C1 4.42923 1 3.96954 1.03046 3.59477C1.06277 3.20615 1.13108 2.848 1.30185 2.512C1.56734 1.99096 1.99096 1.56734 2.512 1.30185C2.848 1.13108 3.20615 1.06185 3.59477 1.03046C3.96954 1 4.42923 1 4.98677 1ZM6.53846 15.1923C6.53846 15.6852 6.53846 16.0212 6.55692 16.2815C6.57354 16.5363 6.60585 16.6683 6.64369 16.7606C6.71328 16.9287 6.81529 17.0813 6.94389 17.21C7.0725 17.3386 7.22519 17.4406 7.39323 17.5102C7.48554 17.548 7.61754 17.5803 7.87231 17.5969C8.13262 17.6154 8.46862 17.6154 8.96154 17.6154C9.45446 17.6154 9.79046 17.6154 10.0508 17.5969C10.3055 17.5803 10.4375 17.548 10.5298 17.5102C10.6979 17.4406 10.8506 17.3386 10.9792 17.21C11.1078 17.0813 11.2098 16.9287 11.2794 16.7606C11.3172 16.6683 11.3486 16.5363 11.3662 16.2815C11.3846 16.0212 11.3846 15.6852 11.3846 15.1923V15.1683C11.3846 14.7049 11.3846 14.3218 11.4058 14.0089C11.428 13.684 11.476 13.3831 11.5951 13.0942C11.7342 12.7581 11.9383 12.4527 12.1955 12.1955C12.4527 11.9383 12.7581 11.7342 13.0942 11.5951C13.3831 11.4751 13.684 11.4289 14.008 11.4058C14.3218 11.3846 14.7049 11.3846 15.1683 11.3846H15.1923C15.6852 11.3846 16.0212 11.3846 16.2815 11.3662C16.5363 11.3486 16.6683 11.3172 16.7606 11.2794C16.9287 11.2098 17.0813 11.1078 17.21 10.9792C17.3386 10.8506 17.4406 10.6979 17.5102 10.5298C17.548 10.4375 17.5803 10.3055 17.5969 10.0508C17.6154 9.79046 17.6154 9.45446 17.6154 8.96154C17.6154 8.46862 17.6154 8.13262 17.5969 7.87231C17.5803 7.61754 17.548 7.48554 17.5102 7.39323C17.4406 7.22519 17.3386 7.0725 17.21 6.94389C17.0813 6.81529 16.9287 6.71328 16.7606 6.64369C16.6683 6.60585 16.5363 6.57354 16.2815 6.55692C16.0212 6.53846 15.6852 6.53846 15.1923 6.53846H9.16923C8.57662 6.53846 8.17231 6.53846 7.86123 6.56431C7.55754 6.58923 7.40246 6.63446 7.29446 6.68892C7.0337 6.82171 6.82171 7.0337 6.68892 7.29446C6.63354 7.40246 6.58923 7.55754 6.56431 7.86123C6.53938 8.17323 6.53846 8.57662 6.53846 9.16923V15.1923Z" fill="#686868"/>
</svg>
