<svg width="19" height="19" viewBox="0 0 19 19" fill="none" xmlns="http://www.w3.org/2000/svg">
<path d="M7.97143 1C7.43492 1 7 1.43492 7 1.97143V1.97143H3.97143C3.43492 1.97143 3 2.40635 3 2.94286V2.94286C3 3.47936 3.43492 3.91429 3.97143 3.91429H4V16.0571C4 16.5724 4.21071 17.0666 4.58579 17.4309C4.96086 17.7953 5.46957 18 6 18H14C14.5304 18 15.0391 17.7953 15.4142 17.4309C15.7893 17.0666 16 16.5724 16 16.0571V3.91429H16.0286C16.5651 3.91429 17 3.47936 17 2.94286V2.94286C17 2.40635 16.5651 1.97143 16.0286 1.97143H13V1.97143C13 1.43492 12.5651 1 12.0286 1H7.97143ZM5.5 4.91429C5.5 4.362 5.94771 3.91429 6.5 3.91429H13.5C14.0523 3.91429 14.5 4.362 14.5 4.91429V15.5429C14.5 16.0951 14.0523 16.5429 13.5 16.5429H6.5C5.94771 16.5429 5.5 16.0951 5.5 15.5429V4.91429ZM8.25 5.85714C7.83579 5.85714 7.5 6.19293 7.5 6.60714V13.85C7.5 14.2642 7.83579 14.6 8.25 14.6V14.6C8.66421 14.6 9 14.2642 9 13.85V6.60714C9 6.19293 8.66421 5.85714 8.25 5.85714V5.85714ZM11.75 5.85714C11.3358 5.85714 11 6.19293 11 6.60714V13.85C11 14.2642 11.3358 14.6 11.75 14.6V14.6C12.1642 14.6 12.5 14.2642 12.5 13.85V6.60714C12.5 6.19293 12.1642 5.85714 11.75 5.85714V5.85714Z" fill="#686868"/>
</svg>
