<svg width="35" height="35" viewBox="0 0 35 35" fill="none" xmlns="http://www.w3.org/2000/svg">
<rect width="35" height="35" rx="5" fill="#F55A5D"/>
<path d="M14.6276 8.87451V9.83285H9.83594V11.7495H10.7943V24.2078C10.7943 24.7162 10.9962 25.2037 11.3556 25.5631C11.7151 25.9226 12.2026 26.1245 12.7109 26.1245H22.2943C22.8026 26.1245 23.2901 25.9226 23.6496 25.5631C24.009 25.2037 24.2109 24.7162 24.2109 24.2078V11.7495H25.1693V9.83285H20.3776V8.87451H14.6276ZM12.7109 11.7495H22.2943V24.2078H12.7109V11.7495ZM14.6276 13.6662V22.2912H16.5443V13.6662H14.6276ZM18.4609 13.6662V22.2912H20.3776V13.6662H18.4609Z" fill="white"/>
</svg>
