<svg width="20" height="20" viewBox="0 0 20 20" fill="none" xmlns="http://www.w3.org/2000/svg">
<path fill-rule="evenodd" clip-rule="evenodd" d="M10 0C9.73478 0 9.48043 0.105357 9.29289 0.292893C9.10536 0.48043 9 0.734784 9 1V3H3C2.46957 3 1.96086 3.21071 1.58579 3.58579C1.21071 3.96086 1 4.46957 1 5V18C1 18.5304 1.21071 19.0391 1.58579 19.4142C1.96086 19.7893 2.46957 20 3 20H17C17.5304 20 18.0391 19.7893 18.4142 19.4142C18.7893 19.0391 19 18.5304 19 18V5C19 4.46957 18.7893 3.96086 18.4142 3.58579C18.0391 3.21071 17.5304 3 17 3H11V1C11 0.734784 10.8946 0.48043 10.7071 0.292893C10.5196 0.105357 10.2652 0 10 0ZM11 3V11.828L12.828 10C13.0155 9.81236 13.2699 9.70689 13.5351 9.7068C13.8004 9.7067 14.0549 9.81199 14.2425 9.9995C14.4301 10.187 14.5356 10.4414 14.5357 10.7066C14.5358 10.9719 14.4305 11.2264 14.243 11.414L10.883 14.773C10.6486 15.0072 10.3308 15.1387 9.9995 15.1387C9.66817 15.1387 9.35039 15.0072 9.116 14.773L5.757 11.414C5.66416 11.3211 5.59052 11.2108 5.5403 11.0894C5.49008 10.9681 5.46425 10.838 5.4643 10.7066C5.46434 10.5753 5.49026 10.4452 5.54057 10.3239C5.59088 10.2026 5.66459 10.0923 5.7575 9.9995C5.85041 9.90666 5.9607 9.83302 6.08207 9.7828C6.20343 9.73258 6.3335 9.70675 6.46485 9.7068C6.5962 9.70684 6.72626 9.73276 6.84759 9.78307C6.96892 9.83338 7.07916 9.90709 7.172 10L9 11.828V3H11Z" fill="#686868"/>
</svg>
