<svg width="32" height="32" viewBox="0 0 32 32" fill="none" xmlns="http://www.w3.org/2000/svg">
<path d="M12.3451 14.4149C12.129 14.631 11.9576 14.8876 11.8408 15.17C11.7239 15.4524 11.6639 15.755 11.6641 16.0606V19.3341H14.9579C15.575 19.3341 16.1678 19.0888 16.6048 18.6518L26.315 8.93602C26.5315 8.72001 26.7033 8.4634 26.8205 8.18089C26.9378 7.89839 26.9981 7.59553 26.9981 7.28967C26.9981 6.98381 26.9378 6.68096 26.8205 6.39845C26.7033 6.11594 26.5315 5.85934 26.315 5.64332L25.3555 4.68375C25.1395 4.46702 24.8828 4.29506 24.6002 4.17773C24.3176 4.0604 24.0146 4 23.7086 4C23.4026 4 23.0996 4.0604 22.817 4.17773C22.5344 4.29506 22.2777 4.46702 22.0617 4.68375L12.3451 14.4149Z" stroke="#22BB77" stroke-width="3.04474" stroke-linecap="round" stroke-linejoin="round"/>
<path d="M26.9979 15.5005C26.9979 20.9219 26.9979 23.6319 25.314 25.316C23.63 27 20.9188 27 15.499 27C10.0791 27 7.36792 27 5.68396 25.316C4 23.6319 4 20.9206 4 15.5005C4 10.0804 4 7.36906 5.68396 5.68502C7.36792 4.00098 10.0791 4.00098 15.499 4.00098" stroke="#22BB77" stroke-width="3.04474" stroke-linecap="round" stroke-linejoin="round"/>
</svg>
