<svg width="22" height="22" viewBox="0 0 22 22" fill="none" xmlns="http://www.w3.org/2000/svg">
<path d="M3 18V15.48L16.18 2.28802C16.2833 2.19668 16.3967 2.12602 16.52 2.07602C16.6433 2.02602 16.7723 2.00068 16.907 2.00002C17.0417 1.99935 17.1717 2.02068 17.297 2.06402C17.4237 2.10602 17.5403 2.18201 17.647 2.29201L18.714 3.36602C18.824 3.47202 18.8993 3.58868 18.94 3.71602C18.98 3.84268 19 3.96935 19 4.09602C19 4.23202 18.9773 4.36202 18.932 4.48602C18.886 4.60935 18.8133 4.72235 18.714 4.82502L5.519 18H3ZM16.504 5.58902L18 4.11102L16.889 3.00002L15.412 4.49602L16.504 5.58902Z" fill="#596059"/>
<path d="M2 20L17 20" stroke="#596059" stroke-linecap="round"/>
</svg>
