<svg width="47" height="47" viewBox="0 0 47 47" fill="none" xmlns="http://www.w3.org/2000/svg">
<path d="M10 1C7.61305 1 5.32387 1.94821 3.63604 3.63604C1.94821 5.32387 1 7.61305 1 10V28C1 30.387 1.94821 32.6761 3.63604 34.364C5.32387 36.0518 7.61305 37 10 37H28C30.387 37 32.6761 36.0518 34.364 34.364C36.0518 32.6761 37 30.387 37 28V10C37 7.61305 36.0518 5.32387 34.364 3.63604C32.6761 1.94821 30.387 1 28 1H10ZM5.5 10C5.5 8.80653 5.97411 7.66193 6.81802 6.81802C7.66193 5.97411 8.80653 5.5 10 5.5H28C29.1935 5.5 30.3381 5.97411 31.182 6.81802C32.0259 7.66193 32.5 8.80653 32.5 10V28C32.5 29.1935 32.0259 30.3381 31.182 31.182C30.3381 32.0259 29.1935 32.5 28 32.5H10C8.80653 32.5 7.66193 32.0259 6.81802 31.182C5.97411 30.3381 5.5 29.1935 5.5 28V10ZM11.206 41.5C11.9959 42.8681 13.132 44.0043 14.5001 44.7942C15.8683 45.5841 17.4202 46 19 46H28C32.7739 46 37.3523 44.1036 40.7279 40.7279C44.1036 37.3523 46 32.7739 46 28V19C46 17.4202 45.5841 15.8683 44.7942 14.5001C44.0043 13.132 42.8681 11.9959 41.5 11.206V28C41.5 31.5804 40.0777 35.0142 37.5459 37.5459C35.0142 40.0777 31.5804 41.5 28 41.5H11.206ZM23.5 12.25C23.5 13.4435 23.0259 14.5881 22.182 15.432C21.3381 16.2759 20.1935 16.75 19 16.75C17.8065 16.75 16.6619 16.2759 15.818 15.432C14.9741 14.5881 14.5 13.4435 14.5 12.25C14.5 11.0565 14.9741 9.91193 15.818 9.06802C16.6619 8.22411 17.8065 7.75 19 7.75C20.1935 7.75 21.3381 8.22411 22.182 9.06802C23.0259 9.91193 23.5 11.0565 23.5 12.25ZM28 22.375C28 25.75 25.75 29.125 19 29.125C12.25 29.125 10 25.75 10 22.375C10 21.4799 10.3556 20.6215 10.9885 19.9885C11.6215 19.3556 12.4799 19 13.375 19H24.625C25.5201 19 26.3786 19.3556 27.0115 19.9885C27.6444 20.6215 28 21.4799 28 22.375Z" fill="#E6ECE5"/>
</svg>
