<svg width="41" height="41" viewBox="0 0 41 41" fill="none" xmlns="http://www.w3.org/2000/svg">
<path d="M20.4987 4.27087C19.8191 4.27087 19.1673 4.54085 18.6867 5.02141C18.2062 5.50197 17.9362 6.15376 17.9362 6.83337C17.9362 7.51299 18.2062 8.16477 18.6867 8.64534C19.1673 9.1259 19.8191 9.39587 20.4987 9.39587H29.0404C29.2669 9.39587 29.4842 9.48587 29.6444 9.64605C29.8045 9.80624 29.8945 10.0235 29.8945 10.25V30.75C29.8945 30.9766 29.8045 31.1938 29.6444 31.354C29.4842 31.5142 29.2669 31.6042 29.0404 31.6042H21.3529C20.6732 31.6042 20.0215 31.8742 19.5409 32.3547C19.0603 32.8353 18.7904 33.4871 18.7904 34.1667C18.7904 34.8463 19.0603 35.4981 19.5409 35.9787C20.0215 36.4592 20.6732 36.7292 21.3529 36.7292H29.0404C30.6261 36.7292 32.147 36.0993 33.2683 34.9779C34.3896 33.8566 35.0195 32.3358 35.0195 30.75V10.25C35.0195 8.66427 34.3896 7.14344 33.2683 6.02213C32.147 4.90082 30.6261 4.27087 29.0404 4.27087H20.4987ZM10.1462 13.8546L5.31332 18.6892C4.83345 19.1697 4.56391 19.821 4.56391 20.5C4.56391 21.1791 4.83345 21.8304 5.31332 22.3109L10.1445 27.1455C10.6252 27.6262 11.2772 27.8962 11.957 27.8962C12.6369 27.8962 13.2889 27.6262 13.7696 27.1455C14.2503 26.6647 14.5204 26.0128 14.5204 25.3329C14.5204 24.6531 14.2503 24.0011 13.7696 23.5204L13.3117 23.0625H20.4987C21.1783 23.0625 21.8301 22.7926 22.3107 22.312C22.7912 21.8314 23.0612 21.1797 23.0612 20.5C23.0612 19.8204 22.7912 19.1686 22.3107 18.6881C21.8301 18.2075 21.1783 17.9375 20.4987 17.9375H13.3117L13.7696 17.4797C14.0075 17.2417 14.1962 16.9591 14.3249 16.6482C14.4536 16.3372 14.5198 16.004 14.5197 15.6674C14.5197 15.3309 14.4533 14.9976 14.3244 14.6868C14.1956 14.3759 14.0067 14.0934 13.7687 13.8555C13.5307 13.6176 13.2481 13.4289 12.9372 13.3001C12.6262 13.1714 12.293 13.1052 11.9564 13.1053C11.6199 13.1054 11.2867 13.1717 10.9758 13.3006C10.6649 13.4295 10.3824 13.6183 10.1445 13.8563L10.1462 13.8546Z" fill="#E6ECE5"/>
</svg>
