<svg width="20" height="20" viewBox="0 0 20 20" fill="none" xmlns="http://www.w3.org/2000/svg">
<path d="M10 3.75C12.71 3.75 15.1637 4.7506 17.1152 6.65332C17.8515 7.37123 18.3856 8.08931 18.7383 8.63379C18.9143 8.90559 19.0446 9.13282 19.1309 9.29297C19.1739 9.37284 19.2061 9.43607 19.2275 9.47949C19.2313 9.48718 19.2342 9.49455 19.2373 9.50098C19.2342 9.50735 19.2313 9.51486 19.2275 9.52246C19.206 9.56591 19.1739 9.62911 19.1309 9.70898C19.0446 9.86904 18.9142 10.0956 18.7383 10.3672C18.3856 10.9115 17.8516 11.6297 17.1152 12.3477C15.1637 14.2497 12.71 15.25 10 15.25C7.28998 15.25 4.83631 14.2497 2.88477 12.3477C2.14844 11.6297 1.61437 10.9115 1.26172 10.3672C1.08575 10.0956 0.955358 9.86904 0.869141 9.70898C0.826118 9.62911 0.793956 9.56591 0.772461 9.52246C0.768467 9.51439 0.764977 9.50669 0.761719 9.5C0.858819 9.29951 1.52488 7.97935 2.88477 6.65332C4.83628 4.7506 7.29 3.75 10 3.75ZM11.5566 5.80176C10.8129 5.50139 9.99539 5.4233 9.20703 5.57617C8.41855 5.72909 7.69137 6.10711 7.11914 6.66504C6.54688 7.22307 6.15515 7.93643 5.99609 8.71582C5.83702 9.49554 5.91896 10.3039 6.23047 11.0371C6.54188 11.77 7.06726 12.3939 7.73828 12.8311C8.40924 13.2682 9.19656 13.5 10 13.5C11.0769 13.5 12.1137 13.0829 12.8809 12.335C13.6485 11.5864 14.083 10.567 14.083 9.5C14.083 8.70468 13.8416 7.92869 13.3906 7.27051C12.9397 6.61254 12.3005 6.10221 11.5566 5.80176Z" stroke="#ADAEAD" stroke-width="1.5"/>
</svg>
