<svg width="101" height="101" viewBox="0 0 101 101" fill="none" xmlns="http://www.w3.org/2000/svg">
<path fill-rule="evenodd" clip-rule="evenodd" d="M63.7465 96H45.6197C28.5307 96 11.6178 96 6.31114 90.6786C1.00453 85.3572 1 76.7985 1 59.6764V41.5146C1 24.3926 1 15.8293 6.31114 10.5125C13.3713 3.44468 28.576 5.19105 45.7557 5.19105C48.5019 5.19105 50.6997 5.19105 52.5532 5.26823C52.4928 5.63147 52.4626 6.00076 52.4626 6.3761L52.4173 19.2437C52.4173 24.2246 52.4173 28.6288 52.8931 32.1749C53.4097 36.0207 54.5925 39.8664 57.7284 43.0084C60.8553 46.1413 64.6981 47.3309 68.5365 47.8486C72.0757 48.3253 76.4715 48.3253 81.4427 48.3253H99.8051C100 50.7499 100 53.7284 100 57.6922V59.6764C100 76.7985 100 85.3617 94.6889 90.6786C89.3777 95.9955 80.8355 96 63.7465 96Z" fill="white"/>
<path d="M87.8727 30.9077L69.8727 14.3227C64.75 9.59814 62.1909 7.23351 59.0409 6L59 18.7261C59 29.6974 59 35.1854 62.3273 38.5927C65.6545 42 71.0136 42 81.7273 42H98C96.3545 38.723 93.4 36.0047 87.8727 30.9077Z" fill="white"/>
</svg>
