<svg width="20" height="20" viewBox="0 0 20 20" fill="none" xmlns="http://www.w3.org/2000/svg">
<path d="M18 7.4164V13.5454C18 14.1964 17.7546 14.8207 17.3177 15.2811C16.8809 15.7414 16.2884 16 15.6706 16H3.32938C2.71159 16 2.1191 15.7414 1.68226 15.2811C1.24542 14.8207 1 14.1964 1 13.5454V4.65844C1 4.00744 1.56667 3.52871 1.56667 3.52871C2.00351 3.06838 2.71159 3 3.32938 3H5.65951C6.04393 2.99952 6.42246 3.0994 6.76131 3.29071C7.10015 3.48203 7.38874 3.75881 7.60129 4.09634C7.60129 4.09634 8.0355 4.96895 9.35569 4.96895H15.6706C16.2872 4.96916 16.8785 5.22685 17.3151 5.68559C17.7517 6.14432 17.998 6.76671 18 7.4164Z" stroke="#C7CBCF" stroke-width="1.5" stroke-linecap="round" stroke-linejoin="round"/>
</svg>
