<svg width="35" height="35" viewBox="0 0 35 35" fill="none" xmlns="http://www.w3.org/2000/svg">
<path d="M21.3513 32H4.61357C3.94057 32 3.4609 31.6869 3.17455 31.0608C2.88819 30.4346 2.95417 29.8437 3.37249 29.2878L11.6167 18.3151C11.7948 18.0765 11.8839 17.811 11.8839 17.5186C11.8839 17.2262 11.7948 16.9607 11.6167 16.7221L3.37249 5.71216C2.95417 5.15635 2.88819 4.56537 3.17455 3.93922C3.4609 3.31307 3.94057 3 4.61357 3H21.3136C21.8138 3 22.2875 3.1062 22.7348 3.31859C23.1809 3.53236 23.5471 3.84475 23.8334 4.25574L32.2854 15.4354C32.7618 16.0532 33 16.7483 33 17.5207C33 18.293 32.7612 18.9881 32.2835 19.606L23.871 30.7443C23.5847 31.1566 23.2178 31.469 22.7705 31.6814C22.3245 31.8952 21.8514 32 21.3513 32Z" fill="#DFFF30"/>
</svg>
