<svg width="43" height="43" viewBox="0 0 43 43" fill="none" xmlns="http://www.w3.org/2000/svg">
<path d="M0.458067 9.9267C0.839082 4.2961 5.59108 0 11.2346 0H32.0175C37.7579 0 42.5518 4.44091 42.7871 10.1765C43.1212 18.3233 43.0353 24.9338 42.7151 32.6432C42.4739 38.4506 37.6541 43 31.8418 43H11.0767C5.49973 43 0.769894 38.8041 0.387311 33.2403C-0.167982 25.1648 -0.110137 18.3236 0.458067 9.9267Z" fill="white"/>
<path d="M21.8379 20.8862L11.9531 31.3125C12.0641 31.7085 12.2636 32.0738 12.5363 32.3803C12.809 32.6868 13.1477 32.9265 13.5266 33.0811C13.9054 33.2356 14.3143 33.3009 14.722 33.272C15.1298 33.2431 15.5255 33.1207 15.8791 32.9141L27.0013 26.5369L21.8379 20.8862Z" fill="#EA4335"/>
<path d="M31.8328 19.1138L27.0232 16.3403L21.6094 21.1232L27.0452 26.5218L31.8182 23.778C32.241 23.5551 32.5952 23.2199 32.8423 22.8088C33.0894 22.3977 33.2201 21.9264 33.2201 21.4459C33.2201 20.9654 33.0894 20.494 32.8423 20.0829C32.5952 19.6718 32.241 19.3366 31.8182 19.1137L31.8328 19.1138Z" fill="#FBBC04"/>
<path d="M11.9556 11.5278C11.8959 11.7502 11.8662 11.9797 11.8672 12.21V30.6301C11.8678 30.8604 11.8975 31.0896 11.9556 31.3124L22.1792 21.1531L11.9556 11.5278Z" fill="#4285F4"/>
<path d="M21.9115 21.42L27.0234 16.3404L15.9159 9.93336C15.498 9.68697 15.0227 9.55648 14.5384 9.55518C13.3366 9.55283 12.28 10.3559 11.9531 11.5203L21.9115 21.42Z" fill="#34A853"/>
</svg>
