<svg width="35" height="35" viewBox="0 0 35 35" fill="none" xmlns="http://www.w3.org/2000/svg">
<path d="M1 7.26641C1 6.82403 1.24562 6.41825 1.63756 6.21311L7.22525 3.28854C7.57055 3.10781 7.98252 3.10781 8.32783 3.28854L13.9155 6.21311C14.3074 6.41825 14.5531 6.82403 14.5531 7.26641V14.6801C14.5531 15.1299 14.2993 15.5411 13.8972 15.7428L8.30955 18.5455C7.97412 18.7137 7.57895 18.7137 7.24352 18.5455L1.65583 15.7428C1.25381 15.5411 1 15.1299 1 14.6801V7.26641Z" fill="white"/>
<path d="M11.0195 21.4534C11.0195 21.011 11.2652 20.6053 11.6571 20.4001L17.2448 17.4756C17.5901 17.2948 18.002 17.2948 18.3474 17.4756L23.935 20.4001C24.327 20.6053 24.5726 21.011 24.5726 21.4534V28.8671C24.5726 29.3169 24.3188 29.7281 23.9168 29.9298L18.3291 32.7325C17.9937 32.9007 17.5985 32.9007 17.2631 32.7325L11.6754 29.9298C11.2733 29.7281 11.0195 29.3169 11.0195 28.8671V21.4534Z" fill="white"/>
<path d="M20.4453 7.26641C20.4453 6.82403 20.6909 6.41825 21.0829 6.21311L26.6706 3.28854C27.0159 3.10781 27.4278 3.10781 27.7731 3.28854L33.3608 6.21311C33.7528 6.41825 33.9984 6.82403 33.9984 7.26641V14.6801C33.9984 15.1299 33.7446 15.5411 33.3426 15.7428L27.7549 18.5455C27.4194 18.7137 27.0243 18.7137 26.6888 18.5455L21.1011 15.7428C20.6991 15.5411 20.4453 15.1299 20.4453 14.6801V7.26641Z" fill="white"/>
</svg>
