<svg width="33" height="33" viewBox="0 0 33 33" fill="none" xmlns="http://www.w3.org/2000/svg">
<rect x="1" y="6" width="31" height="21" rx="6" fill="#22BB77"/>
<path d="M13.1911 12.9818H15.0467V21H13.1911V12.9818ZM9.54855 21H7.69291V12.9818H9.54855V21ZM13.3286 17.7125H9.4111V16.1433H13.3286V17.7125ZM16.8293 21V12.9818H20.3C21.0178 12.9818 21.6363 13.1002 22.1556 13.3369C22.6749 13.566 23.0758 13.8982 23.3583 14.3335C23.6409 14.7687 23.7822 15.288 23.7822 15.8913C23.7822 16.4869 23.6409 17.0024 23.3583 17.4376C23.0758 17.8653 22.6749 18.1936 22.1556 18.4227C21.6363 18.6518 21.0178 18.7664 20.3 18.7664H17.8602L18.6849 17.9531V21H16.8293ZM21.9265 21L19.922 18.0905H21.9036L23.9311 21H21.9265ZM18.6849 18.1593L17.8602 17.2887H20.1969C20.7696 17.2887 21.1973 17.1665 21.4798 16.9222C21.7623 16.6702 21.9036 16.3265 21.9036 15.8913C21.9036 15.4484 21.7623 15.1047 21.4798 14.8604C21.1973 14.616 20.7696 14.4938 20.1969 14.4938H17.8602L18.6849 13.6118V18.1593Z" fill="white"/>
</svg>
