<svg width="44" height="44" viewBox="0 0 44 44" fill="none" xmlns="http://www.w3.org/2000/svg">
<g filter="url(#filter0_d_3104_3616)">
<rect x="6" y="5" width="38" height="26" rx="8.96703" fill="#22BB77"/>
</g>
<path d="M21.5727 13.5846H23.7516V23H21.5727V13.5846ZM17.2954 23H15.1164V13.5846H17.2954V23ZM21.7341 19.1397H17.134V17.297H21.7341V19.1397ZM26.6518 23V13.5846H30.7273C31.5702 13.5846 32.2966 13.7236 32.9063 14.0016C33.5161 14.2706 33.9869 14.6607 34.3186 15.1718C34.6504 15.6829 34.8163 16.2927 34.8163 17.0011C34.8163 17.7005 34.6504 18.3058 34.3186 18.8169C33.9869 19.319 33.5161 19.7046 32.9063 19.9736C32.2966 20.2426 31.5702 20.3771 30.7273 20.3771H27.8624L28.8308 19.4222V23H26.6518ZM32.6373 23L30.2835 19.5836H32.6104L34.9912 23H32.6373ZM28.8308 19.6643L27.8624 18.642H30.6063C31.2788 18.642 31.781 18.4985 32.1127 18.2116C32.4445 17.9157 32.6104 17.5122 32.6104 17.0011C32.6104 16.481 32.4445 16.0775 32.1127 15.7905C31.781 15.5036 31.2788 15.3601 30.6063 15.3601H27.8624L28.8308 14.3244V19.6643Z" fill="white"/>
<defs>
<filter id="filter0_d_3104_3616" x="0.0219779" y="5" width="43.978" height="31.978" filterUnits="userSpaceOnUse" color-interpolation-filters="sRGB">
<feFlood flood-opacity="0" result="BackgroundImageFix"/>
<feColorMatrix in="SourceAlpha" type="matrix" values="0 0 0 0 0 0 0 0 0 0 0 0 0 0 0 0 0 0 127 0" result="hardAlpha"/>
<feOffset dx="-2.98901" dy="2.98901"/>
<feGaussianBlur stdDeviation="1.49451"/>
<feComposite in2="hardAlpha" operator="out"/>
<feColorMatrix type="matrix" values="0 0 0 0 0.839216 0 0 0 0 0.898039 0 0 0 0 0.513726 0 0 0 0.37 0"/>
<feBlend mode="normal" in2="BackgroundImageFix" result="effect1_dropShadow_3104_3616"/>
<feBlend mode="normal" in="SourceGraphic" in2="effect1_dropShadow_3104_3616" result="shape"/>
</filter>
</defs>
</svg>
