<svg width="59" height="59" viewBox="0 0 59 59" fill="none" xmlns="http://www.w3.org/2000/svg">
<path d="M34.8 55H24.2C14.2069 55 9.20895 55 6.1058 51.8747C3.00265 48.7493 3 43.7227 3 33.6667V28.3333C3 18.2773 3 13.248 6.1058 10.1253C9.2116 7.00267 14.2069 7 24.2 7H34.8C44.7932 7 49.791 7 52.8942 10.1253C55.9973 13.2507 56 18.2773 56 28.3333V33.6667C56 43.7227 56 48.752 52.8942 51.8747C51.1637 53.6187 48.845 54.3893 45.4 54.728M16.25 7V3M42.75 7V3M54.675 20.3333H26.1875M3 20.3333H13.2688" stroke="#E6ECE5" stroke-width="4" stroke-linecap="round"/>
<path d="M45.3977 31.0002C45.3977 31.7074 45.1185 32.3857 44.6215 32.8858C44.1245 33.3859 43.4505 33.6668 42.7477 33.6668C42.0448 33.6668 41.3708 33.3859 40.8738 32.8858C40.3768 32.3857 40.0977 31.7074 40.0977 31.0002C40.0977 30.2929 40.3768 29.6146 40.8738 29.1145C41.3708 28.6144 42.0448 28.3335 42.7477 28.3335C43.4505 28.3335 44.1245 28.6144 44.6215 29.1145C45.1185 29.6146 45.3977 30.2929 45.3977 31.0002ZM32.1477 41.6668C32.1477 42.3741 31.8685 43.0524 31.3715 43.5525C30.8745 44.0525 30.2005 44.3335 29.4977 44.3335C28.7948 44.3335 28.1208 44.0525 27.6238 43.5525C27.1269 43.0524 26.8477 42.3741 26.8477 41.6668C26.8477 40.9596 27.1269 40.2813 27.6238 39.7812C28.1208 39.2811 28.7948 39.0002 29.4977 39.0002C30.2005 39.0002 30.8745 39.2811 31.3715 39.7812C31.8685 40.2813 32.1477 40.9596 32.1477 41.6668ZM32.1477 31.0002C32.1477 31.7074 31.8685 32.3857 31.3715 32.8858C30.8745 33.3859 30.2005 33.6668 29.4977 33.6668C28.7948 33.6668 28.1208 33.3859 27.6238 32.8858C27.1269 32.3857 26.8477 31.7074 26.8477 31.0002C26.8477 30.2929 27.1269 29.6146 27.6238 29.1145C28.1208 28.6144 28.7948 28.3335 29.4977 28.3335C30.2005 28.3335 30.8745 28.6144 31.3715 29.1145C31.8685 29.6146 32.1477 30.2929 32.1477 31.0002ZM18.8977 41.6668C18.8977 42.3741 18.6185 43.0524 18.1215 43.5525C17.6245 44.0525 16.9505 44.3335 16.2477 44.3335C15.5448 44.3335 14.8708 44.0525 14.3738 43.5525C13.8769 43.0524 13.5977 42.3741 13.5977 41.6668C13.5977 40.9596 13.8769 40.2813 14.3738 39.7812C14.8708 39.2811 15.5448 39.0002 16.2477 39.0002C16.9505 39.0002 17.6245 39.2811 18.1215 39.7812C18.6185 40.2813 18.8977 40.9596 18.8977 41.6668ZM18.8977 31.0002C18.8977 31.7074 18.6185 32.3857 18.1215 32.8858C17.6245 33.3859 16.9505 33.6668 16.2477 33.6668C15.5448 33.6668 14.8708 33.3859 14.3738 32.8858C13.8769 32.3857 13.5977 31.7074 13.5977 31.0002C13.5977 30.2929 13.8769 29.6146 14.3738 29.1145C14.8708 28.6144 15.5448 28.3335 16.2477 28.3335C16.9505 28.3335 17.6245 28.6144 18.1215 29.1145C18.6185 29.6146 18.8977 30.2929 18.8977 31.0002Z" fill="#E6ECE5"/>
</svg>
