<svg width="25" height="24" viewBox="0 0 25 24" fill="none" xmlns="http://www.w3.org/2000/svg">
<path d="M21.7562 6C21.3978 6.00012 21.0443 6.08378 20.7239 6.24435C20.4035 6.40492 20.125 6.63798 19.9104 6.92501C19.6958 7.21205 19.5511 7.54516 19.4877 7.89791C19.4243 8.25065 19.4441 8.6133 19.5454 8.95708L15.9683 12.5336C15.4965 12.3765 14.9866 12.3765 14.5148 12.5336L11.863 9.8818C11.9502 9.54129 11.9585 9.18534 11.8871 8.84115C11.8157 8.49697 11.6665 8.17367 11.451 7.89597C11.2355 7.61826 10.9594 7.39352 10.6437 7.23891C10.328 7.0843 9.98113 7.00393 9.62962 7.00393C9.27811 7.00393 8.93125 7.0843 8.61557 7.23891C8.29988 7.39352 8.02373 7.61826 7.80822 7.89597C7.59271 8.17367 7.44356 8.49697 7.37216 8.84115C7.30076 9.18534 7.30901 9.54129 7.39627 9.8818L2.96115 14.3139C2.46876 14.1682 1.94183 14.1907 1.46365 14.3779C0.98548 14.5651 0.583336 14.9063 0.320786 15.3476C0.0582352 15.789 -0.0497456 16.3052 0.0139106 16.8147C0.0775667 17.3243 0.309229 17.7981 0.672281 18.1613C1.03533 18.5244 1.50906 18.7563 2.0186 18.8201C2.52813 18.8839 3.0444 18.7761 3.48581 18.5137C3.92721 18.2513 4.26858 17.8492 4.45594 17.3711C4.6433 16.893 4.66598 16.3661 4.52039 15.8736L8.89937 11.4952C9.3711 11.6524 9.88112 11.6524 10.3529 11.4952L13.0052 14.1475C12.9179 14.488 12.9097 14.844 12.9811 15.1882C13.0525 15.5323 13.2016 15.8556 13.4172 16.1333C13.6327 16.411 13.9088 16.6358 14.2245 16.7904C14.5402 16.945 14.887 17.0254 15.2386 17.0254C15.5901 17.0254 15.9369 16.945 16.2526 16.7904C16.5683 16.6358 16.8444 16.411 17.0599 16.1333C17.2755 15.8556 17.4246 15.5323 17.496 15.1882C17.5674 14.844 17.5592 14.488 17.4719 14.1475L21.1046 10.5168C21.4217 10.6104 21.7553 10.6346 22.0826 10.5879C22.41 10.5412 22.7234 10.4247 23.0017 10.2461C23.2801 10.0676 23.5167 9.83132 23.6957 9.55328C23.8746 9.27523 23.9917 8.96195 24.0389 8.63469C24.0861 8.30743 24.0623 7.97384 23.9693 7.65655C23.8762 7.33927 23.716 7.04572 23.4995 6.79582C23.2829 6.54592 23.0152 6.34551 22.7144 6.2082C22.4136 6.07089 22.0868 5.99988 21.7562 6Z" fill="#596059"/>
</svg>
