<svg width="24" height="24" viewBox="0 0 24 24" fill="none" xmlns="http://www.w3.org/2000/svg">
<path d="M21.5732 15.5714C20.8793 16.3433 18.5499 17.4801 15.8494 17.7143H11.8867" stroke="#596059" stroke-width="2.0952" stroke-linecap="round"/>
<rect x="3.92069" y="5.69584" width="15.9345" height="15.4655" rx="7.73277" stroke="#596059" stroke-width="1.67732"/>
<path d="M21.133 13V13C21.133 8.02944 17.1036 4 12.133 4H11.6406C6.67006 4 2.64062 8.02944 2.64062 13V13" stroke="#596059" stroke-width="1.76118"/>
<rect x="8.80469" y="8.28577" width="5.28354" height="5.14286" rx="2.57143" fill="#596059"/>
<path d="M0 12.0547C0 10.9199 0.919925 10 2.05471 10H4.10942L4.6231 16.8571H2.05471C0.919925 16.8571 0 15.9372 0 14.8024V12.0547Z" fill="#596059"/>
<path d="M23.9961 12.6418C23.9961 11.1828 22.8133 10 21.3543 10H19.8867L19.373 16.8571H21.3543C22.8133 16.8571 23.9961 15.6744 23.9961 14.2154V12.6418Z" fill="#596059"/>
</svg>
