<svg width="24" height="24" viewBox="0 0 24 24" fill="none" xmlns="http://www.w3.org/2000/svg">
<path d="M11.9727 8.22803H18.2105H21.9532V11.9707V18.2085V21.9512H18.2105H11.9727H8.23V18.2085V11.9707V8.22803H11.9727ZM18.2105 10.7232H11.9727H10.7251V11.9707V18.2085V19.4561H11.9727H18.2105H19.458V18.2085V11.9707V10.7232H18.2105ZM5.73486 1.86548H11.9727H15.7154V5.73289V6.98049H13.2202V5.73289V4.48535H11.9727H5.73486H4.48732V5.73289V11.9707V13.2182H5.73486H6.98246V15.7134H5.73486H1.99219L1.99217 11.9707L1.99219 5.73289V1.86548H5.73486Z" fill="#596059"/>
<circle cx="9.70242" cy="9.70242" r="2.72195" fill="#596059"/>
<circle cx="20.5891" cy="9.70242" r="2.72195" fill="#596059"/>
<circle cx="20.5891" cy="20.5902" r="2.72195" fill="#596059"/>
<circle cx="9.70242" cy="20.5902" r="2.72195" fill="#596059"/>
<circle cx="3.35085" cy="14.239" r="2.72195" fill="#596059"/>
<circle cx="3.35085" cy="3.35122" r="2.72195" fill="#596059"/>
<circle cx="14.2376" cy="3.35122" r="2.72195" fill="#596059"/>
</svg>
