<svg width="43" height="43" viewBox="0 0 43 43" fill="none" xmlns="http://www.w3.org/2000/svg">
<path d="M1.00188 5.67319L14.9058 3.75792V17.1931H1L1.00188 5.67319ZM1.00188 30.2588L14.9058 32.176V18.9048H1L1.00188 30.2588ZM16.4344 32.3796L20.2488 32.906C19.6489 24.5076 26.9383 18.1889 34.9277 20.6191V18.9048H16.4344V32.3796ZM16.4344 3.55244V17.1931H34.9277V1L16.4344 3.55244Z" fill="#22BB77"/>
<path d="M31.8688 21.7352C26.2408 21.7352 21.7383 26.2385 21.7383 31.8676C21.7383 36.3709 25.6667 42 31.8688 42C38.6226 42 41.9994 36.9338 41.9994 31.8676C41.9994 26.2385 38.071 21.7352 31.8688 21.7352ZM30.7432 31.8676V26.8014H32.9945V31.8676H36.9341L31.8688 36.9338L26.8036 31.8676H30.7432Z" fill="#22BB77"/>
</svg>
