<svg width="24" height="24" viewBox="0 0 24 24" fill="none" xmlns="http://www.w3.org/2000/svg">
<path d="M12.5 0L2 4.36364V10.9091C2 16.9636 6.48 22.6255 12.5 24C18.52 22.6255 23 16.9636 23 10.9091V4.36364L12.5 0ZM12.5 4.25455C13.1922 4.25455 13.8689 4.44649 14.4445 4.8061C15.0201 5.16571 15.4687 5.67684 15.7336 6.27485C15.9985 6.87287 16.0678 7.5309 15.9327 8.16575C15.7977 8.8006 15.4644 9.38374 14.9749 9.84144C14.4854 10.2991 13.8617 10.6108 13.1828 10.7371C12.5039 10.8634 11.8001 10.7986 11.1606 10.5509C10.5211 10.3032 9.97444 9.8837 9.58986 9.3455C9.20527 8.80731 9 8.17456 9 7.52727C9 6.65929 9.36875 5.82686 10.0251 5.21311C10.6815 4.59935 11.5717 4.25455 12.5 4.25455ZM12.5 12.8727C14.8333 12.8727 18.5 13.5584 18.5 16.3636C18.5 17.2987 17.3201 18.3863 16.4722 18.8118C15.2508 19.4247 13.8862 19.7455 12.5 19.7455C11.1138 19.7455 9.74921 19.4247 8.52782 18.8118C7.65328 18.373 6.5 17.2987 6.5 16.3636C6.5 13.5584 10.1667 12.8727 12.5 12.8727Z" fill="#596059"/>
</svg>
