<svg width="24" height="24" viewBox="0 0 24 24" fill="none" xmlns="http://www.w3.org/2000/svg">
<path d="M5.85 17.0999C6.7 16.4499 7.65 15.9375 8.7 15.5629C9.75 15.1882 10.85 15.0005 12 14.9999C13.15 14.9992 14.25 15.1869 15.3 15.5629C16.35 15.9389 17.3 16.4512 18.15 17.0999C18.7333 16.4165 19.1877 15.6415 19.513 14.7749C19.8383 13.9082 20.0007 12.9832 20 11.9999C20 9.78321 19.221 7.89554 17.663 6.33688C16.105 4.77821 14.2173 3.99921 12 3.99988C9.78267 4.00054 7.895 4.77988 6.337 6.33788C4.779 7.89588 4 9.78321 4 11.9999C4 12.9832 4.16267 13.9082 4.488 14.7749C4.81333 15.6415 5.26733 16.4165 5.85 17.0999ZM12 12.9999C11.0167 12.9999 10.1873 12.6625 9.512 11.9879C8.83667 11.3132 8.49933 10.4839 8.5 9.49988C8.50067 8.51588 8.83833 7.68654 9.513 7.01188C10.1877 6.33721 11.0167 5.99988 12 5.99988C12.9833 5.99988 13.8127 6.33754 14.488 7.01288C15.1633 7.68821 15.5007 8.51721 15.5 9.49988C15.4993 10.4825 15.162 11.3119 14.488 11.9879C13.814 12.6639 12.9847 13.0012 12 12.9999ZM12 21.9999C10.6167 21.9999 9.31667 21.7372 8.1 21.2119C6.88334 20.6865 5.825 19.9742 4.925 19.0749C4.025 18.1755 3.31267 17.1172 2.788 15.8999C2.26333 14.6825 2.00067 13.3825 2 11.9999C1.99933 10.6172 2.262 9.31721 2.788 8.09988C3.314 6.88254 4.02633 5.82421 4.925 4.92488C5.82367 4.02554 6.882 3.31321 8.1 2.78788C9.318 2.26254 10.618 1.99988 12 1.99988C13.382 1.99988 14.682 2.26254 15.9 2.78788C17.118 3.31321 18.1763 4.02554 19.075 4.92488C19.9737 5.82421 20.6863 6.88254 21.213 8.09988C21.7397 9.31721 22.002 10.6172 22 11.9999C21.998 13.3825 21.7353 14.6825 21.212 15.8999C20.6887 17.1172 19.9763 18.1755 19.075 19.0749C18.1737 19.9742 17.1153 20.6869 15.9 21.2129C14.6847 21.7389 13.3847 22.0012 12 21.9999Z" fill="#596059"/>
</svg>
