<svg width="24" height="24" viewBox="0 0 24 24" fill="none" xmlns="http://www.w3.org/2000/svg">
<path d="M2.99947 18C2.82908 17.9999 2.66153 17.9563 2.51274 17.8733C2.36394 17.7902 2.23883 17.6706 2.14927 17.5256C2.05971 17.3806 2.00868 17.2152 2.00101 17.045C1.99335 16.8748 2.0293 16.7054 2.10547 16.553L3.99947 12.763V10C3.99947 7.87827 4.84232 5.84344 6.34261 4.34315C7.8429 2.84285 9.87773 2 11.9995 2C14.1212 2 16.156 2.84285 17.6563 4.34315C19.1566 5.84344 19.9995 7.87827 19.9995 10V12.764L21.8935 16.553C21.9696 16.7054 22.0056 16.8748 21.9979 17.045C21.9903 17.2152 21.9392 17.3806 21.8497 17.5256C21.7601 17.6706 21.635 17.7902 21.4862 17.8733C21.3374 17.9563 21.1699 17.9999 20.9995 18H2.99947ZM11.9995 22C11.1125 22.0002 10.2506 21.7056 9.54936 21.1626C8.84809 20.6195 8.34721 19.8588 8.12547 19H15.8735C15.6517 19.8588 15.1508 20.6195 14.4496 21.1626C13.7483 21.7056 12.8864 22.0002 11.9995 22Z" fill="#596059"/>
</svg>
