<svg width="47" height="47" viewBox="0 0 47 47" fill="none" xmlns="http://www.w3.org/2000/svg">
<path d="M3.24892 37.0019C2.86552 37.0017 2.48853 36.9036 2.15372 36.7167C1.81892 36.5299 1.5374 36.2606 1.33588 35.9345C1.13436 35.6083 1.01953 35.2361 1.00228 34.853C0.985028 34.47 1.06593 34.089 1.23731 33.746L5.49904 25.218V19.001C5.49904 14.2268 7.39556 9.6482 10.7714 6.27236C14.1472 2.89652 18.7258 1 23.5 1C28.2742 1 32.8528 2.89652 36.2286 6.27236C39.6044 9.6482 41.501 14.2268 41.501 19.001V25.2203L45.7627 33.746C45.9341 34.089 46.015 34.47 45.9977 34.853C45.9805 35.2361 45.8656 35.6083 45.6641 35.9345C45.4626 36.2606 45.1811 36.5299 44.8463 36.7167C44.5115 36.9036 44.1345 37.0017 43.7511 37.0019H3.24892ZM23.5 46.0024C21.5042 46.0029 19.5649 45.3401 17.987 44.1181C16.409 42.8962 15.282 41.1844 14.783 39.252H32.217C31.718 41.1844 30.591 42.8962 29.013 44.1181C27.4351 45.3401 25.4958 46.0029 23.5 46.0024Z" fill="white"/>
</svg>
