<svg width="24" height="24" viewBox="0 0 24 24" fill="none" xmlns="http://www.w3.org/2000/svg">
<path d="M22.2069 9.41008V14.5401C22.2169 14.9221 22.1199 15.3001 21.9269 15.6301C21.7166 15.961 21.419 16.2275 21.0669 16.4001C20.7874 16.5394 20.4792 16.6113 20.1669 16.6101H19.9169C19.5512 16.5585 19.2059 16.4101 18.9169 16.1801L16.3869 14.1801V15.0901C16.3869 16.2411 15.9297 17.345 15.1158 18.1589C14.3019 18.9728 13.198 19.4301 12.0469 19.4301H6.13692C4.98629 19.4274 3.88315 18.9711 3.06692 18.1601C2.6622 17.7582 2.34148 17.2797 2.12345 16.7527C1.90541 16.2256 1.79441 15.6605 1.79692 15.0901V8.92008C1.79586 8.35035 1.90803 7.78608 2.12692 7.26008C2.56894 6.19466 3.41339 5.34662 4.47692 4.90008C5.00292 4.68119 5.56719 4.56902 6.13692 4.57008H11.9269C12.4998 4.57032 13.067 4.68241 13.5969 4.90008C14.6604 5.34662 15.5049 6.19466 15.9469 7.26008C16.1669 7.78908 16.2769 8.35708 16.2669 8.93008V9.83008L18.7969 7.83008C19.0271 7.64918 19.2928 7.51868 19.5767 7.44702C19.8606 7.37537 20.1564 7.36417 20.4449 7.41413C20.7334 7.4641 21.0081 7.57413 21.2514 7.73709C21.4946 7.90004 21.7009 8.11229 21.8569 8.36008C22.0639 8.67308 22.1849 9.03508 22.2069 9.41008Z" fill="#596059"/>
</svg>
