<svg width="59" height="59" viewBox="0 0 59 59" fill="none" xmlns="http://www.w3.org/2000/svg">
<path d="M55.4528 19.7651V55.4603H19.7615V19.7651H55.4528ZM25 25V50H50V25H25ZM39.2295 3.21556V16.5202H34V8H9V33.5H16.5169V39.2352H3.53813V3.21556H39.2295Z" fill="#E6ECE5"/>
<path d="M30.6786 23.6001C30.6786 27.5103 27.5091 30.6802 23.5993 30.6802C19.6895 30.6802 16.5201 27.5103 16.5201 23.6001C16.5201 19.6899 19.6895 16.5201 23.5993 16.5201C27.5091 16.5201 30.6786 19.6899 30.6786 23.6001Z" fill="#E6ECE5"/>
<path d="M59 23.6001C59 27.5103 55.8305 30.6802 51.9207 30.6802C48.011 30.6802 44.8415 27.5103 44.8415 23.6001C44.8415 19.6899 48.011 16.5201 51.9207 16.5201C55.8305 16.5201 59 19.6899 59 23.6001Z" fill="#E6ECE5"/>
<path d="M59 51.92C59 55.8302 55.8305 59 51.9207 59C48.011 59 44.8415 55.8302 44.8415 51.92C44.8415 48.0098 48.011 44.8399 51.9207 44.8399C55.8305 44.8399 59 48.0098 59 51.92Z" fill="#E6ECE5"/>
<path d="M30.6786 51.92C30.6786 55.8302 27.5091 59 23.5993 59C19.6895 59 16.5201 55.8302 16.5201 51.92C16.5201 48.0098 19.6895 44.8399 23.5993 44.8399C27.5091 44.8399 30.6786 48.0098 30.6786 51.92Z" fill="#E6ECE5"/>
<path d="M14.1585 35.3999C14.1585 39.3101 10.989 42.4799 7.07927 42.4799C3.1695 42.4799 0 39.3101 0 35.3999C0 31.4897 3.1695 28.3198 7.07927 28.3198C10.989 28.3198 14.1585 31.4897 14.1585 35.3999Z" fill="#E6ECE5"/>
<path d="M14.1585 7.08003C14.1585 10.9902 10.989 14.1601 7.07927 14.1601C3.1695 14.1601 0 10.9902 0 7.08003C0 3.16984 3.1695 0 7.07927 0C10.989 0 14.1585 3.16984 14.1585 7.08003Z" fill="#E6ECE5"/>
<path d="M42.4799 7.08003C42.4799 10.9902 39.3104 14.1601 35.4007 14.1601C31.4909 14.1601 28.3214 10.9902 28.3214 7.08003C28.3214 3.16984 31.4909 0 35.4007 0C39.3104 0 42.4799 3.16984 42.4799 7.08003Z" fill="#E6ECE5"/>
</svg>
