<svg width="24" height="24" viewBox="0 0 24 24" fill="none" xmlns="http://www.w3.org/2000/svg">
<path d="M10.4172 21.174V13.4948H20.5703C21.1917 13.4948 21.7877 13.7416 22.2272 14.1809C22.6667 14.6202 22.9138 15.2161 22.9141 15.8375V16.7958C22.9141 17.3917 22.7266 17.9729 22.3818 18.4583C20.7755 20.7125 18.1464 21.8281 14.5839 21.8281C13.0109 21.8281 11.6182 21.6115 10.4172 21.174ZM14.5839 1C13.8999 1 13.2226 1.13472 12.5907 1.39646C11.9588 1.6582 11.3846 2.04185 10.901 2.52549C10.4174 3.00912 10.0337 3.58329 9.77198 4.21519C9.51024 4.84709 9.37552 5.52437 9.37552 6.20833C9.37552 6.8923 9.51024 7.56957 9.77198 8.20148C10.0337 8.83338 10.4174 9.40754 10.901 9.89118C11.3846 10.3748 11.9588 10.7585 12.5907 11.0202C13.2226 11.2819 13.8999 11.4167 14.5839 11.4167C15.9652 11.4167 17.2899 10.8679 18.2667 9.89118C19.2435 8.91443 19.7922 7.58967 19.7922 6.20833C19.7922 4.827 19.2435 3.50224 18.2667 2.52549C17.2899 1.54873 15.9652 1 14.5839 1ZM2.8599 9.32812C1.85365 9.32812 1.03698 10.1448 1.03698 11.151V21.0469C1.03698 21.5303 1.22903 21.994 1.5709 22.3359C1.91276 22.6777 2.37643 22.8698 2.8599 22.8698H7.5526C8.03607 22.8698 8.49974 22.6777 8.8416 22.3359C9.18346 21.994 9.37552 21.5303 9.37552 21.0469V11.151C9.37552 10.1448 8.55885 9.32812 7.5526 9.32812H2.8599ZM4.94531 18.7H5.46614L5.5724 18.7073C5.76849 18.7343 5.94703 18.8347 6.07194 18.9882C6.19686 19.1418 6.25883 19.337 6.24534 19.5345C6.23185 19.732 6.1439 19.917 5.99926 20.0521C5.85462 20.1872 5.66409 20.2624 5.46614 20.2625H4.94531L4.8401 20.2552C4.6441 20.2282 4.46562 20.1279 4.34071 19.9745C4.2158 19.821 4.15376 19.6259 4.16712 19.4285C4.18047 19.2311 4.26823 19.0461 4.41266 18.9109C4.5571 18.7757 4.74746 18.7003 4.94531 18.7Z" fill="#596059"/>
</svg>
