<svg width="24" height="24" viewBox="0 0 24 24" fill="none" xmlns="http://www.w3.org/2000/svg">
<path d="M11.8941 2.54102C10.5462 2.54102 9.25348 3.07648 8.30035 4.0296C7.34722 4.98273 6.81176 6.27545 6.81176 7.62337C6.81176 8.97129 7.34722 10.264 8.30035 11.2171C9.25348 12.1703 10.5462 12.7057 11.8941 12.7057C13.242 12.7057 14.5348 12.1703 15.4879 11.2171C16.441 10.264 16.9765 8.97129 16.9765 7.62337C16.9765 6.27545 16.441 4.98273 15.4879 4.0296C14.5348 3.07648 13.242 2.54102 11.8941 2.54102ZM5.55261 13.9763C5.21794 13.9748 4.88626 14.0394 4.57663 14.1665C4.267 14.2935 3.98551 14.4804 3.74833 14.7165C3.51115 14.9527 3.32294 15.2333 3.19452 15.5424C3.0661 15.8514 3 16.1828 3 16.5175C3 18.6661 4.0584 20.2861 5.71271 21.3419C7.3416 22.38 9.53718 22.8704 11.8941 22.8704C14.2511 22.8704 16.4466 22.38 18.0755 21.3419C19.7298 20.2873 20.7882 18.6648 20.7882 16.5175C20.7882 15.8435 20.5205 15.1972 20.0439 14.7206C19.5674 14.244 18.921 13.9763 18.2471 13.9763H5.55261Z" fill="#596059"/>
</svg>
