<svg width="59" height="59" viewBox="0 0 59 59" fill="none" xmlns="http://www.w3.org/2000/svg">
<path d="M29.5 11.7368C26.3506 11.7368 23.3301 12.9845 21.1031 15.2053C18.8761 17.4261 17.625 20.4382 17.625 23.5789V28.3158H15.25C13.3975 28.3158 10.9631 29.0311 9.0275 30.5989C7.17025 32.1053 5.75 34.4074 5.75 37.7895C5.75 41.1384 7.21063 43.4453 9.1225 44.9705C11.108 46.5574 13.5543 47.2632 15.25 47.2632C17.5609 47.2632 20.5676 47.2276 22.9996 46.0292C24.1515 45.4608 25.1371 44.6437 25.8567 43.4311C26.5835 42.2066 27.125 40.4232 27.125 37.7895V35.2174L23.5625 38.77L20.2043 35.4211L29.5 26.1511L38.7957 35.4211L35.4375 38.77L31.875 35.2174V37.7895C31.875 41.0745 31.1957 43.7342 29.9465 45.8421C28.8033 47.7625 27.1181 49.3046 25.1015 50.2758C21.6007 52 17.5751 52 15.383 52H15.25C12.476 52 8.98475 50.9295 6.15375 48.6676C3.23963 46.3466 1 42.73 1 37.7895C1 32.8821 3.14462 29.2632 6.035 26.9208C8.0194 25.3295 10.3703 24.2566 12.875 23.7992V23.5789C12.875 19.1819 14.6266 14.965 17.7444 11.8559C20.8621 8.74671 25.0908 7 29.5 7C33.9092 7 38.1379 8.74671 41.2556 11.8559C44.3734 14.965 46.125 19.1819 46.125 23.5789V23.7992C48.6297 24.2566 50.9806 25.3295 52.965 26.9208C55.8601 29.2655 58 32.8821 58 37.7895C58 42.7063 55.8459 46.3489 52.7631 48.7008C49.7564 50.9934 45.9587 52 42.5625 52H33.0625V47.2632H42.5625C45.1038 47.2632 47.8374 46.4934 49.8775 44.9374C51.8416 43.4405 53.25 41.1621 53.25 37.7895C53.25 34.4074 51.8298 32.1053 49.9725 30.5989C48.0345 29.0311 45.6025 28.3158 43.75 28.3158H41.375V23.5789C41.375 20.4382 40.1239 17.4261 37.8969 15.2053C35.6699 12.9845 32.6494 11.7368 29.5 11.7368Z" fill="white"/>
</svg>
