<svg width="22" height="22" viewBox="0 0 22 22" fill="none" xmlns="http://www.w3.org/2000/svg">
<path d="M21.9368 10.1963C21.9047 10.1222 21.1283 8.36063 19.4022 6.59531C17.1023 4.24313 14.1973 3 11 3C7.80266 3 4.89775 4.24313 2.59783 6.59531C0.871742 8.36063 0.091658 10.125 0.0632413 10.1963C0.021545 10.2922 0 10.396 0 10.5009C0 10.6059 0.021545 10.7097 0.0632413 10.8056C0.0953246 10.8797 0.871742 12.6403 2.59783 14.4056C4.89775 16.7569 7.80266 18 11 18C14.1973 18 17.1023 16.7569 19.4022 14.4056C21.1283 12.6403 21.9047 10.8797 21.9368 10.8056C21.9785 10.7097 22 10.6059 22 10.5009C22 10.396 21.9785 10.2922 21.9368 10.1963ZM11 14.25C10.2748 14.25 9.56589 14.0301 8.96291 13.618C8.35993 13.206 7.88996 12.6203 7.61244 11.9351C7.33492 11.2498 7.26231 10.4958 7.40378 9.76841C7.54526 9.04098 7.89448 8.3728 8.40727 7.84835C8.92007 7.3239 9.5734 6.96675 10.2847 6.82206C10.9959 6.67736 11.7332 6.75162 12.4032 7.03545C13.0732 7.31928 13.6458 7.79993 14.0487 8.41661C14.4516 9.0333 14.6667 9.75832 14.6667 10.5C14.6667 11.4946 14.2804 12.4484 13.5927 13.1517C12.9051 13.8549 11.9725 14.25 11 14.25Z" fill="white"/>
</svg>
