<svg width="47" height="47" viewBox="0 0 47 47" fill="none" xmlns="http://www.w3.org/2000/svg">
<path d="M5.49194 14.0356C4.11575 14.035 3.00034 15.1508 3 16.5232L3.0017 26.9385C3.00156 27.2653 3.06595 27.5889 3.19118 27.8908C3.31642 28.1928 3.50003 28.4671 3.73155 28.6982C3.96306 28.9293 4.23794 29.1125 4.54046 29.2376C4.84298 29.3626 5.16722 29.4269 5.49466 29.4268C5.82207 29.4272 6.14634 29.363 6.44889 29.2381C6.75143 29.1132 7.02631 28.9299 7.25776 28.6988C7.48922 28.4677 7.67271 28.1933 7.79772 27.8913C7.92272 27.5893 7.98679 27.2656 7.98626 26.9389V16.5219C7.98554 15.8622 7.72242 15.2298 7.25471 14.7636C6.787 14.2974 6.15297 14.0356 5.49194 14.0356ZM24.6027 4.68235L26.3422 1.51228C26.3865 1.43186 26.397 1.33719 26.3715 1.24902C26.346 1.16085 26.2865 1.08638 26.206 1.04194C26.1254 0.998244 26.0308 0.988225 25.9428 1.01408C25.8549 1.03993 25.7807 1.09955 25.7368 1.17986L23.9796 4.38313C22.5012 3.72641 20.8466 3.35841 19.0959 3.3601C17.3499 3.35841 15.696 3.7254 14.2237 4.37838L12.4645 1.18324C12.443 1.14336 12.4139 1.10813 12.3786 1.07958C12.3434 1.05104 12.3029 1.02975 12.2594 1.01696C12.2158 1.00416 12.1702 1.00011 12.1251 1.00504C12.08 1.00997 12.0363 1.02378 11.9966 1.04567C11.9565 1.06705 11.9211 1.09621 11.8924 1.13142C11.8638 1.16663 11.8424 1.20719 11.8297 1.25074C11.8169 1.29428 11.8129 1.33993 11.8181 1.38501C11.8232 1.4301 11.8372 1.47371 11.8594 1.5133L13.5996 4.68133C10.9536 6.69184 9.14069 9.7924 9.14273 13.6402H29.3839C29.3849 9.79376 28.0172 6.44647 24.6027 4.68235ZM13.9898 9.58129C13.7401 9.58115 13.5007 9.48204 13.3243 9.30576C13.1478 9.12947 13.0487 8.89045 13.0489 8.64128C13.049 8.39211 13.1483 8.1532 13.325 7.97711C13.5016 7.80101 13.7411 7.70216 13.9908 7.70229C14.2405 7.70274 14.4798 7.80191 14.6564 7.97809C14.833 8.15427 14.9325 8.3931 14.933 8.6423C14.9327 8.89164 14.8331 9.13062 14.6562 9.30671C14.4793 9.48279 14.2396 9.58156 13.9898 9.58129ZM24.2125 9.57926C24.0889 9.57934 23.9665 9.55512 23.8523 9.50797C23.7381 9.46081 23.6343 9.39166 23.5469 9.30445C23.4595 9.21724 23.3902 9.1137 23.3429 8.99973C23.2956 8.88577 23.2713 8.76362 23.2713 8.64027C23.2726 8.3913 23.3722 8.15289 23.5485 7.97669C23.7247 7.80049 23.9634 7.70068 24.2129 7.6989C24.4621 7.70095 24.7005 7.80095 24.8764 7.97723C25.0523 8.15351 25.1514 8.39185 25.1524 8.6406C25.1525 8.76385 25.1283 8.88591 25.0811 8.99981C25.034 9.11371 24.9648 9.21721 24.8775 9.30439C24.7902 9.39157 24.6865 9.46072 24.5724 9.50788C24.4583 9.55505 24.336 9.5793 24.2125 9.57926ZM9.14273 14.5056L9.14646 30.6474C9.14597 30.996 9.21442 31.3414 9.3479 31.6636C9.48137 31.9858 9.67724 32.2785 9.92429 32.525C10.1713 32.7715 10.4647 32.967 10.7876 33.1001C11.1104 33.2333 11.4564 33.3016 11.8058 33.301L12.4377 33.3017L12.4397 38.813C12.4394 40.1854 13.5572 41.3009 14.9303 41.3009C16.3075 41.3009 17.4233 40.1844 17.4236 38.8113L17.4223 33.3014L20.7868 33.3003L20.7882 38.8113C20.7882 40.1827 21.9063 41.3006 23.2798 41.2979C23.7377 41.2982 24.1668 41.175 24.5356 40.9599C21.8192 34.7045 23.6732 28.3828 29.3861 26.1679L29.3839 14.5056H9.14273ZM35.204 16.5195C35.204 16.1929 35.1394 15.8695 35.0142 15.5677C34.8889 15.266 34.7052 14.9918 34.4738 14.7609C34.2423 14.5299 33.9676 14.3467 33.6652 14.2218C33.3628 14.0968 33.0387 14.0325 32.7114 14.0326C31.3352 14.0312 30.2201 15.1464 30.2201 16.5205L30.222 25.9484C31.4487 25.5862 32.5225 25.3575 35.204 25.3575V16.5195Z" fill="#CDD1D5"/>
<path d="M34.2664 26.572C28.8588 26.572 24.5327 30.8893 24.5327 36.286C24.5327 40.6033 28.3072 46 34.2664 46C40.7555 46 44 41.143 44 36.286C44 30.8893 40.2255 26.572 34.2664 26.572ZM33.1848 36.286V31.429H35.3479V36.286H39.1332L34.2664 41.143L29.3995 36.286H33.1848Z" fill="#22BB77"/>
</svg>
