<svg width="50" height="50" viewBox="0 0 50 50" fill="none" xmlns="http://www.w3.org/2000/svg">
<path d="M34.3037 26.7144C25.886 26.0635 20.4273 34.943 23.6923 42.5022C22.1876 42.3632 20.6774 42.6229 19.0395 43.3121C15.6112 44.8001 13.8018 44.3681 11.7543 42.4721C0.136211 30.4001 1.85036 12.016 15.0398 11.344C18.2538 11.512 20.4917 13.12 22.3725 13.264C25.1818 12.688 27.8721 11.032 30.8718 11.248C34.4668 11.536 37.1809 12.976 38.9664 15.568C34.5917 18.2113 33.1495 22.8912 34.3037 26.7144ZM22.1344 11.2C21.7773 5.84802 26.0865 1.432 31.0385 1C31.7289 7.19202 25.4675 11.8 22.1344 11.2Z" fill="#22BB77"/>
<path d="M34.7646 28.3601C29.0772 28.3601 24.5273 32.9468 24.5273 38.6801C24.5273 43.2667 28.4971 49 34.7646 49C41.5894 49 45.0018 43.8401 45.0018 38.6801C45.0018 32.9468 41.032 28.3601 34.7646 28.3601ZM33.6271 38.6801V33.5201H35.902V38.6801H39.8832L34.7646 43.8401L29.6459 38.6801H33.6271Z" fill="#22BB77"/>
</svg>
