<svg width="47" height="47" viewBox="0 0 47 47" fill="none" xmlns="http://www.w3.org/2000/svg">
<path fill-rule="evenodd" clip-rule="evenodd" d="M20.1059 2C30.1057 2 38.2117 10.1058 38.2117 20.1054C38.2117 21.5023 38.0535 22.8623 37.7541 24.1684C35.5897 23.8965 33.7304 23.9885 32.1414 24.3489C31.9582 24.6817 31.7582 25.2188 30.9694 25.4599C30.6097 25.5699 30.2406 25.5383 29.4956 25.5388C29.7749 26.0533 30.1075 26.55 30.196 26.9272C30.6132 28.7046 29.3625 29.547 27.8932 29.0748C27.0777 28.8191 26.8557 28.2329 26.5304 27.6519C23.7648 30.8865 23.4218 35.447 24.2042 37.745C22.8873 38.0497 21.5154 38.2108 20.1059 38.2108C10.106 38.2108 2 30.105 2 20.1054C2 10.1058 10.106 2 20.1059 2ZM21.0111 21.9159H9.78552C9.30532 21.9159 8.84479 22.1067 8.50524 22.4462C8.16569 22.7858 7.97493 23.2463 7.97493 23.7265C7.97493 24.2067 8.16569 24.6672 8.50524 25.0067C8.84479 25.3463 9.30532 25.537 9.78552 25.537H10.7162L10.1965 26.4622C10.0803 26.6698 10.006 26.8982 9.97802 27.1345C9.95004 27.3707 9.96886 27.6102 10.0334 27.8392C10.098 28.0682 10.207 28.2822 10.3543 28.469C10.5016 28.6559 10.6842 28.8119 10.8918 28.9282C11.0994 29.0444 11.3278 29.1187 11.5641 29.1467C11.8003 29.1746 12.0398 29.1558 12.2688 29.0913C12.4978 29.0267 12.7118 28.9177 12.8987 28.7704C13.0855 28.6231 13.2415 28.4405 13.3578 28.2329L14.866 25.537H21.0111C21.4913 25.537 21.9519 25.3463 22.2914 25.0067C22.631 24.6672 22.8217 24.2067 22.8217 23.7265C22.8217 23.2463 22.631 22.7858 22.2914 22.4462C21.9519 22.1067 21.4913 21.9159 21.0111 21.9159ZM24.4386 16.506C24.2149 16.0993 23.8435 15.794 23.4012 15.6532C22.9588 15.5125 22.4793 15.547 22.0617 15.7496C21.644 15.9523 21.3202 16.3076 21.157 16.7422C20.9939 17.1768 21.0039 17.6574 21.185 18.0848L21.2791 18.2749L26.5304 27.6519L26.8557 28.2329C27.0816 28.6355 27.4527 28.9367 27.8932 29.0748C28.3337 29.2129 28.8103 29.1775 29.2256 28.9759C29.6409 28.7743 29.9635 28.4216 30.1274 27.99C30.2914 27.5585 30.2842 27.0806 30.1075 26.6541L30.0134 26.4622L29.4956 25.5388H30.4262C30.8905 25.5425 31.3385 25.3677 31.6775 25.0505C31.8869 24.8546 32.0448 24.6136 32.1414 24.3489C32.2013 24.1849 32.2376 24.0117 32.248 23.8344C32.2752 23.3709 32.1233 22.9147 31.8236 22.56C31.524 22.2053 31.0996 21.9793 30.638 21.9286L30.4262 21.9159H27.4677L24.4386 16.506ZM19.8759 8.35862C19.6522 7.95187 19.2808 7.64658 18.8385 7.50581C18.3961 7.36505 17.9166 7.39955 17.499 7.60221C17.0813 7.80486 16.7575 8.16018 16.5943 8.59476C16.4312 9.02934 16.4412 9.50999 16.6223 9.93741L16.7146 10.1275L18.0309 12.4758L14.7592 18.3166C14.5315 18.7199 14.4671 19.1951 14.5791 19.6444C14.6911 20.0938 14.971 20.4831 15.3613 20.7324C15.7516 20.9817 16.2226 21.072 16.6774 20.9846C17.1322 20.8973 17.5362 20.639 17.8064 20.2629L17.9205 20.0855L23.4971 10.1275C23.7278 9.7241 23.7945 9.24742 23.6835 8.79616C23.5725 8.34489 23.2922 7.9536 22.9006 7.70327C22.5091 7.45295 22.0363 7.36276 21.5801 7.45139C21.1239 7.54001 20.7192 7.80066 20.4499 8.17937L20.3376 8.35681L20.1059 8.77142L19.8759 8.35862Z" fill="#CDD1D5"/>
<path d="M35.267 25.5369C29.8604 25.5369 25.5352 29.862 25.5352 35.2685C25.5352 39.5936 29.3089 45 35.267 45C41.7549 45 44.9988 40.1342 44.9988 35.2685C44.9988 29.862 41.225 25.5369 35.267 25.5369ZM34.1857 35.2685V30.4027H36.3483V35.2685H40.1329L35.267 40.1342L30.4011 35.2685H34.1857Z" fill="#22BB77"/>
</svg>
