<svg width="80" height="80" viewBox="0 0 80 80" fill="none" xmlns="http://www.w3.org/2000/svg">
<path d="M72 72L56.5584 56.5584M56.5584 56.5584C59.1997 53.9171 61.295 50.7813 62.7245 47.3302C64.154 43.8791 64.8897 40.1803 64.8897 36.4449C64.8897 32.7094 64.154 29.0106 62.7245 25.5595C61.295 22.1084 59.1997 18.9727 56.5584 16.3313C53.9171 13.69 50.7813 11.5947 47.3302 10.1652C43.8791 8.73575 40.1803 8 36.4449 8C32.7094 8 29.0106 8.73575 25.5595 10.1652C22.1084 11.5947 18.9727 13.69 16.3313 16.3313C10.9969 21.6657 8 28.9008 8 36.4449C8 43.9889 10.9969 51.224 16.3313 56.5584C21.6657 61.8928 28.9008 64.8897 36.4449 64.8897C43.9889 64.8897 51.224 61.8928 56.5584 56.5584ZM27 23.5H46M25.5595 35.4449H46M25.5595 47.3302H46" stroke="#AEE6CD" stroke-width="7" stroke-linecap="round" stroke-linejoin="round"/>
</svg>
