<svg width="35" height="35" viewBox="0 0 35 35" fill="none" xmlns="http://www.w3.org/2000/svg">
<path d="M29 30L23.2094 24.2094M23.2094 24.2094C24.1999 23.2189 24.9856 22.043 25.5217 20.7488C26.0577 19.4547 26.3336 18.0676 26.3336 16.6668C26.3336 15.266 26.0577 13.879 25.5217 12.5848C24.9856 11.2906 24.1999 10.1147 23.2094 9.12424C22.2189 8.13373 21.043 7.34802 19.7488 6.81196C18.4547 6.27591 17.0676 6 15.6668 6C14.266 6 12.879 6.27591 11.5848 6.81196C10.2906 7.34802 9.11474 8.13373 8.12424 9.12424C6.12382 11.1247 5 13.8378 5 16.6668C5 19.4958 6.12382 22.209 8.12424 24.2094C10.1247 26.2098 12.8378 27.3336 15.6668 27.3336C18.4958 27.3336 21.209 26.2098 23.2094 24.2094ZM12.125 11.8125H19.25M11.5848 16.2918H19.25M11.5848 20.7488H19.25" stroke="white" stroke-width="2.625" stroke-linecap="round" stroke-linejoin="round"/>
</svg>
