<svg width="20" height="20" viewBox="0 0 20 20" fill="none" xmlns="http://www.w3.org/2000/svg">
<g opacity="0.49">
<path d="M11.8 3H8.2C4.80618 3 3.10845 3 2.05464 4.02511C1.00082 5.05022 1 6.70067 1 10C1 13.2993 1 14.9498 2.05464 15.9749C3.10927 17 4.80618 17 8.2 17H11.8C15.1938 17 16.8915 17 17.9454 15.9749C18.9992 14.9498 19 13.2993 19 10C19 6.70067 19 5.05022 17.9454 4.02511C16.8907 3 15.1938 3 11.8 3Z" fill="#4DC56B"/>
<path d="M15.8346 6.91459C15.9722 6.80568 16.0586 6.64927 16.0749 6.47978C16.0911 6.31029 16.0359 6.1416 15.9213 6.01081C15.8068 5.88003 15.6422 5.79787 15.4639 5.78241C15.2856 5.76695 15.1082 5.81945 14.9706 5.92837L13.0274 7.46837C12.188 8.13337 11.6054 8.59381 11.1129 8.89404C10.6367 9.1857 10.3135 9.28293 10.0026 9.28293C9.69171 9.28293 9.36934 9.1857 8.89234 8.89404C8.40062 8.59381 7.81725 8.13337 6.9778 7.46759L5.03462 5.92837C4.89704 5.81945 4.71959 5.76695 4.54129 5.78241C4.36299 5.79787 4.19846 5.88003 4.08389 6.01081C3.96931 6.1416 3.91409 6.31029 3.93035 6.47978C3.94661 6.64927 4.03304 6.80568 4.17062 6.91459L6.14734 8.48104C6.94507 9.11259 7.59143 9.62437 8.16253 9.97437C8.75653 10.3368 9.3358 10.567 10.0034 10.567C10.6694 10.567 11.2487 10.3368 11.8435 9.97359C12.4138 9.62515 13.0602 9.11259 13.8579 8.48026L15.8346 6.91459Z" fill="white"/>
</g>
</svg>
