<svg width="20" height="20" viewBox="0 0 20 20" fill="none" xmlns="http://www.w3.org/2000/svg">
<path d="M7.90417 14C7.65972 14 7.45417 13.9187 7.2875 13.7561C7.12083 13.5936 7.03778 13.3924 7.03833 13.1526C7.03889 12.9128 7.12222 12.7119 7.28833 12.5499C7.45444 12.3879 7.65972 12.3066 7.90417 12.306H17.135C17.3794 12.306 17.5847 12.3873 17.7508 12.5499C17.9169 12.713 18 12.9142 18 13.1534C18 13.3927 17.9169 13.5936 17.7508 13.7561C17.5847 13.9187 17.3792 14 17.1342 14H7.90417ZM7.90417 9.4507C7.65972 9.4507 7.45417 9.36941 7.2875 9.20684C7.12083 9.04427 7.03778 8.84337 7.03833 8.60413C7.03889 8.36489 7.12222 8.16372 7.28833 8.0006C7.45444 7.83748 7.65972 7.75647 7.90417 7.75756H17.135C17.3794 7.75756 17.5847 7.83884 17.7508 8.00142C17.9169 8.16399 18 8.36489 18 8.60413C18 8.84337 17.9169 9.04454 17.7508 9.20766C17.5847 9.37077 17.3792 9.45179 17.1342 9.4507H7.90417ZM7.90417 4.69396C7.65972 4.69396 7.45417 4.61267 7.2875 4.4501C7.12139 4.28698 7.03833 4.08581 7.03833 3.84657C7.03833 3.60733 7.12167 3.40643 7.28833 3.24386C7.455 3.08129 7.66 3 7.90333 3H17.1342C17.3786 3 17.5839 3.08129 17.75 3.24386C17.9161 3.40643 17.9992 3.60761 17.9992 3.84739C17.9992 4.08717 17.9161 4.28807 17.75 4.4501C17.5839 4.61213 17.3783 4.69341 17.1333 4.69396H7.90417ZM3.86583 4.69396C3.62083 4.69396 3.41528 4.61267 3.24917 4.4501C3.08306 4.28698 3 4.08581 3 3.84657C3 3.60733 3.08306 3.40643 3.24917 3.24386C3.41528 3.08129 3.62083 3 3.86583 3C4.11028 3 4.31556 3.08129 4.48167 3.24386C4.64778 3.40643 4.73083 3.60761 4.73083 3.84739C4.73083 4.08717 4.64778 4.28807 4.48167 4.4501C4.315 4.61267 4.11028 4.69396 3.86583 4.69396ZM3.865 9.45152C3.62056 9.45152 3.41528 9.36996 3.24917 9.20684C3.08306 9.04373 3 8.84282 3 8.60413C3 8.36544 3.08306 8.16426 3.24917 8.0006C3.41528 7.83694 3.62083 7.75593 3.86583 7.75756C4.11083 7.75919 4.31611 7.84047 4.48167 8.00142C4.64722 8.16236 4.73028 8.36326 4.73083 8.60413C4.73139 8.845 4.64833 9.04617 4.48167 9.20766C4.315 9.36969 4.10944 9.45152 3.865 9.45152ZM3.865 14C3.62056 14 3.41528 13.9187 3.24917 13.7561C3.08306 13.5936 3 13.3924 3 13.1526C3 12.9128 3.08306 12.7119 3.24917 12.5499C3.41528 12.3879 3.62083 12.3066 3.86583 12.306C4.11083 12.3055 4.31611 12.3868 4.48167 12.5499C4.64778 12.713 4.73083 12.9142 4.73083 13.1534C4.73083 13.3927 4.64778 13.5936 4.48167 13.7561C4.31556 13.9187 4.11 14 3.865 14Z" fill="#C7CBCF"/>
</svg>
