<svg width="22" height="22" viewBox="0 0 22 22" fill="none" xmlns="http://www.w3.org/2000/svg">
<path d="M11 10.5C10.337 10.5 9.70107 10.2366 9.23223 9.76777C8.76339 9.29893 8.5 8.66304 8.5 8C8.5 7.33696 8.76339 6.70107 9.23223 6.23223C9.70107 5.76339 10.337 5.5 11 5.5C11.663 5.5 12.2989 5.76339 12.7678 6.23223C13.2366 6.70107 13.5 7.33696 13.5 8C13.5 8.3283 13.4353 8.65339 13.3097 8.95671C13.1841 9.26002 12.9999 9.53562 12.7678 9.76777C12.5356 9.99991 12.26 10.1841 11.9567 10.3097C11.6534 10.4353 11.3283 10.5 11 10.5ZM11 1C9.14348 1 7.36301 1.7375 6.05025 3.05025C4.7375 4.36301 4 6.14348 4 8C4 13.25 11 21 11 21C11 21 18 13.25 18 8C18 6.14348 17.2625 4.36301 15.9497 3.05025C14.637 1.7375 12.8565 1 11 1Z" fill="#E1F283"/>
</svg>
