<svg width="205" height="56" viewBox="0 0 205 56" fill="none" xmlns="http://www.w3.org/2000/svg">
<path d="M76.7305 31.898C76.7305 31.0416 76.3451 30.3565 75.5743 29.8426C74.7821 29.3502 73.4226 28.8578 71.4957 28.3653C69.5473 27.8729 68.2092 27.4875 67.4812 27.2092C64.3981 26.0744 62.8566 24.2117 62.8566 21.621C62.8566 20.1865 63.3597 18.9769 64.366 17.992C65.3937 16.9857 66.6569 16.2363 68.1556 15.7439C69.2476 15.4227 70.4144 15.2621 71.6562 15.2621C75.3174 15.2621 78.2185 16.3327 80.3596 18.4737L78.2399 21.2357C76.3772 19.6727 74.1505 18.8912 71.5599 18.8912C71.0889 18.8912 70.6071 18.934 70.1147 19.0197C69.6437 19.0839 69.1405 19.2017 68.6052 19.3729C68.0914 19.5442 67.6739 19.8226 67.3527 20.208C67.0316 20.5719 66.871 21.0108 66.871 21.5247C66.871 22.3811 67.4063 23.0662 68.4768 23.5801C69.012 23.8798 70.2538 24.2759 72.2022 24.7684C74.1505 25.2608 75.478 25.6462 76.1845 25.9245C77.6404 26.5026 78.7645 27.2413 79.5567 28.1405C80.3489 29.0183 80.7449 30.1745 80.7449 31.609C80.7449 33.0221 80.2846 34.2532 79.364 35.3023C78.4647 36.3514 77.3728 37.1115 76.0882 37.5825C74.8036 38.0321 73.4761 38.2569 72.1058 38.2569C70.3502 38.2569 68.5196 37.8929 66.6141 37.165C64.73 36.4156 63.2634 35.4093 62.2142 34.1461L64.5266 31.4163C65.5329 32.4654 66.7318 33.2683 68.1235 33.825C69.5152 34.3602 70.9604 34.6279 72.4591 34.6279C73.5296 34.6279 74.5038 34.4138 75.3816 33.9855C76.2809 33.5573 76.7305 32.8615 76.7305 31.898ZM99.4638 15.5191H104.121L95.0319 28.269V38H91.1459V28.269L82.1214 15.5191H86.9387L93.1371 24.4793L99.4638 15.5191ZM119.822 31.898C119.822 31.0416 119.436 30.3565 118.666 29.8426C117.874 29.3502 116.514 28.8578 114.587 28.3653C112.639 27.8729 111.301 27.4875 110.573 27.2092C107.489 26.0744 105.948 24.2117 105.948 21.621C105.948 20.1865 106.451 18.9769 107.457 17.992C108.485 16.9857 109.748 16.2363 111.247 15.7439C112.339 15.4227 113.506 15.2621 114.748 15.2621C118.409 15.2621 121.31 16.3327 123.451 18.4737L121.331 21.2357C119.469 19.6727 117.242 18.8912 114.651 18.8912C114.18 18.8912 113.698 18.934 113.206 19.0197C112.735 19.0839 112.232 19.2017 111.697 19.3729C111.183 19.5442 110.765 19.8226 110.444 20.208C110.123 20.5719 109.962 21.0108 109.962 21.5247C109.962 22.3811 110.498 23.0662 111.568 23.5801C112.103 23.8798 113.345 24.2759 115.294 24.7684C117.242 25.2608 118.569 25.6462 119.276 25.9245C120.732 26.5026 121.856 27.2413 122.648 28.1405C123.44 29.0183 123.836 30.1745 123.836 31.609C123.836 33.0221 123.376 34.2532 122.455 35.3023C121.556 36.3514 120.464 37.1115 119.18 37.5825C117.895 38.0321 116.567 38.2569 115.197 38.2569C113.442 38.2569 111.611 37.8929 109.705 37.165C107.821 36.4156 106.355 35.4093 105.306 34.1461L107.618 31.4163C108.624 32.4654 109.823 33.2683 111.215 33.825C112.607 34.3602 114.052 34.6279 115.55 34.6279C116.621 34.6279 117.595 34.4138 118.473 33.9855C119.372 33.5573 119.822 32.8615 119.822 31.898ZM133.017 19.1803H125.47V15.5191H144.45V19.1803H136.903V38H133.017V19.1803ZM164.387 38H147.365V15.5191H164.065V19.1803H151.251V24.8326H163.23V28.3653H151.251V34.3388H164.387V38ZM172.593 38H168.707V15.5191H172.143L180.172 25.9566L187.912 15.5191H191.316V38H187.43V22.4239L180.59 31.3521H179.594L172.593 22.3918V38Z" fill="url(#paint0_linear_3103_3427)"/>
<path d="M29.8787 8.11174C30.003 8.01565 30.1142 7.9037 30.2095 7.77874H35.974L36.0527 7.77649C36.4612 7.75419 36.8705 7.75419 37.279 7.77649H37.3645C38.6456 7.77228 39.9113 8.05602 41.068 8.60674C43.1818 9.4366 45.0103 10.8603 46.333 12.7062C47.3349 14.1038 48.0164 15.705 48.3291 17.3959C48.6418 19.0868 48.5779 20.8258 48.142 22.4892L40.7597 15.206C40.4438 14.8944 40.0178 14.7198 39.574 14.72H28.8302C28.4855 14.734 28.1533 14.8534 27.8785 15.062L23.6395 18.275C23.1792 18.6247 22.5989 18.7775 22.0261 18.6999C21.4533 18.6223 20.9346 18.3206 20.584 17.861C20.411 17.637 20.2842 17.3808 20.211 17.1075C20.1378 16.8341 20.1196 16.5488 20.1575 16.2684C20.1953 15.9879 20.2885 15.7177 20.4317 15.4736C20.5748 15.2294 20.765 15.0161 20.9912 14.846L29.8787 8.11174ZM18.7727 33.0282L18.7412 33.0575L16.5497 35.2355L16.5205 35.2625C16.1367 35.6274 15.6259 35.8287 15.0964 35.8236C14.5668 35.8186 14.06 35.6077 13.6832 35.2355C13.4944 35.0492 13.3446 34.8273 13.2422 34.5826C13.1399 34.3379 13.0873 34.0753 13.0873 33.8101C13.0873 33.5449 13.1399 33.2823 13.2422 33.0376C13.3446 32.7929 13.4944 32.571 13.6832 32.3847L15.8747 30.2067C16.2564 29.8287 16.7719 29.6167 17.3091 29.6167C17.8463 29.6167 18.3618 29.8287 18.7435 30.2067C19.1197 30.578 19.334 31.0829 19.3395 31.6115C19.3449 32.14 19.1412 32.6493 18.7727 33.0282ZM18.118 36.8487C17.7495 37.2277 17.5458 37.737 17.5512 38.2655C17.5567 38.7941 17.771 39.299 18.1472 39.6702C18.9392 40.4577 20.224 40.4577 21.016 39.6702L23.2075 37.4922C23.4199 37.2816 23.5826 37.0261 23.6835 36.7445C23.7845 36.4628 23.8212 36.1622 23.791 35.8646C23.7608 35.5669 23.6645 35.2798 23.509 35.0242C23.3535 34.7686 23.1429 34.5509 22.8925 34.3872C22.5081 34.1343 22.0494 34.0189 21.591 34.0597C21.1327 34.1006 20.7016 34.2953 20.368 34.6122L20.3387 34.6437L18.1472 36.8195L18.118 36.8487ZM13.375 26.6652C13.5638 26.8515 13.7136 27.0734 13.816 27.3181C13.9183 27.5628 13.971 27.8254 13.971 28.0906C13.971 28.3558 13.9183 28.6184 13.816 28.8631C13.7136 29.1078 13.5638 29.3297 13.375 29.516L11.1835 31.694C10.8018 32.072 10.2863 32.284 9.7491 32.284C9.21191 32.284 8.69643 32.072 8.31473 31.694C8.12595 31.5077 7.97605 31.2858 7.87374 31.0411C7.77143 30.7964 7.71875 30.5338 7.71875 30.2686C7.71875 30.0034 7.77143 29.7408 7.87374 29.4961C7.97605 29.2514 8.12595 29.0295 8.31473 28.8432L10.5062 26.6652C10.8879 26.2872 11.4034 26.0752 11.9406 26.0752C12.4778 26.0752 12.9933 26.2872 13.375 26.6652ZM27.6692 39.0785C27.858 39.2648 28.0079 39.4867 28.1102 39.7314C28.2125 39.9761 28.2652 40.2386 28.2652 40.5039C28.2652 40.7691 28.2125 41.0317 28.1102 41.2763C28.0079 41.521 27.858 41.743 27.6692 41.9292L25.4777 44.1072C25.096 44.4852 24.5805 44.6973 24.0433 44.6973C23.5062 44.6973 22.9907 44.4852 22.609 44.1072C22.3095 43.8113 22.1109 43.4285 22.0415 43.0133C21.972 42.5981 22.0352 42.1715 22.222 41.7942L22.2242 41.7897C22.3226 41.5922 22.4525 41.4121 22.609 41.2565L24.8005 39.0785C25.1822 38.7005 25.6977 38.4885 26.2348 38.4885C26.772 38.4885 27.2875 38.7005 27.6692 39.0785ZM13.024 11.867C14.518 10.3829 16.3297 9.25752 18.3221 8.57582C20.3146 7.89412 22.4359 7.67388 24.526 7.93174L18.955 12.155C18.3742 12.5936 17.886 13.1429 17.5186 13.7712C17.1513 14.3995 16.9119 15.0943 16.8144 15.8155C16.717 16.5368 16.7633 17.2702 16.9507 17.9735C17.1381 18.6767 17.463 19.3359 17.9065 19.913C18.8007 21.0786 20.1197 21.8433 21.5757 22.0401C23.0316 22.237 24.5063 21.8501 25.678 20.9637L29.467 18.095H38.8832L46.774 25.88L46.855 25.97L49.4425 28.5575C50.0245 29.1477 50.3581 29.9386 50.3744 30.7673C50.3907 31.5961 50.0885 32.3995 49.5301 33.0121C48.9718 33.6247 48.1997 33.9998 47.373 34.0602C46.5463 34.1205 45.7279 33.8615 45.0865 33.3365L44.8705 33.1205L44.7355 33.0035L42.2762 30.5465C42.1724 30.439 42.0483 30.3533 41.9111 30.2944C41.7738 30.2354 41.6262 30.2044 41.4768 30.2031C41.3274 30.2018 41.1793 30.2302 41.041 30.2868C40.9028 30.3434 40.7772 30.4269 40.6715 30.5325C40.5659 30.6382 40.4824 30.7638 40.4258 30.902C40.3692 31.0403 40.3408 31.1884 40.3421 31.3378C40.3434 31.4872 40.3744 31.6348 40.4334 31.7721C40.4923 31.9093 40.578 32.0335 40.6855 32.1372L43.273 34.7247C43.3675 34.8177 43.4635 34.907 43.561 34.9925L43.66 35.0915C43.8766 35.3035 44.0491 35.5564 44.1674 35.8356C44.2857 36.1147 44.3474 36.4146 44.349 36.7177C44.3507 37.0209 44.2922 37.3214 44.1769 37.6018C44.0616 37.8822 43.8919 38.1369 43.6775 38.3513C43.4632 38.5657 43.2084 38.7354 42.928 38.8507C42.6476 38.9659 42.3471 39.0244 42.044 39.0228C41.7408 39.0212 41.441 38.9594 41.1618 38.8411C40.8827 38.7229 40.6298 38.5504 40.4177 38.3337L40.0352 37.9535C39.8766 37.7952 39.6742 37.688 39.4542 37.6455C39.2342 37.603 39.0065 37.6271 38.8003 37.7149C38.5941 37.8026 38.4188 37.95 38.2969 38.138C38.1749 38.326 38.112 38.5462 38.116 38.7702C38.1127 38.9224 38.1403 39.0736 38.1972 39.2148C38.254 39.3559 38.3389 39.4841 38.4467 39.5915L38.9485 40.0932C39.1552 40.2879 39.3208 40.5221 39.4354 40.782C39.55 41.0419 39.6112 41.3221 39.6155 41.6061C39.6198 41.89 39.567 42.172 39.4603 42.4352C39.3536 42.6984 39.1951 42.9375 38.9943 43.1383C38.7935 43.3391 38.5544 43.4976 38.2912 43.6043C38.028 43.711 37.746 43.7638 37.4621 43.7595C37.1781 43.7552 36.8979 43.694 36.638 43.5794C36.3781 43.4648 36.1439 43.2993 35.9492 43.0925H35.947L35.92 43.0632L35.4475 42.5907C35.3435 42.4855 35.2196 42.4019 35.0831 42.3449C34.9466 42.2879 34.8001 42.2585 34.6521 42.2585C34.5041 42.2585 34.3576 42.2879 34.2211 42.3449C34.0846 42.4019 33.9607 42.4855 33.8567 42.5907C33.6458 42.8017 33.5273 43.0878 33.5273 43.3861C33.5273 43.6844 33.6458 43.9705 33.8567 44.1815L34.3472 44.6742C34.5492 44.8737 34.7099 45.111 34.8201 45.3725C34.9304 45.6341 34.9881 45.9148 34.9898 46.1986C34.9916 46.4824 34.9375 46.7638 34.8305 47.0267C34.7235 47.2896 34.5658 47.5289 34.3664 47.7309C34.1669 47.9328 33.9296 48.0935 33.6681 48.2038C33.4065 48.314 33.1258 48.3717 32.842 48.3735C32.5582 48.3753 32.2768 48.3211 32.0139 48.2141C31.7509 48.1071 31.5117 47.9494 31.3097 47.75L28.09 44.69L29.2712 43.5155C29.6691 43.1213 29.985 42.6523 30.2005 42.1353C30.4161 41.6184 30.5271 41.0639 30.5271 40.5039C30.5271 39.9438 30.4161 39.3893 30.2005 38.8724C29.985 38.3555 29.6691 37.8864 29.2712 37.4922C28.8508 37.0734 28.3479 36.7467 27.7943 36.5328C27.2408 36.319 26.6488 36.2228 26.056 36.2502C26.0822 35.6598 25.9844 35.0705 25.769 34.5202C25.5535 33.9699 25.2251 33.4709 24.805 33.0552C24.3849 32.6367 23.8823 32.3101 23.3291 32.0963C22.776 31.8825 22.1844 31.7861 21.592 31.8132C21.6179 31.2232 21.52 30.6343 21.3045 30.0844C21.0891 29.5345 20.7608 29.0358 20.341 28.6205C19.8065 28.0895 19.1419 27.7084 18.4137 27.5153C17.6855 27.3222 16.9193 27.3239 16.192 27.5202C16.0669 26.5944 15.6389 25.736 14.9747 25.079C14.2345 24.3453 13.2534 23.9049 12.2132 23.8396C11.173 23.7742 10.1445 24.0882 9.31823 24.7235C8.7877 22.4424 8.84972 20.0635 9.49836 17.8131C10.147 15.5627 11.3607 13.5158 13.024 11.867Z" fill="url(#paint1_linear_3103_3427)"/>
<defs>
<linearGradient id="paint0_linear_3103_3427" x1="119.5" y1="-20.3171" x2="129.977" y2="71.45" gradientUnits="userSpaceOnUse">
<stop stop-color="#226164"/>
<stop offset="0.600344" stop-color="#4CC989"/>
<stop offset="1" stop-color="#DFFAC7"/>
</linearGradient>
<linearGradient id="paint1_linear_3103_3427" x1="25.5" y1="1" x2="54" y2="102" gradientUnits="userSpaceOnUse">
<stop stop-color="#226164"/>
<stop offset="0.364759" stop-color="#36C27F"/>
<stop offset="1" stop-color="#DFFAC7"/>
</linearGradient>
</defs>
</svg>
