<svg width="436" height="126" viewBox="0 0 436 126" fill="none" xmlns="http://www.w3.org/2000/svg">
<g filter="url(#filter0_d_3102_3345)">
<path d="M160.058 67.7861C160.058 65.9315 159.223 64.4479 157.554 63.3351C155.839 62.2687 152.895 61.2024 148.722 60.136C144.503 59.0696 141.605 58.235 140.029 57.6323C133.352 55.175 130.014 51.1413 130.014 45.5312C130.014 42.4247 131.103 39.8051 133.283 37.6724C135.508 35.4932 138.244 33.8705 141.489 32.8041C143.854 32.1086 146.38 31.7609 149.07 31.7609C156.998 31.7609 163.28 34.0791 167.917 38.7156L163.327 44.6966C159.293 41.312 154.471 39.6197 148.861 39.6197C147.841 39.6197 146.798 39.7124 145.731 39.8979C144.711 40.037 143.622 40.292 142.463 40.6629C141.35 41.0338 140.446 41.6365 139.75 42.4711C139.055 43.2593 138.707 44.2098 138.707 45.3225C138.707 47.1771 139.866 48.6608 142.185 49.7735C143.344 50.4226 146.033 51.2804 150.252 52.3467C154.471 53.4131 157.346 54.2477 158.876 54.8504C162.029 56.1023 164.463 57.7018 166.178 59.6492C167.894 61.5501 168.751 64.0538 168.751 67.1602C168.751 70.2203 167.755 72.8862 165.761 75.1581C163.814 77.4299 161.449 79.0759 158.667 80.0959C155.885 81.0695 153.011 81.5564 150.043 81.5564C146.241 81.5564 142.277 80.7682 138.151 79.1918C134.071 77.569 130.895 75.3899 128.623 72.6544L133.63 66.7429C135.809 69.0148 138.406 70.7534 141.419 71.9589C144.433 73.118 147.563 73.6976 150.808 73.6976C153.127 73.6976 155.236 73.2339 157.137 72.3067C159.084 71.3794 160.058 69.8725 160.058 67.7861ZM209.287 32.3173H219.372L199.69 59.9273V81H191.275V59.9273L171.732 32.3173H182.164L195.587 51.7208L209.287 32.3173ZM253.373 67.7861C253.373 65.9315 252.538 64.4479 250.869 63.3351C249.154 62.2687 246.21 61.2024 242.037 60.136C237.818 59.0696 234.92 58.235 233.343 57.6323C226.667 55.175 223.329 51.1413 223.329 45.5312C223.329 42.4247 224.418 39.8051 226.597 37.6724C228.823 35.4932 231.558 33.8705 234.804 32.8041C237.169 32.1086 239.695 31.7609 242.385 31.7609C250.313 31.7609 256.595 34.0791 261.232 38.7156L256.642 44.6966C252.608 41.312 247.786 39.6197 242.176 39.6197C241.156 39.6197 240.113 39.7124 239.046 39.8979C238.026 40.037 236.937 40.292 235.778 40.6629C234.665 41.0338 233.761 41.6365 233.065 42.4711C232.37 43.2593 232.022 44.2098 232.022 45.3225C232.022 47.1771 233.181 48.6608 235.499 49.7735C236.658 50.4226 239.348 51.2804 243.567 52.3467C247.786 53.4131 250.661 54.2477 252.191 54.8504C255.343 56.1023 257.778 57.7018 259.493 59.6492C261.208 61.5501 262.066 64.0538 262.066 67.1602C262.066 70.2203 261.069 72.8862 259.076 75.1581C257.128 77.4299 254.764 79.0759 251.982 80.0959C249.2 81.0695 246.325 81.5564 243.358 81.5564C239.556 81.5564 235.592 80.7682 231.466 79.1918C227.386 77.569 224.21 75.3899 221.938 72.6544L226.945 66.7429C229.124 69.0148 231.721 70.7534 234.734 71.9589C237.748 73.118 240.878 73.6976 244.123 73.6976C246.441 73.6976 248.551 73.2339 250.452 72.3067C252.399 71.3794 253.373 69.8725 253.373 67.7861ZM281.947 40.2456H265.603V32.3173H306.705V40.2456H290.362V81H281.947V40.2456ZM349.878 81H313.018V32.3173H349.183V40.2456H321.434V52.4858H347.375V60.136H321.434V73.0717H349.878V81ZM367.65 81H359.234V32.3173H366.676L384.063 54.92L400.823 32.3173H408.195V81H399.78V47.2698L384.967 66.6038H382.811L367.65 47.2003V81Z" fill="white"/>
<path d="M66.5719 16.4086C66.8412 16.2004 67.0821 15.9578 67.2885 15.6871H79.7782L79.9489 15.6822C80.8338 15.6339 81.7208 15.6339 82.6058 15.6822H82.791C85.5667 15.6731 88.3091 16.2879 90.8153 17.4811C95.3951 19.2791 99.3569 22.3639 102.223 26.3633C104.394 29.3913 105.87 32.8606 106.548 36.5242C107.225 40.1879 107.087 43.9558 106.142 47.5598L90.1474 31.7795C89.4628 31.1043 88.5398 30.726 87.5782 30.7265H64.3001C63.5532 30.7568 62.8335 31.0155 62.238 31.4675L53.0535 38.429C52.0562 39.1867 50.799 39.5178 49.5579 39.3496C48.3167 39.1815 47.193 38.5277 46.4333 37.532C46.0584 37.0466 45.7837 36.4917 45.6251 35.8993C45.4664 35.307 45.427 34.689 45.5091 34.0813C45.5912 33.4736 45.7932 32.8882 46.1033 32.3592C46.4134 31.8302 46.8255 31.368 47.3156 30.9995L66.5719 16.4086ZM42.5089 70.3943L42.4406 70.4577L37.6924 75.1767L37.629 75.2352C36.7975 76.0259 35.6909 76.4619 34.5435 76.451C33.3961 76.4401 32.298 75.9831 31.4816 75.1767C31.0726 74.7731 30.7478 74.2923 30.5262 73.7621C30.3045 73.2319 30.1903 72.663 30.1903 72.0884C30.1903 71.5138 30.3045 70.9449 30.5262 70.4147C30.7478 69.8845 31.0726 69.4037 31.4816 69.0001L36.2299 64.2811C37.0569 63.4621 38.1738 63.0027 39.3377 63.0027C40.5016 63.0027 41.6185 63.4621 42.4455 64.2811C43.2607 65.0854 43.7249 66.1795 43.7368 67.3247C43.7487 68.4698 43.3073 69.5733 42.5089 70.3943ZM41.0902 78.6721C40.2919 79.4932 39.8505 80.5966 39.8623 81.7418C39.8742 82.887 40.3384 83.981 41.1536 84.7853C42.8696 86.4916 45.6532 86.4916 47.3692 84.7853L52.1175 80.0663C52.5778 79.6099 52.9302 79.0564 53.149 78.4462C53.3677 77.836 53.4473 77.1846 53.3819 76.5397C53.3165 75.8948 53.1077 75.2727 52.7708 74.7189C52.434 74.165 51.9776 73.6935 51.435 73.3388C50.6021 72.7908 49.6083 72.5407 48.6151 72.6292C47.622 72.7177 46.6881 73.1396 45.9652 73.8263L45.9019 73.8946L41.1536 78.6087L41.0902 78.6721ZM30.8137 56.6078C31.2228 57.0115 31.5475 57.4923 31.7692 58.0225C31.9909 58.5526 32.105 59.1215 32.105 59.6962C32.105 60.2708 31.9909 60.8397 31.7692 61.3699C31.5475 61.9 31.2228 62.3809 30.8137 62.7845L26.0655 67.5035C25.2385 68.3224 24.1216 68.7819 22.9577 68.7819C21.7938 68.7819 20.6769 68.3224 19.8499 67.5035C19.4409 67.0999 19.1161 66.619 18.8944 66.0889C18.6727 65.5587 18.5586 64.9898 18.5586 64.4152C18.5586 63.8405 18.6727 63.2716 18.8944 62.7415C19.1161 62.2113 19.4409 61.7305 19.8499 61.3268L24.5981 56.6078C25.4251 55.7889 26.542 55.3294 27.7059 55.3294C28.8699 55.3294 29.9867 55.7889 30.8137 56.6078ZM61.7846 83.5032C62.1936 83.9068 62.5184 84.3877 62.7401 84.9178C62.9618 85.448 63.0759 86.0169 63.0759 86.5915C63.0759 87.1662 62.9618 87.7351 62.7401 88.2652C62.5184 88.7954 62.1936 89.2762 61.7846 89.6798L57.0364 94.3988C56.2093 95.2178 55.0925 95.6773 53.9286 95.6773C52.7646 95.6773 51.6478 95.2178 50.8207 94.3988C50.1719 93.7577 49.7417 92.9283 49.5911 92.0287C49.4406 91.129 49.5775 90.2048 49.9822 89.3873L49.9871 89.3776C50.2002 88.9496 50.4818 88.5594 50.8207 88.2222L55.569 83.5032C56.396 82.6842 57.5129 82.2248 58.6768 82.2248C59.8407 82.2248 60.9576 82.6842 61.7846 83.5032ZM30.0532 24.545C33.2904 21.3294 37.2156 18.8911 41.5326 17.4141C45.8497 15.9371 50.4458 15.4599 54.9742 16.0186L42.9037 25.169C41.6454 26.1194 40.5877 27.3095 39.7917 28.6708C38.9957 30.032 38.4771 31.5375 38.2659 33.1002C38.0547 34.6629 38.1551 36.252 38.5612 37.7757C38.9673 39.2994 39.6711 40.7276 40.632 41.978C42.5696 44.5035 45.4274 46.1603 48.5819 46.5868C51.7364 47.0133 54.9315 46.1749 57.4703 44.2546L65.6798 38.039H86.0816L103.178 54.9065L103.354 55.1015L108.96 60.7077C110.221 61.9864 110.944 63.7001 110.979 65.4957C111.014 67.2913 110.36 69.0321 109.15 70.3594C107.94 71.6867 106.267 72.4995 104.476 72.6302C102.685 72.761 100.912 72.1998 99.522 71.0622L99.054 70.5942L98.7615 70.3407L93.4331 65.0172C93.2083 64.7844 92.9393 64.5987 92.6419 64.471C92.3445 64.3432 92.0247 64.276 91.701 64.2732C91.3774 64.2704 91.0564 64.332 90.7569 64.4546C90.4573 64.5771 90.1851 64.7581 89.9563 64.987C89.7274 65.2159 89.5464 65.488 89.4239 65.7876C89.3013 66.0871 89.2396 66.4081 89.2424 66.7318C89.2453 67.0554 89.3125 67.3753 89.4403 67.6726C89.568 67.97 89.7537 68.239 89.9865 68.4638L95.5927 74.0701C95.7975 74.2716 96.0055 74.465 96.2168 74.6502L96.4312 74.8647C96.9007 75.3242 97.2744 75.8721 97.5306 76.4769C97.7869 77.0818 97.9207 77.7314 97.9242 78.3882C97.9277 79.0451 97.801 79.6961 97.5512 80.3037C97.3015 80.9112 96.9338 81.4632 96.4693 81.9276C96.0048 82.3921 95.4528 82.7599 94.8453 83.0096C94.2378 83.2593 93.5867 83.3861 92.9299 83.3825C92.273 83.379 91.6234 83.2452 91.0186 82.989C90.4138 82.7327 89.8658 82.359 89.4064 81.8896L88.5776 81.0657C88.2338 80.7228 87.7955 80.4905 87.3188 80.3984C86.842 80.3062 86.3487 80.3586 85.9019 80.5487C85.4551 80.7389 85.0753 81.0581 84.8112 81.4655C84.547 81.8729 84.4105 82.3499 84.4192 82.8353C84.4121 83.165 84.472 83.4926 84.5952 83.7985C84.7183 84.1043 84.9023 84.382 85.1359 84.6147L86.223 85.7018C86.671 86.1237 87.0298 86.6311 87.278 87.1942C87.5262 87.7572 87.6589 88.3644 87.6682 88.9797C87.6774 89.5949 87.5631 90.2058 87.3319 90.7761C87.1007 91.3463 86.7574 91.8643 86.3222 92.2995C85.8871 92.7346 85.3691 93.0779 84.7988 93.3091C84.2286 93.5403 83.6177 93.6547 83.0024 93.6454C82.3872 93.6362 81.78 93.5035 81.217 93.2552C80.6539 93.007 80.1465 92.6482 79.7246 92.2002H79.7197L79.6613 92.1368L78.6375 91.1131C78.4122 90.8851 78.1438 90.704 77.848 90.5805C77.5522 90.4569 77.2348 90.3933 76.9142 90.3933C76.5936 90.3933 76.2762 90.4569 75.9804 90.5805C75.6846 90.704 75.4162 90.8851 75.1909 91.1131C74.7339 91.5702 74.4772 92.1901 74.4772 92.8364C74.4772 93.4827 74.7339 94.1026 75.1909 94.5597L76.2536 95.6273C76.6912 96.0595 77.0394 96.5736 77.2783 97.1403C77.5172 97.7069 77.6421 98.3151 77.6459 98.9301C77.6498 99.5451 77.5325 100.155 77.3007 100.724C77.0689 101.294 76.7272 101.812 76.2951 102.25C75.8629 102.688 75.3488 103.036 74.7822 103.275C74.2155 103.514 73.6073 103.639 72.9923 103.642C72.3773 103.646 71.7676 103.529 71.198 103.297C70.6283 103.065 70.1099 102.724 69.6724 102.291L62.6962 95.6615L65.2556 93.1167C66.1177 92.2627 66.8021 91.2464 67.2691 90.1264C67.7362 89.0064 67.9766 87.805 67.9766 86.5915C67.9766 85.3781 67.7362 84.1766 67.2691 83.0566C66.8021 81.9366 66.1177 80.9203 65.2556 80.0663C64.3448 79.1589 63.255 78.4509 62.0557 77.9876C60.8563 77.5243 59.5736 77.3158 58.2892 77.3753C58.3461 76.0961 58.1343 74.8192 57.6674 73.6269C57.2006 72.4346 56.4891 71.3533 55.5787 70.4528C54.6685 69.546 53.5795 68.8384 52.381 68.3751C51.1826 67.9119 49.9008 67.703 48.6173 67.7618C48.6734 66.4835 48.4612 65.2075 47.9944 64.0161C47.5276 62.8246 46.8164 61.7442 45.9067 60.8442C44.7488 59.6938 43.3087 58.868 41.7309 58.4496C40.1532 58.0312 38.4931 58.0349 36.9172 58.4603C36.6464 56.4543 35.719 54.5945 34.2799 53.171C32.6761 51.5813 30.5502 50.6272 28.2966 50.4856C26.0429 50.3439 23.8143 51.0244 22.0241 52.4007C20.8747 47.4583 21.009 42.304 22.4144 37.4282C23.8198 32.5524 26.4495 28.1173 30.0532 24.545Z" fill="white"/>
</g>
<defs>
<filter id="filter0_d_3102_3345" x="0" y="1" width="412.195" height="125" filterUnits="userSpaceOnUse" color-interpolation-filters="sRGB">
<feFlood flood-opacity="0" result="BackgroundImageFix"/>
<feColorMatrix in="SourceAlpha" type="matrix" values="0 0 0 0 0 0 0 0 0 0 0 0 0 0 0 0 0 0 127 0" result="hardAlpha"/>
<feOffset dy="4"/>
<feGaussianBlur stdDeviation="2"/>
<feComposite in2="hardAlpha" operator="out"/>
<feColorMatrix type="matrix" values="0 0 0 0 0 0 0 0 0 0 0 0 0 0 0 0 0 0 0.15 0"/>
<feBlend mode="normal" in2="BackgroundImageFix" result="effect1_dropShadow_3102_3345"/>
<feBlend mode="normal" in="SourceGraphic" in2="effect1_dropShadow_3102_3345" result="shape"/>
</filter>
</defs>
</svg>
