<svg width="25" height="25" viewBox="0 0 25 25" fill="none" xmlns="http://www.w3.org/2000/svg">
<path d="M1.94092 21C1.39488 21 0.935093 20.814 0.561573 20.442C0.187191 20.0709 0 19.614 0 19.0714V5.07771C0 4.53514 0.211776 4.053 0.635328 3.63129C1.05974 3.21043 1.54454 3 2.08973 3H7.66664C7.94527 3 8.21614 3.05571 8.47924 3.16714C8.74234 3.28029 8.96749 3.42986 9.15468 3.61586L11.1228 5.57143H22.4202C22.6048 5.57143 22.7588 5.63271 22.8822 5.75529C23.0055 5.87786 23.0672 6.03086 23.0672 6.21429C23.0672 6.39771 23.0055 6.55071 22.8822 6.67329C22.7588 6.79586 22.6048 6.85714 22.4202 6.85714H5.75419C4.54909 6.85714 3.50444 7.242 2.62024 8.01171C1.73605 8.78143 1.29395 9.75171 1.29395 10.9226V18.9236C1.29395 19.1044 1.33967 19.2527 1.43111 19.3684C1.52255 19.4841 1.64288 19.5827 1.79212 19.6641L4.27262 11.4099C4.41236 10.9676 4.66813 10.6093 5.03993 10.335C5.41172 10.0607 5.8288 9.92357 6.29117 9.92357H22.8835C23.5848 9.92357 24.1477 10.2017 24.5721 10.758C24.9948 11.3143 25.1043 11.9254 24.9007 12.5914L22.7709 19.6371C22.6484 20.046 22.4133 20.3756 22.0657 20.6259C21.7181 20.8753 21.3299 21 20.9011 21H1.94092Z" fill="#3AC885"/>
</svg>
