<svg width="332" height="332" viewBox="0 0 332 332" fill="none" xmlns="http://www.w3.org/2000/svg">
<path d="M27.4649 285C20.3008 285 14.2684 282.541 9.36784 277.622C4.45595 272.715 2 266.674 2 259.5V74.472C2 67.298 4.7785 60.923 10.3355 55.347C15.9038 49.7823 22.2644 47 29.4172 47H102.586C106.242 47 109.796 47.7367 113.248 49.21C116.7 50.706 119.653 52.6837 122.109 55.143L147.931 81H296.153C298.575 81 300.596 81.8103 302.214 83.431C303.833 85.0517 304.642 87.0747 304.642 89.5C304.642 91.9253 303.833 93.9483 302.214 95.569C300.596 97.1897 298.575 98 296.153 98H77.4949C61.6841 98 47.9783 103.089 36.3776 113.266C24.7769 123.443 18.9766 136.273 18.9766 151.754V257.545C18.9766 259.936 19.5764 261.897 20.7761 263.427C21.9758 264.957 23.5546 266.26 25.5126 267.337L58.0567 158.197C59.8902 152.349 63.2459 147.612 68.1238 143.985C73.0018 140.358 78.4739 138.545 84.5402 138.545H302.231C311.432 138.545 318.817 142.223 324.386 149.578C329.931 156.933 331.369 165.014 328.698 173.82L300.754 266.98C299.147 272.386 296.063 276.744 291.502 280.053C286.941 283.351 281.848 285 276.223 285H27.4649Z" fill="#E6ECE5"/>
</svg>
