<svg width="116" height="116" viewBox="0 0 116 116" fill="none" xmlns="http://www.w3.org/2000/svg">
<path d="M10.6953 99C8.24904 99 6.18922 98.1527 4.51585 96.458C2.83862 94.7672 2 92.686 2 90.2143V26.4651C2 23.9934 2.94876 21.797 4.84627 19.8759C6.74765 17.9586 8.91955 17 11.362 17H36.3466C37.5948 17 38.8083 17.2538 39.987 17.7614C41.1657 18.2769 42.1744 18.9582 43.013 19.8056L51.83 28.7143H102.443C103.27 28.7143 103.96 28.9935 104.512 29.5519C105.065 30.1102 105.341 30.8072 105.341 31.6429C105.341 32.4785 105.065 33.1755 104.512 33.7339C103.96 34.2922 103.27 34.5714 102.443 34.5714H27.7788C22.3799 34.5714 17.6999 36.3247 13.7387 39.8311C9.77749 43.3376 7.79689 47.7578 7.79689 53.0917V89.5407C7.79689 90.3646 8.00171 91.0401 8.41136 91.5673C8.821 92.0944 9.36011 92.5435 10.0287 92.9144L21.1413 55.3116C21.7674 53.2967 22.9132 51.6645 24.5789 50.415C26.2445 49.1655 28.113 48.5407 30.1845 48.5407H104.518C107.66 48.5407 110.181 49.8078 112.083 52.342C113.977 54.8762 114.467 57.6603 113.555 60.6943L104.014 92.7914C103.465 94.654 102.412 96.1554 100.854 97.2956C99.2969 98.4319 97.5578 99 95.6371 99H10.6953Z" fill="white"/>
</svg>
