<svg width="33" height="33" viewBox="0 0 33 33" fill="none" xmlns="http://www.w3.org/2000/svg">
<path d="M7.54688 18.4274V17.0453H8.64375L12.7113 7.37061L16.1391 13.2661L19.5668 7.37061L23.7258 17.0453H24.8227V18.4274H19.6582V17.0453H20.7018L19.0641 13.2661L16.1391 17.8012L13.3055 13.2661L11.6635 17.0453H12.5742V18.4274H7.54688Z" fill="#E6ECE5" stroke="#E6ECE5" stroke-width="0.0804242"/>
<path d="M15.6615 31C20.5888 27.6992 25.2019 24.1037 27.3597 20.5081C28.4038 18.7683 29 16.1085 29 13.9654C29 7.35711 23.3313 2 16.3385 2H15.6615C8.66873 2 3 7.35711 3 13.9654C3 17.7135 4.82352 21.059 7.67788 23.253" stroke="#E6ECE5" stroke-width="2" stroke-linecap="round"/>
</svg>
