<svg width="20" height="20" viewBox="0 0 20 20" fill="none" xmlns="http://www.w3.org/2000/svg">
<path d="M16 20C15.1667 20 14.4583 19.7083 13.875 19.125C13.2917 18.5417 13 17.8333 13 17C13 16.9 13.025 16.6667 13.075 16.3L6.05 12.2C5.78333 12.45 5.475 12.646 5.125 12.788C4.775 12.93 4.4 13.0007 4 13C3.16667 13 2.45833 12.7083 1.875 12.125C1.29167 11.5417 1 10.8333 1 10C1 9.16667 1.29167 8.45833 1.875 7.875C2.45833 7.29167 3.16667 7 4 7C4.4 7 4.775 7.071 5.125 7.213C5.475 7.355 5.78333 7.55067 6.05 7.8L13.075 3.7C13.0417 3.58333 13.021 3.471 13.013 3.363C13.005 3.255 13.0007 3.134 13 3C13 2.16667 13.2917 1.45833 13.875 0.875C14.4583 0.291667 15.1667 0 16 0C16.8333 0 17.5417 0.291667 18.125 0.875C18.7083 1.45833 19 2.16667 19 3C19 3.83333 18.7083 4.54167 18.125 5.125C17.5417 5.70833 16.8333 6 16 6C15.6 6 15.225 5.929 14.875 5.787C14.525 5.645 14.2167 5.44933 13.95 5.2L6.925 9.3C6.95833 9.41667 6.97933 9.52933 6.988 9.638C6.99667 9.74667 7.00067 9.86733 7 10C6.99933 10.1327 6.99533 10.2537 6.988 10.363C6.98067 10.4723 6.95967 10.5847 6.925 10.7L13.95 14.8C14.2167 14.55 14.525 14.3543 14.875 14.213C15.225 14.0717 15.6 14.0007 16 14C16.8333 14 17.5417 14.2917 18.125 14.875C18.7083 15.4583 19 16.1667 19 17C19 17.8333 18.7083 18.5417 18.125 19.125C17.5417 19.7083 16.8333 20 16 20Z" fill="#686868"/>
</svg>
