<svg width="46" height="46" viewBox="0 0 46 46" fill="none" xmlns="http://www.w3.org/2000/svg">
<path d="M22.9943 15.7399H35.0953H42.3558V22.9999V35.0999V42.3599H35.0953H22.9943H15.7338V35.0999V22.9999V15.7399H22.9943ZM35.0953 20.5799H22.9943H20.5742V22.9999V35.0999V37.5199H22.9943H35.0953H37.5154V35.0999V22.9999V20.5799H35.0953ZM10.8934 3.39795H22.9943H30.2549V10.8999V13.32H25.4145V10.8999V8.47994H22.9943H10.8934H8.47322V10.8999V22.9999V25.4199H10.8934H13.3136V30.2599H10.8934H3.63281L3.63277 22.9999L3.63281 10.8999V3.39795H10.8934Z" fill="#E6ECE5"/>
<ellipse cx="18.6007" cy="18.6003" rx="5.2804" ry="5.27999" fill="#E6ECE5"/>
<ellipse cx="39.7179" cy="18.6003" rx="5.2804" ry="5.27999" fill="#E6ECE5"/>
<ellipse cx="39.7179" cy="39.7199" rx="5.2804" ry="5.27999" fill="#E6ECE5"/>
<ellipse cx="18.6007" cy="39.7199" rx="5.2804" ry="5.27999" fill="#E6ECE5"/>
<ellipse cx="6.2804" cy="27.3996" rx="5.2804" ry="5.27999" fill="#E6ECE5"/>
<ellipse cx="6.2804" cy="6.27999" rx="5.2804" ry="5.27999" fill="#E6ECE5"/>
<ellipse cx="27.4054" cy="6.27999" rx="5.2804" ry="5.27999" fill="#E6ECE5"/>
</svg>
