<svg width="20" height="20" viewBox="0 0 20 20" fill="none" xmlns="http://www.w3.org/2000/svg">
<path fill-rule="evenodd" clip-rule="evenodd" d="M7.44548 2.76883C9.85935 0.410389 13.7632 0.410389 16.1779 2.76883C18.6074 5.14151 18.6074 9.00109 16.1779 11.3746L9.65669 17.7442C7.94188 19.4186 5.17192 19.4186 3.4571 17.7442C3.04733 17.3504 2.72082 16.8754 2.49764 16.3481C2.27446 15.8209 2.15933 15.2526 2.15933 14.6783C2.15933 14.1039 2.27446 13.5357 2.49764 13.0084C2.72082 12.4812 3.04733 12.0061 3.4571 11.6124L9.88479 5.33491C10.3803 4.85724 11.0361 4.59111 11.7178 4.59111C12.3994 4.59111 13.0552 4.85724 13.5507 5.33491C13.795 5.56973 13.9896 5.85302 14.1226 6.16739C14.2556 6.48176 14.3242 6.82056 14.3242 7.16298C14.3242 7.5054 14.2556 7.8442 14.1226 8.15857C13.9896 8.47294 13.795 8.75623 13.5507 8.99105L7.07708 15.3154C7.01868 15.3725 6.94984 15.4172 6.87449 15.4471C6.79913 15.4771 6.71874 15.4915 6.63791 15.4897C6.55707 15.488 6.47737 15.4699 6.40336 15.4367C6.32935 15.4035 6.26247 15.3557 6.20655 15.2961C6.15063 15.2366 6.10676 15.1663 6.07744 15.0894C6.04812 15.0125 6.03394 14.9305 6.03569 14.848C6.03744 14.7655 6.0551 14.6842 6.08765 14.6087C6.12021 14.5332 6.16702 14.4649 6.22542 14.4079L12.699 8.08434C12.823 7.96658 12.9218 7.82404 12.9894 7.6656C13.057 7.50715 13.0919 7.3362 13.0919 7.1634C13.0919 6.99059 13.057 6.81964 12.9894 6.6612C12.9218 6.50275 12.823 6.36021 12.699 6.24246C12.4327 5.98862 12.0818 5.84743 11.7173 5.84743C11.3529 5.84743 11.002 5.98862 10.7356 6.24246L4.30794 12.5199C4.01828 12.7964 3.78736 13.1306 3.62948 13.5019C3.47161 13.8732 3.39014 14.2736 3.39014 14.6783C3.39014 15.083 3.47161 15.4834 3.62948 15.8547C3.78736 16.2259 4.01828 16.5602 4.30794 16.8366C5.54688 18.0464 7.56691 18.0464 8.80585 16.8366L15.3271 10.4671C17.2503 8.58834 17.2503 5.55426 15.3271 3.67554C13.3883 1.78259 10.2351 1.78259 8.2955 3.67554L3.04194 8.8077C2.9241 8.92305 2.76619 8.98591 2.60293 8.98246C2.43967 8.979 2.28445 8.90951 2.1714 8.78928C2.05835 8.66904 1.99675 8.5079 2.00013 8.34132C2.00352 8.17473 2.07162 8.01634 2.18945 7.90099L7.44548 2.76883Z" fill="#C7CBCF"/>
</svg>
