<svg width="20" height="20" viewBox="0 0 20 20" fill="none" xmlns="http://www.w3.org/2000/svg">
<path fill-rule="evenodd" clip-rule="evenodd" d="M12.5545 2.76883C10.1407 0.410389 6.23678 0.410389 3.82209 2.76883C1.39263 5.14151 1.39263 9.00109 3.82209 11.3746L10.3433 17.7442C12.0581 19.4186 14.8281 19.4186 16.5429 17.7442C16.9527 17.3504 17.2792 16.8754 17.5024 16.3481C17.7255 15.8209 17.8407 15.2526 17.8407 14.6783C17.8407 14.1039 17.7255 13.5357 17.5024 13.0084C17.2792 12.4812 16.9527 12.0061 16.5429 11.6124L10.1152 5.33491C9.61973 4.85724 8.9639 4.59111 8.28225 4.59111C7.6006 4.59111 6.94478 4.85724 6.44929 5.33491C6.20504 5.56973 6.01043 5.85302 5.87742 6.16739C5.7444 6.48176 5.67578 6.82056 5.67578 7.16298C5.67578 7.5054 5.7444 7.8442 5.87742 8.15857C6.01043 8.47294 6.20504 8.75623 6.44929 8.99105L12.9229 15.3154C12.9813 15.3725 13.0502 15.4172 13.1255 15.4471C13.2009 15.4771 13.2813 15.4915 13.3621 15.4897C13.4429 15.488 13.5226 15.4699 13.5966 15.4367C13.6707 15.4035 13.7375 15.3557 13.7935 15.2961C13.8494 15.2366 13.8932 15.1663 13.9226 15.0894C13.9519 15.0125 13.9661 14.9305 13.9643 14.848C13.9626 14.7655 13.9449 14.6842 13.9123 14.6087C13.8798 14.5332 13.833 14.4649 13.7746 14.4079L7.30095 8.08434C7.17701 7.96658 7.07816 7.82404 7.01058 7.6656C6.94299 7.50715 6.90811 7.3362 6.90811 7.1634C6.90811 6.99059 6.94299 6.81964 7.01058 6.6612C7.07816 6.50275 7.17701 6.36021 7.30095 6.24246C7.56732 5.98862 7.91819 5.84743 8.28266 5.84743C8.64713 5.84743 8.998 5.98862 9.26437 6.24246L15.6921 12.5199C15.9817 12.7964 16.2126 13.1306 16.3705 13.5019C16.5284 13.8732 16.6099 14.2736 16.6099 14.6783C16.6099 15.083 16.5284 15.4834 16.3705 15.8547C16.2126 16.2259 15.9817 16.5602 15.6921 16.8366C14.4531 18.0464 12.4331 18.0464 11.1942 16.8366L4.67293 10.4671C2.74972 8.58834 2.74972 5.55426 4.67293 3.67554C6.61174 1.78259 9.76487 1.78259 11.7045 3.67554L16.9581 8.8077C17.0759 8.92305 17.2338 8.98591 17.3971 8.98246C17.5603 8.979 17.7156 8.90951 17.8286 8.78928C17.9416 8.66904 18.0033 8.5079 17.9999 8.34132C17.9965 8.17473 17.9284 8.01634 17.8105 7.90099L12.5545 2.76883Z" fill="#ADAEAD"/>
</svg>
