<svg width="15" height="15" viewBox="0 0 15 15" fill="none" xmlns="http://www.w3.org/2000/svg">
<path d="M4.15747 7.8487C4.04182 7.97006 3.9501 8.11415 3.88755 8.27272C3.82501 8.4313 3.79287 8.60126 3.79297 8.77288V10.6112H5.55598C5.88629 10.6112 6.20361 10.4734 6.43749 10.228L11.6349 4.77192C11.7508 4.65062 11.8427 4.50651 11.9055 4.34787C11.9682 4.18922 12.0005 4.01914 12.0005 3.84738C12.0005 3.67562 11.9682 3.50555 11.9055 3.3469C11.8427 3.18825 11.7508 3.04415 11.6349 2.92284L11.1213 2.38398C11.0057 2.26227 10.8683 2.1657 10.717 2.09981C10.5658 2.03392 10.4036 2 10.2398 2C10.076 2 9.91384 2.03392 9.76257 2.09981C9.6113 2.1657 9.47392 2.26227 9.35829 2.38398L4.15747 7.8487Z" stroke="#535C69" stroke-linecap="round" stroke-linejoin="round"/>
<path d="M11.7365 12C11.7365 12 9.49786 12 7.19206 12C4.88625 12 3.34946 12 3 12" stroke="#535C69" stroke-linecap="round" stroke-linejoin="round"/>
</svg>
