<svg width="41" height="41" viewBox="0 0 41 41" fill="none" xmlns="http://www.w3.org/2000/svg">
<path d="M20.5 1C18.4446 1 16.4733 1.82178 15.0199 3.28457C13.5665 4.74735 12.75 6.73131 12.75 8.8C12.75 10.8687 13.5665 12.8526 15.0199 14.3154C16.4733 15.7782 18.4446 16.6 20.5 16.6C22.5554 16.6 24.5267 15.7782 25.9801 14.3154C27.4335 12.8526 28.25 10.8687 28.25 8.8C28.25 6.73131 27.4335 4.74735 25.9801 3.28457C24.5267 1.82178 22.5554 1 20.5 1ZM30.1875 20.5H10.8125C9.27093 20.5 7.7925 21.1163 6.70244 22.2134C5.61239 23.3105 5 24.7985 5 26.35C5 30.7024 6.77862 34.189 9.6965 36.5485C12.5679 38.869 16.4196 40 20.5 40C24.5804 40 28.4321 38.869 31.3035 36.5485C34.2175 34.189 36 30.7024 36 26.35C36 24.7985 35.3876 23.3105 34.2976 22.2134C33.2075 21.1163 31.7291 20.5 30.1875 20.5Z" fill="#E6ECE5"/>
</svg>
