<svg width="22" height="22" viewBox="0 0 22 22" fill="none" xmlns="http://www.w3.org/2000/svg">
<path d="M11 1C9.63603 1 8.32792 1.52678 7.36345 2.46447C6.39898 3.40215 5.85714 4.67392 5.85714 6C5.85714 7.32608 6.39898 8.59785 7.36345 9.53553C8.32792 10.4732 9.63603 11 11 11C12.364 11 13.6721 10.4732 14.6365 9.53553C15.601 8.59785 16.1429 7.32608 16.1429 6C16.1429 4.67392 15.601 3.40215 14.6365 2.46447C13.6721 1.52678 12.364 1 11 1ZM4.583 12.25C4.24434 12.2485 3.90872 12.3121 3.5954 12.4371C3.28209 12.562 2.99725 12.7459 2.75724 12.9782C2.51723 13.2105 2.32679 13.4866 2.19684 13.7907C2.06689 14.0947 2 14.4207 2 14.75C2 16.8637 3.071 18.4575 4.745 19.4963C6.39329 20.5175 8.615 21 11 21C13.385 21 15.6067 20.5175 17.255 19.4963C18.929 18.4588 20 16.8625 20 14.75C20 14.087 19.7291 13.4511 19.2468 12.9822C18.7646 12.5134 18.1106 12.25 17.4286 12.25H4.583Z" fill="white"/>
</svg>
