<svg width="29" height="29" viewBox="0 0 29 29" fill="none" xmlns="http://www.w3.org/2000/svg">
<path d="M24.3333 1H5.66667C4.95942 1 4.28115 1.27641 3.78105 1.76843C3.28095 2.26045 3 2.92777 3 3.62359V21.9887C3 23.4317 4.2 24.6123 5.66667 24.6123H11L14.0533 27.6163C14.5733 28.1279 15.4133 28.1279 15.9333 27.6163L19 24.6123H24.3333C25.8 24.6123 27 23.4317 27 21.9887V3.62359C27 2.18061 25.8 1 24.3333 1ZM15 5.32892C16.9867 5.32892 18.6 6.91619 18.6 8.87076C18.6 10.8253 16.9867 12.4126 15 12.4126C13.0133 12.4126 11.4 10.8253 11.4 8.87076C11.4 6.91619 13.0133 5.32892 15 5.32892ZM23 19.3651H7V18.1845C7 15.5609 12.3333 14.1179 15 14.1179C17.6667 14.1179 23 15.5609 23 18.1845V19.3651Z" fill="white"/>
</svg>
