<svg width="20" height="20" viewBox="0 0 20 20" fill="none" xmlns="http://www.w3.org/2000/svg">
<path d="M12.3735 4.888C12.3735 2.7424 10.5862 1 8.38537 1C6.18453 1 4.39727 2.7424 4.39727 4.888C4.39727 7.0336 6.18453 8.776 8.38537 8.776C10.5862 8.776 12.3735 7.0336 12.3735 4.888Z" fill="#D6E583" fill-opacity="0.73"/>
<path d="M8.38537 10.648C5.43122 10.648 1 12.232 1 15.112C1 15.8278 1.58024 16.408 2.296 16.408H8.633V12.52C8.77168 11.2492 9.638 10.9308 10.0064 10.7702C9.41407 10.6891 8.86137 10.648 8.38537 10.648Z" fill="#D6E583" fill-opacity="0.73"/>
<path d="M9.85938 13.0601C9.85938 12.5349 10.0734 12.0313 10.4542 11.66C10.8351 11.2887 11.3517 11.0801 11.8904 11.0801H16.9678C17.5064 11.0801 18.023 11.2887 18.4039 11.66C18.7848 12.0313 18.9988 12.5349 18.9988 13.0601V17.0201C18.9988 17.5452 18.7848 18.0488 18.4039 18.4201C18.023 18.7915 17.5064 19.0001 16.9678 19.0001H11.8904C11.3517 19.0001 10.8351 18.7915 10.4542 18.4201C10.0734 18.0488 9.85938 17.5452 9.85938 17.0201V13.0601ZM16.4601 16.0301H12.3981C12.2634 16.0301 12.1343 16.0822 12.0391 16.1751C11.9438 16.2679 11.8904 16.3938 11.8904 16.5251C11.8904 16.6564 11.9438 16.7823 12.0391 16.8751C12.1343 16.9679 12.2634 17.0201 12.3981 17.0201H16.4601C16.5947 17.0201 16.7239 16.9679 16.8191 16.8751C16.9143 16.7823 16.9678 16.6564 16.9678 16.5251C16.9678 16.3938 16.9143 16.2679 16.8191 16.1751C16.7239 16.0822 16.5947 16.0301 16.4601 16.0301ZM12.3981 13.0601C12.2634 13.0601 12.1343 13.1122 12.0391 13.2051C11.9438 13.2979 11.8904 13.4238 11.8904 13.5551C11.8904 13.6864 11.9438 13.8123 12.0391 13.9051C12.1343 13.9979 12.2634 14.0501 12.3981 14.0501H16.4601C16.5947 14.0501 16.7239 13.9979 16.8191 13.9051C16.9143 13.8123 16.9678 13.6864 16.9678 13.5551C16.9678 13.4238 16.9143 13.2979 16.8191 13.2051C16.7239 13.1122 16.5947 13.0601 16.4601 13.0601H12.3981Z" fill="#D6E583" fill-opacity="0.73"/>
</svg>
