<svg width="22" height="22" viewBox="0 0 22 22" fill="none" xmlns="http://www.w3.org/2000/svg">
<path fill-rule="evenodd" clip-rule="evenodd" d="M7.31842 14.6838C11.1699 18.5345 14.739 18.9561 15.7867 18.9952C17.0529 19.0413 18.3451 18.0077 18.904 16.9491C18.0125 15.9036 16.8515 15.0924 15.5804 14.2131C14.8301 14.9622 13.9056 16.3543 12.6745 15.8555C11.9743 15.5741 10.2454 14.7779 8.73482 13.2667C7.22426 11.7554 6.42792 10.0279 6.14444 9.32882C5.6456 8.09599 7.04196 7.16961 7.79222 6.4195C6.91274 5.12758 6.11539 3.93681 5.07162 3.09055C3.99781 3.65138 2.95805 4.93329 3.00513 6.21619C3.0442 7.26375 3.46591 10.8321 7.31842 14.6838ZM15.7126 20.9972C14.2702 20.9441 10.1823 20.3792 5.90103 16.0999C1.62079 11.8195 1.05684 7.73345 1.00275 6.2903C0.922611 4.09104 2.60746 1.95486 4.55375 1.12062C4.78812 1.01944 5.04478 0.980916 5.29854 1.00883C5.5523 1.03675 5.79444 1.13015 6.0012 1.27986C7.61192 2.45461 8.7228 4.23425 9.67741 5.62832C9.876 5.9182 9.96697 6.26837 9.93459 6.61824C9.90222 6.9681 9.74852 7.29564 9.50011 7.54417L8.14182 8.90319C8.45735 9.59922 9.09943 10.799 10.1512 11.8506C11.203 12.9021 12.403 13.5441 13.1002 13.8596L14.4575 12.5015C14.7067 12.2521 15.0358 12.0983 15.387 12.067C15.7382 12.0357 16.0893 12.1289 16.3787 12.3303C17.8011 13.3157 19.472 14.4104 20.69 15.9697C20.8519 16.1779 20.9549 16.4258 20.9882 16.6874C21.0215 16.949 20.9839 17.2148 20.8793 17.4569C20.0409 19.4128 17.9193 21.0783 15.7126 20.9972Z" fill="#E1F283"/>
</svg>
