<svg width="20" height="20" viewBox="0 0 20 20" fill="none" xmlns="http://www.w3.org/2000/svg">
<path d="M17 1H3C2.46957 1 1.96086 1.21071 1.58579 1.58579C1.21071 1.96086 1 2.46957 1 3V17C1 18.1 1.9 19 3 19H7H13H17C18.1 19 19 18.1 19 17V3C19 1.9 18.1 1 17 1Z" fill="#D6E583" fill-opacity="0.73"/>
<path d="M7.58583 8.84458C8.36583 10.3775 9.6225 11.6287 11.1554 12.4142L12.3471 11.2225C12.4933 11.0763 12.71 11.0275 12.8996 11.0925C13.5063 11.2929 14.1617 11.4013 14.8333 11.4013C15.1313 11.4013 15.375 11.645 15.375 11.9429V13.8333C15.375 14.1313 15.1313 14.375 14.8333 14.375C9.74708 14.375 5.625 10.2529 5.625 5.16667C5.625 4.86875 5.86875 4.625 6.16667 4.625H8.0625C8.36042 4.625 8.60417 4.86875 8.60417 5.16667C8.60417 5.84375 8.7125 6.49375 8.91292 7.10042C8.9725 7.29 8.92917 7.50125 8.7775 7.65292L7.58583 8.84458Z" fill="white"/>
</svg>
