<svg width="29" height="29" viewBox="0 0 29 29" fill="none" xmlns="http://www.w3.org/2000/svg">
<path d="M24.7699 10.6102C24.4649 10.6102 24.2093 10.5044 24.0033 10.2929C23.7973 10.0814 23.694 9.81989 23.6932 9.50848V8.40678H22.6166C22.3115 8.40678 22.056 8.30102 21.85 8.08949C21.644 7.87797 21.5406 7.6165 21.5399 7.30509C21.5392 6.99368 21.6425 6.73221 21.85 6.52068C22.0574 6.30916 22.3129 6.20339 22.6166 6.20339H23.6932V5.1017C23.6932 4.78955 23.7966 4.52808 24.0033 4.31729C24.2101 4.1065 24.4656 4.00074 24.7699 4C25.0743 3.99927 25.3302 4.10503 25.5376 4.31729C25.7451 4.52955 25.8481 4.79102 25.8466 5.1017V6.20339H26.9233C27.2284 6.20339 27.4843 6.30916 27.691 6.52068C27.8977 6.73221 28.0007 6.99368 28 7.30509C27.9993 7.6165 27.8959 7.87834 27.6899 8.0906C27.4839 8.30286 27.2284 8.40825 26.9233 8.40678H25.8466V9.50848C25.8466 9.82062 25.7433 10.0825 25.5365 10.294C25.3298 10.5055 25.0743 10.6109 24.7699 10.6102ZM13.092 21.5C14.4379 21.5 15.582 21.0182 16.5245 20.0546C17.467 19.091 17.9378 17.9202 17.9371 16.5424C17.9364 15.1645 17.4655 13.9942 16.5245 13.0313C15.5835 12.0684 14.4393 11.5862 13.092 11.5847C11.7447 11.5833 10.6009 12.0655 9.66062 13.0313C8.72031 13.9971 8.24909 15.1675 8.24693 16.5424C8.24478 17.9173 8.71601 19.088 9.66062 20.0546C10.6052 21.0211 11.749 21.5029 13.092 21.5ZM13.092 19.2966C12.3383 19.2966 11.7013 19.0304 11.1809 18.4979C10.6605 17.9654 10.4003 17.3136 10.4003 16.5424C10.4003 15.7712 10.6605 15.1194 11.1809 14.5869C11.7013 14.0544 12.3383 13.7881 13.092 13.7881C13.8457 13.7881 14.4827 14.0544 15.0031 14.5869C15.5235 15.1194 15.7837 15.7712 15.7837 16.5424C15.7837 17.3136 15.5235 17.9654 15.0031 18.4979C14.4827 19.0304 13.8457 19.2966 13.092 19.2966ZM3.15337 24C2.5612 24 2.05444 23.7844 1.63309 23.3533C1.21175 22.9222 1.00072 23.7592 1 23.1525V10.6102C1 10.0042 1.21103 9.48571 1.63309 9.05458C2.05515 8.62345 2.56191 8.40752 3.15337 8.40678H7.87009L9.21595 6.91949C9.41334 6.69916 9.65129 6.52472 9.92979 6.39619C10.2083 6.26766 10.4997 6.20339 10.8041 6.20339H18.3098C18.6149 6.20339 18.8708 6.30916 19.0775 6.52068C19.2842 6.73221 19.3872 6.99368 19.3865 7.30509V8.95763C19.3865 9.41667 19.5437 9.80704 19.8581 10.1287C20.1725 10.4504 20.5536 10.6109 21.0015 10.6102H21.5399V11.161C21.5399 11.6201 21.6971 12.0104 22.0115 12.3321C22.3259 12.6538 22.707 12.8143 23.1549 12.8136H24.7699C25.075 12.8136 25.3309 12.9193 25.5376 13.1308C25.7443 13.3424 25.8473 13.6038 25.8466 13.9153V21.7966C25.8466 22.4025 25.636 22.9214 25.2146 23.3533C24.7933 23.7852 24.2861 24.0007 23.6932 24H3.15337Z" fill="white"/>
</svg>
