<svg width="46" height="46" viewBox="0 0 46 46" fill="none" xmlns="http://www.w3.org/2000/svg">
<path d="M31.7314 10.7539C29.9716 10.7539 28.2839 11.4544 27.0396 12.7014C25.7952 13.9484 25.0962 15.6396 25.0962 17.4031C25.0962 19.1666 25.7952 20.8578 27.0396 22.1048C28.2839 23.3518 29.9716 24.0523 31.7314 24.0523C33.4912 24.0523 35.1788 23.3518 36.4232 22.1048C37.6675 20.8578 38.3666 19.1666 38.3666 17.4031C38.3666 15.6396 37.6675 13.9484 36.4232 12.7014C35.1788 11.4544 33.4912 10.7539 31.7314 10.7539ZM40.0254 27.3769H23.4374C22.1175 27.3769 20.8518 27.9023 19.9185 28.8375C18.9852 29.7728 18.4609 31.0412 18.4609 32.3638C18.4609 36.0741 19.9837 39.0463 22.4819 41.0576C24.9402 43.0358 28.2379 43.9999 31.7314 43.9999C35.2248 43.9999 38.5225 43.0358 40.9809 41.0576C43.4757 39.0463 45.0018 36.0741 45.0018 32.3638C45.0018 31.0412 44.4775 29.7728 43.5443 28.8375C42.611 27.9023 41.3452 27.3769 40.0254 27.3769Z" fill="#E6ECE5"/>
<path d="M24.4378 22.3471C24.8216 22.9864 25.284 23.5821 25.8192 24.1185C26.1192 24.4191 26.4398 24.6948 26.7741 24.9487H24.0535C22.0451 24.9487 20.1187 25.7488 18.6985 27.172C17.2786 28.5951 16.4809 30.5249 16.4808 32.5373C16.4808 34.6091 16.88 36.5174 17.6161 38.2189C16.0725 37.7306 14.655 37.0027 13.4425 36.027C10.9446 34.0157 9.42188 31.0432 9.42188 27.3331C9.42198 26.0107 9.94658 24.7422 10.8797 23.807C11.813 22.872 13.0787 22.3471 14.3984 22.3471H24.4378Z" fill="#E6ECE5"/>
<path d="M19.1603 34.012C19.1959 34.3182 19.242 34.6186 19.2995 34.9129C19.2963 34.8965 19.2928 34.8802 19.2897 34.8638C19.2369 34.5852 19.1938 34.3012 19.1603 34.012Z" fill="#E6ECE5"/>
<path d="M22.6927 5.72363C24.4522 5.72373 26.1397 6.42415 27.3839 7.6709C27.8302 8.11813 28.2046 8.62382 28.5036 9.16818C27.5144 9.62213 26.6031 10.2503 25.8192 11.0359C24.0882 12.7707 23.1162 15.1238 23.1162 17.5772C23.1162 18.0559 23.1546 18.5306 23.227 18.9978C23.0498 19.0122 22.8717 19.0224 22.6927 19.0224C20.9329 19.0224 19.2448 18.3211 18.0004 17.0741C16.7563 15.8272 16.0573 14.1363 16.0573 12.373C16.0573 10.6095 16.7561 8.91786 18.0004 7.6709C19.2448 6.42398 20.933 5.72363 22.6927 5.72363Z" fill="#E6ECE5"/>
<path d="M14.8796 17.6235C15.2633 18.2623 15.7251 18.8578 16.2601 19.3939C16.5601 19.6945 16.8806 19.9702 17.215 20.2241H14.4943C12.4859 20.2241 10.5595 21.0242 9.13935 22.4474C7.71941 23.8705 6.92177 25.8003 6.92167 27.8127C6.92167 29.6836 7.24793 31.4209 7.85305 32.9933C6.8266 32.5493 5.87237 31.9888 5.02065 31.3034C2.52269 29.292 1 26.3196 1 22.6095C1.0001 21.287 1.5247 20.0185 2.45787 19.0834C3.3911 18.1483 4.65685 17.6235 5.97655 17.6235H14.8796Z" fill="#E6ECE5"/>
<path d="M9.60112 29.2874C9.6368 29.5936 9.6829 29.894 9.74034 30.1883C9.73714 30.1719 9.73365 30.1556 9.73053 30.1392C9.67774 29.8606 9.63463 29.5766 9.60112 29.2874Z" fill="#E6ECE5"/>
<path d="M14.2708 1C16.0303 1.0001 17.7178 1.70052 18.9621 2.94726C19.3067 3.29267 19.6083 3.67339 19.866 4.07907C18.52 4.52927 17.2821 5.28702 16.2601 6.31125C14.529 8.04612 13.5571 10.3992 13.5571 12.8526C13.5571 13.3299 13.5948 13.8033 13.6669 14.2693C12.1285 14.1285 10.6798 13.4541 9.57857 12.3505C8.33441 11.1036 7.63545 9.41269 7.6354 7.64938C7.6354 5.8859 8.33423 4.19423 9.57857 2.94726C10.8229 1.70035 12.5111 1 14.2708 1Z" fill="#E6ECE5"/>
</svg>
