<svg width="20" height="20" viewBox="0 0 20 20" fill="none" xmlns="http://www.w3.org/2000/svg">
<path d="M16 15H8.5L10.5 13H16M4 15V12.5L11.88 4.65C12.07 4.45 12.39 4.45 12.59 4.65L14.35 6.41C14.55 6.61 14.55 6.92 14.35 7.12L6.47 15M17 1H3C1.89 1 1 1.89 1 3V17C1 17.5304 1.21071 18.0391 1.58579 18.4142C1.96086 18.7893 2.46957 19 3 19H17C17.5304 19 18.0391 18.7893 18.4142 18.4142C18.7893 18.0391 19 17.5304 19 17V3C19 2.46957 18.7893 1.96086 18.4142 1.58579C18.0391 1.21071 17.5304 1 17 1Z" fill="#686868"/>
</svg>
