<svg width="28" height="28" viewBox="0 0 28 28" fill="none" xmlns="http://www.w3.org/2000/svg">
<path d="M2.95095 14.7406C2.49409 14.5882 2.19834 14.2817 2.06372 13.8214C1.9291 13.3611 2.00778 12.9498 2.29976 12.5876L6.02081 7.98973C6.29954 7.64532 6.64653 7.38722 7.06179 7.21541C7.47704 7.0436 7.90776 6.98606 8.35394 7.04277L10.0999 7.25154C9.09194 8.74798 8.3022 10.1096 7.73069 11.3363C7.15918 12.563 6.63539 14.0614 6.15933 15.8312L2.95095 14.7406ZM8.7483 17.0956C8.50653 16.8925 8.36202 16.6408 8.31476 16.3407C8.2675 16.0406 8.29129 15.7423 8.38612 15.4459C8.88148 13.8658 9.42442 12.4779 10.0149 11.2822C10.6054 10.0865 11.4306 8.83391 12.4903 7.52447C14.0512 5.59578 15.8842 4.04792 17.9892 2.88091C20.0942 1.71389 22.1818 1.08829 24.2519 1.0041C24.4391 0.987857 24.6239 1.01986 24.8061 1.10012C24.9884 1.18037 25.1479 1.2786 25.2848 1.39482C25.4217 1.51103 25.5468 1.6526 25.6601 1.81954C25.7733 1.98648 25.8393 2.16456 25.8579 2.3538C26.1714 4.44008 25.9662 6.64759 25.2421 8.97633C24.518 11.3051 23.3758 13.4334 21.8154 15.3614C20.7423 16.6874 19.6894 17.7555 18.6566 18.5656C17.6238 19.3757 16.3934 20.1789 14.9655 20.9753C14.698 21.1266 14.4152 21.2072 14.1171 21.217C13.819 21.2269 13.549 21.1302 13.3073 20.9271C11.96 18.2883 11.0444 17.5329 8.7483 17.0956ZM16.8811 11.7788C17.451 12.2577 18.1026 12.4656 18.836 12.4027C19.5694 12.3397 20.166 12.0234 20.6258 11.4538C21.0855 10.8843 21.2764 10.2276 21.1982 9.48379C21.1201 8.73996 20.796 8.12731 20.2259 7.64584C19.6557 7.16438 19.0042 6.95705 18.2712 7.02385C17.5382 7.09065 16.9415 7.40628 16.4812 7.97075C16.0209 8.53522 15.8302 9.19254 15.9089 9.94272C15.9877 10.6929 16.3118 11.3049 16.8811 11.7788ZM16.6796 26.2784L15.0182 23.2764C16.6333 22.4637 17.9774 21.6548 19.0504 20.8495C20.1234 20.0442 21.2844 18.9947 22.5335 17.7008L23.067 19.4078C23.2072 19.8439 23.2341 20.2861 23.1477 20.7342C23.0612 21.1823 22.8783 21.5783 22.5988 21.9221L18.8778 26.52C18.5851 26.8816 18.2042 27.0389 17.7351 26.9919C17.2661 26.9448 16.9142 26.707 16.6796 26.2784Z" fill="url(#paint0_linear_3104_3630)"/>
<defs>
<linearGradient id="paint0_linear_3104_3630" x1="25.2837" y1="1.39485" x2="9.39719" y2="20.2981" gradientUnits="userSpaceOnUse">
<stop stop-color="#DFFF30"/>
<stop offset="1" stop-color="#67CC7D"/>
</linearGradient>
</defs>
</svg>
