<svg width="43" height="43" viewBox="0 0 43 43" fill="none" xmlns="http://www.w3.org/2000/svg">
<path d="M22.3604 0C32.0899 -4.21232e-07 36.9549 5.57017e-06 39.9775 3.02246C43.0001 6.04509 43 10.9101 43 20.6396V22.3604C43 32.0899 43.0001 36.9549 39.9775 39.9775C36.9549 43.0002 32.0899 43 22.3604 43H20.6396C10.9101 43 6.04509 43.0002 3.02246 39.9775C-0.000149497 36.9549 4.29731e-07 32.0899 0 22.3604V20.6396C-4.28757e-07 10.9101 -9.20124e-05 6.04509 3.02246 3.02246C6.04509 7.32383e-06 10.9101 4.22095e-07 20.6396 0H22.3604ZM25.4824 7.9707C24.1665 7.64198 22.8906 8.63236 22.8906 9.98242V12.5059L17.6387 11.1943C16.3228 10.8656 15.0469 11.856 15.0469 13.2061V15.1406L9.79492 13.8291C8.47903 13.5004 7.20312 14.4907 7.20312 15.8408V29.8438C7.20312 31.0323 8.01537 32.0689 9.17383 32.3584L17.5068 34.4404C18.8227 34.7691 20.0986 33.7787 20.0986 32.4287V30.4932L25.3506 31.8057C26.6663 32.1344 27.9423 31.1439 27.9424 29.7939V27.2695L33.1943 28.582C34.5101 28.9107 35.7861 27.9204 35.7861 26.5703V12.5674C35.7861 11.3788 34.9739 10.3421 33.8154 10.0527L25.4824 7.9707Z" fill="white"/>
<path d="M22.4772 31.0895C22.1123 30.9966 21.8525 30.6738 21.8397 30.2975L21.4772 19.6032C21.3723 18.188 20.3217 17.0622 19.2238 16.7307C19.1621 16.7121 19.0963 16.7372 19.0599 16.7902C19.0227 16.8441 19.0371 16.9187 19.0888 16.9587C19.3599 17.1686 20.1061 17.8535 20.1061 19.0349L20.1039 30.4881L22.4772 31.0895Z" fill="white"/>
<path d="M30.3131 27.8622C29.9486 27.771 29.6886 27.4492 29.6758 27.0737L29.3131 16.3802C29.2084 14.9647 28.1576 13.8391 27.0597 13.5075C26.9981 13.489 26.9323 13.5141 26.8958 13.5671C26.8587 13.621 26.873 13.6955 26.9247 13.7357C27.1959 13.9455 27.9422 14.6304 27.9422 15.8117L27.9399 27.2688L30.3131 27.8622Z" fill="white"/>
</svg>
