<svg width="26" height="26" viewBox="0 0 26 26" fill="none" xmlns="http://www.w3.org/2000/svg">
<path d="M13.0039 8.21045C15.6722 8.21045 17.7937 10.3313 17.7939 12.9995C17.7939 15.6679 15.6723 17.7896 13.0039 17.7896C10.3357 17.7893 8.21484 15.6678 8.21484 12.9995C8.21506 10.3314 10.3358 8.21067 13.0039 8.21045ZM13.0039 10.2632C11.4036 10.2634 10.2678 11.6313 10.2676 12.9995C10.2676 14.3678 10.9516 15.7366 13.0039 15.7368C15.0565 15.7368 15.7412 14.3679 15.7412 12.9995C15.741 11.4397 14.6044 10.2632 13.0039 10.2632Z" fill="url(#paint0_linear_3092_2861)"/>
<path d="M13.0039 8.21045C15.6722 8.21045 17.7937 10.3313 17.7939 12.9995C17.7939 15.6679 15.6723 17.7896 13.0039 17.7896C10.3357 17.7893 8.21484 15.6678 8.21484 12.9995C8.21506 10.3314 10.3358 8.21067 13.0039 8.21045ZM13.0039 10.2632C11.4036 10.2634 10.2678 11.6313 10.2676 12.9995C10.2676 14.3678 10.9516 15.7366 13.0039 15.7368C15.0565 15.7368 15.7412 14.3679 15.7412 12.9995C15.741 11.4397 14.6044 10.2632 13.0039 10.2632Z" stroke="#22BB77"/>
<path d="M14.1543 1.02002C14.7829 1.02002 15.3116 1.4347 15.5293 1.94873L15.5684 2.05322L15.5693 2.05615L16.1689 3.92236L16.9482 4.23389L18.6836 3.30029L18.6934 3.29541C19.2537 3.0155 19.9952 3.10505 20.4678 3.57764L22.2012 5.31104C22.6738 5.78375 22.7626 6.52514 22.4824 7.08545L22.4785 7.09521L22.1709 6.93018L22.4775 7.09521L21.5439 8.82959L21.8555 9.60889L23.7109 10.2056C24.3715 10.3943 24.8311 11.0413 24.8311 11.6968V14.1519C24.8311 14.8223 24.3588 15.3789 23.7979 15.5659L23.791 15.5679L21.8545 16.1685L21.5439 16.9458L22.4775 18.6812L22.4834 18.6909H22.4824C22.7625 19.2513 22.6738 19.9927 22.2012 20.4653L20.4678 22.1987C19.9951 22.6714 19.2537 22.7601 18.6934 22.48L18.6836 22.4761L18.8486 22.1685L18.6836 22.4751L16.9482 21.5415L16.1709 21.8521L15.5703 23.7886L15.5684 23.7954C15.3814 24.3564 14.8248 24.8286 14.1543 24.8286H11.6992C11.0287 24.8286 10.4721 24.3564 10.2852 23.7954L10.2822 23.7886L9.68164 21.8521L8.9043 21.5415L7.16992 22.4751L7.16016 22.481V22.48C6.59985 22.7601 5.85846 22.6713 5.38574 22.1987L3.65234 20.4653C3.17975 19.9927 3.09019 19.2512 3.37012 18.6909L3.375 18.6812L4.30859 16.9458L3.99707 16.1665L2.1416 15.5698C1.50632 15.3881 1.02246 14.8323 1.02246 14.1519V11.6968C1.02246 11.0263 1.49472 10.4697 2.05566 10.2827L2.05859 10.2817L3.91992 9.68213C3.97051 9.54957 4.0248 9.41007 4.07715 9.26611C4.12988 9.1211 4.18569 8.9732 4.24023 8.83057L3.37305 7.1626L3.37012 7.15771C3.0901 6.5974 3.17973 5.85594 3.65234 5.3833L5.38574 3.6499C5.85838 3.17729 6.59984 3.08765 7.16016 3.36768L7.16992 3.37256L8.88086 4.29443C9.15984 4.1444 9.44657 4.02887 9.76855 3.95557L10.3516 2.14209C10.4676 1.48233 11.041 1.02002 11.6992 1.02002H14.1543ZM11.4531 5.4458L11.4043 5.60303L11.251 5.66455L10.8896 5.80908L10.8672 5.81787L10.8447 5.82373C10.3024 5.95931 9.82595 6.16244 9.34375 6.43799L8.98926 6.65088L8.81543 6.75537L8.63867 6.65576L6.55762 5.48486L5.48047 6.56201L6.5918 8.72021L6.68066 8.89307L6.36426 9.42041C6.09065 9.90033 5.88886 10.3747 5.75391 10.9146L5.74805 10.937L5.73926 10.9595L5.59473 11.3198L5.53223 11.4771L5.36914 11.5249L3.16406 12.1733V13.6772L5.51758 14.397L5.7168 14.4575L5.75684 14.6616L5.82324 14.9956L5.9375 15.353C6.06473 15.7093 6.23091 16.0676 6.43652 16.4282L6.75586 16.9604L6.66016 17.1353L5.48438 19.2896L6.56055 20.3657L8.71484 19.1909L8.89062 19.0952L9.06152 19.1978L9.40234 19.4019L10.8633 20.0278L11.1895 20.0933L11.3936 20.1343L11.4541 20.3335L12.1738 22.687H13.6797L14.3994 20.3335L14.46 20.1343L14.6641 20.0933L15.0088 20.0239C15.481 19.8879 15.9576 19.6849 16.4375 19.4106L16.792 19.1978L16.9629 19.0952L17.1377 19.1909L19.292 20.3657L20.3682 19.2896L19.1934 17.1353L19.0977 16.9604L19.2002 16.7896L19.4043 16.4478L20.0303 14.9868L20.0957 14.6616L20.1367 14.4575L20.3359 14.397L22.6895 13.6772V12.1704L20.3359 11.4517L20.1367 11.3911L20.0957 11.187L20.0254 10.8364C19.89 10.3683 19.6882 9.8962 19.417 9.42041L19.0977 8.88818L19.1934 8.7124L20.3682 6.55811L19.292 5.48193L17.1377 6.65771L16.9629 6.75342L16.792 6.65088L16.4375 6.43799L16.0752 6.24365C15.714 6.06305 15.3548 5.92278 14.998 5.8208L14.9805 5.81592L14.9639 5.80908L14.6025 5.66455L14.4492 5.60303L14.3994 5.4458L13.6826 3.16162H12.1709L11.4531 5.4458Z" fill="#22BB77" stroke="#22BB77" stroke-width="0.69697"/>
<defs>
<linearGradient id="paint0_linear_3092_2861" x1="7.29795" y1="5.16591" x2="15.1973" y2="17.203" gradientUnits="userSpaceOnUse">
<stop offset="1" stop-color="#22BB77"/>
</linearGradient>
</defs>
</svg>
