<svg width="35" height="35" viewBox="0 0 35 35" fill="none" xmlns="http://www.w3.org/2000/svg">
<path d="M3 17.5C3 25.5101 9.48992 32 17.5 32C25.5101 32 32 25.5101 32 17.5C32 9.48992 25.5101 3 17.5 3C9.48992 3 3 9.48992 3 17.5ZM14.6935 14.6935C14.6935 15.7284 13.8575 16.5645 12.8226 16.5645C11.7877 16.5645 10.9516 15.7284 10.9516 14.6935C10.9516 13.6587 11.7877 12.8226 12.8226 12.8226C13.8575 12.8226 14.6935 13.6587 14.6935 14.6935ZM23.9607 15.6583C23.0954 14.8865 21.2595 14.8865 20.3942 15.6583L19.8387 16.1552C19.3534 16.5879 18.5758 16.1786 18.681 15.5238C18.9149 14.0504 20.6806 13.0623 22.1833 13.0623C23.6859 13.0623 25.4516 14.0504 25.6855 15.5238C25.7849 16.1728 25.019 16.5938 24.5278 16.1552L23.9607 15.6583ZM12.2262 21.581C13.5359 23.1538 15.4536 24.0484 17.5 24.0484C19.5464 24.0484 21.4641 23.148 22.7738 21.581C23.569 20.6339 25.0014 21.8266 24.2121 22.7796C22.5458 24.7734 20.1018 25.9194 17.5 25.9194C14.8982 25.9194 12.4542 24.7734 10.7879 22.7738C9.99859 21.8208 11.4427 20.628 12.2262 21.581Z" fill="#A0E83B"/>
</svg>
