<svg width="40" height="40" viewBox="0 0 40 40" fill="none" xmlns="http://www.w3.org/2000/svg">
<path d="M9.3987 28.3334L8.21536 29.5167C7.90495 29.829 7.73071 30.2514 7.73071 30.6917C7.73071 31.132 7.90495 31.5544 8.21536 31.8667C8.52763 32.1771 8.95006 32.3514 9.39036 32.3514C9.83067 32.3514 10.2531 32.1771 10.5654 31.8667L11.7487 30.6834C12.0217 30.3645 12.1644 29.9544 12.1482 29.535C12.132 29.1155 11.9581 28.7176 11.6613 28.4208C11.3645 28.1239 10.9666 27.9501 10.5471 27.9339C10.1277 27.9177 9.71753 28.0603 9.3987 28.3334ZM8.33203 20C8.33203 19.558 8.15644 19.1341 7.84388 18.8215C7.53131 18.509 7.10739 18.3334 6.66536 18.3334H4.9987C4.55667 18.3334 4.13275 18.509 3.82019 18.8215C3.50763 19.1341 3.33203 19.558 3.33203 20C3.33203 20.4421 3.50763 20.866 3.82019 21.1786C4.13275 21.4911 4.55667 21.6667 4.9987 21.6667H6.66536C7.10739 21.6667 7.53131 21.4911 7.84388 21.1786C8.15644 20.866 8.33203 20.4421 8.33203 20ZM19.9987 8.33337C20.4407 8.33337 20.8646 8.15778 21.1772 7.84522C21.4898 7.53266 21.6654 7.10873 21.6654 6.66671V5.00004C21.6654 4.55801 21.4898 4.13409 21.1772 3.82153C20.8646 3.50897 20.4407 3.33337 19.9987 3.33337C19.5567 3.33337 19.1327 3.50897 18.8202 3.82153C18.5076 4.13409 18.332 4.55801 18.332 5.00004V6.66671C18.332 7.10873 18.5076 7.53266 18.8202 7.84522C19.1327 8.15778 19.5567 8.33337 19.9987 8.33337ZM9.3987 11.75C9.70913 12.0579 10.1281 12.2315 10.5654 12.2334C10.7847 12.2346 11.0021 12.1926 11.2052 12.1097C11.4083 12.0267 11.593 11.9045 11.7487 11.75C12.0591 11.4378 12.2334 11.0153 12.2334 10.575C12.2334 10.1347 12.0591 9.71231 11.7487 9.40004L10.5654 8.21671C10.2465 7.94366 9.8364 7.80099 9.41694 7.81719C8.99748 7.83339 8.59958 8.00728 8.30276 8.3041C8.00593 8.60093 7.83205 8.99882 7.81585 9.41828C7.79964 9.83774 7.94232 10.2479 8.21536 10.5667L9.3987 11.75ZM29.3987 12.2334C29.8359 12.2315 30.2549 12.0579 30.5654 11.75L31.7487 10.5667C31.9232 10.4173 32.0649 10.2334 32.1649 10.0267C32.2649 9.81988 32.3212 9.59466 32.33 9.36513C32.3389 9.1356 32.3002 8.90671 32.2164 8.69284C32.1326 8.47896 32.0055 8.28471 31.8431 8.12229C31.6807 7.95987 31.4864 7.83277 31.2726 7.74898C31.0587 7.66519 30.8298 7.62651 30.6003 7.63538C30.3707 7.64424 30.1455 7.70046 29.9387 7.8005C29.732 7.90054 29.5481 8.04224 29.3987 8.21671L28.332 9.40004C28.0216 9.71231 27.8474 10.1347 27.8474 10.575C27.8474 11.0153 28.0216 11.4378 28.332 11.75C28.6259 12.0423 29.018 12.2146 29.432 12.2334H29.3987ZM34.9987 18.3334H33.332C32.89 18.3334 32.4661 18.509 32.1535 18.8215C31.841 19.1341 31.6654 19.558 31.6654 20C31.6654 20.4421 31.841 20.866 32.1535 21.1786C32.4661 21.4911 32.89 21.6667 33.332 21.6667H34.9987C35.4407 21.6667 35.8646 21.4911 36.1772 21.1786C36.4898 20.866 36.6654 20.4421 36.6654 20C36.6654 19.558 36.4898 19.1341 36.1772 18.8215C35.8646 18.509 35.4407 18.3334 34.9987 18.3334ZM19.9987 31.6667C19.5567 31.6667 19.1327 31.8423 18.8202 32.1549C18.5076 32.4674 18.332 32.8913 18.332 33.3334V35C18.332 35.4421 18.5076 35.866 18.8202 36.1786C19.1327 36.4911 19.5567 36.6667 19.9987 36.6667C20.4407 36.6667 20.8646 36.4911 21.1772 36.1786C21.4898 35.866 21.6654 35.4421 21.6654 35V33.3334C21.6654 32.8913 21.4898 32.4674 21.1772 32.1549C20.8646 31.8423 20.4407 31.6667 19.9987 31.6667ZM30.5987 28.3334C30.2821 28.1572 29.9166 28.0891 29.5578 28.1393C29.199 28.1894 28.8662 28.3552 28.61 28.6114C28.3538 28.8676 28.1881 29.2003 28.1379 29.5591C28.0878 29.918 28.1559 30.2834 28.332 30.6L29.5154 31.7834C29.8276 32.0938 30.2501 32.268 30.6904 32.268C31.1307 32.268 31.5531 32.0938 31.8654 31.7834C32.1758 31.4711 32.35 31.0487 32.35 30.6084C32.35 30.1681 32.1758 29.7456 31.8654 29.4334L30.5987 28.3334ZM19.9987 10.8334C18.1857 10.8334 16.4134 11.371 14.906 12.3782C13.3985 13.3855 12.2236 14.8171 11.5298 16.4921C10.836 18.1671 10.6545 20.0102 11.0082 21.7884C11.3619 23.5665 12.2349 25.1999 13.5169 26.4819C14.7989 27.7638 16.4322 28.6369 18.2104 28.9906C19.9885 29.3443 21.8316 29.1627 23.5066 28.4689C25.1816 27.7751 26.6133 26.6002 27.6205 25.0928C28.6277 23.5853 29.1654 21.813 29.1654 20C29.161 17.5702 28.1938 15.2412 26.4756 13.5231C24.7575 11.805 22.4285 10.8378 19.9987 10.8334ZM19.9987 25.8334C18.845 25.8334 17.7172 25.4913 16.7579 24.8503C15.7986 24.2093 15.0509 23.2983 14.6094 22.2324C14.1679 21.1665 14.0524 19.9936 14.2774 18.862C14.5025 17.7305 15.0581 16.6911 15.8739 15.8753C16.6897 15.0594 17.7291 14.5039 18.8607 14.2788C19.9922 14.0537 21.1651 14.1692 22.231 14.6107C23.2969 15.0523 24.208 15.7999 24.8489 16.7592C25.4899 17.7185 25.832 18.8463 25.832 20C25.832 21.5471 25.2174 23.0309 24.1235 24.1248C23.0295 25.2188 21.5458 25.8334 19.9987 25.8334Z" fill="#D9E785"/>
</svg>
