<svg width="32" height="32" viewBox="0 0 32 32" fill="none" xmlns="http://www.w3.org/2000/svg">
<path d="M16.085 9.37207C19.7282 9.37207 22.6259 12.2699 22.626 15.9131C22.626 19.5563 19.7282 22.4541 16.085 22.4541C12.4417 22.4541 9.54395 19.5563 9.54395 15.9131C9.54398 12.2699 12.4418 9.37211 16.085 9.37207ZM16.085 11.291C13.6348 11.2911 11.4629 13.463 11.4629 15.9131C11.4629 18.3632 13.6348 20.5351 16.085 20.5352C18.5351 20.5352 20.707 18.3633 20.707 15.9131C20.707 13.4629 18.5351 11.291 16.085 11.291Z" fill="url(#paint0_linear_3103_3493)" stroke="url(#paint1_linear_3103_3493)" stroke-width="0.348837"/>
<path d="M17.4219 2.49121C18.0876 2.49121 18.6489 2.9636 18.8369 3.52734L18.8379 3.5293L19.5625 5.78418L20.6602 6.22363L22.7559 5.0957L22.7607 5.09375C23.3243 4.81199 24.0724 4.9036 24.5449 5.37598L26.5449 7.37598C27.0174 7.8485 27.1099 8.59755 26.8281 9.16113L26.8252 9.16504L25.6973 11.2607L26.1357 12.3574L28.3916 13.083H28.3906C29.0493 13.2734 29.5127 13.9261 29.5127 14.583V17.416C29.5127 18.0819 29.0404 18.6431 28.4766 18.8311L28.4736 18.833L26.1357 19.5576L25.6973 20.6533L26.8252 22.75L26.8281 22.7549C27.1098 23.3184 27.0174 24.0666 26.5449 24.5391L24.5449 26.5391C24.0725 27.0115 23.3243 27.1039 22.7607 26.8223L22.7559 26.8193L20.6592 25.6914L19.5635 26.1299L18.8389 28.4678L18.8369 28.4707C18.649 29.0346 18.0878 29.5068 17.4219 29.5068H14.5889C13.923 29.5068 13.3608 29.0346 13.1729 28.4707L13.1719 28.4678L12.4463 26.1299L11.3496 25.6914L9.25488 26.8193L9.25 26.8223C8.68642 27.1041 7.93737 27.0116 7.46484 26.5391L5.46484 24.5391C4.99264 24.0666 4.90097 23.3183 5.18262 22.7549L5.18457 22.75L6.3125 20.6533L5.87402 19.5566L3.62402 18.834L3.50488 18.7949C2.91785 18.5782 2.49707 18.0452 2.49707 17.416V14.583C2.49707 13.9172 2.96938 13.355 3.5332 13.167H3.53516L5.78711 12.4424C5.85945 12.2575 5.93428 12.0587 6.00781 11.8564C6.08119 11.6547 6.15588 11.4503 6.23047 11.2598L5.18359 9.24609L5.18262 9.24414C4.90083 8.68056 4.99232 7.93151 5.46484 7.45898L7.46484 5.45898C7.90791 5.01592 8.59419 4.90743 9.14258 5.12793L9.25 5.17676L9.25488 5.17871L11.335 6.29883C11.7105 6.0837 12.0935 5.93264 12.5371 5.84668L13.252 3.62207C13.3561 2.95995 13.9282 2.49121 14.5889 2.49121H17.4219ZM14.0879 7.30176L14.0635 7.38086L13.9863 7.41113L13.5703 7.57812L13.5586 7.58203L13.5479 7.58496C12.899 7.74716 12.3303 7.99082 11.7588 8.31738L11.3447 8.56543L11.2578 8.61816L11.1699 8.56836L8.61719 7.13281L7.13477 8.61523L8.49316 11.2529L8.53809 11.3389L8.48828 11.4229L8.23926 11.835C7.9126 12.4066 7.67004 12.9761 7.50781 13.625L7.50488 13.6367L7.5 13.6475L7.33398 14.0645L7.30273 14.1426L7.2207 14.167L4.5127 14.9629V17.0361L7.38965 17.916L7.48926 17.9463L7.50977 18.0488L7.58984 18.4512L7.72656 18.8779C7.87868 19.3039 8.07685 19.731 8.32129 20.1592L8.57129 20.5762L8.62305 20.6621L8.5752 20.75L7.13672 23.3848L8.61914 24.8662L11.2549 23.4297L11.3428 23.3818L11.4287 23.4336L11.833 23.6768L13.5576 24.415L13.9561 24.4951L14.0586 24.5156L14.0889 24.6152L14.9668 27.4912H17.043L17.9219 24.6152L17.9521 24.5156L18.0547 24.4951L18.458 24.4141C19.025 24.252 19.5942 24.0095 20.165 23.6836L20.582 23.4336L20.668 23.3818L20.7559 23.4297L23.3906 24.8662L24.8721 23.3848L23.4355 20.75L23.3877 20.6621L23.4395 20.5762L23.6836 20.168L24.4209 18.4473L24.501 18.0488L24.5215 17.9463L24.6211 17.916L27.4971 17.0361V14.9609L24.6211 14.083L24.5215 14.0527L24.501 13.9502L24.4209 13.5469L24.2832 13.1201C24.1307 12.6933 23.9327 12.265 23.6875 11.8359V11.835L23.4395 11.4229L23.3877 11.3369L23.4355 11.249L24.8721 8.61328L23.3906 7.13086L20.7559 8.56934L20.668 8.61719L20.582 8.56543L20.165 8.31543V8.31445C19.5939 7.9885 19.0242 7.74603 18.457 7.58398L18.4482 7.58105L18.4404 7.57812L18.0234 7.41113L17.9473 7.38086L17.9219 7.30176L17.0439 4.50684H14.9668L14.0879 7.30176Z" fill="url(#paint2_linear_3103_3493)" stroke="url(#paint3_linear_3103_3493)" stroke-width="0.348837"/>
<path d="M16.0078 14.1152V16.2091H18.1017" stroke="url(#paint4_linear_3103_3493)" stroke-width="1.39535" stroke-linecap="square"/>
<defs>
<linearGradient id="paint0_linear_3103_3493" x1="8.5" y1="5.5" x2="19" y2="21.5" gradientUnits="userSpaceOnUse">
<stop stop-color="#D6E583"/>
<stop offset="1" stop-color="#22BB77"/>
</linearGradient>
<linearGradient id="paint1_linear_3103_3493" x1="17.5676" y1="22.2794" x2="10.7653" y2="3.96548" gradientUnits="userSpaceOnUse">
<stop stop-color="#22BB77"/>
<stop offset="1" stop-color="#D6E583"/>
</linearGradient>
<linearGradient id="paint2_linear_3103_3493" x1="-2.5" y1="-14" x2="16.0052" y2="29.3327" gradientUnits="userSpaceOnUse">
<stop stop-color="#D6E583"/>
<stop offset="1" stop-color="#22BB77"/>
</linearGradient>
<linearGradient id="paint3_linear_3103_3493" x1="-5" y1="-12.5" x2="16.0052" y2="29.3327" gradientUnits="userSpaceOnUse">
<stop stop-color="#D6E583"/>
<stop offset="1" stop-color="#22BB77"/>
</linearGradient>
<linearGradient id="paint4_linear_3103_3493" x1="14.5" y1="12.5" x2="17.0548" y2="16.2091" gradientUnits="userSpaceOnUse">
<stop stop-color="#D6E583"/>
<stop offset="1" stop-color="#22BB77"/>
</linearGradient>
</defs>
</svg>
