<svg width="20" height="20" viewBox="0 0 20 20" fill="none" xmlns="http://www.w3.org/2000/svg">
<path d="M15.9854 10.8889H6.24272C5.99515 10.8889 5.78777 10.8036 5.62058 10.6329C5.4534 10.4622 5.36951 10.2513 5.36893 10C5.36835 9.74874 5.45223 9.53778 5.62058 9.36711C5.78893 9.19644 5.99631 9.11111 6.24272 9.11111H15.9854L15.2427 8.35555C15.068 8.17778 14.9841 7.97037 14.9911 7.73333C14.9981 7.4963 15.0819 7.28889 15.2427 7.11111C15.4175 6.93333 15.6249 6.84089 15.8649 6.83378C16.1049 6.82667 16.3125 6.9117 16.4879 7.08889L18.7379 9.37778C18.9126 9.55555 19 9.76296 19 10C19 10.237 18.9126 10.4444 18.7379 10.6222L16.4879 12.9111C16.3131 13.0889 16.1057 13.1742 15.8657 13.1671C15.6257 13.16 15.4181 13.0673 15.2427 12.8889C15.0825 12.7111 14.9986 12.5037 14.9911 12.2667C14.9835 12.0296 15.0674 11.8222 15.2427 11.6444L15.9854 10.8889ZM11.4854 6.44444V3.77778H2.74757V16.2222H11.4854V13.5556C11.4854 13.3037 11.5693 13.0927 11.7371 12.9227C11.9049 12.7526 12.1122 12.6673 12.3592 12.6667C12.6062 12.6661 12.8139 12.7514 12.9822 12.9227C13.1506 13.0939 13.2342 13.3049 13.233 13.5556V16.2222C13.233 16.7111 13.062 17.1298 12.7201 17.4782C12.3782 17.8267 11.9666 18.0006 11.4854 18H2.74757C2.26699 18 1.85573 17.8261 1.51379 17.4782C1.17184 17.1304 1.00058 16.7117 1 16.2222V3.77778C1 3.28889 1.17126 2.87052 1.51379 2.52267C1.85631 2.17481 2.26757 2.00059 2.74757 2H11.4854C11.966 2 12.3776 2.17422 12.7201 2.52267C13.0626 2.87111 13.2336 3.28948 13.233 3.77778V6.44444C13.233 6.6963 13.1491 6.90756 12.9814 7.07822C12.8136 7.24889 12.6062 7.33393 12.3592 7.33333C12.1122 7.33274 11.9049 7.24741 11.7371 7.07733C11.5693 6.90726 11.4854 6.6963 11.4854 6.44444Z" fill="#686868"/>
</svg>
