<svg width="35" height="35" viewBox="0 0 35 35" fill="none" xmlns="http://www.w3.org/2000/svg">
<path d="M33.9989 12.817V21.1023C34.015 21.7192 33.8582 22.3297 33.5462 22.8627C33.2061 23.3972 32.725 23.8275 32.1557 24.1063C31.7038 24.3313 31.2055 24.4475 30.7006 24.4455H30.2964C29.7051 24.3622 29.1469 24.1224 28.6796 23.751L24.5891 20.5209V21.9906C24.5891 23.8496 23.8498 25.6325 22.5339 26.947C21.218 28.2615 19.4332 29 17.5722 29H8.01696C6.15664 28.9957 4.37308 28.2587 3.0534 26.9489C2.39905 26.2997 1.88052 25.5271 1.528 24.6758C1.17548 23.8246 0.996019 22.9118 1.00007 21.9906V12.0256C0.998357 11.1054 1.17972 10.1941 1.53361 9.34456C2.24827 7.62384 3.61357 6.25419 5.33308 5.53299C6.18353 5.17947 7.09582 4.9983 8.01696 5.00001H17.3782C18.3044 5.0004 19.2216 5.18145 20.0783 5.53299C21.7978 6.25419 23.1631 7.62384 23.8777 9.34456C24.2334 10.1989 24.4113 11.1163 24.3951 12.0417V13.4953L28.4856 10.2652C28.8578 9.97299 29.2873 9.76222 29.7463 9.64649C30.2053 9.53077 30.6835 9.51267 31.15 9.59337C31.6164 9.67408 32.0607 9.85178 32.454 10.115C32.8473 10.3781 33.1808 10.7209 33.433 11.1211C33.7677 11.6267 33.9633 12.2113 33.9989 12.817Z" fill="url(#paint0_linear_3104_3624)"/>
<defs>
<linearGradient id="paint0_linear_3104_3624" x1="17.5" y1="5" x2="21.53" y2="28.3064" gradientUnits="userSpaceOnUse">
<stop stop-color="#D6E685"/>
<stop offset="1" stop-color="#4EC67B"/>
</linearGradient>
</defs>
</svg>
