<svg width="12" height="12" viewBox="0 0 12 12" fill="none" xmlns="http://www.w3.org/2000/svg">
<path d="M6 0C9.3138 0 12 2.66806 12 5.95948C12 9.25089 9.3138 11.919 6 11.919C2.6862 11.919 0 9.25089 0 5.95948C0 2.66806 2.6862 0 6 0ZM6 2.38379C5.84087 2.38379 5.68826 2.44658 5.57574 2.55834C5.46321 2.6701 5.4 2.82168 5.4 2.97974V5.95948C5.40003 6.11752 5.46327 6.26908 5.5758 6.38081L7.3758 8.16865C7.48896 8.27721 7.64052 8.33728 7.79784 8.33592C7.95516 8.33456 8.10565 8.27189 8.21689 8.16139C8.32814 8.0509 8.39124 7.90143 8.3926 7.74517C8.39397 7.58892 8.3335 7.43838 8.2242 7.32598L6.6 5.71275V2.97974C6.6 2.82168 6.53679 2.6701 6.42426 2.55834C6.31174 2.44658 6.15913 2.38379 6 2.38379Z" fill="#22BB77"/>
</svg>
