<svg width="24" height="24" viewBox="0 0 24 24" fill="none" xmlns="http://www.w3.org/2000/svg">
<path d="M2.09947 18.6C1.91203 18.5999 1.72773 18.5519 1.56404 18.4606C1.40036 18.3693 1.26273 18.2376 1.16421 18.0782C1.06569 17.9187 1.00955 17.7367 1.00111 17.5495C0.992681 17.3623 1.03223 17.176 1.11602 17.0083L3.19953 12.8393V9.8C3.19953 7.46609 4.12672 5.22778 5.77713 3.57746C7.42754 1.92714 9.66597 1 12 1C14.334 1 16.5725 1.92714 18.2229 3.57746C19.8733 5.22778 20.8005 7.46609 20.8005 9.8V12.8404L22.884 17.0083C22.9678 17.176 23.0073 17.3623 22.9989 17.5495C22.9905 17.7367 22.9343 17.9187 22.8358 18.0782C22.7373 18.2376 22.5996 18.3693 22.436 18.4606C22.2723 18.5519 22.088 18.5999 21.9005 18.6H2.09947ZM12 23C11.0243 23.0002 10.0762 22.6762 9.30474 22.0788C8.5333 21.4815 7.9823 20.6447 7.73837 19.7H16.2616C16.0177 20.6447 15.4667 21.4815 14.6953 22.0788C13.9238 22.6762 12.9757 23.0002 12 23Z" fill="white"/>
</svg>
