<svg width="435" height="125" viewBox="0 0 435 125" fill="none" xmlns="http://www.w3.org/2000/svg">
<g filter="url(#filter0_d_3031_3019)">
<path d="M160.058 66.7861C160.058 64.9315 159.223 63.4479 157.554 62.3351C155.839 61.2687 152.895 60.2024 148.722 59.136C144.503 58.0696 141.605 57.235 140.029 56.6323C133.352 54.175 130.014 50.1413 130.014 44.5312C130.014 41.4247 131.103 38.8051 133.283 36.6724C135.508 34.4932 138.244 32.8705 141.489 31.8041C143.854 31.1086 146.38 30.7609 149.07 30.7609C156.998 30.7609 163.28 33.0791 167.917 37.7156L163.327 43.6966C159.293 40.312 154.471 38.6197 148.861 38.6197C147.841 38.6197 146.798 38.7124 145.731 38.8979C144.711 39.037 143.622 39.292 142.463 39.6629C141.35 40.0338 140.446 40.6365 139.75 41.4711C139.055 42.2593 138.707 43.2098 138.707 44.3225C138.707 46.1771 139.866 47.6608 142.185 48.7735C143.344 49.4226 146.033 50.2804 150.252 51.3467C154.471 52.4131 157.346 53.2477 158.876 53.8504C162.029 55.1023 164.463 56.7018 166.178 58.6492C167.894 60.5501 168.751 63.0538 168.751 66.1602C168.751 69.2203 167.755 71.8862 165.761 74.1581C163.814 76.4299 161.449 78.0759 158.667 79.0959C155.885 80.0695 153.011 80.5564 150.043 80.5564C146.241 80.5564 142.277 79.7682 138.151 78.1918C134.071 76.569 130.895 74.3899 128.623 71.6544L133.63 65.7429C135.809 68.0148 138.406 69.7534 141.419 70.9589C144.433 72.118 147.563 72.6976 150.808 72.6976C153.127 72.6976 155.236 72.2339 157.137 71.3067C159.084 70.3794 160.058 68.8725 160.058 66.7861ZM209.287 31.3173H219.372L199.69 58.9273V80H191.275V58.9273L171.732 31.3173H182.164L195.587 50.7208L209.287 31.3173ZM253.373 66.7861C253.373 64.9315 252.538 63.4479 250.869 62.3351C249.154 61.2687 246.21 60.2024 242.037 59.136C237.818 58.0696 234.92 57.235 233.343 56.6323C226.667 54.175 223.329 50.1413 223.329 44.5312C223.329 41.4247 224.418 38.8051 226.597 36.6724C228.823 34.4932 231.558 32.8705 234.804 31.8041C237.169 31.1086 239.695 30.7609 242.385 30.7609C250.313 30.7609 256.595 33.0791 261.232 37.7156L256.642 43.6966C252.608 40.312 247.786 38.6197 242.176 38.6197C241.156 38.6197 240.113 38.7124 239.046 38.8979C238.026 39.037 236.937 39.292 235.778 39.6629C234.665 40.0338 233.761 40.6365 233.065 41.4711C232.37 42.2593 232.022 43.2098 232.022 44.3225C232.022 46.1771 233.181 47.6608 235.499 48.7735C236.658 49.4226 239.348 50.2804 243.567 51.3467C247.786 52.4131 250.661 53.2477 252.191 53.8504C255.343 55.1023 257.778 56.7018 259.493 58.6492C261.208 60.5501 262.066 63.0538 262.066 66.1602C262.066 69.2203 261.069 71.8862 259.076 74.1581C257.128 76.4299 254.764 78.0759 251.982 79.0959C249.2 80.0695 246.325 80.5564 243.358 80.5564C239.556 80.5564 235.592 79.7682 231.466 78.1918C227.386 76.569 224.21 74.3899 221.938 71.6544L226.945 65.7429C229.124 68.0148 231.721 69.7534 234.734 70.9589C237.748 72.118 240.878 72.6976 244.123 72.6976C246.441 72.6976 248.551 72.2339 250.452 71.3067C252.399 70.3794 253.373 68.8725 253.373 66.7861ZM281.947 39.2456H265.603V31.3173H306.705V39.2456H290.362V80H281.947V39.2456ZM349.878 80H313.018V31.3173H349.183V39.2456H321.434V51.4858H347.375V59.136H321.434V72.0717H349.878V80ZM367.65 80H359.234V31.3173H366.676L384.063 53.92L400.823 31.3173H408.195V80H399.78V46.2698L384.967 65.6038H382.811L367.65 46.2003V80Z" fill="white"/>
<path d="M66.5602 15.4088C66.8295 15.2006 67.0704 14.9581 67.2768 14.6873H79.7665L79.9372 14.6825C80.8221 14.6342 81.7091 14.6342 82.594 14.6825H82.7793C85.555 14.6733 88.2973 15.2881 90.8035 16.4813C95.3834 18.2794 99.3452 21.3642 102.211 25.3636C104.382 28.3916 105.859 31.8608 106.536 35.5245C107.213 39.1881 107.075 42.956 106.131 46.5601L90.1357 30.7797C89.451 30.1046 88.528 29.7262 87.5665 29.7267H64.2884C63.5414 29.7571 62.8217 30.0157 62.2263 30.4677L53.0418 37.4292C52.0445 38.1869 50.7873 38.518 49.5461 38.3499C48.305 38.1817 47.1812 37.528 46.4215 36.5322C46.0467 36.0469 45.772 35.4919 45.6134 34.8996C45.4547 34.3072 45.4153 33.6893 45.4974 33.0815C45.5795 32.4738 45.7814 31.8885 46.0915 31.3594C46.4017 30.8304 46.8138 30.3682 47.3039 29.9997L66.5602 15.4088ZM42.4972 69.3946L42.4289 69.458L37.6807 74.177L37.6173 74.2355C36.7857 75.0261 35.6791 75.4622 34.5317 75.4513C33.3843 75.4403 32.2862 74.9833 31.4699 74.177C31.0609 73.7733 30.7361 73.2925 30.5144 72.7623C30.2928 72.2322 30.1786 71.6633 30.1786 71.0886C30.1786 70.514 30.2928 69.9451 30.5144 69.4149C30.7361 68.8848 31.0609 68.4039 31.4699 68.0003L36.2182 63.2813C37.0452 62.4624 38.1621 62.0029 39.326 62.0029C40.4899 62.0029 41.6068 62.4624 42.4338 63.2813C43.249 64.0857 43.7132 65.1797 43.7251 66.3249C43.7369 67.4701 43.2955 68.5735 42.4972 69.3946ZM41.0785 77.6723C40.2801 78.4934 39.8388 79.5968 39.8506 80.742C39.8625 81.8872 40.3267 82.9812 41.1419 83.7856C42.8579 85.4918 45.6415 85.4918 47.3575 83.7856L52.1058 79.0666C52.5661 78.6102 52.9185 78.0566 53.1372 77.4464C53.356 76.8362 53.4356 76.1848 53.3702 75.5399C53.3047 74.895 53.096 74.2729 52.7591 73.7191C52.4223 73.1653 51.9658 72.6938 51.4233 72.3391C50.5904 71.791 49.5965 71.5409 48.6034 71.6295C47.6103 71.718 46.6764 72.1399 45.9535 72.8266L45.8902 72.8948L41.1419 77.609L41.0785 77.6723ZM30.802 55.6081C31.2111 56.0117 31.5358 56.4925 31.7575 57.0227C31.9792 57.5529 32.0933 58.1218 32.0933 58.6964C32.0933 59.271 31.9792 59.8399 31.7575 60.3701C31.5358 60.9003 31.2111 61.3811 30.802 61.7847L26.0538 66.5037C25.2268 67.3227 24.1099 67.7821 22.946 67.7821C21.7821 67.7821 20.6652 67.3227 19.8382 66.5037C19.4291 66.1001 19.1044 65.6193 18.8827 65.0891C18.661 64.5589 18.5469 63.99 18.5469 63.4154C18.5469 62.8408 18.661 62.2719 18.8827 61.7417C19.1044 61.2115 19.4291 60.7307 19.8382 60.3271L24.5864 55.6081C25.4134 54.7891 26.5303 54.3297 27.6942 54.3297C28.8581 54.3297 29.975 54.7891 30.802 55.6081ZM61.7729 82.5035C62.1819 82.9071 62.5067 83.3879 62.7284 83.9181C62.95 84.4482 63.0642 85.0171 63.0642 85.5918C63.0642 86.1664 62.95 86.7353 62.7284 87.2655C62.5067 87.7956 62.1819 88.2765 61.7729 88.6801L57.0247 93.3991C56.1976 94.2181 55.0808 94.6775 53.9168 94.6775C52.7529 94.6775 51.6361 94.2181 50.809 93.3991C50.1602 92.7579 49.73 91.9286 49.5794 91.0289C49.4289 90.1292 49.5657 89.205 49.9705 88.3876L49.9754 88.3778C50.1885 87.9499 50.4701 87.5596 50.809 87.2225L55.5573 82.5035C56.3843 81.6845 57.5012 81.2251 58.6651 81.2251C59.829 81.2251 60.9459 81.6845 61.7729 82.5035ZM30.0415 23.5452C33.2786 20.3297 37.2038 17.8914 41.5209 16.4144C45.838 14.9373 50.4341 14.4602 54.9625 15.0188L42.892 24.1692C41.6337 25.1196 40.576 26.3098 39.78 27.671C38.984 29.0323 38.4654 30.5377 38.2542 32.1004C38.043 33.6631 38.1433 35.2522 38.5494 36.7759C38.9555 38.2997 39.6594 39.7279 40.6203 40.9782C42.5579 43.5038 45.4157 45.1606 48.5702 45.5871C51.7247 46.0136 54.9198 45.1752 57.4585 43.2548L65.668 37.0392H86.0699L103.167 53.9067L103.342 54.1017L108.948 59.708C110.209 60.9867 110.932 62.7003 110.967 64.4959C111.003 66.2916 110.348 68.0323 109.138 69.3596C107.928 70.687 106.256 71.4997 104.464 71.6305C102.673 71.7612 100.9 71.2 99.5103 70.0625L99.0423 69.5945L98.7498 69.341L93.4214 64.0175C93.1965 63.7847 92.9276 63.599 92.6302 63.4712C92.3328 63.3435 92.013 63.2762 91.6893 63.2734C91.3657 63.2706 91.0447 63.3323 90.7451 63.4548C90.4456 63.5774 90.1734 63.7584 89.9446 63.9872C89.7157 64.2161 89.5347 64.4883 89.4121 64.7878C89.2896 65.0874 89.2279 65.4084 89.2307 65.732C89.2335 66.0557 89.3008 66.3755 89.4285 66.6729C89.5563 66.9703 89.742 67.2392 89.9748 67.4641L95.581 73.0703C95.7858 73.2718 95.9938 73.4652 96.205 73.6505L96.4195 73.865C96.889 74.3244 97.2626 74.8724 97.5189 75.4772C97.7752 76.082 97.9089 76.7316 97.9125 77.3885C97.916 78.0453 97.7893 78.6964 97.5395 79.3039C97.2898 79.9114 96.922 80.4634 96.4576 80.9279C95.9931 81.3923 95.4411 81.7601 94.8336 82.0098C94.2261 82.2596 93.575 82.3863 92.9182 82.3828C92.2613 82.3793 91.6117 82.2455 91.0069 81.9892C90.4021 81.7329 89.8541 81.3593 89.3947 80.8898L88.5659 80.066C88.2221 79.7231 87.7838 79.4907 87.307 79.3986C86.8303 79.3065 86.3369 79.3589 85.8902 79.549C85.4434 79.7391 85.0636 80.0583 84.7994 80.4657C84.5353 80.8731 84.3988 81.3501 84.4075 81.8356C84.4004 82.1652 84.4603 82.4929 84.5834 82.7987C84.7066 83.1046 84.8906 83.3823 85.1242 83.615L86.2113 84.7021C86.6593 85.1239 87.018 85.6314 87.2663 86.1944C87.5145 86.7575 87.6472 87.3646 87.6565 87.9799C87.6657 88.5952 87.5514 89.206 87.3202 89.7763C87.089 90.3466 86.7456 90.8646 86.3105 91.2997C85.8754 91.7348 85.3574 92.0781 84.7871 92.3093C84.2169 92.5405 83.606 92.6549 82.9907 92.6457C82.3754 92.6364 81.7683 92.5037 81.2053 92.2555C80.6422 92.0072 80.1347 91.6485 79.7129 91.2005H79.708L79.6495 91.1371L78.6258 90.1133C78.4004 89.8853 78.1321 89.7043 77.8363 89.5807C77.5404 89.4572 77.223 89.3936 76.9025 89.3936C76.5819 89.3936 76.2645 89.4572 75.9687 89.5807C75.6729 89.7043 75.4045 89.8853 75.1792 90.1133C74.7222 90.5704 74.4655 91.1903 74.4655 91.8366C74.4655 92.483 74.7222 93.1029 75.1792 93.56L76.2419 94.6276C76.6795 95.0597 77.0277 95.5738 77.2665 96.1405C77.5054 96.7072 77.6304 97.3154 77.6342 97.9304C77.6381 98.5453 77.5208 99.155 77.289 99.7247C77.0572 100.294 76.7155 100.813 76.2833 101.25C75.8512 101.688 75.3371 102.036 74.7704 102.275C74.2037 102.514 73.5956 102.639 72.9806 102.643C72.3656 102.646 71.7559 102.529 71.1863 102.297C70.6166 102.066 70.0982 101.724 69.6607 101.292L62.6845 94.6617L65.2439 92.117C66.106 91.263 66.7904 90.2467 67.2574 89.1267C67.7244 88.0067 67.9649 86.8052 67.9649 85.5918C67.9649 84.3783 67.7244 83.1769 67.2574 82.0569C66.7904 80.9369 66.106 79.9205 65.2439 79.0666C64.3331 78.1591 63.2433 77.4512 62.0439 76.9879C60.8446 76.5246 59.5619 76.3161 58.2775 76.3756C58.3344 75.0964 58.1225 73.8195 57.6557 72.6272C57.1888 71.4348 56.4773 70.3536 55.567 69.4531C54.6568 68.5462 53.5678 67.8387 52.3693 67.3754C51.1708 66.9121 49.8891 66.7032 48.6055 66.7621C48.6617 65.4837 48.4495 64.2077 47.9827 63.0163C47.5159 61.8249 46.8047 60.7444 45.895 59.8445C44.7371 58.694 43.297 57.8682 41.7192 57.4498C40.1414 57.0314 38.4814 57.0351 36.9055 57.4606C36.6346 55.4546 35.7073 53.5947 34.2682 52.1712C32.6644 50.5816 30.5385 49.6274 28.2848 49.4858C26.0312 49.3442 23.8026 50.0246 22.0124 51.401C20.8629 46.4586 20.9973 41.3042 22.4027 36.4284C23.8081 31.5526 26.4378 27.1176 30.0415 23.5452Z" fill="white"/>
</g>
<defs>
<filter id="filter0_d_3031_3019" x="0" y="0" width="412.195" height="125" filterUnits="userSpaceOnUse" color-interpolation-filters="sRGB">
<feFlood flood-opacity="0" result="BackgroundImageFix"/>
<feColorMatrix in="SourceAlpha" type="matrix" values="0 0 0 0 0 0 0 0 0 0 0 0 0 0 0 0 0 0 127 0" result="hardAlpha"/>
<feOffset dy="4"/>
<feGaussianBlur stdDeviation="2"/>
<feComposite in2="hardAlpha" operator="out"/>
<feColorMatrix type="matrix" values="0 0 0 0 0 0 0 0 0 0 0 0 0 0 0 0 0 0 0.15 0"/>
<feBlend mode="normal" in2="BackgroundImageFix" result="effect1_dropShadow_3031_3019"/>
<feBlend mode="normal" in="SourceGraphic" in2="effect1_dropShadow_3031_3019" result="shape"/>
</filter>
</defs>
</svg>
