<svg width="44" height="42" viewBox="0 0 44 42" fill="none" xmlns="http://www.w3.org/2000/svg">
<path d="M22.8787 1.11174C23.003 1.01565 23.1142 0.903695 23.2095 0.778736H28.974L29.0527 0.776486C29.4612 0.754192 29.8705 0.754192 30.279 0.776486H30.3645C31.6456 0.772277 32.9113 1.05602 34.068 1.60674C36.1818 2.4366 38.0103 3.86035 39.333 5.70624C40.3349 7.10377 41.0164 8.70497 41.3291 10.3959C41.6418 12.0868 41.5779 13.8258 41.142 15.4892L33.7597 8.20599C33.4438 7.89437 33.0177 7.71977 32.574 7.71999H21.8302C21.4855 7.734 21.1533 7.85337 20.8785 8.06199L16.6395 11.275C16.1792 11.6247 15.5989 11.7775 15.0261 11.6999C14.4533 11.6223 13.9346 11.3206 13.584 10.861C13.411 10.637 13.2842 10.3808 13.211 10.1075C13.1378 9.83406 13.1196 9.54885 13.1575 9.26837C13.1953 8.98789 13.2885 8.71772 13.4317 8.47355C13.5748 8.22938 13.765 8.01607 13.9912 7.84598L22.8787 1.11174ZM11.7727 26.0282L11.7412 26.0575L9.54972 28.2355L9.52047 28.2625C9.13669 28.6274 8.62595 28.8287 8.09638 28.8236C7.56681 28.8186 7.06 28.6077 6.68323 28.2355C6.49445 28.0492 6.34455 27.8273 6.24224 27.5826C6.13993 27.3379 6.08725 27.0753 6.08725 26.8101C6.08725 26.5449 6.13993 26.2823 6.24224 26.0376C6.34455 25.7929 6.49445 25.571 6.68323 25.3847L8.87473 23.2067C9.25643 22.8287 9.77191 22.6167 10.3091 22.6167C10.8463 22.6167 11.3618 22.8287 11.7435 23.2067C12.1197 23.578 12.334 24.0829 12.3395 24.6115C12.3449 25.14 12.1412 25.6493 11.7727 26.0282ZM11.118 29.8487C10.7495 30.2277 10.5458 30.737 10.5512 31.2655C10.5567 31.7941 10.771 32.299 11.1472 32.6702C11.9392 33.4577 13.224 33.4577 14.016 32.6702L16.2075 30.4922C16.4199 30.2816 16.5826 30.0261 16.6835 29.7445C16.7845 29.4628 16.8212 29.1622 16.791 28.8646C16.7608 28.5669 16.6645 28.2798 16.509 28.0242C16.3535 27.7686 16.1429 27.5509 15.8925 27.3872C15.5081 27.1343 15.0494 27.0189 14.591 27.0597C14.1327 27.1006 13.7016 27.2953 13.368 27.6122L13.3387 27.6437L11.1472 29.8195L11.118 29.8487ZM6.37498 19.6652C6.56376 19.8515 6.71365 20.0734 6.81596 20.3181C6.91827 20.5628 6.97095 20.8254 6.97095 21.0906C6.97095 21.3558 6.91827 21.6184 6.81596 21.8631C6.71365 22.1078 6.56376 22.3297 6.37498 22.516L4.18348 24.694C3.80177 25.072 3.28629 25.284 2.7491 25.284C2.21191 25.284 1.69643 25.072 1.31473 24.694C1.12595 24.5077 0.97605 24.2858 0.873742 24.0411C0.771434 23.7964 0.71875 23.5338 0.71875 23.2686C0.71875 23.0034 0.771434 22.7408 0.873742 22.4961C0.97605 22.2514 1.12595 22.0295 1.31473 21.8432L3.50623 19.6652C3.88793 19.2872 4.40341 19.0752 4.9406 19.0752C5.47779 19.0752 5.99327 19.2872 6.37498 19.6652ZM20.6692 32.0785C20.858 32.2648 21.0079 32.4867 21.1102 32.7314C21.2125 32.9761 21.2652 33.2386 21.2652 33.5039C21.2652 33.7691 21.2125 34.0317 21.1102 34.2763C21.0079 34.521 20.858 34.743 20.6692 34.9292L18.4777 37.1072C18.096 37.4852 17.5805 37.6973 17.0434 37.6973C16.5062 37.6973 15.9907 37.4852 15.609 37.1072C15.3095 36.8113 15.1109 36.4285 15.0415 36.0133C14.972 35.5981 15.0352 35.1715 15.222 34.7942L15.2242 34.7897C15.3226 34.5922 15.4525 34.4121 15.609 34.2565L17.8005 32.0785C18.1822 31.7005 18.6977 31.4885 19.2348 31.4885C19.772 31.4885 20.2875 31.7005 20.6692 32.0785ZM6.02397 4.86699C7.51803 3.38289 9.32965 2.25752 11.3221 1.57582C13.3146 0.894117 15.4359 0.673882 17.526 0.931736L11.955 5.15499C11.3742 5.59363 10.886 6.14293 10.5186 6.77121C10.1513 7.39948 9.91191 8.09429 9.81444 8.81554C9.71696 9.53679 9.76327 10.2702 9.9507 10.9735C10.1381 11.6767 10.463 12.3359 10.9065 12.913C11.8007 14.0786 13.1197 14.8433 14.5757 15.0401C16.0316 15.237 17.5063 14.8501 18.678 13.9637L22.467 11.095H31.8832L39.774 18.88L39.855 18.97L42.4425 21.5575C43.0245 22.1477 43.3581 22.9386 43.3744 23.7673C43.3907 24.5961 43.0885 25.3995 42.5301 26.0121C41.9718 26.6247 41.1997 26.9998 40.373 27.0602C39.5463 27.1205 38.7279 26.8615 38.0865 26.3365L37.8705 26.1205L37.7355 26.0035L35.2762 23.5465C35.1724 23.439 35.0483 23.3533 34.9111 23.2944C34.7738 23.2354 34.6262 23.2044 34.4768 23.2031C34.3274 23.2018 34.1793 23.2302 34.041 23.2868C33.9028 23.3434 33.7772 23.4269 33.6715 23.5325C33.5659 23.6382 33.4824 23.7638 33.4258 23.902C33.3692 24.0403 33.3408 24.1884 33.3421 24.3378C33.3434 24.4872 33.3744 24.6348 33.4334 24.7721C33.4923 24.9093 33.578 25.0335 33.6855 25.1372L36.273 27.7247C36.3675 27.8177 36.4635 27.907 36.561 27.9925L36.66 28.0915C36.8766 28.3035 37.0491 28.5564 37.1674 28.8356C37.2857 29.1147 37.3474 29.4146 37.349 29.7177C37.3507 30.0209 37.2922 30.3214 37.1769 30.6018C37.0616 30.8822 36.8919 31.1369 36.6775 31.3513C36.4632 31.5657 36.2084 31.7354 35.928 31.8507C35.6476 31.9659 35.3471 32.0244 35.044 32.0228C34.7408 32.0212 34.441 31.9594 34.1618 31.8411C33.8827 31.7229 33.6298 31.5504 33.4177 31.3337L33.0352 30.9535C32.8766 30.7952 32.6742 30.688 32.4542 30.6455C32.2342 30.603 32.0065 30.6271 31.8003 30.7149C31.5941 30.8026 31.4188 30.95 31.2969 31.138C31.1749 31.326 31.112 31.5462 31.116 31.7702C31.1127 31.9224 31.1403 32.0736 31.1972 32.2148C31.254 32.3559 31.3389 32.4841 31.4467 32.5915L31.9485 33.0932C32.1552 33.2879 32.3208 33.5221 32.4354 33.782C32.55 34.0419 32.6112 34.3221 32.6155 34.6061C32.6198 34.89 32.567 35.172 32.4603 35.4352C32.3536 35.6984 32.1951 35.9375 31.9943 36.1383C31.7935 36.3391 31.5544 36.4976 31.2912 36.6043C31.028 36.711 30.746 36.7638 30.4621 36.7595C30.1781 36.7552 29.8979 36.694 29.638 36.5794C29.3781 36.4648 29.1439 36.2993 28.9492 36.0925H28.947L28.92 36.0632L28.4475 35.5907C28.3435 35.4855 28.2196 35.4019 28.0831 35.3449C27.9466 35.2879 27.8001 35.2585 27.6521 35.2585C27.5041 35.2585 27.3576 35.2879 27.2211 35.3449C27.0846 35.4019 26.9607 35.4855 26.8567 35.5907C26.6458 35.8017 26.5273 36.0878 26.5273 36.3861C26.5273 36.6844 26.6458 36.9705 26.8567 37.1815L27.3472 37.6742C27.5492 37.8737 27.7099 38.111 27.8201 38.3725C27.9304 38.6341 27.9881 38.9148 27.9898 39.1986C27.9916 39.4824 27.9375 39.7638 27.8305 40.0267C27.7235 40.2896 27.5658 40.5289 27.3664 40.7309C27.1669 40.9328 26.9296 41.0935 26.6681 41.2038C26.4065 41.314 26.1258 41.3717 25.842 41.3735C25.5582 41.3753 25.2768 41.3211 25.0139 41.2141C24.7509 41.1071 24.5117 40.9494 24.3097 40.75L21.09 37.69L22.2712 36.5155C22.6691 36.1213 22.985 35.6523 23.2005 35.1353C23.4161 34.6184 23.5271 34.0639 23.5271 33.5039C23.5271 32.9438 23.4161 32.3893 23.2005 31.8724C22.985 31.3555 22.6691 30.8864 22.2712 30.4922C21.8508 30.0734 21.3479 29.7467 20.7943 29.5328C20.2408 29.319 19.6488 29.2228 19.056 29.2502C19.0822 28.6598 18.9844 28.0705 18.769 27.5202C18.5535 26.9699 18.2251 26.4709 17.805 26.0552C17.3849 25.6367 16.8823 25.3101 16.3291 25.0963C15.776 24.8825 15.1844 24.7861 14.592 24.8132C14.6179 24.2232 14.52 23.6343 14.3045 23.0844C14.0891 22.5345 13.7608 22.0358 13.341 21.6205C12.8065 21.0895 12.1419 20.7084 11.4137 20.5153C10.6855 20.3222 9.9193 20.3239 9.19197 20.5202C9.06695 19.5944 8.63893 18.736 7.97473 18.079C7.23452 17.3453 6.25336 16.9049 5.2132 16.8396C4.17304 16.7742 3.14447 17.0882 2.31823 17.7235C1.7877 15.4424 1.84972 13.0635 2.49836 10.8131C3.14701 8.56272 4.36071 6.51576 6.02397 4.86699Z" fill="url(#paint0_linear_2424_1430)"/>
<defs>
<linearGradient id="paint0_linear_2424_1430" x1="18.5" y1="-6" x2="47" y2="95" gradientUnits="userSpaceOnUse">
<stop stop-color="#226164"/>
<stop offset="0.364759" stop-color="#36C27F"/>
<stop offset="1" stop-color="#DFFAC7"/>
</linearGradient>
</defs>
</svg>
