<svg width="22" height="26" viewBox="0 0 22 26" fill="none" xmlns="http://www.w3.org/2000/svg">
<path d="M10.5327 0L0.0234375 4.66667V11.6667C0.0234375 18.1417 4.50738 24.1967 10.5327 25.6667C16.558 24.1967 21.0419 18.1417 21.0419 11.6667V4.66667L10.5327 0ZM10.5327 4.55C11.2255 4.55 11.9028 4.75527 12.4789 5.13986C13.055 5.52444 13.504 6.07107 13.7691 6.71061C14.0342 7.35015 14.1036 8.05388 13.9685 8.73282C13.8333 9.41175 13.4997 10.0354 13.0097 10.5249C12.5198 11.0144 11.8956 11.3477 11.2161 11.4827C10.5366 11.6178 9.83222 11.5485 9.19211 11.2836C8.55201 11.0187 8.0049 10.5701 7.61998 9.9945C7.23505 9.41892 7.0296 8.74224 7.0296 8.05C7.0296 7.12174 7.39867 6.2315 8.05563 5.57513C8.71258 4.91875 9.60361 4.55 10.5327 4.55ZM10.5327 13.7667C12.8681 13.7667 16.538 14.5 16.538 17.5C16.538 18.5 15.3571 19.6631 14.5084 20.1182C13.2859 20.7737 11.9201 21.1167 10.5327 21.1167C9.14529 21.1167 7.77947 20.7737 6.557 20.1182C5.68169 19.6489 4.5274 18.5 4.5274 17.5C4.5274 14.5 8.1973 13.7667 10.5327 13.7667Z" fill="#596059"/>
</svg>
