<svg width="29" height="17" viewBox="0 0 29 17" fill="none" xmlns="http://www.w3.org/2000/svg">
<path d="M26.1646 0.703125C25.734 0.703264 25.3093 0.803804 24.9242 0.996761C24.5392 1.18972 24.2045 1.46978 23.9466 1.81471C23.6887 2.15964 23.5148 2.55994 23.4386 2.98383C23.3625 3.40772 23.3862 3.84353 23.5079 4.25664L19.2094 8.55459C18.6425 8.36575 18.0296 8.36575 17.4627 8.55459L14.276 5.36787C14.3809 4.95868 14.3908 4.53093 14.305 4.11733C14.2192 3.70372 14.04 3.31521 13.781 2.9815C13.522 2.64779 13.1902 2.37771 12.8108 2.19192C12.4314 2.00613 12.0146 1.90954 11.5922 1.90954C11.1698 1.90954 10.753 2.00613 10.3736 2.19192C9.99427 2.37771 9.66241 2.64779 9.40344 2.9815C9.14447 3.31521 8.96523 3.70372 8.87943 4.11733C8.79363 4.53093 8.80354 4.95868 8.9084 5.36787L3.57873 10.6939C2.98702 10.5188 2.35381 10.5458 1.77919 10.7708C1.20457 10.9958 0.721313 11.4058 0.405806 11.9362C0.0903003 12.4665 -0.0394601 13.0869 0.0370354 13.6992C0.113531 14.3115 0.391919 14.8809 0.828197 15.3173C1.26448 15.7537 1.83376 16.0323 2.44606 16.109C3.05837 16.1857 3.67877 16.0561 4.20921 15.7408C4.73964 15.4254 5.14986 14.9423 5.37501 14.3678C5.60017 13.7932 5.62742 13.16 5.45246 12.5683L10.7147 7.30664C11.2816 7.49562 11.8944 7.49562 12.4613 7.30664L15.6486 10.494C15.5438 10.9032 15.5339 11.3309 15.6197 11.7445C15.7055 12.1581 15.8847 12.5466 16.1437 12.8803C16.4027 13.214 16.7345 13.4841 17.1139 13.6699C17.4932 13.8557 17.91 13.9523 18.3324 13.9523C18.7549 13.9523 19.1717 13.8557 19.551 13.6699C19.9304 13.4841 20.2622 13.214 20.5212 12.8803C20.7802 12.5466 20.9594 12.1581 21.0452 11.7445C21.131 11.3309 21.1211 10.9032 21.0163 10.494L25.3817 6.13097C25.7628 6.24341 26.1636 6.27255 26.557 6.21643C26.9503 6.1603 27.327 6.02022 27.6615 5.8057C27.9959 5.59117 28.2803 5.30721 28.4953 4.97309C28.7104 4.63897 28.8511 4.2625 28.9078 3.86923C28.9645 3.47595 28.936 3.07508 28.8241 2.6938C28.7123 2.31253 28.5197 1.95977 28.2596 1.65946C27.9994 1.35915 27.6776 1.11833 27.3162 0.95332C26.9547 0.788312 26.562 0.702984 26.1646 0.703125Z" fill="#596059"/>
</svg>
