<svg width="26" height="26" viewBox="0 0 26 26" fill="none" xmlns="http://www.w3.org/2000/svg">
<path d="M21.2408 11.588H14.2923C13.6604 11.588 13.0545 11.337 12.6077 10.8902C12.1609 10.4435 11.9099 9.83749 11.9099 9.20565V2.25712C11.9099 2.20447 11.889 2.15397 11.8518 2.11674C11.8145 2.07951 11.7641 2.05859 11.7114 2.05859H7.14522C6.30277 2.05859 5.49482 2.39326 4.89912 2.98896C4.30341 3.58466 3.96875 4.39261 3.96875 5.23506V21.1174C3.96875 21.9599 4.30341 22.7678 4.89912 23.3635C5.49482 23.9592 6.30277 24.2939 7.14522 24.2939H18.2629C19.1053 24.2939 19.9133 23.9592 20.509 23.3635C21.1047 22.7678 21.4393 21.9599 21.4393 21.1174V11.7865C21.4393 11.7339 21.4184 11.6834 21.3812 11.6462C21.344 11.6089 21.2935 11.588 21.2408 11.588ZM16.6746 19.5292H8.73346C8.52284 19.5292 8.32086 19.4455 8.17193 19.2966C8.023 19.1477 7.93934 18.9457 7.93934 18.7351C7.93934 18.5245 8.023 18.3225 8.17193 18.1735C8.32086 18.0246 8.52284 17.9409 8.73346 17.9409H16.6746C16.8852 17.9409 17.0872 18.0246 17.2362 18.1735C17.3851 18.3225 17.4688 18.5245 17.4688 18.7351C17.4688 18.9457 17.3851 19.1477 17.2362 19.2966C17.0872 19.4455 16.8852 19.5292 16.6746 19.5292ZM16.6746 15.5586H8.73346C8.52284 15.5586 8.32086 15.4749 8.17193 15.326C8.023 15.1771 7.93934 14.9751 7.93934 14.7645C7.93934 14.5539 8.023 14.3519 8.17193 14.2029C8.32086 14.054 8.52284 13.9704 8.73346 13.9704H16.6746C16.8852 13.9704 17.0872 14.054 17.2362 14.2029C17.3851 14.3519 17.4688 14.5539 17.4688 14.7645C17.4688 14.9751 17.3851 15.1771 17.2362 15.326C17.0872 15.4749 16.8852 15.5586 16.6746 15.5586Z" fill="#596059"/>
<path d="M20.8069 9.83056L13.6692 2.69293C13.6554 2.67913 13.6377 2.66974 13.6185 2.66595C13.5993 2.66215 13.5794 2.66412 13.5613 2.6716C13.5432 2.67907 13.5278 2.69173 13.5169 2.70798C13.5059 2.72423 13.5001 2.74334 13.5 2.76291V9.20569C13.5 9.4163 13.5837 9.61829 13.7326 9.76721C13.8815 9.91614 14.0835 9.9998 14.2941 9.9998H20.7369C20.7565 9.99972 20.7756 9.99386 20.7918 9.98294C20.8081 9.97203 20.8207 9.95656 20.8282 9.93847C20.8357 9.92038 20.8377 9.90049 20.8339 9.88129C20.8301 9.86209 20.8207 9.84444 20.8069 9.83056Z" fill="#596059"/>
</svg>
