<svg width="19" height="21" viewBox="0 0 19 21" fill="none" xmlns="http://www.w3.org/2000/svg">
<path d="M9.75741 0.537109C8.40889 0.537109 7.1156 1.07281 6.16206 2.02635C5.20851 2.9799 4.67282 4.27318 4.67282 5.6217C4.67282 6.97022 5.20851 8.2635 6.16206 9.21705C7.1156 10.1706 8.40889 10.7063 9.75741 10.7063C11.1059 10.7063 12.3992 10.1706 13.3528 9.21705C14.3063 8.2635 14.842 6.97022 14.842 5.6217C14.842 4.27318 14.3063 2.9799 13.3528 2.02635C12.3992 1.07281 11.1059 0.537109 9.75741 0.537109ZM3.41311 11.9774C3.07829 11.9759 2.74647 12.0406 2.4367 12.1677C2.12694 12.2948 1.84532 12.4818 1.60804 12.718C1.37075 12.9542 1.18246 13.235 1.05398 13.5442C0.925507 13.8534 0.859372 14.1849 0.859375 14.5197C0.859375 16.6692 1.91824 18.29 3.57328 19.3463C5.20289 20.3848 7.39943 20.8755 9.75741 20.8755C12.1154 20.8755 14.3119 20.3848 15.9415 19.3463C17.5966 18.2912 18.6554 16.668 18.6554 14.5197C18.6554 13.8455 18.3876 13.1988 17.9108 12.7221C17.434 12.2453 16.7874 11.9774 16.1131 11.9774H3.41311Z" fill="#596059"/>
</svg>
