<svg width="28" height="29" viewBox="0 0 28 29" fill="none" xmlns="http://www.w3.org/2000/svg">
<path d="M6.74936 20.5935C7.73065 19.8431 8.82739 19.2516 10.0396 18.8191C11.2518 18.3865 12.5217 18.1699 13.8493 18.1691C15.1769 18.1683 16.4468 18.385 17.659 18.8191C18.8712 19.2531 19.9679 19.8446 20.9492 20.5935C21.6226 19.8046 22.1472 18.9099 22.5227 17.9094C22.8983 16.9088 23.0857 15.8409 23.085 14.7057C23.085 12.1467 22.1856 9.96744 20.387 8.16802C18.5883 6.36861 16.4091 5.46928 13.8493 5.47005C11.2895 5.47082 9.11023 6.37053 7.31158 8.16918C5.51293 9.96783 4.61361 12.1467 4.61361 14.7057C4.61361 15.8409 4.8014 16.9088 5.17698 17.9094C5.55257 18.9099 6.07669 19.8046 6.74936 20.5935ZM13.8493 15.8602C12.7141 15.8602 11.7566 15.4708 10.977 14.6919C10.1973 13.913 9.80791 12.9556 9.80868 11.8196C9.80945 10.6836 10.1993 9.72616 10.9781 8.94728C11.757 8.16841 12.7141 7.77897 13.8493 7.77897C14.9845 7.77897 15.9419 8.16879 16.7216 8.94844C17.5012 9.72808 17.8907 10.6851 17.8899 11.8196C17.8891 12.954 17.4997 13.9115 16.7216 14.6919C15.9435 15.4723 14.986 15.8617 13.8493 15.8602ZM13.8493 26.2503C12.2523 26.2503 10.7515 25.9471 9.34689 25.3406C7.9423 24.7341 6.7205 23.9118 5.68148 22.8735C4.64247 21.8353 3.82011 20.6135 3.2144 19.2081C2.6087 17.8028 2.30546 16.302 2.30469 14.7057C2.30392 13.1095 2.60716 11.6087 3.2144 10.2033C3.82165 8.79797 4.64401 7.57617 5.68148 6.53793C6.71896 5.49968 7.94076 4.67732 9.34689 4.07085C10.753 3.46437 12.2538 3.16113 13.8493 3.16113C15.4447 3.16113 16.9455 3.46437 18.3517 4.07085C19.7578 4.67732 20.9796 5.49968 22.0171 6.53793C23.0546 7.57617 23.8773 8.79797 24.4853 10.2033C25.0933 11.6087 25.3962 13.1095 25.3939 14.7057C25.3916 16.302 25.0883 17.8028 24.4842 19.2081C23.88 20.6135 23.0576 21.8353 22.0171 22.8735C20.9765 23.9118 19.7547 24.7345 18.3517 25.3418C16.9486 25.949 15.4478 26.2519 13.8493 26.2503Z" fill="#596059"/>
</svg>
