<svg width="30" height="30" viewBox="0 0 30 30" fill="none" xmlns="http://www.w3.org/2000/svg">
<path d="M14.9727 11.2278H21.2105H24.9532V14.9705V21.2083V24.9509H21.2105H14.9727H11.23V21.2083V14.9705V11.2278H14.9727ZM21.2105 13.7229H14.9727H13.7251V14.9705V21.2083V22.4558H14.9727H21.2105H22.458V21.2083V14.9705V13.7229H21.2105ZM8.73486 4.86523H14.9727H18.7154V8.73265V9.98024H16.2202V8.73265V7.48511H14.9727H8.73486H7.48732V8.73265V14.9705V16.218H8.73486H9.98246V18.7131H8.73486H4.99219L4.99217 14.9705L4.99219 8.73265V4.86523H8.73486Z" fill="#596059"/>
<circle cx="12.7063" cy="12.7024" r="2.72195" fill="#596059"/>
<circle cx="23.5891" cy="12.7024" r="2.72195" fill="#596059"/>
<circle cx="23.5891" cy="23.5901" r="2.72195" fill="#596059"/>
<circle cx="12.7063" cy="23.5901" r="2.72195" fill="#596059"/>
<circle cx="6.35476" cy="17.2385" r="2.72195" fill="#596059"/>
<circle cx="6.35476" cy="6.35085" r="2.72195" fill="#596059"/>
<circle cx="17.2376" cy="6.35085" r="2.72195" fill="#596059"/>
</svg>
