<svg width="28" height="22" viewBox="0 0 28 22" fill="none" xmlns="http://www.w3.org/2000/svg">
<path d="M24.5 14.5C23.712 15.4005 21.0667 16.7268 18 17H13.5" stroke="#596059" stroke-width="2.37931" stroke-linecap="round"/>
<rect x="4.45238" y="2.95238" width="18.0952" height="18.0952" rx="8.97243" stroke="#596059" stroke-width="1.90476"/>
<path d="M24 11.5V11.5C24 5.74461 19.2554 1 13.5 1V1C7.74461 1 3 5.74461 3 11.5V11.5" stroke="#596059" stroke-width="2"/>
<rect x="10" y="6" width="6" height="6" rx="3" fill="#596059"/>
<path d="M0 10.3333C0 9.04467 1.04467 8 2.33333 8H4.66667L5.25 16H2.33333C1.04467 16 0 14.9553 0 13.6667V10.3333Z" fill="#596059"/>
<path d="M27.25 11C27.25 9.34315 25.9069 8 24.25 8H22.5833L22 16H24.25C25.9069 16 27.25 14.6569 27.25 13V11Z" fill="#596059"/>
</svg>
